%TF.GenerationSoftware,KiCad,Pcbnew,9.0.6*%
%TF.CreationDate,2026-01-04T20:51:54+00:00*%
%TF.ProjectId,COMET1_PWR_Board,434f4d45-5431-45f5-9057-525f426f6172,rev?*%
%TF.SameCoordinates,Original*%
%TF.FileFunction,Legend,Bot*%
%TF.FilePolarity,Positive*%
%FSLAX46Y46*%
G04 Gerber Fmt 4.6, Leading zero omitted, Abs format (unit mm)*
G04 Created by KiCad (PCBNEW 9.0.6) date 2026-01-04 20:51:54*
%MOMM*%
%LPD*%
G01*
G04 APERTURE LIST*
%ADD10C,0.000000*%
G04 APERTURE END LIST*
D10*
%TO.C,G\u002A\u002A\u002A*%
G36*
X131876650Y-93662462D02*
G01*
X131828030Y-93894106D01*
X131747155Y-94174409D01*
X131637145Y-94492739D01*
X131501120Y-94838462D01*
X131486566Y-94873472D01*
X131409104Y-95060220D01*
X131340970Y-95225128D01*
X131289076Y-95351431D01*
X131260337Y-95422361D01*
X131259243Y-95425127D01*
X131236510Y-95472034D01*
X131213794Y-95474301D01*
X131180503Y-95423004D01*
X131126046Y-95309220D01*
X131080619Y-95217442D01*
X131035514Y-95141250D01*
X131010928Y-95119123D01*
X131005430Y-95129242D01*
X130976809Y-95199222D01*
X130929800Y-95323591D01*
X130869433Y-95488887D01*
X130800738Y-95681648D01*
X130765001Y-95780964D01*
X130668686Y-96036396D01*
X130556374Y-96321903D01*
X130439255Y-96609315D01*
X130328520Y-96870462D01*
X130260060Y-97029457D01*
X130161651Y-97263321D01*
X130071742Y-97482840D01*
X129998087Y-97668992D01*
X129948441Y-97802756D01*
X129848871Y-98090282D01*
X129779123Y-97900449D01*
X129744711Y-97811029D01*
X129682091Y-97655691D01*
X129605674Y-97471168D01*
X129525019Y-97280769D01*
X129488344Y-97195121D01*
X129300797Y-96751802D01*
X129143778Y-96370341D01*
X129014401Y-96043476D01*
X128909780Y-95763946D01*
X128827029Y-95524489D01*
X128785487Y-95403592D01*
X128731151Y-95262002D01*
X128685915Y-95162579D01*
X128656664Y-95121606D01*
X128629809Y-95139058D01*
X128587505Y-95213624D01*
X128544012Y-95328638D01*
X128509354Y-95426528D01*
X128477083Y-95492078D01*
X128458822Y-95497060D01*
X128446733Y-95464597D01*
X128407075Y-95369384D01*
X128347988Y-95232929D01*
X128277052Y-95072923D01*
X128206419Y-94906530D01*
X128115873Y-94676582D01*
X128024741Y-94430757D01*
X127944857Y-94200146D01*
X127932430Y-94162447D01*
X127866488Y-93954873D01*
X127823546Y-93798646D01*
X127799825Y-93674821D01*
X127797437Y-93642984D01*
X128075531Y-93642984D01*
X128093050Y-93745815D01*
X128132018Y-93899267D01*
X128185822Y-94075314D01*
X128262597Y-94289091D01*
X128341215Y-94478539D01*
X128471538Y-94763385D01*
X128641776Y-94361308D01*
X128689489Y-94244333D01*
X128740408Y-94093733D01*
X129090824Y-94093733D01*
X129090945Y-94270996D01*
X129125570Y-94489207D01*
X129194738Y-94762936D01*
X129239412Y-94913606D01*
X129308226Y-95125448D01*
X129377088Y-95318252D01*
X129436236Y-95463692D01*
X129454928Y-95505365D01*
X129529505Y-95678068D01*
X129612612Y-95877838D01*
X129689495Y-96069385D01*
X129726320Y-96162851D01*
X129780324Y-96297898D01*
X129819271Y-96392656D01*
X129836539Y-96430846D01*
X129853715Y-96432299D01*
X129883360Y-96393154D01*
X129897846Y-96332401D01*
X129897847Y-96332293D01*
X129913011Y-96275941D01*
X129954046Y-96164503D01*
X130014708Y-96014058D01*
X130088754Y-95840683D01*
X130192548Y-95599209D01*
X130338328Y-95236242D01*
X130447414Y-94926550D01*
X130522383Y-94661697D01*
X130565814Y-94433249D01*
X130580286Y-94232769D01*
X130578020Y-94073818D01*
X130565611Y-93956707D01*
X130538070Y-93870897D01*
X130490478Y-93792269D01*
X130488902Y-93790070D01*
X130344929Y-93647914D01*
X130835692Y-93647914D01*
X130837514Y-93681596D01*
X130865056Y-93826804D01*
X130922648Y-94023095D01*
X130997869Y-94232769D01*
X131006337Y-94256372D01*
X131007808Y-94260176D01*
X131076660Y-94431450D01*
X131138675Y-94573461D01*
X131187105Y-94671528D01*
X131215203Y-94710965D01*
X131235554Y-94692847D01*
X131277711Y-94615258D01*
X131333041Y-94491110D01*
X131395739Y-94335921D01*
X131460003Y-94165209D01*
X131520030Y-93994491D01*
X131570016Y-93839285D01*
X131604159Y-93715109D01*
X131616655Y-93637480D01*
X131595690Y-93501198D01*
X131513241Y-93368703D01*
X131371854Y-93286143D01*
X131255888Y-93259462D01*
X131086105Y-93269395D01*
X130953232Y-93341662D01*
X130866639Y-93469942D01*
X130835692Y-93647914D01*
X130344929Y-93647914D01*
X130338521Y-93641587D01*
X130148784Y-93543692D01*
X129936331Y-93496199D01*
X129717804Y-93498927D01*
X129509845Y-93551691D01*
X129329094Y-93654307D01*
X129280294Y-93708591D01*
X129192194Y-93806592D01*
X129125169Y-93942849D01*
X129090824Y-94093733D01*
X128740408Y-94093733D01*
X128789377Y-93948900D01*
X128835971Y-93708591D01*
X128829447Y-93522062D01*
X128769982Y-93387969D01*
X128666357Y-93300376D01*
X128507815Y-93257072D01*
X128316673Y-93279973D01*
X128271787Y-93294234D01*
X128176818Y-93353848D01*
X128112682Y-93462350D01*
X128100555Y-93492314D01*
X128078390Y-93566557D01*
X128075531Y-93642984D01*
X127797437Y-93642984D01*
X127791546Y-93564452D01*
X127794929Y-93448594D01*
X127800526Y-93375182D01*
X127820535Y-93249584D01*
X127858981Y-93159656D01*
X127926270Y-93075865D01*
X128073588Y-92956388D01*
X128286391Y-92866981D01*
X128519508Y-92842546D01*
X128755085Y-92887148D01*
X128773069Y-92893113D01*
X128854699Y-92906750D01*
X128941539Y-92888444D01*
X129063762Y-92832891D01*
X129172006Y-92781986D01*
X129410959Y-92692374D01*
X129642697Y-92632735D01*
X129839231Y-92611077D01*
X129924166Y-92615857D01*
X130142146Y-92656545D01*
X130382976Y-92732286D01*
X130619282Y-92835213D01*
X130667497Y-92859092D01*
X130773076Y-92902007D01*
X130852256Y-92910434D01*
X130934672Y-92889471D01*
X131124497Y-92850269D01*
X131352574Y-92860695D01*
X131563467Y-92926041D01*
X131630610Y-92965262D01*
X131769693Y-93105460D01*
X131859056Y-93292877D01*
X131890284Y-93512414D01*
X131878920Y-93637480D01*
X131876650Y-93662462D01*
G37*
G36*
X138094231Y-86445009D02*
G01*
X139647538Y-86456462D01*
X139862462Y-86577748D01*
X139889891Y-86593832D01*
X140074509Y-86731976D01*
X140241799Y-86904446D01*
X140373468Y-87089835D01*
X140451221Y-87266735D01*
X140453860Y-87277166D01*
X140472741Y-87405460D01*
X140482033Y-87574147D01*
X140479749Y-87749599D01*
X140474511Y-87833353D01*
X140454620Y-87996789D01*
X140419266Y-88122225D01*
X140361578Y-88238061D01*
X140266562Y-88379080D01*
X140055318Y-88595228D01*
X139784308Y-88768898D01*
X139569385Y-88878906D01*
X138551511Y-88898607D01*
X138273193Y-88904330D01*
X138021304Y-88910781D01*
X137829074Y-88917955D01*
X137686659Y-88926676D01*
X137584215Y-88937769D01*
X137511900Y-88952059D01*
X137459869Y-88970369D01*
X137418280Y-88993525D01*
X137386840Y-89014568D01*
X137284133Y-89098361D01*
X137204905Y-89200113D01*
X137125792Y-89348154D01*
X137093287Y-89426927D01*
X137053146Y-89650173D01*
X137082032Y-89869479D01*
X137174348Y-90070698D01*
X137324501Y-90239683D01*
X137526894Y-90362289D01*
X137548299Y-90370322D01*
X137605722Y-90385150D01*
X137685485Y-90396994D01*
X137795559Y-90406164D01*
X137943919Y-90412970D01*
X138138537Y-90417723D01*
X138387386Y-90420733D01*
X138698439Y-90422312D01*
X139079668Y-90422769D01*
X140487692Y-90422769D01*
X140487692Y-90659768D01*
X140487692Y-90896766D01*
X139012538Y-90884460D01*
X138855031Y-90883133D01*
X138504519Y-90879921D01*
X138220537Y-90876543D01*
X137994736Y-90872490D01*
X137818768Y-90867252D01*
X137684287Y-90860318D01*
X137582944Y-90851179D01*
X137506391Y-90839324D01*
X137446282Y-90824242D01*
X137394267Y-90805425D01*
X137342000Y-90782361D01*
X137219602Y-90715173D01*
X137024875Y-90568358D01*
X136853486Y-90393914D01*
X136731454Y-90215978D01*
X136660817Y-90045869D01*
X136606537Y-89764331D01*
X136618100Y-89477419D01*
X136692499Y-89200646D01*
X136826725Y-88949526D01*
X137017769Y-88739572D01*
X137020520Y-88737253D01*
X137119264Y-88656975D01*
X137210581Y-88593322D01*
X137305167Y-88544129D01*
X137413719Y-88507230D01*
X137546936Y-88480460D01*
X137715514Y-88461654D01*
X137930152Y-88448645D01*
X138201545Y-88439270D01*
X138540391Y-88431362D01*
X139543398Y-88410308D01*
X139712699Y-88292554D01*
X139736800Y-88275187D01*
X139906230Y-88106199D01*
X140012242Y-87908929D01*
X140055747Y-87696832D01*
X140037658Y-87483363D01*
X139958887Y-87281975D01*
X139820348Y-87106124D01*
X139622951Y-86969264D01*
X139417270Y-86866769D01*
X137979097Y-86866769D01*
X136540923Y-86866769D01*
X136540923Y-86650163D01*
X136540923Y-86433557D01*
X138094231Y-86445009D01*
G37*
G36*
X129966277Y-78643641D02*
G01*
X130017207Y-78747510D01*
X130144807Y-79033521D01*
X130247016Y-79312657D01*
X130330148Y-79606174D01*
X130400512Y-79935331D01*
X130464421Y-80321385D01*
X130468226Y-80348059D01*
X130480320Y-80452411D01*
X130490592Y-80578513D01*
X130499172Y-80732634D01*
X130506191Y-80921040D01*
X130511780Y-81149997D01*
X130516069Y-81425772D01*
X130519190Y-81754631D01*
X130521273Y-82142842D01*
X130522448Y-82596670D01*
X130522847Y-83122383D01*
X130523077Y-85532613D01*
X130746061Y-85578904D01*
X130820391Y-85596252D01*
X130939555Y-85640012D01*
X131048203Y-85710894D01*
X131175935Y-85825905D01*
X131193619Y-85843208D01*
X131318608Y-85981656D01*
X131404598Y-86121226D01*
X131475760Y-86300154D01*
X131525208Y-86455293D01*
X131569148Y-86610989D01*
X131596121Y-86727632D01*
X131623549Y-86881572D01*
X131459767Y-86733604D01*
X131402231Y-86685582D01*
X131247819Y-86577513D01*
X131095146Y-86492123D01*
X131086689Y-86488189D01*
X131032615Y-86464043D01*
X130979567Y-86444677D01*
X130918747Y-86429561D01*
X130841358Y-86418164D01*
X130738601Y-86409958D01*
X130601679Y-86404412D01*
X130421794Y-86400996D01*
X130190149Y-86399179D01*
X129897945Y-86398434D01*
X129536385Y-86398228D01*
X129534411Y-86398227D01*
X129117187Y-86396991D01*
X128777386Y-86393543D01*
X128514311Y-86387862D01*
X128327263Y-86379927D01*
X128215546Y-86369718D01*
X128178462Y-86357212D01*
X128186613Y-86318887D01*
X128228226Y-86219971D01*
X128293551Y-86096174D01*
X128369499Y-85971589D01*
X128442980Y-85870308D01*
X128563319Y-85747100D01*
X128732296Y-85641543D01*
X128947290Y-85575813D01*
X129150023Y-85533726D01*
X129166536Y-82908017D01*
X129167026Y-82829830D01*
X129170351Y-82303584D01*
X129173617Y-81847856D01*
X129177347Y-81455933D01*
X129182065Y-81121104D01*
X129188294Y-80836657D01*
X129196556Y-80595882D01*
X129207375Y-80392066D01*
X129221273Y-80218497D01*
X129238773Y-80068464D01*
X129260399Y-79935256D01*
X129286674Y-79812161D01*
X129318120Y-79692467D01*
X129355260Y-79569462D01*
X129398617Y-79436435D01*
X129448715Y-79286674D01*
X129490017Y-79169076D01*
X129568435Y-78967255D01*
X129648569Y-78782477D01*
X129718306Y-78643641D01*
X129850370Y-78411744D01*
X129966277Y-78643641D01*
G37*
G36*
X132633231Y-87682051D02*
G01*
X132633471Y-87820659D01*
X132635724Y-88130166D01*
X132640099Y-88418738D01*
X132646285Y-88674931D01*
X132653972Y-88887303D01*
X132662849Y-89044409D01*
X132672607Y-89134807D01*
X132769102Y-89464894D01*
X132927296Y-89762286D01*
X133137034Y-90010319D01*
X133390378Y-90204215D01*
X133679388Y-90339200D01*
X133996125Y-90410498D01*
X134332651Y-90413334D01*
X134681025Y-90342931D01*
X134757980Y-90317409D01*
X134901155Y-90253943D01*
X135033788Y-90165220D01*
X135185313Y-90033157D01*
X135416999Y-89775458D01*
X135584489Y-89488479D01*
X135680642Y-89176743D01*
X135685478Y-89141656D01*
X135694849Y-89017007D01*
X135703200Y-88831079D01*
X135710227Y-88595224D01*
X135715624Y-88320790D01*
X135719086Y-88019128D01*
X135720308Y-87701589D01*
X135720308Y-86436923D01*
X135935231Y-86436923D01*
X136150154Y-86436923D01*
X136150154Y-87973369D01*
X136150140Y-88077849D01*
X136149528Y-88481523D01*
X136147288Y-88816901D01*
X136142447Y-89091981D01*
X136134028Y-89314760D01*
X136121056Y-89493235D01*
X136102556Y-89635405D01*
X136077550Y-89749266D01*
X136045065Y-89842816D01*
X136004124Y-89924053D01*
X135953752Y-90000973D01*
X135892973Y-90081576D01*
X135846187Y-90139136D01*
X135574399Y-90400443D01*
X135247268Y-90610804D01*
X134870627Y-90767046D01*
X134450308Y-90865999D01*
X134387876Y-90873736D01*
X134136390Y-90876009D01*
X133852420Y-90843878D01*
X133562372Y-90782561D01*
X133292651Y-90697274D01*
X133069664Y-90593234D01*
X132904035Y-90481734D01*
X132682076Y-90289149D01*
X132488172Y-90072736D01*
X132345566Y-89856154D01*
X132222923Y-89621692D01*
X132211506Y-88029308D01*
X132200089Y-86436923D01*
X132416660Y-86436923D01*
X132633231Y-86436923D01*
X132633231Y-87682051D01*
G37*
G36*
X130233165Y-77798823D02*
G01*
X130801160Y-77887750D01*
X131476569Y-78057612D01*
X132158195Y-78295304D01*
X132836938Y-78597156D01*
X133503699Y-78959497D01*
X134149378Y-79378657D01*
X134246386Y-79448560D01*
X134359683Y-79534728D01*
X134433796Y-79597009D01*
X134456089Y-79625245D01*
X134433408Y-79620181D01*
X134355679Y-79582710D01*
X134237237Y-79517123D01*
X134092710Y-79431232D01*
X133747733Y-79227449D01*
X133054871Y-78864783D01*
X132367783Y-78569881D01*
X131674950Y-78338081D01*
X130964856Y-78164718D01*
X130817007Y-78140381D01*
X130535569Y-78112145D01*
X130209994Y-78095630D01*
X129860448Y-78090677D01*
X129507099Y-78097124D01*
X129170113Y-78114813D01*
X128869657Y-78143582D01*
X128625896Y-78183273D01*
X128560323Y-78197698D01*
X127748423Y-78419206D01*
X126957184Y-78714713D01*
X126193088Y-79081489D01*
X125462615Y-79516799D01*
X125346345Y-79592148D01*
X125215349Y-79673688D01*
X125118784Y-79729821D01*
X125071846Y-79751421D01*
X125061608Y-79749864D01*
X125075985Y-79720411D01*
X125145207Y-79658757D01*
X125260418Y-79570842D01*
X125412764Y-79462607D01*
X125593391Y-79339991D01*
X125793442Y-79208934D01*
X126004064Y-79075375D01*
X126216402Y-78945255D01*
X126421602Y-78824512D01*
X126610807Y-78719088D01*
X127130423Y-78461661D01*
X127685821Y-78231415D01*
X128239601Y-78045599D01*
X128781493Y-77906824D01*
X129301230Y-77817697D01*
X129788543Y-77780827D01*
X130233165Y-77798823D01*
G37*
G36*
X129399615Y-86945781D02*
G01*
X129661518Y-86946104D01*
X130007130Y-86947801D01*
X130287892Y-86952188D01*
X130511879Y-86960660D01*
X130687170Y-86974614D01*
X130821841Y-86995446D01*
X130923970Y-87024554D01*
X131001634Y-87063335D01*
X131062909Y-87113184D01*
X131115874Y-87175499D01*
X131168605Y-87251676D01*
X131172713Y-87257943D01*
X131271643Y-87475496D01*
X131294996Y-87699373D01*
X131243396Y-87918934D01*
X131117466Y-88123537D01*
X131068195Y-88179169D01*
X131004722Y-88237211D01*
X130931567Y-88282414D01*
X130838947Y-88316676D01*
X130717082Y-88341890D01*
X130556190Y-88359954D01*
X130346490Y-88372763D01*
X130078200Y-88382211D01*
X129741538Y-88390196D01*
X129543111Y-88394435D01*
X129281420Y-88400667D01*
X129080465Y-88407174D01*
X128929523Y-88415076D01*
X128817870Y-88425494D01*
X128734784Y-88439547D01*
X128669542Y-88458356D01*
X128611419Y-88483042D01*
X128549692Y-88514725D01*
X128481468Y-88554378D01*
X128336991Y-88655676D01*
X128219642Y-88758511D01*
X128171526Y-88807831D01*
X128104494Y-88873175D01*
X128073104Y-88898769D01*
X128070454Y-88874088D01*
X128067473Y-88781154D01*
X128064933Y-88629000D01*
X128062961Y-88428088D01*
X128061685Y-88188883D01*
X128061231Y-87921846D01*
X128061231Y-86944923D01*
X129399615Y-86945781D01*
G37*
G36*
X131617231Y-89401792D02*
G01*
X131617231Y-90383692D01*
X130291159Y-90383692D01*
X129926073Y-90382632D01*
X129579510Y-90379079D01*
X129295147Y-90373136D01*
X129076966Y-90364921D01*
X128928951Y-90354547D01*
X128855082Y-90342129D01*
X128830025Y-90331466D01*
X128698801Y-90248043D01*
X128571364Y-90132072D01*
X128481603Y-90013381D01*
X128471775Y-89994488D01*
X128406545Y-89785362D01*
X128404793Y-89564695D01*
X128463878Y-89354657D01*
X128581161Y-89177417D01*
X128653611Y-89105286D01*
X128727627Y-89047064D01*
X128811180Y-89004109D01*
X128915704Y-88974121D01*
X129052632Y-88954801D01*
X129233399Y-88943848D01*
X129469438Y-88938963D01*
X129772183Y-88937846D01*
X129933440Y-88937492D01*
X130268110Y-88933011D01*
X130539844Y-88921555D01*
X130759306Y-88900829D01*
X130937163Y-88868539D01*
X131084080Y-88822392D01*
X131210724Y-88760092D01*
X131327760Y-88679347D01*
X131445853Y-88577863D01*
X131617231Y-88419892D01*
X131617231Y-89401792D01*
G37*
G36*
X128258506Y-90592894D02*
G01*
X128330958Y-90656931D01*
X128420131Y-90728949D01*
X128508871Y-90787100D01*
X128605910Y-90832865D01*
X128719979Y-90867723D01*
X128859810Y-90893157D01*
X129034135Y-90910646D01*
X129251685Y-90921671D01*
X129521192Y-90927713D01*
X129851388Y-90930252D01*
X130251004Y-90930769D01*
X131617231Y-90930769D01*
X131617231Y-91736082D01*
X131617231Y-92541396D01*
X131529308Y-92520524D01*
X131326995Y-92474805D01*
X130915729Y-92395169D01*
X130517293Y-92334793D01*
X130151767Y-92296500D01*
X129839231Y-92283108D01*
X129692277Y-92286453D01*
X129350979Y-92312534D01*
X128966639Y-92362120D01*
X128559337Y-92432390D01*
X128149154Y-92520524D01*
X128061231Y-92541396D01*
X128061231Y-91478461D01*
X128061231Y-90415527D01*
X128258506Y-90592894D01*
G37*
G36*
X127436000Y-89172308D02*
G01*
X127436000Y-90891692D01*
X127201538Y-90891692D01*
X126967077Y-90891692D01*
X126967077Y-89797538D01*
X126967077Y-88703385D01*
X125462615Y-88703385D01*
X123958154Y-88703385D01*
X123958154Y-88488462D01*
X123958154Y-88273538D01*
X125462615Y-88273538D01*
X126967077Y-88273538D01*
X126967077Y-87863231D01*
X126967077Y-87452923D01*
X127201538Y-87452923D01*
X127436000Y-87452923D01*
X127436000Y-89172308D01*
G37*
G36*
X127436000Y-86651846D02*
G01*
X127436000Y-86866769D01*
X125462615Y-86866769D01*
X123489231Y-86866769D01*
X123489231Y-86651846D01*
X123489231Y-86436923D01*
X125462615Y-86436923D01*
X127436000Y-86436923D01*
X127436000Y-86651846D01*
G37*
%TO.C,REF\u002A\u002A*%
G36*
X167811028Y-88026051D02*
G01*
X167811003Y-88035742D01*
X167783599Y-88712927D01*
X167706190Y-89380202D01*
X167579535Y-90035157D01*
X167404390Y-90675388D01*
X167181511Y-91298486D01*
X166911655Y-91902046D01*
X166595580Y-92483661D01*
X166234042Y-93040923D01*
X166185349Y-93109289D01*
X165763535Y-93652583D01*
X165308274Y-94156631D01*
X164821427Y-94620417D01*
X164304857Y-95042923D01*
X163760425Y-95423133D01*
X163189993Y-95760029D01*
X162595422Y-96052594D01*
X162174351Y-96221350D01*
X161978574Y-96299813D01*
X161341310Y-96500667D01*
X160685492Y-96654139D01*
X160012982Y-96759213D01*
X159325641Y-96814872D01*
X159321053Y-96815070D01*
X159165801Y-96818203D01*
X158974473Y-96816797D01*
X158762315Y-96811359D01*
X158544575Y-96802396D01*
X158336499Y-96790414D01*
X158153334Y-96775920D01*
X157689914Y-96719805D01*
X157040033Y-96598071D01*
X156889275Y-96557846D01*
X157879795Y-96557846D01*
X157892821Y-96570872D01*
X157904309Y-96559383D01*
X158010051Y-96559383D01*
X158014938Y-96564830D01*
X158050666Y-96570872D01*
X158069257Y-96567051D01*
X158074917Y-96544395D01*
X158063490Y-96534525D01*
X158029141Y-96535067D01*
X158011258Y-96557846D01*
X158010051Y-96559383D01*
X157904309Y-96559383D01*
X157905846Y-96557846D01*
X157892821Y-96544820D01*
X157879795Y-96557846D01*
X156889275Y-96557846D01*
X156407080Y-96429187D01*
X155793069Y-96215023D01*
X155683969Y-96167638D01*
X156238564Y-96167638D01*
X156252161Y-96181545D01*
X156297180Y-96203479D01*
X156400886Y-96236630D01*
X156476803Y-96241494D01*
X156540122Y-96215097D01*
X156607143Y-96154883D01*
X156642904Y-96120846D01*
X156715273Y-96067005D01*
X156776476Y-96038503D01*
X156825179Y-96018553D01*
X156902529Y-95947532D01*
X156970417Y-95835666D01*
X157024999Y-95689960D01*
X157062433Y-95517416D01*
X157067841Y-95480106D01*
X157084258Y-95344731D01*
X157094383Y-95222938D01*
X157097813Y-95124206D01*
X157094145Y-95058016D01*
X157082977Y-95033846D01*
X157070081Y-95036136D01*
X157014311Y-95067366D01*
X156939979Y-95128063D01*
X156856661Y-95209139D01*
X156773934Y-95301503D01*
X156701373Y-95396065D01*
X156678315Y-95429946D01*
X156618545Y-95521537D01*
X156549544Y-95630983D01*
X156476612Y-95749444D01*
X156405053Y-95868083D01*
X156340166Y-95978060D01*
X156287255Y-96070537D01*
X156251621Y-96136676D01*
X156238564Y-96167638D01*
X155683969Y-96167638D01*
X155200015Y-95957444D01*
X154629931Y-95658317D01*
X154084831Y-95319511D01*
X153566730Y-94942892D01*
X153077641Y-94530328D01*
X152619578Y-94083685D01*
X152194556Y-93604831D01*
X151804588Y-93095633D01*
X151451689Y-92557958D01*
X151137873Y-91993674D01*
X150865153Y-91404648D01*
X150635543Y-90792746D01*
X150451058Y-90159837D01*
X150313712Y-89507787D01*
X150287957Y-89352169D01*
X150248032Y-89076832D01*
X150219571Y-88818547D01*
X150201173Y-88560109D01*
X150191440Y-88284312D01*
X150188972Y-87973949D01*
X150192218Y-87807750D01*
X150368899Y-87807750D01*
X150385068Y-88327208D01*
X150411550Y-88790022D01*
X150491903Y-89444614D01*
X150622240Y-90085085D01*
X150802751Y-90712072D01*
X151033628Y-91326210D01*
X151315063Y-91928137D01*
X151647249Y-92518489D01*
X151684259Y-92578342D01*
X151755270Y-92689371D01*
X151816238Y-92779790D01*
X151861637Y-92841539D01*
X151885939Y-92866561D01*
X151894957Y-92857998D01*
X151902968Y-92809062D01*
X151905770Y-92726565D01*
X151903944Y-92621197D01*
X151898070Y-92503649D01*
X151888729Y-92384609D01*
X151876500Y-92274767D01*
X151861964Y-92184813D01*
X151845702Y-92125437D01*
X151841701Y-92113926D01*
X151826911Y-92045179D01*
X151811562Y-91940057D01*
X151797248Y-91810668D01*
X151785567Y-91669120D01*
X151774350Y-91529330D01*
X151758174Y-91369113D01*
X151739342Y-91212081D01*
X151719225Y-91067983D01*
X151699192Y-90946570D01*
X151680616Y-90857590D01*
X151664868Y-90810793D01*
X151664709Y-90810521D01*
X151655450Y-90776544D01*
X151640278Y-90702171D01*
X151621261Y-90598177D01*
X151600466Y-90475332D01*
X151591010Y-90418051D01*
X151523789Y-90050081D01*
X151450891Y-89723358D01*
X151369109Y-89428433D01*
X151275240Y-89155857D01*
X151166080Y-88896183D01*
X151038424Y-88639961D01*
X150889067Y-88377743D01*
X150850212Y-88313468D01*
X150837882Y-88293926D01*
X151004801Y-88293926D01*
X151089662Y-88400963D01*
X151118874Y-88438239D01*
X151173759Y-88510381D01*
X151212133Y-88563541D01*
X151232487Y-88593118D01*
X151280724Y-88661965D01*
X151336056Y-88739960D01*
X151354536Y-88767624D01*
X151423990Y-88910286D01*
X151483502Y-89101240D01*
X151545690Y-89322256D01*
X151617067Y-89523306D01*
X151706822Y-89729103D01*
X151717411Y-89752417D01*
X151763113Y-89864487D01*
X151819159Y-90015488D01*
X151882599Y-90196665D01*
X151950483Y-90399261D01*
X152019859Y-90614519D01*
X152087776Y-90833684D01*
X152151285Y-91048000D01*
X152173960Y-91126034D01*
X152232641Y-91324582D01*
X152295944Y-91534988D01*
X152357621Y-91736581D01*
X152411425Y-91908692D01*
X152414205Y-91917456D01*
X152496701Y-92193727D01*
X152556079Y-92430026D01*
X152593445Y-92632319D01*
X152602350Y-92726565D01*
X152609910Y-92806569D01*
X152606580Y-92958740D01*
X152596183Y-93049833D01*
X152573422Y-93156689D01*
X152543051Y-93213540D01*
X152504677Y-93221393D01*
X152478255Y-93221072D01*
X152431223Y-93254202D01*
X152387784Y-93318540D01*
X152357735Y-93402043D01*
X152353314Y-93423338D01*
X152350507Y-93468494D01*
X152364700Y-93511510D01*
X152402032Y-93565837D01*
X152468646Y-93644922D01*
X152479726Y-93657629D01*
X152591711Y-93781350D01*
X152720331Y-93916437D01*
X152860761Y-94058467D01*
X153008177Y-94203023D01*
X153157756Y-94345683D01*
X153304675Y-94482028D01*
X153444109Y-94607639D01*
X153571236Y-94718095D01*
X153681231Y-94808977D01*
X153769271Y-94875865D01*
X153830533Y-94914339D01*
X153860192Y-94919979D01*
X153861832Y-94917465D01*
X153864566Y-94875991D01*
X153856630Y-94797634D01*
X153840073Y-94694012D01*
X153816948Y-94576743D01*
X153789303Y-94457444D01*
X153759190Y-94347732D01*
X153705138Y-94169619D01*
X153773204Y-93996040D01*
X153806178Y-93903408D01*
X153844088Y-93776653D01*
X153870057Y-93666154D01*
X153872695Y-93651949D01*
X153896293Y-93540480D01*
X153918474Y-93476316D01*
X153942136Y-93460083D01*
X153970177Y-93492407D01*
X154005497Y-93573915D01*
X154050995Y-93705231D01*
X154115385Y-93900615D01*
X154123287Y-93732166D01*
X154124048Y-93701322D01*
X154120299Y-93584457D01*
X154108950Y-93447948D01*
X154091783Y-93315345D01*
X154087374Y-93287544D01*
X154059388Y-93107311D01*
X154040883Y-92970783D01*
X154032891Y-92871140D01*
X154036442Y-92801564D01*
X154052568Y-92755237D01*
X154082300Y-92725340D01*
X154126668Y-92705055D01*
X154186703Y-92687564D01*
X154243792Y-92674808D01*
X154331291Y-92673844D01*
X154396209Y-92708430D01*
X154446165Y-92784083D01*
X154488777Y-92906320D01*
X154517253Y-93007347D01*
X154557231Y-93148889D01*
X154593040Y-93275384D01*
X154635177Y-93434592D01*
X154710967Y-93801264D01*
X154764139Y-94195956D01*
X154795472Y-94625325D01*
X154805744Y-95096028D01*
X154805913Y-95219976D01*
X154807101Y-95352272D01*
X154810114Y-95445534D01*
X154815745Y-95507355D01*
X154824785Y-95545324D01*
X154838028Y-95567035D01*
X154856265Y-95580077D01*
X154890064Y-95592109D01*
X154920082Y-95585603D01*
X154931358Y-95557436D01*
X154948602Y-95477025D01*
X154964018Y-95362566D01*
X154967837Y-95320410D01*
X155588080Y-95320410D01*
X155589206Y-95347549D01*
X155612750Y-95423593D01*
X155664173Y-95457430D01*
X155739998Y-95448025D01*
X155836747Y-95394346D01*
X155903447Y-95347946D01*
X155943847Y-95328904D01*
X155973161Y-95334501D01*
X156006970Y-95361751D01*
X156025345Y-95379714D01*
X156044426Y-95410025D01*
X156052775Y-95453831D01*
X156052152Y-95523907D01*
X156044316Y-95633025D01*
X156041702Y-95665533D01*
X156033667Y-95772461D01*
X156027870Y-95860406D01*
X156025423Y-95912904D01*
X156020431Y-95947328D01*
X156005146Y-95959311D01*
X155984498Y-95967632D01*
X155957294Y-96009555D01*
X155943420Y-96048938D01*
X155956079Y-96076575D01*
X156009474Y-96099917D01*
X156012274Y-96100889D01*
X156074245Y-96120069D01*
X156112840Y-96128000D01*
X156127820Y-96120815D01*
X156147046Y-96091133D01*
X156170030Y-96033147D01*
X156198683Y-95941224D01*
X156234914Y-95809728D01*
X156280633Y-95633025D01*
X156290210Y-95595672D01*
X156324312Y-95468089D01*
X156355369Y-95359667D01*
X156380285Y-95280894D01*
X156395966Y-95242256D01*
X156397313Y-95240226D01*
X156437797Y-95171760D01*
X156472061Y-95095497D01*
X156500706Y-95006515D01*
X156524329Y-94899892D01*
X156543532Y-94770706D01*
X156558912Y-94614034D01*
X156571070Y-94424955D01*
X156580604Y-94198546D01*
X156588114Y-93929886D01*
X156594198Y-93614051D01*
X156597589Y-93367757D01*
X156599227Y-93082379D01*
X156597253Y-92842564D01*
X156591317Y-92644627D01*
X156581066Y-92484879D01*
X156566149Y-92359636D01*
X156546215Y-92265210D01*
X156523374Y-92204456D01*
X158281657Y-92204456D01*
X158285498Y-93082379D01*
X158285937Y-93182792D01*
X158285956Y-93187097D01*
X158287643Y-93413273D01*
X158290520Y-93627542D01*
X158294400Y-93823205D01*
X158299101Y-93993563D01*
X158304437Y-94131916D01*
X158310225Y-94231565D01*
X158316279Y-94285810D01*
X158322253Y-94311694D01*
X158362597Y-94418601D01*
X158417641Y-94488058D01*
X158482096Y-94512820D01*
X158520411Y-94501750D01*
X158557682Y-94453496D01*
X158584117Y-94362743D01*
X158601611Y-94224929D01*
X158608915Y-94150276D01*
X158620692Y-94084205D01*
X158637607Y-94052231D01*
X158663218Y-94043897D01*
X158676656Y-94046939D01*
X158708479Y-94077544D01*
X158746177Y-94146105D01*
X158793507Y-94258820D01*
X158877364Y-94473743D01*
X158904554Y-95124206D01*
X158916022Y-95398564D01*
X158922507Y-95559786D01*
X158932369Y-95844328D01*
X158938093Y-96078273D01*
X158939676Y-96261287D01*
X158937112Y-96393034D01*
X158930398Y-96473179D01*
X158920892Y-96544395D01*
X158919787Y-96552673D01*
X158920434Y-96606547D01*
X158935690Y-96622974D01*
X158938444Y-96622943D01*
X158962283Y-96617489D01*
X158979037Y-96597443D01*
X158989882Y-96555305D01*
X158995995Y-96483577D01*
X158998555Y-96374758D01*
X158998737Y-96221350D01*
X158996853Y-95959005D01*
X158989632Y-95586131D01*
X158976160Y-95246167D01*
X158955268Y-94927540D01*
X158925787Y-94618674D01*
X158886547Y-94307994D01*
X158836381Y-93983927D01*
X158774119Y-93634899D01*
X158698592Y-93249333D01*
X158690003Y-93206928D01*
X158642392Y-92973052D01*
X158603041Y-92784147D01*
X158570281Y-92634943D01*
X158542447Y-92520170D01*
X158517871Y-92434555D01*
X158494887Y-92372828D01*
X158471827Y-92329718D01*
X158447024Y-92299955D01*
X158418813Y-92278267D01*
X158385525Y-92259382D01*
X158281657Y-92204456D01*
X156523374Y-92204456D01*
X156520914Y-92197914D01*
X156489892Y-92154063D01*
X156452801Y-92129970D01*
X156421059Y-92124206D01*
X156356538Y-92149983D01*
X156292821Y-92223163D01*
X156231716Y-92340627D01*
X156175031Y-92499258D01*
X156124576Y-92695935D01*
X156106569Y-92774630D01*
X156077724Y-92878251D01*
X156051268Y-92939470D01*
X156024971Y-92964295D01*
X156001634Y-92978376D01*
X155996834Y-93020479D01*
X156002018Y-93043273D01*
X155985480Y-93045514D01*
X155970879Y-93052261D01*
X155954052Y-93104974D01*
X155939910Y-93204061D01*
X155929514Y-93293208D01*
X155914472Y-93399224D01*
X155900232Y-93478928D01*
X155891686Y-93563903D01*
X155915162Y-93648262D01*
X155940267Y-93733965D01*
X155950234Y-93867662D01*
X155944171Y-94044431D01*
X155922039Y-94260966D01*
X155920416Y-94273407D01*
X155896871Y-94410485D01*
X155866637Y-94504301D01*
X155826035Y-94563001D01*
X155771388Y-94594734D01*
X155770079Y-94595352D01*
X155751332Y-94627963D01*
X155727696Y-94699147D01*
X155701733Y-94796976D01*
X155676006Y-94909522D01*
X155653077Y-95024857D01*
X155635508Y-95131051D01*
X155625861Y-95216178D01*
X155626700Y-95268308D01*
X155630195Y-95285263D01*
X155631351Y-95312220D01*
X155614524Y-95294359D01*
X155606247Y-95283017D01*
X155591771Y-95278331D01*
X155588080Y-95320410D01*
X154967837Y-95320410D01*
X154976466Y-95225141D01*
X154984809Y-95075830D01*
X154987906Y-94925717D01*
X154987638Y-94879968D01*
X154980503Y-94700276D01*
X154962647Y-94513062D01*
X154932701Y-94310020D01*
X154889296Y-94082846D01*
X154831061Y-93823231D01*
X154756628Y-93522872D01*
X154688666Y-93246740D01*
X154624052Y-92962312D01*
X154564432Y-92678200D01*
X154510845Y-92400661D01*
X154464332Y-92135951D01*
X154430685Y-91920718D01*
X158192410Y-91920718D01*
X158205436Y-91933743D01*
X158218462Y-91920718D01*
X158216905Y-91919161D01*
X159479150Y-91919161D01*
X159479592Y-91920718D01*
X159512883Y-92037949D01*
X159514879Y-92041700D01*
X159574721Y-92117665D01*
X159651282Y-92174677D01*
X159674089Y-92184853D01*
X159755649Y-92208549D01*
X159840281Y-92219432D01*
X159910525Y-92216167D01*
X159948916Y-92197420D01*
X159950635Y-92192420D01*
X159943782Y-92149152D01*
X159917890Y-92086703D01*
X159911914Y-92074412D01*
X159892952Y-92018862D01*
X159881386Y-91945391D01*
X159875974Y-91842648D01*
X159875472Y-91699282D01*
X159876775Y-91637551D01*
X159910034Y-91310951D01*
X159989231Y-90992253D01*
X160116723Y-90671407D01*
X160143143Y-90614300D01*
X160181011Y-90529181D01*
X160205027Y-90470614D01*
X160210866Y-90448820D01*
X160201843Y-90456951D01*
X160166600Y-90498285D01*
X160111933Y-90566695D01*
X160045063Y-90653274D01*
X160002422Y-90710133D01*
X159836827Y-90949889D01*
X159700450Y-91179899D01*
X159594893Y-91395999D01*
X159521756Y-91594020D01*
X159482641Y-91769796D01*
X159479150Y-91919161D01*
X158216905Y-91919161D01*
X158205436Y-91907692D01*
X158192410Y-91920718D01*
X154430685Y-91920718D01*
X154425934Y-91890329D01*
X154396692Y-91670050D01*
X154377646Y-91481373D01*
X154369835Y-91330553D01*
X154374302Y-91223848D01*
X154395646Y-91114873D01*
X154433118Y-91016639D01*
X154479326Y-90957585D01*
X154529934Y-90940762D01*
X154580605Y-90969222D01*
X154627003Y-91046017D01*
X154644670Y-91083080D01*
X154697962Y-91148378D01*
X154783311Y-91197265D01*
X154839173Y-91221009D01*
X154883779Y-91233633D01*
X154910889Y-91224455D01*
X154937696Y-91193000D01*
X154946058Y-91179409D01*
X154973565Y-91114859D01*
X155004982Y-91020532D01*
X155035026Y-90911703D01*
X155091584Y-90684227D01*
X155039267Y-90377652D01*
X155036813Y-90363387D01*
X155008271Y-90210119D01*
X154975797Y-90054113D01*
X154941973Y-89906181D01*
X154909378Y-89777137D01*
X154880593Y-89677791D01*
X154858199Y-89618958D01*
X154843248Y-89605597D01*
X154789988Y-89574421D01*
X154710446Y-89534515D01*
X154616760Y-89491238D01*
X154521065Y-89449949D01*
X154435500Y-89416008D01*
X154372200Y-89394773D01*
X154343303Y-89391603D01*
X154341531Y-89408562D01*
X154348259Y-89464531D01*
X154363745Y-89543775D01*
X154377631Y-89626333D01*
X154373170Y-89722306D01*
X154336329Y-89778945D01*
X154266616Y-89797538D01*
X154234547Y-89792649D01*
X154159047Y-89748551D01*
X154073805Y-89657607D01*
X153977790Y-89518599D01*
X153869969Y-89330312D01*
X153724616Y-89058471D01*
X153400283Y-88852944D01*
X153363187Y-88829338D01*
X153239614Y-88749366D01*
X153126722Y-88674423D01*
X153035698Y-88612007D01*
X152977725Y-88569620D01*
X152879498Y-88491823D01*
X152736949Y-88536758D01*
X152733750Y-88537767D01*
X152655117Y-88564319D01*
X152615395Y-88586859D01*
X152603900Y-88615931D01*
X152609946Y-88662077D01*
X152612140Y-88672800D01*
X152633506Y-88756512D01*
X152661045Y-88844859D01*
X152673050Y-88882293D01*
X152681116Y-88944582D01*
X152655806Y-88978034D01*
X152591736Y-88994255D01*
X152569672Y-89000406D01*
X152533097Y-89034833D01*
X152508495Y-89103241D01*
X152494233Y-89211511D01*
X152488681Y-89365521D01*
X152486540Y-89434519D01*
X152481215Y-89490222D01*
X152474107Y-89506585D01*
X152469685Y-89495286D01*
X152455410Y-89440659D01*
X152434387Y-89349215D01*
X152408659Y-89229968D01*
X152380264Y-89091935D01*
X152363718Y-89011494D01*
X152335051Y-88880317D01*
X152309186Y-88771738D01*
X152288445Y-88695285D01*
X152275149Y-88660484D01*
X152253532Y-88646212D01*
X152201159Y-88643591D01*
X152196557Y-88644646D01*
X152128162Y-88647517D01*
X152024405Y-88639015D01*
X151898753Y-88621309D01*
X151764673Y-88596569D01*
X151635631Y-88566965D01*
X151525094Y-88534667D01*
X151422894Y-88496448D01*
X151288623Y-88439220D01*
X151171864Y-88382637D01*
X151004801Y-88293926D01*
X150837882Y-88293926D01*
X150786321Y-88212207D01*
X150731370Y-88136007D01*
X150674068Y-88071432D01*
X150603122Y-88005046D01*
X150507240Y-87923413D01*
X150368899Y-87807750D01*
X150192218Y-87807750D01*
X150195710Y-87628967D01*
X150198054Y-87596851D01*
X150377026Y-87596851D01*
X150377026Y-87735258D01*
X150574585Y-87894186D01*
X150833831Y-88090049D01*
X151127668Y-88277653D01*
X151410465Y-88418242D01*
X151685660Y-88512958D01*
X151956690Y-88562939D01*
X152226991Y-88569329D01*
X152500001Y-88533266D01*
X152501027Y-88533054D01*
X152610851Y-88507603D01*
X152713674Y-88479206D01*
X152787361Y-88453971D01*
X152881738Y-88414538D01*
X153211997Y-88634797D01*
X153403059Y-88759656D01*
X153788025Y-88993626D01*
X154162885Y-89195650D01*
X154541278Y-89372825D01*
X154936843Y-89532245D01*
X154967778Y-89543757D01*
X155107321Y-89593853D01*
X155247204Y-89640512D01*
X155397517Y-89686743D01*
X155568350Y-89735556D01*
X155769794Y-89789962D01*
X156011939Y-89852971D01*
X156068720Y-89870774D01*
X156097095Y-89894472D01*
X156094241Y-89931076D01*
X156087072Y-89963762D01*
X156101463Y-90046931D01*
X156163903Y-90117482D01*
X156271864Y-90171990D01*
X156353039Y-90201918D01*
X156473089Y-90251376D01*
X156583583Y-90302382D01*
X156674693Y-90350024D01*
X156736595Y-90389396D01*
X156759461Y-90415587D01*
X156760025Y-90422029D01*
X156767604Y-90437865D01*
X156788102Y-90455756D01*
X156826645Y-90478012D01*
X156888360Y-90506944D01*
X156978375Y-90544865D01*
X157101816Y-90594084D01*
X157263811Y-90656914D01*
X157335144Y-90684227D01*
X157469487Y-90735666D01*
X158036103Y-90951912D01*
X158036103Y-91141535D01*
X158039901Y-91242041D01*
X158053603Y-91383666D01*
X158073855Y-91508707D01*
X158095283Y-91601551D01*
X158123582Y-91708869D01*
X158148892Y-91790461D01*
X158186175Y-91894666D01*
X158204258Y-91790461D01*
X158225126Y-91689022D01*
X158283150Y-91493951D01*
X158368121Y-91287281D01*
X158482478Y-91064453D01*
X158628660Y-90820909D01*
X158809103Y-90552089D01*
X159026246Y-90253436D01*
X159214100Y-90010185D01*
X159691671Y-89450632D01*
X159969385Y-89168263D01*
X161553026Y-89168263D01*
X161564611Y-89164516D01*
X161616332Y-89145515D01*
X161698711Y-89114256D01*
X161800513Y-89074975D01*
X161913608Y-89033234D01*
X162219468Y-88945196D01*
X162516217Y-88899084D01*
X162816513Y-88892628D01*
X162902136Y-88897556D01*
X163030376Y-88909849D01*
X163139378Y-88925961D01*
X163212712Y-88943768D01*
X163322346Y-88983108D01*
X163338724Y-88873891D01*
X163341161Y-88773461D01*
X163305945Y-88652319D01*
X163232613Y-88555853D01*
X163127983Y-88492178D01*
X162998872Y-88469405D01*
X162841513Y-88486394D01*
X162652711Y-88535273D01*
X162445200Y-88611668D01*
X162228485Y-88711205D01*
X162012069Y-88829509D01*
X161805457Y-88962205D01*
X161618154Y-89104919D01*
X161600893Y-89119613D01*
X161562184Y-89155111D01*
X161553026Y-89168263D01*
X159969385Y-89168263D01*
X160203028Y-88930704D01*
X160748570Y-88450040D01*
X161328693Y-88008279D01*
X161943795Y-87605060D01*
X162217334Y-87439020D01*
X162237205Y-87378432D01*
X162285805Y-87378432D01*
X162293444Y-87397302D01*
X162334075Y-87388239D01*
X162412718Y-87350523D01*
X162416942Y-87348325D01*
X162512112Y-87305740D01*
X162637268Y-87258256D01*
X162773033Y-87212435D01*
X162900027Y-87174839D01*
X162998872Y-87152031D01*
X163028307Y-87146957D01*
X163074035Y-87136435D01*
X163075491Y-87125887D01*
X163037949Y-87109584D01*
X163002511Y-87097595D01*
X162902622Y-87070500D01*
X162779404Y-87042543D01*
X162651696Y-87017838D01*
X162538334Y-87000498D01*
X162416464Y-86985510D01*
X162414877Y-86990317D01*
X162358676Y-87160601D01*
X162357864Y-87163062D01*
X162327434Y-87254726D01*
X162302679Y-87328371D01*
X162288888Y-87368256D01*
X162285805Y-87378432D01*
X162237205Y-87378432D01*
X162289071Y-87220290D01*
X162303620Y-87174948D01*
X162330661Y-87083864D01*
X162347015Y-87018372D01*
X162349565Y-86990317D01*
X162349314Y-86990121D01*
X162318503Y-86988245D01*
X162246711Y-86990966D01*
X162144348Y-86997724D01*
X162021820Y-87007957D01*
X161705317Y-87036839D01*
X161544505Y-86891660D01*
X161521847Y-86870970D01*
X161436503Y-86784250D01*
X161384553Y-86707590D01*
X161357712Y-86625442D01*
X161352946Y-86576338D01*
X161422769Y-86576338D01*
X161422783Y-86581406D01*
X161427530Y-86641887D01*
X161446506Y-86692271D01*
X161488014Y-86747389D01*
X161560358Y-86822069D01*
X161595954Y-86857061D01*
X161643371Y-86899712D01*
X161688809Y-86929184D01*
X161741258Y-86947046D01*
X161809708Y-86954863D01*
X161903151Y-86954202D01*
X162030578Y-86946631D01*
X162200979Y-86933717D01*
X162393035Y-86918872D01*
X162755255Y-85759590D01*
X162802175Y-85609218D01*
X162881927Y-85352743D01*
X162960241Y-85099872D01*
X163034754Y-84858289D01*
X163103102Y-84635679D01*
X163162924Y-84439725D01*
X163211857Y-84278111D01*
X163247538Y-84158521D01*
X163377602Y-83716734D01*
X163318493Y-83658326D01*
X163259385Y-83599918D01*
X162516923Y-84048900D01*
X162514517Y-84050355D01*
X162269678Y-84198219D01*
X162065593Y-84321487D01*
X161898727Y-84422933D01*
X161765548Y-84505334D01*
X161662523Y-84571464D01*
X161586118Y-84624099D01*
X161532800Y-84666013D01*
X161499037Y-84699983D01*
X161481295Y-84728783D01*
X161476040Y-84755189D01*
X161479741Y-84781976D01*
X161488863Y-84811920D01*
X161499874Y-84847795D01*
X161508149Y-84894181D01*
X161518194Y-84988156D01*
X161528044Y-85115754D01*
X161537382Y-85268414D01*
X161545893Y-85437575D01*
X161553261Y-85614674D01*
X161559171Y-85791149D01*
X161563306Y-85958440D01*
X161565353Y-86107983D01*
X161564993Y-86231217D01*
X161561913Y-86319580D01*
X161555795Y-86364510D01*
X161525398Y-86413538D01*
X161476364Y-86449475D01*
X161448939Y-86463445D01*
X161428223Y-86501938D01*
X161422769Y-86576338D01*
X161352946Y-86576338D01*
X161347698Y-86522259D01*
X161348540Y-86484861D01*
X161369120Y-86435211D01*
X161426402Y-86395968D01*
X161508188Y-86353674D01*
X161488923Y-85711453D01*
X161483252Y-85523352D01*
X161478020Y-85356687D01*
X161473504Y-85228272D01*
X161469261Y-85130819D01*
X161464847Y-85057040D01*
X161459817Y-84999645D01*
X161453726Y-84951347D01*
X161446131Y-84904856D01*
X161436588Y-84852885D01*
X161431669Y-84827061D01*
X161418712Y-84779468D01*
X161398030Y-84758756D01*
X161360587Y-84765236D01*
X161297350Y-84799217D01*
X161199284Y-84861007D01*
X161160903Y-84885681D01*
X161099861Y-84928597D01*
X161070357Y-84962626D01*
X161065441Y-84991077D01*
X161063714Y-85001072D01*
X161065123Y-85011570D01*
X161071251Y-85057235D01*
X161072339Y-85063672D01*
X161088682Y-85160410D01*
X160958307Y-85160410D01*
X160911837Y-85158626D01*
X160847773Y-85148590D01*
X160818681Y-85132659D01*
X160809297Y-85130061D01*
X160764837Y-85146191D01*
X160693029Y-85184197D01*
X160603707Y-85239206D01*
X160584535Y-85251705D01*
X160470959Y-85323863D01*
X160392790Y-85366754D01*
X160343446Y-85380629D01*
X160316347Y-85365737D01*
X160304913Y-85322328D01*
X160302564Y-85250652D01*
X160302564Y-85248611D01*
X160303648Y-85168854D01*
X160310810Y-85130772D01*
X160329927Y-85124139D01*
X160366876Y-85138727D01*
X160407559Y-85164220D01*
X160418894Y-85187920D01*
X160414947Y-85202587D01*
X160422434Y-85249073D01*
X160434430Y-85271156D01*
X160458477Y-85272539D01*
X160507185Y-85242638D01*
X160568586Y-85203840D01*
X160628205Y-85172434D01*
X160654536Y-85158818D01*
X160648494Y-85148568D01*
X160595641Y-85140492D01*
X160510975Y-85131058D01*
X160510975Y-85096819D01*
X160849641Y-85096819D01*
X160849895Y-85100461D01*
X160864975Y-85106198D01*
X160891206Y-85078231D01*
X160897544Y-85063672D01*
X160879718Y-85066743D01*
X160868145Y-85074785D01*
X160849641Y-85096819D01*
X160510975Y-85096819D01*
X160510975Y-85044717D01*
X160927795Y-85044717D01*
X160928049Y-85048359D01*
X160943129Y-85054096D01*
X160969360Y-85026129D01*
X160975698Y-85011570D01*
X160957871Y-85014640D01*
X160946299Y-85022682D01*
X160927795Y-85044717D01*
X160510975Y-85044717D01*
X160510975Y-84991077D01*
X161005949Y-84991077D01*
X161018975Y-85004102D01*
X161032000Y-84991077D01*
X161018975Y-84978051D01*
X161005949Y-84991077D01*
X160510975Y-84991077D01*
X160510975Y-84963375D01*
X160510975Y-84795692D01*
X160725898Y-84795336D01*
X160751676Y-84795185D01*
X160858074Y-84792351D01*
X160946318Y-84786714D01*
X160999436Y-84779272D01*
X161010422Y-84776559D01*
X161048517Y-84779166D01*
X161058051Y-84818705D01*
X161061578Y-84851840D01*
X161075506Y-84873846D01*
X161078930Y-84873469D01*
X161119638Y-84855378D01*
X161183230Y-84816962D01*
X161256208Y-84767672D01*
X161325076Y-84716960D01*
X161376336Y-84674277D01*
X161396490Y-84649075D01*
X161382113Y-84620004D01*
X161338882Y-84581286D01*
X161332785Y-84577090D01*
X161309118Y-84554496D01*
X161292689Y-84520172D01*
X161281260Y-84464031D01*
X161272593Y-84375987D01*
X161264447Y-84245955D01*
X161258279Y-84149051D01*
X161244090Y-84006054D01*
X161224043Y-83902789D01*
X161195521Y-83831255D01*
X161155903Y-83783450D01*
X161102571Y-83751370D01*
X161041942Y-83711538D01*
X161014308Y-83662461D01*
X161012746Y-83646684D01*
X161005785Y-83581478D01*
X160994669Y-83480121D01*
X160980545Y-83353031D01*
X160964561Y-83210624D01*
X160963708Y-83203065D01*
X160945963Y-83051574D01*
X160931238Y-82943662D01*
X160917657Y-82871385D01*
X160903420Y-82827033D01*
X160988633Y-82827033D01*
X160992112Y-82842064D01*
X161001860Y-82903496D01*
X161015211Y-83001479D01*
X161030873Y-83126343D01*
X161047555Y-83268418D01*
X161057421Y-83354475D01*
X161073344Y-83485150D01*
X161086924Y-83576354D01*
X161100212Y-83636215D01*
X161115264Y-83672860D01*
X161134131Y-83694417D01*
X161158868Y-83709013D01*
X161168066Y-83713809D01*
X161244889Y-83783994D01*
X161296572Y-83889167D01*
X161316660Y-84016736D01*
X161319816Y-84102377D01*
X161326495Y-84216838D01*
X161335198Y-84333326D01*
X161337753Y-84362716D01*
X161348164Y-84453967D01*
X161362148Y-84509339D01*
X161384462Y-84541813D01*
X161419865Y-84564370D01*
X161470490Y-84589628D01*
X161500923Y-84604337D01*
X161507233Y-84602774D01*
X161551852Y-84577963D01*
X161637215Y-84524113D01*
X161762113Y-84442035D01*
X161925333Y-84332538D01*
X162125667Y-84196430D01*
X162361903Y-84034522D01*
X162632832Y-83847622D01*
X162712039Y-83792833D01*
X162847088Y-83699417D01*
X162964681Y-83618077D01*
X163058470Y-83553203D01*
X163122105Y-83509187D01*
X163149239Y-83490420D01*
X163151777Y-83487970D01*
X163160516Y-83448565D01*
X163155049Y-83384364D01*
X163138105Y-83294042D01*
X162547463Y-83146033D01*
X162404496Y-83110554D01*
X162154320Y-83050134D01*
X161916122Y-82994644D01*
X161694718Y-82945069D01*
X161494923Y-82902395D01*
X161321553Y-82867608D01*
X161179424Y-82841693D01*
X161073350Y-82825635D01*
X161008148Y-82820420D01*
X160988633Y-82827033D01*
X160903420Y-82827033D01*
X160903344Y-82826796D01*
X160886424Y-82801949D01*
X160865022Y-82788900D01*
X160832261Y-82778106D01*
X160759981Y-82759019D01*
X160669029Y-82737781D01*
X160573256Y-82717317D01*
X160486516Y-82700551D01*
X160422661Y-82690407D01*
X160395542Y-82689807D01*
X160395444Y-82689968D01*
X160396562Y-82719235D01*
X160404272Y-82789372D01*
X160417332Y-82890109D01*
X160434497Y-83011179D01*
X160449612Y-83118331D01*
X160469761Y-83273734D01*
X160486956Y-83420118D01*
X160498606Y-83536262D01*
X160504171Y-83604981D01*
X160504287Y-83606411D01*
X160508060Y-83686079D01*
X160503445Y-83733269D01*
X160488617Y-83759966D01*
X160461749Y-83778153D01*
X160427741Y-83806705D01*
X160406769Y-83855573D01*
X160400876Y-83885576D01*
X160367165Y-83936438D01*
X160352661Y-83953825D01*
X160341556Y-83988745D01*
X160336956Y-84047617D01*
X160338245Y-84139756D01*
X160344806Y-84274475D01*
X160350422Y-84395220D01*
X160351393Y-84504214D01*
X160345417Y-84570206D01*
X160332308Y-84598025D01*
X160322572Y-84611074D01*
X160308212Y-84665695D01*
X160302564Y-84743431D01*
X160301044Y-84832582D01*
X160290438Y-84908247D01*
X160262171Y-84957943D01*
X160207689Y-84989358D01*
X160118436Y-85010184D01*
X159985857Y-85028110D01*
X159902820Y-85039286D01*
X159803135Y-85056130D01*
X159732073Y-85072394D01*
X159701239Y-85085727D01*
X159697808Y-85086598D01*
X159685729Y-85056985D01*
X159670758Y-84989894D01*
X159655360Y-84895534D01*
X159645063Y-84827607D01*
X159631225Y-84754958D01*
X159613057Y-84685064D01*
X159588312Y-84615022D01*
X159554743Y-84541930D01*
X159510104Y-84462888D01*
X159452148Y-84374993D01*
X159378627Y-84275345D01*
X159287294Y-84161040D01*
X159175904Y-84029178D01*
X159042209Y-83876858D01*
X158883962Y-83701176D01*
X158698916Y-83499233D01*
X158484825Y-83268126D01*
X158239441Y-83004954D01*
X157960518Y-82706814D01*
X157906604Y-82649274D01*
X157774129Y-82508562D01*
X157670960Y-82400723D01*
X157592621Y-82321744D01*
X157534636Y-82267614D01*
X157492531Y-82234320D01*
X157461829Y-82217851D01*
X157438056Y-82214194D01*
X157416736Y-82219338D01*
X157414218Y-82220287D01*
X157382323Y-82229182D01*
X157354556Y-82225536D01*
X157326818Y-82203452D01*
X157295013Y-82157035D01*
X157255043Y-82080388D01*
X157202810Y-81967615D01*
X157134215Y-81812820D01*
X157109856Y-81756916D01*
X157018304Y-81538350D01*
X156931171Y-81317770D01*
X156852022Y-81105001D01*
X156784427Y-80909869D01*
X156731952Y-80742198D01*
X156698163Y-80611812D01*
X156695213Y-80598182D01*
X156676835Y-80519482D01*
X156663353Y-80472219D01*
X156657509Y-80466204D01*
X156653143Y-80479923D01*
X156625308Y-80481717D01*
X156611435Y-80475507D01*
X156612719Y-80491423D01*
X156611414Y-80518714D01*
X156577833Y-80556400D01*
X156548254Y-80585746D01*
X156544833Y-80614462D01*
X156550514Y-80622046D01*
X156537867Y-80620948D01*
X156514630Y-80617514D01*
X156459894Y-80648061D01*
X156384764Y-80725116D01*
X156367508Y-80746644D01*
X156350724Y-80786667D01*
X156369426Y-80823601D01*
X156370920Y-80825560D01*
X156393331Y-80869405D01*
X156427158Y-80950743D01*
X156468075Y-81058674D01*
X156511756Y-81182295D01*
X156587259Y-81384143D01*
X156683929Y-81610633D01*
X156754495Y-81759898D01*
X156791391Y-81837942D01*
X156901569Y-82049018D01*
X157006388Y-82226806D01*
X157097212Y-82368787D01*
X156895837Y-82478423D01*
X156877586Y-82488381D01*
X156716466Y-82578385D01*
X156582888Y-82656878D01*
X156481599Y-82720876D01*
X156417345Y-82767393D01*
X156394872Y-82793446D01*
X156393569Y-82800077D01*
X156366057Y-82815795D01*
X156359198Y-82817119D01*
X156321054Y-82844387D01*
X156277253Y-82892951D01*
X156242799Y-82944331D01*
X156232697Y-82980047D01*
X156233523Y-82987201D01*
X156214672Y-82986463D01*
X156213675Y-82985945D01*
X156181528Y-82995562D01*
X156131352Y-83031489D01*
X156077532Y-83080658D01*
X156034453Y-83130004D01*
X156016500Y-83166463D01*
X156009363Y-83180193D01*
X155970910Y-83189920D01*
X155947280Y-83190930D01*
X155925949Y-83205678D01*
X155916509Y-83223612D01*
X155878030Y-83270051D01*
X155820548Y-83331001D01*
X155755634Y-83394788D01*
X155694861Y-83449742D01*
X155649802Y-83484191D01*
X155621102Y-83508375D01*
X155606821Y-83542806D01*
X155607672Y-83552122D01*
X155590190Y-83571282D01*
X155583702Y-83572610D01*
X155542789Y-83598539D01*
X155529036Y-83610359D01*
X155482953Y-83649966D01*
X155413830Y-83716863D01*
X155345057Y-83789203D01*
X155286270Y-83856959D01*
X155247106Y-83910102D01*
X155237200Y-83938605D01*
X155243822Y-83952743D01*
X155231335Y-83954446D01*
X155206455Y-83956319D01*
X155169456Y-83989498D01*
X155139244Y-84020931D01*
X155098045Y-84040205D01*
X155084029Y-84043040D01*
X155079282Y-84066256D01*
X155083393Y-84076313D01*
X155068381Y-84092308D01*
X155057004Y-84098179D01*
X155012209Y-84133990D01*
X154941687Y-84196904D01*
X154900431Y-84235590D01*
X154852399Y-84280630D01*
X154751311Y-84378872D01*
X154692187Y-84436798D01*
X154597508Y-84527404D01*
X154518924Y-84599901D01*
X154463312Y-84648005D01*
X154437550Y-84665436D01*
X154413648Y-84682712D01*
X154384183Y-84730564D01*
X154359503Y-84774778D01*
X154337551Y-84795692D01*
X154302324Y-84811842D01*
X154260456Y-84852769D01*
X154229209Y-84899759D01*
X154224013Y-84934014D01*
X154223538Y-84944615D01*
X154193662Y-84925949D01*
X154171103Y-84908538D01*
X154153559Y-84902455D01*
X154162311Y-84933814D01*
X154168454Y-84960191D01*
X154154163Y-84964841D01*
X154144723Y-84960493D01*
X154127831Y-84970001D01*
X154127772Y-84970834D01*
X154110945Y-85005088D01*
X154073468Y-85056205D01*
X154065684Y-85065417D01*
X154038515Y-85091837D01*
X154035941Y-85082256D01*
X154038168Y-85068457D01*
X154018663Y-85090972D01*
X153989763Y-85130028D01*
X153941274Y-85190649D01*
X153917129Y-85223947D01*
X153870298Y-85295812D01*
X153810795Y-85391683D01*
X153745890Y-85500047D01*
X153689026Y-85594300D01*
X153634749Y-85679263D01*
X153594284Y-85737029D01*
X153573644Y-85758575D01*
X153566446Y-85756537D01*
X153522943Y-85733544D01*
X153452143Y-85690338D01*
X153365234Y-85633629D01*
X153315450Y-85600771D01*
X153164119Y-85506762D01*
X153008506Y-85417682D01*
X152854101Y-85335878D01*
X152706393Y-85263700D01*
X152570869Y-85203494D01*
X152453018Y-85157610D01*
X152358329Y-85128396D01*
X152292290Y-85118199D01*
X152260390Y-85129368D01*
X152268118Y-85164251D01*
X152274557Y-85179010D01*
X152256743Y-85175923D01*
X152242535Y-85171064D01*
X152226268Y-85191437D01*
X152221246Y-85208944D01*
X152200616Y-85186461D01*
X152187623Y-85168203D01*
X152173609Y-85166891D01*
X152164795Y-85211668D01*
X152153267Y-85238620D01*
X152119431Y-85286053D01*
X152106837Y-85302506D01*
X152102668Y-85321631D01*
X152119692Y-85341129D01*
X152164809Y-85365476D01*
X152244918Y-85399149D01*
X152366918Y-85446624D01*
X152388361Y-85454956D01*
X152513810Y-85506067D01*
X152659813Y-85568597D01*
X152816571Y-85638036D01*
X152974284Y-85709870D01*
X153123153Y-85779587D01*
X153253378Y-85842675D01*
X153355160Y-85894622D01*
X153418699Y-85930917D01*
X153438675Y-85944982D01*
X153463070Y-85979062D01*
X153448857Y-86024251D01*
X153447606Y-86026642D01*
X153439488Y-86054222D01*
X153447618Y-86085704D01*
X153477378Y-86129084D01*
X153534147Y-86192360D01*
X153623306Y-86283528D01*
X153676195Y-86337923D01*
X153753069Y-86423872D01*
X153789957Y-86475020D01*
X153795875Y-86483226D01*
X153801814Y-86512392D01*
X153783338Y-86526469D01*
X153726679Y-86564885D01*
X153643726Y-86618773D01*
X153545037Y-86681192D01*
X153477382Y-86724978D01*
X153383429Y-86791104D01*
X153310884Y-86848641D01*
X153271499Y-86888677D01*
X153236087Y-86941236D01*
X153186764Y-87013300D01*
X153155055Y-87066950D01*
X153126332Y-87133988D01*
X153108777Y-87192797D01*
X153198400Y-87139918D01*
X153288023Y-87087039D01*
X153304922Y-87172289D01*
X153308469Y-87188681D01*
X153332396Y-87275633D01*
X153363003Y-87365811D01*
X153366303Y-87374422D01*
X153387946Y-87422824D01*
X153415655Y-87458392D01*
X153460168Y-87488750D01*
X153470523Y-87493460D01*
X153532222Y-87521524D01*
X153642554Y-87564338D01*
X153717592Y-87592222D01*
X153866054Y-87645573D01*
X154025994Y-87701345D01*
X154173740Y-87751210D01*
X154285714Y-87789731D01*
X154383779Y-87826600D01*
X154452993Y-87856178D01*
X154482925Y-87874311D01*
X154484058Y-87899633D01*
X154457511Y-87942577D01*
X154449622Y-87949714D01*
X154428218Y-87960531D01*
X154395960Y-87962310D01*
X154345180Y-87953422D01*
X154268212Y-87932239D01*
X154157389Y-87897133D01*
X154005044Y-87846475D01*
X153907345Y-87813622D01*
X153777792Y-87769886D01*
X153670386Y-87733424D01*
X153594215Y-87707324D01*
X153558364Y-87694674D01*
X153545486Y-87691997D01*
X153541058Y-87709955D01*
X153564788Y-87755112D01*
X153610910Y-87820640D01*
X153673656Y-87899707D01*
X153747258Y-87985484D01*
X153825951Y-88071139D01*
X153903966Y-88149842D01*
X153975537Y-88214762D01*
X154034897Y-88259070D01*
X154046969Y-88266226D01*
X154118561Y-88299208D01*
X154176611Y-88312615D01*
X154178795Y-88312451D01*
X154221532Y-88296342D01*
X154299580Y-88256898D01*
X154405196Y-88198393D01*
X154530635Y-88125102D01*
X154668155Y-88041298D01*
X155104623Y-87769982D01*
X155329840Y-87987091D01*
X155329886Y-87987136D01*
X155453656Y-88102625D01*
X155561095Y-88190815D01*
X155663591Y-88256824D01*
X155772530Y-88305769D01*
X155899300Y-88342765D01*
X156055288Y-88372928D01*
X156251880Y-88401375D01*
X156286586Y-88406214D01*
X156562020Y-88461676D01*
X156850769Y-88550964D01*
X156870015Y-88557836D01*
X156994340Y-88603137D01*
X157084440Y-88640309D01*
X157153499Y-88677559D01*
X157214703Y-88723093D01*
X157281236Y-88785118D01*
X157366281Y-88871840D01*
X157498809Y-89017458D01*
X157670685Y-89238030D01*
X157675850Y-89244659D01*
X157821724Y-89474054D01*
X157928304Y-89693754D01*
X157930067Y-89698174D01*
X157983395Y-89838071D01*
X158018273Y-89943075D01*
X158033492Y-90009085D01*
X158027846Y-90032000D01*
X158011119Y-90026929D01*
X157952342Y-90005982D01*
X157859475Y-89971641D01*
X157740808Y-89926978D01*
X157604632Y-89875069D01*
X157518208Y-89842595D01*
X157381651Y-89794274D01*
X157268982Y-89758270D01*
X157188295Y-89737094D01*
X157147685Y-89733259D01*
X157141962Y-89734746D01*
X157081196Y-89735867D01*
X157005865Y-89722374D01*
X156939466Y-89710112D01*
X156852853Y-89723175D01*
X156827533Y-89731088D01*
X156773215Y-89731772D01*
X156692685Y-89716103D01*
X156574909Y-89682464D01*
X156355795Y-89614948D01*
X156244895Y-89692809D01*
X156133995Y-89770670D01*
X155788998Y-89681384D01*
X155482096Y-89595938D01*
X154884660Y-89392232D01*
X154315632Y-89146132D01*
X153772269Y-88856516D01*
X153685547Y-88804811D01*
X153558292Y-88726529D01*
X153443008Y-88653528D01*
X154185179Y-88653528D01*
X154189119Y-88761173D01*
X154197700Y-88865184D01*
X154209822Y-88949411D01*
X154224383Y-88997704D01*
X154239284Y-89009905D01*
X154293955Y-89042280D01*
X154377878Y-89086471D01*
X154480222Y-89136597D01*
X154491561Y-89141965D01*
X154606040Y-89195529D01*
X154681938Y-89229117D01*
X154726806Y-89245530D01*
X154748190Y-89247567D01*
X154753641Y-89238030D01*
X154748607Y-89209287D01*
X154723305Y-89133971D01*
X154681204Y-89030522D01*
X154627378Y-88909563D01*
X154566902Y-88781718D01*
X154504850Y-88657610D01*
X154446297Y-88547861D01*
X154396318Y-88463095D01*
X154359985Y-88413934D01*
X154316861Y-88382655D01*
X154261600Y-88380583D01*
X154217991Y-88425171D01*
X154191388Y-88513262D01*
X154189679Y-88530759D01*
X154186978Y-88558400D01*
X154185179Y-88653528D01*
X153443008Y-88653528D01*
X153429795Y-88645161D01*
X153307673Y-88565751D01*
X153199541Y-88493342D01*
X153113017Y-88432976D01*
X153055716Y-88389695D01*
X153035256Y-88368544D01*
X153037033Y-88366825D01*
X153181155Y-88366825D01*
X153184340Y-88392645D01*
X153228079Y-88425826D01*
X153299689Y-88472170D01*
X153371838Y-88518002D01*
X153407947Y-88537304D01*
X153412847Y-88530759D01*
X153391373Y-88499053D01*
X153348360Y-88442872D01*
X153310336Y-88393154D01*
X153269400Y-88339574D01*
X153250047Y-88314166D01*
X153236317Y-88315583D01*
X153201407Y-88342710D01*
X153181155Y-88366825D01*
X153037033Y-88366825D01*
X153047902Y-88356309D01*
X153097816Y-88322605D01*
X153176773Y-88274467D01*
X153275245Y-88217878D01*
X153350266Y-88174944D01*
X153436649Y-88122751D01*
X153496978Y-88082871D01*
X153521384Y-88061571D01*
X153520871Y-88055405D01*
X153494537Y-88023152D01*
X153441061Y-87982424D01*
X153414824Y-87963541D01*
X153367948Y-87913728D01*
X153326339Y-87839807D01*
X153281613Y-87728424D01*
X153271228Y-87700585D01*
X153235651Y-87614201D01*
X153205523Y-87553805D01*
X153186476Y-87531077D01*
X153177471Y-87533544D01*
X153129912Y-87555591D01*
X153054228Y-87595578D01*
X152962017Y-87647491D01*
X152946321Y-87656465D01*
X152823547Y-87721650D01*
X152693599Y-87783838D01*
X152582119Y-87830663D01*
X152403519Y-87897420D01*
X152256585Y-87772864D01*
X152087868Y-87627956D01*
X151914337Y-87474412D01*
X151736667Y-87312172D01*
X151546971Y-87133921D01*
X151444274Y-87035159D01*
X152066524Y-87035159D01*
X152075399Y-87073416D01*
X152105070Y-87140468D01*
X152158104Y-87244513D01*
X152175051Y-87277300D01*
X152238171Y-87405192D01*
X152298263Y-87534543D01*
X152344288Y-87641795D01*
X152348926Y-87653305D01*
X152384813Y-87736211D01*
X152414279Y-87794291D01*
X152431335Y-87815584D01*
X152439423Y-87813729D01*
X152486275Y-87799173D01*
X152555561Y-87775423D01*
X152663020Y-87737318D01*
X152681407Y-87550718D01*
X152686243Y-87493460D01*
X152685643Y-87399216D01*
X152664823Y-87339652D01*
X152617973Y-87303712D01*
X152539282Y-87280341D01*
X152445841Y-87255031D01*
X152326960Y-87197030D01*
X152223723Y-87106505D01*
X152189894Y-87072870D01*
X152129227Y-87027088D01*
X152085899Y-87013966D01*
X152075875Y-87017497D01*
X152066524Y-87035159D01*
X151444274Y-87035159D01*
X151337361Y-86932343D01*
X151099949Y-86700122D01*
X150983755Y-86585886D01*
X150852397Y-86457548D01*
X150751226Y-86360337D01*
X150676334Y-86290985D01*
X150623817Y-86246225D01*
X150589770Y-86222787D01*
X150570286Y-86217402D01*
X150561459Y-86226802D01*
X150559385Y-86247719D01*
X150559385Y-86247880D01*
X150563366Y-86275081D01*
X150577829Y-86307538D01*
X150606673Y-86349625D01*
X150653799Y-86405716D01*
X150723106Y-86480187D01*
X150818495Y-86577411D01*
X150943866Y-86701765D01*
X151103118Y-86857621D01*
X151246273Y-86996175D01*
X151407382Y-87149988D01*
X151565223Y-87298695D01*
X151711358Y-87434406D01*
X151837348Y-87549232D01*
X151934758Y-87635282D01*
X151978784Y-87673336D01*
X152075201Y-87758277D01*
X152146605Y-87823244D01*
X152153030Y-87829090D01*
X152205206Y-87879269D01*
X152224666Y-87902308D01*
X152224634Y-87904085D01*
X152199116Y-87917668D01*
X152136321Y-87921571D01*
X152048850Y-87916477D01*
X151949304Y-87903069D01*
X151850286Y-87882029D01*
X151818252Y-87873107D01*
X151620537Y-87796442D01*
X151402786Y-87678868D01*
X151170302Y-87523866D01*
X151125089Y-87488552D01*
X151223692Y-87488552D01*
X151396049Y-87599998D01*
X151397610Y-87601007D01*
X151501504Y-87663652D01*
X151608487Y-87721199D01*
X151695639Y-87761306D01*
X151698745Y-87762520D01*
X151814924Y-87803750D01*
X151907988Y-87828748D01*
X151969794Y-87835812D01*
X151992205Y-87823244D01*
X151991719Y-87821153D01*
X151967709Y-87789959D01*
X151912978Y-87732733D01*
X151835070Y-87656380D01*
X151741529Y-87567804D01*
X151639900Y-87473911D01*
X151537728Y-87381605D01*
X151442556Y-87297792D01*
X151361929Y-87229377D01*
X151303391Y-87183264D01*
X151274488Y-87166359D01*
X151261347Y-87173624D01*
X151243181Y-87225278D01*
X151232519Y-87327455D01*
X151223692Y-87488552D01*
X151125089Y-87488552D01*
X150928390Y-87334919D01*
X150682355Y-87115506D01*
X150678560Y-87111911D01*
X150590183Y-87029878D01*
X150516376Y-86964407D01*
X150464759Y-86922056D01*
X150442953Y-86909389D01*
X150438555Y-86921856D01*
X150429017Y-86977519D01*
X150417843Y-87066426D01*
X150406165Y-87176784D01*
X150395113Y-87296799D01*
X150385819Y-87414678D01*
X150379413Y-87518626D01*
X150377026Y-87596851D01*
X150198054Y-87596851D01*
X150242817Y-86983618D01*
X150335847Y-86355253D01*
X150402566Y-86060799D01*
X150579698Y-86060799D01*
X150734224Y-86218721D01*
X150888751Y-86376643D01*
X151131477Y-86394966D01*
X151374203Y-86413289D01*
X151026163Y-86060891D01*
X150949521Y-85984047D01*
X150831053Y-85869333D01*
X150742395Y-85789605D01*
X150685101Y-85746225D01*
X150660723Y-85740554D01*
X150651149Y-85765304D01*
X150632055Y-85831526D01*
X150611510Y-85916707D01*
X150579698Y-86060799D01*
X150402566Y-86060799D01*
X150475971Y-85736837D01*
X150581590Y-85391763D01*
X150767795Y-85391763D01*
X150768043Y-85394797D01*
X150790917Y-85439325D01*
X150846659Y-85511172D01*
X150929178Y-85604504D01*
X151032380Y-85713485D01*
X151150173Y-85832282D01*
X151276464Y-85955061D01*
X151405160Y-86075987D01*
X151530169Y-86189225D01*
X151645397Y-86288942D01*
X151744751Y-86369304D01*
X151806449Y-86413289D01*
X151822140Y-86424475D01*
X151871470Y-86448621D01*
X151877097Y-86449660D01*
X151932171Y-86457887D01*
X152025129Y-86470349D01*
X152144489Y-86485543D01*
X152278769Y-86501963D01*
X152437659Y-86523361D01*
X152631272Y-86553433D01*
X152827608Y-86587256D01*
X153002015Y-86620780D01*
X153060026Y-86632705D01*
X153184461Y-86657965D01*
X153285324Y-86677994D01*
X153353472Y-86690994D01*
X153379758Y-86695162D01*
X153414670Y-86677286D01*
X153476451Y-86638212D01*
X153547744Y-86588837D01*
X153615209Y-86538773D01*
X153665507Y-86497630D01*
X153685298Y-86475020D01*
X153668229Y-86444515D01*
X153622942Y-86390084D01*
X153559287Y-86323636D01*
X153521535Y-86287390D01*
X153484562Y-86256160D01*
X153442702Y-86227885D01*
X153389584Y-86199811D01*
X153318837Y-86169183D01*
X153224091Y-86133248D01*
X153098976Y-86089253D01*
X152937122Y-86034442D01*
X152732158Y-85966063D01*
X152550625Y-85905962D01*
X152352584Y-85841034D01*
X152164391Y-85779951D01*
X151995930Y-85725901D01*
X151857086Y-85682075D01*
X151757744Y-85651662D01*
X151687553Y-85630593D01*
X151570648Y-85593179D01*
X151492953Y-85563005D01*
X151446810Y-85536114D01*
X151424562Y-85508547D01*
X151418553Y-85476348D01*
X151418206Y-85473144D01*
X151397641Y-85433216D01*
X151350706Y-85370576D01*
X151284909Y-85293032D01*
X151207757Y-85208390D01*
X151126755Y-85124460D01*
X151049412Y-85049049D01*
X150983234Y-84989963D01*
X150935728Y-84955011D01*
X150914400Y-84952000D01*
X150913842Y-84953516D01*
X150897042Y-84999035D01*
X150868441Y-85076495D01*
X150833896Y-85170025D01*
X150831419Y-85176759D01*
X150799271Y-85270145D01*
X150776464Y-85347177D01*
X150767795Y-85391763D01*
X150581590Y-85391763D01*
X150664363Y-85121333D01*
X150732019Y-84932475D01*
X150762953Y-84857941D01*
X150991760Y-84857941D01*
X151001819Y-84886055D01*
X151001934Y-84886268D01*
X151032552Y-84927442D01*
X151092010Y-84995381D01*
X151171783Y-85080699D01*
X151263344Y-85174008D01*
X151493214Y-85402812D01*
X151536744Y-85301150D01*
X151541836Y-85289179D01*
X151580241Y-85195357D01*
X151613890Y-85108308D01*
X151634780Y-85054715D01*
X151673657Y-84960908D01*
X151716229Y-84862783D01*
X151784952Y-84708439D01*
X151878839Y-84797655D01*
X151972725Y-84886872D01*
X151872620Y-84745653D01*
X151846039Y-84707188D01*
X151799840Y-84627547D01*
X151781048Y-84567155D01*
X152018257Y-84567155D01*
X152026779Y-84617317D01*
X152074559Y-84698069D01*
X152166004Y-84783595D01*
X152302970Y-84875259D01*
X152487314Y-84974422D01*
X152720891Y-85082444D01*
X152830944Y-85130498D01*
X152931295Y-85171515D01*
X153000270Y-85190669D01*
X153047251Y-85186650D01*
X153081620Y-85158143D01*
X153112761Y-85103839D01*
X153150056Y-85022423D01*
X153160090Y-85000079D01*
X153196773Y-84911464D01*
X153220189Y-84843258D01*
X153225646Y-84808718D01*
X153196571Y-84776068D01*
X153128999Y-84726577D01*
X153033551Y-84667513D01*
X152920389Y-84604791D01*
X152799674Y-84544325D01*
X152681569Y-84492029D01*
X152678319Y-84490707D01*
X152476883Y-84420063D01*
X152311547Y-84386400D01*
X152182491Y-84389737D01*
X152089898Y-84430094D01*
X152038549Y-84486340D01*
X152018257Y-84567155D01*
X151781048Y-84567155D01*
X151777690Y-84556365D01*
X151771642Y-84472115D01*
X151770769Y-84339795D01*
X151899304Y-84276106D01*
X151952143Y-84251844D01*
X152014413Y-84231302D01*
X152086428Y-84219211D01*
X152182296Y-84213390D01*
X152316125Y-84211656D01*
X152435393Y-84212469D01*
X152543841Y-84218182D01*
X152636383Y-84231960D01*
X152732556Y-84256879D01*
X152851898Y-84296014D01*
X152921719Y-84320834D01*
X153233163Y-84449409D01*
X153538918Y-84602692D01*
X153815795Y-84769299D01*
X153875174Y-84808718D01*
X153880202Y-84812056D01*
X153967862Y-84869911D01*
X154033743Y-84912972D01*
X154067070Y-84934169D01*
X154087056Y-84928289D01*
X154136155Y-84887170D01*
X154206846Y-84813011D01*
X154293980Y-84710878D01*
X154363416Y-84626466D01*
X154454713Y-84516595D01*
X154536935Y-84418793D01*
X154598206Y-84347257D01*
X154695649Y-84235590D01*
X154857846Y-84235590D01*
X154870872Y-84248615D01*
X154883898Y-84235590D01*
X154870872Y-84222564D01*
X154868974Y-84224462D01*
X154857846Y-84235590D01*
X154695649Y-84235590D01*
X154705359Y-84224462D01*
X154360006Y-83870866D01*
X154273621Y-83783590D01*
X154160868Y-83674064D01*
X154090589Y-83610359D01*
X155457026Y-83610359D01*
X155470051Y-83623384D01*
X155483077Y-83610359D01*
X155470051Y-83597333D01*
X155457026Y-83610359D01*
X154090589Y-83610359D01*
X154071672Y-83593212D01*
X154009796Y-83544389D01*
X153978999Y-83530952D01*
X153963138Y-83534310D01*
X153959262Y-83518881D01*
X153963237Y-83509047D01*
X153947589Y-83493128D01*
X153934880Y-83497549D01*
X153920000Y-83532205D01*
X153915461Y-83550429D01*
X153880923Y-83571282D01*
X153862700Y-83575821D01*
X153841846Y-83610359D01*
X153838907Y-83628335D01*
X153815795Y-83649436D01*
X153804383Y-83653231D01*
X153789744Y-83686757D01*
X153779558Y-83711960D01*
X153736947Y-83740835D01*
X153690655Y-83768748D01*
X153641914Y-83822053D01*
X153602376Y-83863438D01*
X153565289Y-83873318D01*
X153549329Y-83870467D01*
X153513014Y-83889060D01*
X153507294Y-83902464D01*
X153525206Y-83899411D01*
X153550240Y-83887312D01*
X153553455Y-83897790D01*
X153526804Y-83931747D01*
X153474674Y-83982008D01*
X153435028Y-84017418D01*
X153356721Y-84088423D01*
X153277122Y-84161560D01*
X153160177Y-84269890D01*
X152991948Y-84152290D01*
X152939987Y-84117497D01*
X152824249Y-84045617D01*
X152692695Y-83968976D01*
X152564911Y-83899182D01*
X152306103Y-83763675D01*
X152535343Y-83412290D01*
X152560556Y-83373811D01*
X152659732Y-83224979D01*
X152763622Y-83072345D01*
X152861316Y-82931819D01*
X152941906Y-82819313D01*
X153119230Y-82577722D01*
X153209199Y-82664194D01*
X153299169Y-82750666D01*
X153280719Y-82620410D01*
X153276176Y-82591482D01*
X153262805Y-82538320D01*
X153238874Y-82488591D01*
X153197652Y-82432392D01*
X153139313Y-82367499D01*
X153585775Y-82367499D01*
X153588784Y-82445450D01*
X153590756Y-82459396D01*
X153626856Y-82568994D01*
X153697457Y-82697905D01*
X153795465Y-82836866D01*
X153913785Y-82976612D01*
X154045324Y-83107880D01*
X154182987Y-83221406D01*
X154236895Y-83259230D01*
X154295553Y-83295641D01*
X154327285Y-83309023D01*
X154336135Y-83304737D01*
X154377417Y-83272374D01*
X154441245Y-83215321D01*
X154518010Y-83141994D01*
X154686174Y-82976711D01*
X154635241Y-82879654D01*
X154634939Y-82879080D01*
X154577188Y-82791677D01*
X154489434Y-82684867D01*
X154383223Y-82570474D01*
X154270099Y-82460321D01*
X154161607Y-82366231D01*
X154069291Y-82300028D01*
X153983936Y-82254532D01*
X153850377Y-82212209D01*
X153737214Y-82217264D01*
X153645002Y-82269735D01*
X153604025Y-82315184D01*
X153585775Y-82367499D01*
X153139313Y-82367499D01*
X153132406Y-82359816D01*
X153036406Y-82260960D01*
X152970178Y-82195232D01*
X152875742Y-82108705D01*
X152809026Y-82058415D01*
X152772605Y-82046456D01*
X152770919Y-82047317D01*
X152744076Y-82079787D01*
X152702002Y-82149288D01*
X152650130Y-82246255D01*
X152645510Y-82255692D01*
X152593893Y-82361122D01*
X152444039Y-82653390D01*
X152279788Y-82921069D01*
X152108604Y-83151041D01*
X151934036Y-83338552D01*
X151759633Y-83478846D01*
X151734784Y-83495854D01*
X151587817Y-83624940D01*
X151488329Y-83772533D01*
X151434237Y-83941599D01*
X151433169Y-83947384D01*
X151414889Y-84011805D01*
X151393064Y-84051121D01*
X151374513Y-84057274D01*
X151366051Y-84022204D01*
X151364546Y-84007514D01*
X151356140Y-84002215D01*
X151338439Y-84024055D01*
X151309231Y-84077201D01*
X151266307Y-84165817D01*
X151207457Y-84294068D01*
X151130468Y-84466119D01*
X151078701Y-84583783D01*
X151032909Y-84692833D01*
X151004815Y-84769457D01*
X150991928Y-84821784D01*
X150991760Y-84857941D01*
X150762953Y-84857941D01*
X150988063Y-84315559D01*
X151287689Y-83724420D01*
X151460966Y-83438105D01*
X151685219Y-83438105D01*
X151710781Y-83428467D01*
X151772250Y-83392269D01*
X151833484Y-83346717D01*
X151934044Y-83248443D01*
X152045663Y-83118068D01*
X152161812Y-82964367D01*
X152275966Y-82796118D01*
X152381598Y-82622096D01*
X152472182Y-82451077D01*
X152567045Y-82255692D01*
X152471913Y-82359897D01*
X152458717Y-82374509D01*
X152360415Y-82490150D01*
X152244201Y-82635862D01*
X152118683Y-82800015D01*
X151992469Y-82970981D01*
X151874168Y-83137131D01*
X151772387Y-83286834D01*
X151695736Y-83408461D01*
X151687678Y-83422850D01*
X151685219Y-83438105D01*
X151460966Y-83438105D01*
X151628727Y-83160906D01*
X152009004Y-82626863D01*
X152426350Y-82124138D01*
X152878592Y-81654578D01*
X153123724Y-81434931D01*
X153425026Y-81434931D01*
X153432162Y-81448535D01*
X153468428Y-81494561D01*
X153528448Y-81562770D01*
X153604407Y-81644053D01*
X153688359Y-81729682D01*
X153752848Y-81787577D01*
X153808933Y-81823927D01*
X153870038Y-81847388D01*
X153949587Y-81866616D01*
X153956477Y-81868093D01*
X154059987Y-81889682D01*
X154120075Y-81899141D01*
X154143839Y-81895534D01*
X154138374Y-81877927D01*
X154110776Y-81845384D01*
X154083378Y-81812820D01*
X155222564Y-81812820D01*
X155235590Y-81825846D01*
X155248616Y-81812820D01*
X155235590Y-81799795D01*
X155222564Y-81812820D01*
X154083378Y-81812820D01*
X154069936Y-81796844D01*
X154040314Y-81755410D01*
X154039318Y-81752851D01*
X154047227Y-81734666D01*
X155300718Y-81734666D01*
X155313744Y-81747692D01*
X155326769Y-81734666D01*
X155313744Y-81721641D01*
X155300718Y-81734666D01*
X154047227Y-81734666D01*
X154050330Y-81727532D01*
X154093037Y-81686160D01*
X154169415Y-81627408D01*
X154281439Y-81549947D01*
X154431085Y-81452453D01*
X154620329Y-81333597D01*
X154851147Y-81192052D01*
X155125512Y-81026492D01*
X155140075Y-81035236D01*
X155168879Y-81080658D01*
X155202470Y-81153092D01*
X155237482Y-81233902D01*
X155291270Y-81349533D01*
X155345614Y-81459281D01*
X155350944Y-81469723D01*
X155388800Y-81551566D01*
X155410579Y-81613082D01*
X155411705Y-81641640D01*
X155403840Y-81649260D01*
X155370230Y-81691610D01*
X155340090Y-81734666D01*
X155326537Y-81754027D01*
X155307268Y-81781415D01*
X155280639Y-81812820D01*
X155264572Y-81831768D01*
X155235590Y-81851894D01*
X155229431Y-81853974D01*
X155190799Y-81882244D01*
X155129974Y-81936643D01*
X155057101Y-82008284D01*
X155030879Y-82034573D01*
X154962024Y-82098140D01*
X154908988Y-82139261D01*
X154881553Y-82150038D01*
X154871386Y-82149177D01*
X154874366Y-82177251D01*
X154878991Y-82198754D01*
X154865380Y-82211168D01*
X154847658Y-82215525D01*
X154798978Y-82246056D01*
X154736664Y-82296935D01*
X154632858Y-82390280D01*
X155083390Y-82883089D01*
X155169609Y-82976711D01*
X155189613Y-82998433D01*
X155304544Y-83121199D01*
X155404818Y-83226124D01*
X155485376Y-83307994D01*
X155541161Y-83361594D01*
X155567115Y-83381712D01*
X155587721Y-83376804D01*
X155640298Y-83345432D01*
X155704513Y-83293932D01*
X155738944Y-83264031D01*
X155822768Y-83194737D01*
X155924803Y-83113251D01*
X156030154Y-83031577D01*
X156101986Y-82975228D01*
X156177775Y-82911370D01*
X156228177Y-82863369D01*
X156244874Y-82838698D01*
X156239598Y-82827111D01*
X156211607Y-82777190D01*
X156165650Y-82700233D01*
X156108298Y-82607369D01*
X156102609Y-82598244D01*
X155986860Y-82394102D01*
X155871390Y-82158597D01*
X155764956Y-81910739D01*
X155676314Y-81669538D01*
X155675859Y-81668166D01*
X155643664Y-81564616D01*
X155622382Y-81474694D01*
X155609768Y-81381977D01*
X155603580Y-81270041D01*
X155601573Y-81122461D01*
X155601452Y-81056464D01*
X155602902Y-80938502D01*
X155791764Y-80938502D01*
X155792785Y-81037321D01*
X155823826Y-81229657D01*
X155889435Y-81442850D01*
X155986738Y-81668320D01*
X156112863Y-81897487D01*
X156122067Y-81911783D01*
X156163020Y-81961155D01*
X156195099Y-81980012D01*
X156195691Y-81979960D01*
X156234942Y-81968606D01*
X156306342Y-81942020D01*
X156394872Y-81905783D01*
X156413648Y-81897753D01*
X156495000Y-81860372D01*
X156539542Y-81830942D01*
X156557388Y-81800454D01*
X156558651Y-81759898D01*
X156545936Y-81699419D01*
X156514339Y-81600943D01*
X156468936Y-81479165D01*
X156414645Y-81346103D01*
X156356380Y-81213773D01*
X156299057Y-81094194D01*
X156247590Y-80999383D01*
X156191182Y-80911444D01*
X156117606Y-80822754D01*
X156047042Y-80773740D01*
X155972553Y-80758323D01*
X155954806Y-80759431D01*
X155878119Y-80791591D01*
X155818498Y-80856537D01*
X155791764Y-80938502D01*
X155602902Y-80938502D01*
X155602943Y-80935165D01*
X155608335Y-80848039D01*
X155619379Y-80782572D01*
X155637828Y-80726252D01*
X155665436Y-80666564D01*
X155687623Y-80625632D01*
X155751841Y-80544284D01*
X155825979Y-80506125D01*
X155915104Y-80510971D01*
X156024284Y-80558644D01*
X156158588Y-80648961D01*
X156277641Y-80738381D01*
X156188242Y-80644247D01*
X156156943Y-80609838D01*
X156119792Y-80562855D01*
X156110089Y-80540227D01*
X156120288Y-80532496D01*
X156166588Y-80507278D01*
X156245969Y-80472712D01*
X156363908Y-80426509D01*
X156525883Y-80366376D01*
X156529480Y-80365062D01*
X156645658Y-80321766D01*
X156743186Y-80283874D01*
X156811926Y-80255427D01*
X156841739Y-80240467D01*
X156842043Y-80240075D01*
X156830209Y-80214185D01*
X156788697Y-80159146D01*
X156723824Y-80082783D01*
X156641903Y-79992917D01*
X156425047Y-79762143D01*
X156208062Y-79834050D01*
X156168734Y-79847411D01*
X156014520Y-79903835D01*
X155833495Y-79974664D01*
X155640858Y-80053583D01*
X155451810Y-80134274D01*
X155281551Y-80210421D01*
X155145281Y-80275708D01*
X155100979Y-80299293D01*
X154991903Y-80372305D01*
X154927939Y-80442656D01*
X154922534Y-80451203D01*
X154916909Y-80460099D01*
X154838917Y-80550754D01*
X154722586Y-80653872D01*
X154576208Y-80763892D01*
X154408074Y-80875251D01*
X154226475Y-80982387D01*
X154039702Y-81079738D01*
X153856046Y-81161741D01*
X153725361Y-81219620D01*
X153606656Y-81281966D01*
X153511391Y-81342209D01*
X153448027Y-81394985D01*
X153425026Y-81434931D01*
X153123724Y-81434931D01*
X153363559Y-81220031D01*
X153527402Y-81093638D01*
X153840791Y-81093638D01*
X153862584Y-81089038D01*
X153920032Y-81064746D01*
X154018589Y-81018918D01*
X154029719Y-81013587D01*
X154132612Y-80959689D01*
X154249689Y-80891838D01*
X154373571Y-80815094D01*
X154496879Y-80734517D01*
X154612234Y-80655165D01*
X154712258Y-80582098D01*
X154789572Y-80520376D01*
X154836797Y-80475057D01*
X154846553Y-80451203D01*
X154837053Y-80451311D01*
X154790023Y-80471371D01*
X154711454Y-80513500D01*
X154608919Y-80572936D01*
X154489989Y-80644921D01*
X154362238Y-80724693D01*
X154233236Y-80807493D01*
X154110557Y-80888561D01*
X154001772Y-80963137D01*
X153914454Y-81026461D01*
X153856175Y-81073772D01*
X153849199Y-81080387D01*
X153840791Y-81093638D01*
X153527402Y-81093638D01*
X153879080Y-80822344D01*
X154422982Y-80463363D01*
X154993094Y-80144937D01*
X155587245Y-79868911D01*
X155955197Y-79730469D01*
X156501668Y-79730469D01*
X156502800Y-79735576D01*
X156529183Y-79770740D01*
X156584016Y-79832754D01*
X156661140Y-79914801D01*
X156754394Y-80010068D01*
X156791584Y-80047799D01*
X156881586Y-80142859D01*
X156954106Y-80224852D01*
X156966142Y-80240075D01*
X157002495Y-80286053D01*
X157020103Y-80318735D01*
X157025273Y-80345370D01*
X157043310Y-80417817D01*
X157072719Y-80529148D01*
X157111865Y-80673353D01*
X157159117Y-80844422D01*
X157212839Y-81036345D01*
X157271397Y-81243111D01*
X157522692Y-82125436D01*
X157655654Y-82271739D01*
X157684693Y-82303576D01*
X157754763Y-82380079D01*
X157851395Y-82485362D01*
X157969307Y-82613676D01*
X158103215Y-82759274D01*
X158247838Y-82916408D01*
X158397891Y-83079329D01*
X158620465Y-83321140D01*
X158831230Y-83551062D01*
X159011430Y-83749338D01*
X159163634Y-83919352D01*
X159290413Y-84064492D01*
X159394335Y-84188145D01*
X159477972Y-84293697D01*
X159543891Y-84384535D01*
X159594665Y-84464044D01*
X159632861Y-84535613D01*
X159661049Y-84602627D01*
X159681800Y-84668474D01*
X159697684Y-84736539D01*
X159711269Y-84810209D01*
X159740019Y-84978051D01*
X159845445Y-84973672D01*
X159866042Y-84972789D01*
X160014593Y-84963214D01*
X160119402Y-84946639D01*
X160187933Y-84918298D01*
X160227645Y-84873427D01*
X160246001Y-84807262D01*
X160250462Y-84715038D01*
X160252640Y-84649368D01*
X160260860Y-84581972D01*
X160273100Y-84550314D01*
X160280426Y-84524750D01*
X160285107Y-84456830D01*
X160285943Y-84357815D01*
X160282601Y-84238648D01*
X160269465Y-83940973D01*
X160354324Y-83815236D01*
X160373306Y-83786835D01*
X160409637Y-83725332D01*
X160427005Y-83671295D01*
X160429757Y-83604981D01*
X160422236Y-83506646D01*
X160422011Y-83504224D01*
X160409029Y-83381656D01*
X160391844Y-83242573D01*
X160372146Y-83098356D01*
X160351626Y-82960383D01*
X160331974Y-82840034D01*
X160314883Y-82748689D01*
X160302042Y-82697727D01*
X160287916Y-82675778D01*
X160255037Y-82654525D01*
X160195983Y-82634017D01*
X160102309Y-82611395D01*
X159965570Y-82583798D01*
X159952902Y-82581347D01*
X159835442Y-82557504D01*
X159741331Y-82536441D01*
X159679869Y-82520363D01*
X159660357Y-82511472D01*
X159684464Y-82511131D01*
X159750213Y-82519086D01*
X159846723Y-82534280D01*
X159963341Y-82555177D01*
X160069304Y-82574372D01*
X160170948Y-82591003D01*
X160243795Y-82600868D01*
X160276688Y-82602288D01*
X160279748Y-82594940D01*
X160275886Y-82547085D01*
X160260098Y-82462582D01*
X160234652Y-82350315D01*
X160201820Y-82219172D01*
X160163870Y-82078038D01*
X160123072Y-81935799D01*
X160081696Y-81801340D01*
X160042012Y-81683549D01*
X160003703Y-81579123D01*
X159847957Y-81201378D01*
X159665784Y-80828362D01*
X159452718Y-80452036D01*
X159204290Y-80064358D01*
X158916034Y-79657289D01*
X158719877Y-79391589D01*
X158817641Y-79391589D01*
X158822957Y-79402415D01*
X158853261Y-79447929D01*
X158904405Y-79519210D01*
X158969503Y-79606512D01*
X159088235Y-79767032D01*
X159380287Y-80198513D01*
X159641785Y-80639954D01*
X159869504Y-81084735D01*
X160060219Y-81526237D01*
X160210702Y-81957839D01*
X160317729Y-82372923D01*
X160326695Y-82415549D01*
X160347063Y-82508890D01*
X160362706Y-82575712D01*
X160370801Y-82603745D01*
X160394682Y-82612425D01*
X160456586Y-82627940D01*
X160542070Y-82646386D01*
X160640026Y-82666188D01*
X160753352Y-82688370D01*
X160827988Y-82700660D01*
X160871457Y-82703227D01*
X160891280Y-82696244D01*
X160894978Y-82679881D01*
X160890074Y-82654311D01*
X160879702Y-82607190D01*
X160860818Y-82520946D01*
X160836216Y-82408340D01*
X160808601Y-82281743D01*
X160772955Y-82128918D01*
X160647098Y-81690157D01*
X160487340Y-81245659D01*
X160300355Y-80812879D01*
X160092816Y-80409277D01*
X160056358Y-80346294D01*
X159981083Y-80221791D01*
X159890209Y-80076099D01*
X159792064Y-79922507D01*
X159694973Y-79774308D01*
X159464520Y-79427661D01*
X159564714Y-79427661D01*
X159591770Y-79483949D01*
X159646401Y-79567750D01*
X159724552Y-79683128D01*
X159777846Y-79763536D01*
X160058973Y-80214257D01*
X160298507Y-80649486D01*
X160499977Y-81077291D01*
X160666910Y-81505740D01*
X160802836Y-81942902D01*
X160911282Y-82396846D01*
X160914143Y-82410617D01*
X160941552Y-82532964D01*
X160967858Y-82635113D01*
X160981821Y-82679881D01*
X160990196Y-82706731D01*
X161005703Y-82737489D01*
X161028164Y-82743891D01*
X161097303Y-82758977D01*
X161206667Y-82780992D01*
X161350185Y-82808765D01*
X161521787Y-82841124D01*
X161715404Y-82876897D01*
X161924966Y-82914914D01*
X162101212Y-82946612D01*
X162353731Y-82992017D01*
X162562029Y-83029333D01*
X162730512Y-83059215D01*
X162863587Y-83082317D01*
X162965661Y-83099292D01*
X163041138Y-83110796D01*
X163094426Y-83117480D01*
X163129931Y-83120001D01*
X163152059Y-83119011D01*
X163165216Y-83115165D01*
X163173808Y-83109116D01*
X163182243Y-83101519D01*
X163198550Y-83086913D01*
X163220905Y-83056863D01*
X163227978Y-83020316D01*
X163217305Y-82971262D01*
X163186423Y-82903690D01*
X163132868Y-82811592D01*
X163054179Y-82688958D01*
X162947890Y-82529779D01*
X162863476Y-82403516D01*
X162762140Y-82247994D01*
X162691882Y-82134260D01*
X162652668Y-82062320D01*
X162644465Y-82032178D01*
X162667239Y-82043842D01*
X162720956Y-82097318D01*
X162805583Y-82192610D01*
X162921087Y-82329726D01*
X163067433Y-82508670D01*
X163145039Y-82604187D01*
X163235552Y-82713520D01*
X163302467Y-82790219D01*
X163350863Y-82839272D01*
X163385818Y-82865669D01*
X163412412Y-82874400D01*
X163435724Y-82870452D01*
X163451981Y-82863076D01*
X163482764Y-82835150D01*
X163504265Y-82786182D01*
X163518160Y-82708425D01*
X163526126Y-82594127D01*
X163529841Y-82435540D01*
X163531862Y-82323041D01*
X163537370Y-82158162D01*
X163545267Y-82008998D01*
X163554957Y-81882824D01*
X163565844Y-81786920D01*
X163577333Y-81728560D01*
X163588828Y-81715023D01*
X163590609Y-81718371D01*
X163598606Y-81761738D01*
X163607563Y-81847043D01*
X163616830Y-81966184D01*
X163625757Y-82111061D01*
X163633691Y-82273574D01*
X163635490Y-82314448D01*
X163643461Y-82474093D01*
X163651941Y-82614614D01*
X163660336Y-82727776D01*
X163668050Y-82805340D01*
X163674491Y-82839072D01*
X163698012Y-82856671D01*
X163752685Y-82867897D01*
X163761920Y-82866834D01*
X163796297Y-82849798D01*
X163844375Y-82808540D01*
X163910449Y-82738626D01*
X163998815Y-82635619D01*
X164113768Y-82495084D01*
X164204592Y-82383250D01*
X164295131Y-82273397D01*
X164371284Y-82182710D01*
X164427012Y-82118375D01*
X164456276Y-82087577D01*
X164478949Y-82070066D01*
X164502910Y-82060132D01*
X164501721Y-82081844D01*
X164474273Y-82137295D01*
X164419458Y-82228576D01*
X164336166Y-82357776D01*
X164223290Y-82526988D01*
X163921714Y-82974306D01*
X163978017Y-83053376D01*
X163989028Y-83068221D01*
X164038951Y-83114275D01*
X164089724Y-83119070D01*
X164142599Y-83108070D01*
X164241149Y-83091316D01*
X164362863Y-83073174D01*
X164497075Y-83054959D01*
X164633115Y-83037989D01*
X164760317Y-83023580D01*
X164868011Y-83013050D01*
X164945530Y-83007716D01*
X164982206Y-83008893D01*
X165003600Y-83020088D01*
X165012118Y-83038617D01*
X164986202Y-83048077D01*
X164917349Y-83067986D01*
X164813941Y-83095924D01*
X164684208Y-83129671D01*
X164536379Y-83167006D01*
X164395024Y-83202578D01*
X164264812Y-83236095D01*
X164160727Y-83263690D01*
X164090929Y-83283200D01*
X164063575Y-83292459D01*
X164061686Y-83295784D01*
X164053555Y-83335536D01*
X164047124Y-83402011D01*
X164045747Y-83433894D01*
X164047518Y-83448565D01*
X164049689Y-83466546D01*
X164065539Y-83497978D01*
X164099372Y-83534524D01*
X164157260Y-83582520D01*
X164245278Y-83648299D01*
X164369500Y-83738195D01*
X164492348Y-83827317D01*
X164638755Y-83935807D01*
X164744658Y-84017763D01*
X164811767Y-84074578D01*
X164841793Y-84107646D01*
X164836448Y-84118359D01*
X164831724Y-84118060D01*
X164787417Y-84104269D01*
X164711832Y-84068712D01*
X164601866Y-84009736D01*
X164454412Y-83925689D01*
X164266366Y-83814918D01*
X164220348Y-83787623D01*
X164109767Y-83722989D01*
X164018511Y-83670999D01*
X163955012Y-83636406D01*
X163927700Y-83623964D01*
X163900405Y-83636481D01*
X163852395Y-83669553D01*
X163794122Y-83714564D01*
X163794737Y-83716734D01*
X163937061Y-84219322D01*
X163992656Y-84419941D01*
X164037504Y-84592437D01*
X164065826Y-84715715D01*
X164077832Y-84789805D01*
X164073736Y-84814736D01*
X164053750Y-84790536D01*
X164018086Y-84717236D01*
X163966956Y-84594865D01*
X163900573Y-84423451D01*
X163819149Y-84203025D01*
X163812932Y-84185897D01*
X163756507Y-84031596D01*
X163713787Y-83919150D01*
X163681343Y-83841957D01*
X163655745Y-83793414D01*
X163633563Y-83766915D01*
X163611365Y-83755859D01*
X163585724Y-83753641D01*
X163566523Y-83754534D01*
X163539459Y-83763576D01*
X163515062Y-83789142D01*
X163488392Y-83839407D01*
X163454503Y-83922541D01*
X163408453Y-84046718D01*
X163395875Y-84081788D01*
X163363381Y-84174526D01*
X163318912Y-84303109D01*
X163264268Y-84462216D01*
X163201248Y-84646522D01*
X163131653Y-84850707D01*
X163057282Y-85069447D01*
X162979935Y-85297421D01*
X162901412Y-85529306D01*
X162823513Y-85759780D01*
X162748038Y-85983521D01*
X162676786Y-86195206D01*
X162611558Y-86389512D01*
X162554154Y-86561119D01*
X162506373Y-86704702D01*
X162470015Y-86814941D01*
X162446881Y-86886512D01*
X162438769Y-86914094D01*
X162456842Y-86921263D01*
X162514102Y-86932039D01*
X162596941Y-86943062D01*
X162658992Y-86952119D01*
X162779042Y-86976262D01*
X162914200Y-87009138D01*
X163051216Y-87047007D01*
X163176841Y-87086127D01*
X163277826Y-87122756D01*
X163284325Y-87125887D01*
X163340920Y-87153153D01*
X163397392Y-87200526D01*
X163457764Y-87288404D01*
X163505361Y-87412317D01*
X163543939Y-87580166D01*
X163577791Y-87843182D01*
X163579922Y-88210931D01*
X163531866Y-88592369D01*
X163486829Y-88773461D01*
X163433634Y-88987358D01*
X163358457Y-89232255D01*
X163506739Y-89308730D01*
X163574779Y-89346372D01*
X163669392Y-89405758D01*
X163741347Y-89458883D01*
X163767129Y-89481206D01*
X163804173Y-89519721D01*
X163807797Y-89546701D01*
X163783263Y-89576972D01*
X163751283Y-89602335D01*
X163724943Y-89607472D01*
X163720898Y-89605587D01*
X163681466Y-89610556D01*
X163619162Y-89631948D01*
X163602190Y-89638746D01*
X163544456Y-89656903D01*
X163514957Y-89657999D01*
X163511858Y-89656509D01*
X163474550Y-89661630D01*
X163413692Y-89682822D01*
X163401316Y-89687944D01*
X163340224Y-89711746D01*
X163305099Y-89722999D01*
X163304619Y-89723073D01*
X163239828Y-89740065D01*
X163150869Y-89772045D01*
X163147854Y-89773469D01*
X163108157Y-89806714D01*
X163046806Y-89872376D01*
X162971605Y-89961656D01*
X162890356Y-90065757D01*
X162846648Y-90123510D01*
X162727862Y-90276302D01*
X162628527Y-90397498D01*
X162551139Y-90484250D01*
X162498194Y-90533709D01*
X162472188Y-90543026D01*
X162470549Y-90537165D01*
X162484994Y-90499288D01*
X162521649Y-90443017D01*
X162546893Y-90409204D01*
X162594102Y-90343060D01*
X162611582Y-90310283D01*
X162601304Y-90305455D01*
X162565239Y-90323154D01*
X162549555Y-90332413D01*
X162482346Y-90376545D01*
X162408969Y-90429282D01*
X162381704Y-90448820D01*
X162381636Y-90448869D01*
X162319463Y-90486131D01*
X162277990Y-90500923D01*
X162246224Y-90510748D01*
X162197980Y-90546513D01*
X162194927Y-90549675D01*
X162115784Y-90627562D01*
X162061865Y-90670267D01*
X162026276Y-90683282D01*
X162016247Y-90684749D01*
X161995898Y-90709333D01*
X161991489Y-90721317D01*
X161956821Y-90735384D01*
X161937923Y-90740483D01*
X161917744Y-90775999D01*
X161914750Y-90794773D01*
X161896274Y-90803344D01*
X161872631Y-90815936D01*
X161822268Y-90857456D01*
X161754429Y-90918987D01*
X161678306Y-90991579D01*
X161603095Y-91066281D01*
X161537989Y-91134144D01*
X161492184Y-91186217D01*
X161474872Y-91213551D01*
X161464651Y-91230589D01*
X161426819Y-91276360D01*
X161370667Y-91337707D01*
X161326091Y-91386495D01*
X161283086Y-91438947D01*
X161266462Y-91467200D01*
X161261701Y-91482734D01*
X161233898Y-91522582D01*
X161205432Y-91558772D01*
X161166249Y-91619305D01*
X161131164Y-91680596D01*
X161231377Y-91620514D01*
X161255364Y-91605865D01*
X161324942Y-91560618D01*
X161372718Y-91525652D01*
X161399851Y-91506028D01*
X161436208Y-91490872D01*
X161443679Y-91497969D01*
X161422988Y-91528930D01*
X161372545Y-91578384D01*
X161299918Y-91639663D01*
X161212675Y-91706094D01*
X161118383Y-91771008D01*
X161078301Y-91797530D01*
X160994143Y-91859119D01*
X160951042Y-91903195D01*
X160944746Y-91933743D01*
X160948881Y-91945982D01*
X160955644Y-92020213D01*
X160947505Y-92113302D01*
X160927714Y-92201681D01*
X160899521Y-92261781D01*
X160891245Y-92275451D01*
X160893286Y-92307371D01*
X160897538Y-92313590D01*
X160881713Y-92324513D01*
X160871072Y-92334417D01*
X160861381Y-92382644D01*
X160859588Y-92457629D01*
X160865119Y-92544392D01*
X160877399Y-92627952D01*
X160895854Y-92693330D01*
X160926305Y-92739285D01*
X161001939Y-92779529D01*
X161071139Y-92813573D01*
X161143631Y-92892660D01*
X161163111Y-92919978D01*
X161222525Y-92995918D01*
X161299700Y-93088742D01*
X161382943Y-93184205D01*
X161446558Y-93257061D01*
X161512591Y-93340692D01*
X161566608Y-93423627D01*
X161613670Y-93516083D01*
X161658837Y-93628273D01*
X161707171Y-93770413D01*
X161763735Y-93952718D01*
X161820979Y-94156459D01*
X161878257Y-94387729D01*
X161933558Y-94636052D01*
X161985138Y-94891832D01*
X162031251Y-95145470D01*
X162070154Y-95387368D01*
X162100102Y-95607927D01*
X162119350Y-95797550D01*
X162126154Y-95946637D01*
X162126631Y-95969240D01*
X162133421Y-96026276D01*
X162145692Y-96048439D01*
X162146299Y-96048386D01*
X162188182Y-96035377D01*
X162267679Y-96003202D01*
X162376095Y-95955914D01*
X162504737Y-95897563D01*
X162644909Y-95832204D01*
X162787917Y-95763888D01*
X162925067Y-95696668D01*
X163047664Y-95634596D01*
X163147013Y-95581726D01*
X163211063Y-95545917D01*
X163759766Y-95207007D01*
X164285974Y-94824254D01*
X164785310Y-94401903D01*
X165253397Y-93944198D01*
X165685860Y-93455383D01*
X166078322Y-92939702D01*
X166426407Y-92401399D01*
X166569199Y-92151275D01*
X166871114Y-91549738D01*
X167123417Y-90932610D01*
X167326471Y-90298816D01*
X167480643Y-89647279D01*
X167586295Y-88976923D01*
X167591222Y-88932972D01*
X167607264Y-88740267D01*
X167619210Y-88514255D01*
X167626971Y-88267107D01*
X167630458Y-88010995D01*
X167629579Y-87758088D01*
X167624245Y-87520558D01*
X167614367Y-87310574D01*
X167599854Y-87140308D01*
X167595681Y-87104665D01*
X167528029Y-86631738D01*
X167439134Y-86163736D01*
X167332239Y-85715956D01*
X167210586Y-85303692D01*
X167100334Y-84989735D01*
X166847724Y-84386552D01*
X166548817Y-83802099D01*
X166206370Y-83240383D01*
X165823141Y-82705410D01*
X165401885Y-82201187D01*
X164945362Y-81731722D01*
X164456327Y-81301021D01*
X164419450Y-81271468D01*
X164320947Y-81195084D01*
X164206138Y-81108610D01*
X164083279Y-81017992D01*
X163960624Y-80929178D01*
X163846427Y-80848114D01*
X163748942Y-80780745D01*
X163676425Y-80733019D01*
X163637128Y-80710881D01*
X163632705Y-80709099D01*
X163582526Y-80681436D01*
X163519898Y-80639363D01*
X163453103Y-80595032D01*
X163340846Y-80528112D01*
X163201215Y-80449848D01*
X163044865Y-80365946D01*
X162882451Y-80282105D01*
X162724628Y-80204031D01*
X162582051Y-80137424D01*
X162561565Y-80128259D01*
X161929830Y-79873890D01*
X161289796Y-79670366D01*
X160642742Y-79518043D01*
X159989949Y-79417275D01*
X159985035Y-79416713D01*
X159813370Y-79396382D01*
X159689561Y-79383248D01*
X159609553Y-79381374D01*
X159569289Y-79394824D01*
X159564714Y-79427661D01*
X159464520Y-79427661D01*
X159430857Y-79377025D01*
X159124249Y-79377025D01*
X159006344Y-79378152D01*
X158908286Y-79381276D01*
X158841997Y-79385916D01*
X158817641Y-79391589D01*
X158719877Y-79391589D01*
X158709125Y-79377025D01*
X158535275Y-79377025D01*
X158413735Y-79381217D01*
X158244631Y-79394266D01*
X158048254Y-79414765D01*
X157836968Y-79441278D01*
X157623138Y-79472370D01*
X157419130Y-79506605D01*
X157393051Y-79511423D01*
X157269430Y-79536097D01*
X157130301Y-79566179D01*
X156985160Y-79599351D01*
X156843505Y-79633296D01*
X156714832Y-79665698D01*
X156608636Y-79694239D01*
X156534416Y-79716602D01*
X156501668Y-79730469D01*
X155955197Y-79730469D01*
X156203263Y-79637134D01*
X156838976Y-79451451D01*
X157492213Y-79313711D01*
X157647831Y-79287957D01*
X157923168Y-79248032D01*
X158181453Y-79219570D01*
X158439891Y-79201172D01*
X158715688Y-79191439D01*
X159026051Y-79188972D01*
X159371033Y-79195709D01*
X160016382Y-79242817D01*
X160644747Y-79335847D01*
X161263163Y-79475971D01*
X161878667Y-79664363D01*
X162067525Y-79732019D01*
X162684441Y-79988062D01*
X163275580Y-80287689D01*
X163839094Y-80628726D01*
X164373137Y-81009004D01*
X164875862Y-81426350D01*
X165345422Y-81878592D01*
X165779969Y-82363559D01*
X166177656Y-82879079D01*
X166536637Y-83422981D01*
X166855063Y-83993094D01*
X167131089Y-84587245D01*
X167362866Y-85203263D01*
X167548549Y-85838976D01*
X167686289Y-86492213D01*
X167712043Y-86647831D01*
X167751968Y-86923168D01*
X167780430Y-87181452D01*
X167798828Y-87439890D01*
X167808561Y-87715688D01*
X167810908Y-88010995D01*
X167811028Y-88026051D01*
G37*
G36*
X149787994Y-84797387D02*
G01*
X149918344Y-84833181D01*
X149977864Y-84851289D01*
X150061313Y-84879806D01*
X150112787Y-84909953D01*
X150135955Y-84951463D01*
X150134488Y-85014067D01*
X150112057Y-85107498D01*
X150072330Y-85241485D01*
X150067434Y-85257826D01*
X150035463Y-85361198D01*
X150011765Y-85424326D01*
X149990870Y-85455927D01*
X149967310Y-85464720D01*
X149935615Y-85459425D01*
X149889308Y-85446014D01*
X149859609Y-85433215D01*
X149859112Y-85432238D01*
X149863189Y-85399436D01*
X149879581Y-85331773D01*
X149905145Y-85242417D01*
X149907794Y-85233669D01*
X149934300Y-85142742D01*
X149953076Y-85072312D01*
X149960205Y-85036993D01*
X149951934Y-85024431D01*
X149910056Y-85000803D01*
X149851356Y-84979908D01*
X149796946Y-84968662D01*
X149767934Y-84973985D01*
X149754603Y-85007274D01*
X149731244Y-85078555D01*
X149702822Y-85172154D01*
X149673488Y-85273671D01*
X149647395Y-85368706D01*
X149628695Y-85442859D01*
X149621539Y-85481729D01*
X149642219Y-85504593D01*
X149701435Y-85535957D01*
X149786306Y-85570313D01*
X149883859Y-85603299D01*
X149981124Y-85630549D01*
X150065127Y-85647701D01*
X150122897Y-85650391D01*
X150124909Y-85650056D01*
X150149533Y-85638007D01*
X150173092Y-85606384D01*
X150199042Y-85547453D01*
X150230837Y-85453476D01*
X150271934Y-85316718D01*
X150273237Y-85312261D01*
X150313314Y-85183415D01*
X150349448Y-85082313D01*
X150378677Y-85016541D01*
X150398041Y-84993682D01*
X150411672Y-84994866D01*
X150468205Y-85000195D01*
X150469984Y-85000389D01*
X150491888Y-85008472D01*
X150502527Y-85030921D01*
X150500947Y-85074777D01*
X150486194Y-85147084D01*
X150457314Y-85254881D01*
X150413355Y-85405211D01*
X150373126Y-85537626D01*
X150337412Y-85644944D01*
X150307295Y-85717787D01*
X150278581Y-85764504D01*
X150247080Y-85793444D01*
X150208597Y-85812955D01*
X150200565Y-85816255D01*
X150173106Y-85827028D01*
X150147563Y-85831818D01*
X150113508Y-85829048D01*
X150060514Y-85817138D01*
X149978154Y-85794512D01*
X149856000Y-85759590D01*
X149762655Y-85733004D01*
X149668066Y-85706301D01*
X149602713Y-85688139D01*
X149577019Y-85681436D01*
X149544829Y-85660189D01*
X149507999Y-85608041D01*
X149477873Y-85544144D01*
X149465477Y-85487652D01*
X149471504Y-85438847D01*
X149490051Y-85352250D01*
X149517658Y-85243413D01*
X149550792Y-85124488D01*
X149585923Y-85007626D01*
X149619518Y-84904980D01*
X149648045Y-84828700D01*
X149667973Y-84790940D01*
X149704289Y-84783792D01*
X149787994Y-84797387D01*
G37*
G36*
X161484848Y-96596479D02*
G01*
X161494126Y-96617662D01*
X161513920Y-96680435D01*
X161540555Y-96774212D01*
X161571445Y-96888839D01*
X161604002Y-97014163D01*
X161635639Y-97140028D01*
X161663769Y-97256282D01*
X161685806Y-97352771D01*
X161699162Y-97419340D01*
X161701250Y-97445837D01*
X161678778Y-97452770D01*
X161625940Y-97466153D01*
X161616313Y-97468448D01*
X161589747Y-97472495D01*
X161568669Y-97466050D01*
X161550232Y-97442395D01*
X161531593Y-97394811D01*
X161509905Y-97316582D01*
X161482324Y-97200989D01*
X161446004Y-97041316D01*
X161430413Y-96974341D01*
X161405922Y-96876656D01*
X161385915Y-96805924D01*
X161373641Y-96774136D01*
X161354577Y-96771853D01*
X161293494Y-96779363D01*
X161201781Y-96797040D01*
X161090616Y-96822957D01*
X161000000Y-96846274D01*
X160904200Y-96875471D01*
X160847899Y-96904009D01*
X160824313Y-96938211D01*
X160826658Y-96984400D01*
X160848149Y-97048895D01*
X160852794Y-97060222D01*
X160886738Y-97107262D01*
X160941322Y-97129129D01*
X161025683Y-97127497D01*
X161148956Y-97104043D01*
X161149709Y-97103868D01*
X161243332Y-97085178D01*
X161319306Y-97075400D01*
X161361244Y-97076649D01*
X161389513Y-97105400D01*
X161397660Y-97155070D01*
X161383670Y-97201584D01*
X161349398Y-97222154D01*
X161346266Y-97222408D01*
X161303981Y-97248922D01*
X161242430Y-97315271D01*
X161166681Y-97416076D01*
X161131601Y-97465712D01*
X161072341Y-97543147D01*
X161024730Y-97590672D01*
X160977885Y-97617970D01*
X160920924Y-97634722D01*
X160891423Y-97641360D01*
X160830226Y-97655360D01*
X160801765Y-97662236D01*
X160801691Y-97661025D01*
X160818741Y-97632940D01*
X160857871Y-97575172D01*
X160912483Y-97497537D01*
X160927096Y-97476946D01*
X160980475Y-97399595D01*
X161017894Y-97341933D01*
X161032000Y-97315178D01*
X161016515Y-97305500D01*
X160968098Y-97300308D01*
X160853987Y-97279761D01*
X160764670Y-97215992D01*
X160704559Y-97109582D01*
X160674173Y-96961133D01*
X160669014Y-96892532D01*
X160671274Y-96833675D01*
X160687837Y-96798263D01*
X160722817Y-96770147D01*
X160744822Y-96758431D01*
X160816981Y-96731069D01*
X160917267Y-96700656D01*
X161034522Y-96669733D01*
X161157590Y-96640844D01*
X161275313Y-96616532D01*
X161376536Y-96599338D01*
X161450100Y-96591806D01*
X161484848Y-96596479D01*
G37*
G36*
X167965658Y-89028234D02*
G01*
X168040985Y-89036751D01*
X168151057Y-89053823D01*
X168304102Y-89079993D01*
X168382406Y-89093716D01*
X168513522Y-89117057D01*
X168621946Y-89136819D01*
X168698126Y-89151250D01*
X168732509Y-89158597D01*
X168749240Y-89187248D01*
X168749657Y-89244191D01*
X168738398Y-89320900D01*
X168486789Y-89275739D01*
X168417224Y-89263579D01*
X168321692Y-89248128D01*
X168254576Y-89238899D01*
X168227275Y-89237570D01*
X168227256Y-89237587D01*
X168242959Y-89256217D01*
X168291152Y-89301450D01*
X168364389Y-89366522D01*
X168455223Y-89444665D01*
X168546487Y-89522810D01*
X168621637Y-89588527D01*
X168672422Y-89634519D01*
X168691077Y-89653894D01*
X168688831Y-89670866D01*
X168664607Y-89708026D01*
X168608672Y-89745876D01*
X168514682Y-89788135D01*
X168376296Y-89838522D01*
X168269609Y-89875893D01*
X168179247Y-89909284D01*
X168119595Y-89933381D01*
X168100013Y-89944593D01*
X168105302Y-89946848D01*
X168149522Y-89957914D01*
X168227936Y-89974390D01*
X168328187Y-89993620D01*
X168437634Y-90013927D01*
X168522489Y-90031541D01*
X168572040Y-90046997D01*
X168594764Y-90064364D01*
X168599138Y-90087717D01*
X168593641Y-90121126D01*
X168591100Y-90134195D01*
X168583407Y-90159492D01*
X168567737Y-90175744D01*
X168536866Y-90182957D01*
X168483570Y-90181137D01*
X168400626Y-90170292D01*
X168280810Y-90150427D01*
X168116900Y-90121548D01*
X168098465Y-90118261D01*
X167916966Y-90082586D01*
X167787228Y-90048703D01*
X167709076Y-90014626D01*
X167682334Y-89978371D01*
X167706827Y-89937953D01*
X167782378Y-89891386D01*
X167908812Y-89836686D01*
X168085954Y-89771867D01*
X168106634Y-89764629D01*
X168224665Y-89722045D01*
X168322268Y-89684731D01*
X168389797Y-89656487D01*
X168417609Y-89641116D01*
X168417561Y-89638345D01*
X168394321Y-89608653D01*
X168339255Y-89554522D01*
X168259396Y-89482598D01*
X168161782Y-89399524D01*
X168037768Y-89296118D01*
X167946216Y-89217620D01*
X167885843Y-89161392D01*
X167852015Y-89122022D01*
X167840099Y-89094093D01*
X167845461Y-89072193D01*
X167863469Y-89050905D01*
X167865860Y-89048579D01*
X167886325Y-89034691D01*
X167916848Y-89027729D01*
X167965658Y-89028234D01*
G37*
G36*
X160387715Y-78237296D02*
G01*
X160524000Y-78258894D01*
X160620801Y-78276012D01*
X160749601Y-78303115D01*
X160840319Y-78330932D01*
X160901614Y-78363306D01*
X160942146Y-78404080D01*
X160970573Y-78457098D01*
X160992128Y-78549175D01*
X160974590Y-78663974D01*
X160909455Y-78768093D01*
X160885239Y-78793209D01*
X160852673Y-78817091D01*
X160811462Y-78827168D01*
X160747233Y-78826074D01*
X160645612Y-78816444D01*
X160644463Y-78816325D01*
X160528093Y-78805576D01*
X160414677Y-78797294D01*
X160328616Y-78793263D01*
X160295357Y-78792866D01*
X160238591Y-78797766D01*
X160212932Y-78817691D01*
X160203311Y-78860760D01*
X160203161Y-78862080D01*
X160203190Y-78901908D01*
X160218324Y-78932393D01*
X160255872Y-78956766D01*
X160323144Y-78978260D01*
X160427451Y-79000104D01*
X160576103Y-79025531D01*
X160676275Y-79042677D01*
X160777094Y-79061823D01*
X160848801Y-79077665D01*
X160880201Y-79087907D01*
X160888354Y-79117783D01*
X160883677Y-79175128D01*
X160872323Y-79224544D01*
X160863653Y-79246769D01*
X160861272Y-79246440D01*
X160822964Y-79239740D01*
X160745497Y-79225719D01*
X160638411Y-79206112D01*
X160511243Y-79182655D01*
X160369117Y-79154526D01*
X160239416Y-79122099D01*
X160147976Y-79087628D01*
X160087364Y-79047277D01*
X160050150Y-78997207D01*
X160028900Y-78933581D01*
X160024501Y-78895567D01*
X160042813Y-78793692D01*
X160095555Y-78699828D01*
X160172989Y-78634211D01*
X160211490Y-78616384D01*
X160253610Y-78605886D01*
X160307539Y-78605257D01*
X160386398Y-78614468D01*
X160503311Y-78633489D01*
X160521510Y-78636558D01*
X160650501Y-78654860D01*
X160737613Y-78657713D01*
X160790439Y-78643257D01*
X160816567Y-78609632D01*
X160823590Y-78554976D01*
X160823541Y-78548426D01*
X160819861Y-78520385D01*
X160804621Y-78498956D01*
X160769862Y-78481062D01*
X160707624Y-78463626D01*
X160609948Y-78443568D01*
X160468873Y-78417812D01*
X160400693Y-78405251D01*
X160304101Y-78384654D01*
X160245309Y-78365938D01*
X160215217Y-78345757D01*
X160204723Y-78320769D01*
X160202074Y-78288663D01*
X160209565Y-78252249D01*
X160238001Y-78232520D01*
X160294883Y-78228020D01*
X160387715Y-78237296D01*
G37*
G36*
X151821057Y-93382498D02*
G01*
X151836652Y-93392402D01*
X151884988Y-93437839D01*
X151951260Y-93510168D01*
X152027933Y-93600006D01*
X152107475Y-93697973D01*
X152182353Y-93794687D01*
X152245032Y-93880767D01*
X152287981Y-93946831D01*
X152303664Y-93983498D01*
X152301277Y-93991616D01*
X152267892Y-94035227D01*
X152198892Y-94103732D01*
X152099042Y-94192607D01*
X151973110Y-94297326D01*
X151895745Y-94359698D01*
X151795280Y-94439990D01*
X151714973Y-94503317D01*
X151661575Y-94544369D01*
X151641835Y-94557839D01*
X151627872Y-94538655D01*
X151593341Y-94496302D01*
X151583679Y-94484427D01*
X151572003Y-94463049D01*
X151574894Y-94439745D01*
X151597478Y-94408272D01*
X151644882Y-94362385D01*
X151722232Y-94295840D01*
X151834656Y-94202394D01*
X152122588Y-93964081D01*
X151951011Y-93756692D01*
X151898998Y-93694468D01*
X151831788Y-93616152D01*
X151781160Y-93559697D01*
X151755275Y-93534371D01*
X151745946Y-93533283D01*
X151705042Y-93553669D01*
X151651435Y-93599121D01*
X151606385Y-93652248D01*
X151588421Y-93702947D01*
X151600505Y-93760515D01*
X151644791Y-93835053D01*
X151723432Y-93936662D01*
X151745687Y-93964298D01*
X151800910Y-94040050D01*
X151822982Y-94091041D01*
X151814299Y-94127129D01*
X151777257Y-94158172D01*
X151737662Y-94170095D01*
X151687628Y-94143046D01*
X151681583Y-94138490D01*
X151625559Y-94113889D01*
X151537361Y-94088817D01*
X151433215Y-94068055D01*
X151407974Y-94063967D01*
X151307894Y-94044723D01*
X151240656Y-94022632D01*
X151190423Y-93990895D01*
X151141360Y-93942708D01*
X151113309Y-93911222D01*
X151075581Y-93864712D01*
X151063865Y-93843348D01*
X151065379Y-93842848D01*
X151100353Y-93845644D01*
X151170980Y-93856380D01*
X151264217Y-93873117D01*
X151282668Y-93876606D01*
X151372252Y-93892717D01*
X151436452Y-93902890D01*
X151462401Y-93905052D01*
X151462687Y-93900091D01*
X151455166Y-93859610D01*
X151438675Y-93792930D01*
X151429623Y-93750671D01*
X151433162Y-93638146D01*
X151483673Y-93538181D01*
X151583720Y-93444616D01*
X151593281Y-93437656D01*
X151679937Y-93384948D01*
X151750627Y-93367932D01*
X151821057Y-93382498D01*
G37*
G36*
X167262817Y-82661299D02*
G01*
X167267224Y-82668374D01*
X167335546Y-82781290D01*
X167393782Y-82883249D01*
X167435884Y-82963305D01*
X167455802Y-83010515D01*
X167458146Y-83021220D01*
X167452757Y-83117862D01*
X167408114Y-83208404D01*
X167334782Y-83277886D01*
X167243325Y-83311351D01*
X167226883Y-83312916D01*
X167143158Y-83310995D01*
X167071720Y-83285985D01*
X167004429Y-83231658D01*
X166933148Y-83141788D01*
X166849740Y-83010145D01*
X166818495Y-82958847D01*
X166763092Y-82878526D01*
X166718648Y-82836437D01*
X166677287Y-82826555D01*
X166631139Y-82842856D01*
X166596710Y-82871822D01*
X166585152Y-82917287D01*
X166601451Y-82983945D01*
X166647254Y-83078227D01*
X166724205Y-83206564D01*
X166766890Y-83275386D01*
X166818806Y-83362944D01*
X166854324Y-83427788D01*
X166867487Y-83459404D01*
X166853586Y-83482720D01*
X166808872Y-83513435D01*
X166769992Y-83532323D01*
X166747765Y-83543467D01*
X166744566Y-83541071D01*
X166720952Y-83507689D01*
X166680042Y-83443289D01*
X166627940Y-83358137D01*
X166570750Y-83262504D01*
X166514573Y-83166658D01*
X166465515Y-83080867D01*
X166429679Y-83015401D01*
X166413167Y-82980527D01*
X166408796Y-82962177D01*
X166415429Y-82870979D01*
X166460849Y-82785564D01*
X166534393Y-82716591D01*
X166625398Y-82674719D01*
X166723204Y-82670606D01*
X166771688Y-82684373D01*
X166824679Y-82715624D01*
X166879413Y-82770229D01*
X166943302Y-82855821D01*
X167023763Y-82980034D01*
X167028991Y-82988389D01*
X167086097Y-83075227D01*
X167127806Y-83125372D01*
X167162921Y-83147270D01*
X167200245Y-83149367D01*
X167248496Y-83139006D01*
X167280242Y-83117664D01*
X167291201Y-83081119D01*
X167279801Y-83024832D01*
X167244467Y-82944264D01*
X167183626Y-82834876D01*
X167095704Y-82692127D01*
X166979129Y-82511480D01*
X166959091Y-82474919D01*
X166966363Y-82446611D01*
X167014295Y-82416769D01*
X167086599Y-82378886D01*
X167262817Y-82661299D01*
G37*
G36*
X160270323Y-96835982D02*
G01*
X160321372Y-96846006D01*
X160361829Y-96865784D01*
X160401412Y-96896002D01*
X160464008Y-96969898D01*
X160497605Y-97076809D01*
X160482066Y-97193100D01*
X160469556Y-97223483D01*
X160426750Y-97281853D01*
X160358455Y-97324148D01*
X160255826Y-97354768D01*
X160110018Y-97378109D01*
X160071963Y-97382982D01*
X159969745Y-97397543D01*
X159889847Y-97411022D01*
X159846994Y-97421017D01*
X159819048Y-97452136D01*
X159808087Y-97509804D01*
X159817386Y-97568460D01*
X159846950Y-97603611D01*
X159882817Y-97606288D01*
X159958825Y-97603599D01*
X160061323Y-97596404D01*
X160177393Y-97585881D01*
X160294114Y-97573208D01*
X160398565Y-97559561D01*
X160477826Y-97546119D01*
X160487124Y-97544433D01*
X160529695Y-97552274D01*
X160552596Y-97600761D01*
X160559333Y-97649195D01*
X160552106Y-97684681D01*
X160544439Y-97688604D01*
X160494839Y-97701402D01*
X160411724Y-97716805D01*
X160308003Y-97732296D01*
X160307296Y-97732391D01*
X160102917Y-97755668D01*
X159943633Y-97763127D01*
X159824383Y-97752998D01*
X159740105Y-97723515D01*
X159685736Y-97672909D01*
X159656213Y-97599412D01*
X159646475Y-97501257D01*
X159658636Y-97415107D01*
X159713774Y-97327840D01*
X159812877Y-97267819D01*
X159955424Y-97235491D01*
X159988903Y-97231734D01*
X160122101Y-97215744D01*
X160213119Y-97201055D01*
X160269966Y-97184456D01*
X160300653Y-97162734D01*
X160313191Y-97132677D01*
X160315590Y-97091073D01*
X160315355Y-97064260D01*
X160307747Y-97020372D01*
X160278095Y-97003889D01*
X160211385Y-97001971D01*
X160195593Y-97002324D01*
X160109948Y-97006590D01*
X159997822Y-97014466D01*
X159879231Y-97024591D01*
X159651282Y-97045957D01*
X159651282Y-96969412D01*
X159651282Y-96892867D01*
X159918308Y-96861978D01*
X159956435Y-96857593D01*
X160097573Y-96842460D01*
X160198963Y-96835028D01*
X160270323Y-96835982D01*
G37*
G36*
X149429476Y-85962873D02*
G01*
X149530422Y-85974559D01*
X149657478Y-85992185D01*
X149801137Y-86014605D01*
X149912620Y-86033050D01*
X150037324Y-86054727D01*
X150122906Y-86072105D01*
X150176702Y-86087442D01*
X150206045Y-86102999D01*
X150218272Y-86121032D01*
X150220718Y-86143802D01*
X150220584Y-86151403D01*
X150211412Y-86190791D01*
X150182336Y-86213397D01*
X150125667Y-86220376D01*
X150033716Y-86212878D01*
X149898793Y-86192058D01*
X149839978Y-86182235D01*
X149735703Y-86165866D01*
X149655073Y-86154571D01*
X149611915Y-86150359D01*
X149607418Y-86152402D01*
X149615793Y-86184761D01*
X149657848Y-86256234D01*
X149733384Y-86366506D01*
X149842202Y-86515261D01*
X149887716Y-86576789D01*
X149981224Y-86708051D01*
X150049512Y-86811623D01*
X150089926Y-86883345D01*
X150099812Y-86919056D01*
X150097426Y-86924555D01*
X150081017Y-86943078D01*
X150049275Y-86953153D01*
X149995025Y-86954563D01*
X149911086Y-86947089D01*
X149790282Y-86930513D01*
X149625434Y-86904615D01*
X149496337Y-86883807D01*
X149369184Y-86862940D01*
X149281362Y-86846831D01*
X149226095Y-86833133D01*
X149196604Y-86819496D01*
X149186111Y-86803572D01*
X149187838Y-86783012D01*
X149195008Y-86755467D01*
X149207883Y-86705182D01*
X149216450Y-86678514D01*
X149239576Y-86680003D01*
X149304313Y-86688944D01*
X149400333Y-86703952D01*
X149517334Y-86723487D01*
X149627985Y-86741622D01*
X149726982Y-86756076D01*
X149795820Y-86764080D01*
X149823942Y-86764229D01*
X149817885Y-86750169D01*
X149785762Y-86700367D01*
X149730709Y-86621459D01*
X149657646Y-86520460D01*
X149571495Y-86404385D01*
X149525948Y-86343443D01*
X149432036Y-86214596D01*
X149367241Y-86118775D01*
X149328863Y-86050675D01*
X149314202Y-86004989D01*
X149320561Y-85976412D01*
X149345240Y-85959638D01*
X149364143Y-85958272D01*
X149429476Y-85962873D01*
G37*
G36*
X164501586Y-95040097D02*
G01*
X164517640Y-95052962D01*
X164560331Y-95101906D01*
X164619891Y-95178661D01*
X164690305Y-95274541D01*
X164765555Y-95380859D01*
X164839624Y-95488930D01*
X164906495Y-95590068D01*
X164960150Y-95675586D01*
X164994574Y-95736798D01*
X165003748Y-95765017D01*
X164987805Y-95782374D01*
X164941658Y-95814332D01*
X164918007Y-95819869D01*
X164889571Y-95806740D01*
X164850960Y-95768416D01*
X164796040Y-95698774D01*
X164718679Y-95591689D01*
X164650664Y-95498266D01*
X164591197Y-95421506D01*
X164548569Y-95371996D01*
X164529127Y-95357574D01*
X164524795Y-95369800D01*
X164512638Y-95425972D01*
X164495626Y-95519126D01*
X164475379Y-95640199D01*
X164453519Y-95780126D01*
X164440337Y-95864044D01*
X164417218Y-95997425D01*
X164395290Y-96108265D01*
X164376533Y-96186875D01*
X164362925Y-96223564D01*
X164344406Y-96244683D01*
X164324868Y-96258090D01*
X164302538Y-96255943D01*
X164272869Y-96233745D01*
X164231313Y-96186997D01*
X164173324Y-96111200D01*
X164094353Y-96001854D01*
X163989855Y-95854461D01*
X163933860Y-95775193D01*
X163865304Y-95676542D01*
X163821341Y-95608543D01*
X163798551Y-95563855D01*
X163793517Y-95535138D01*
X163802820Y-95515052D01*
X163823041Y-95496256D01*
X163863832Y-95465964D01*
X163894014Y-95451835D01*
X163911775Y-95469216D01*
X163953243Y-95521772D01*
X164011414Y-95600990D01*
X164079781Y-95698239D01*
X164143727Y-95787981D01*
X164202312Y-95864070D01*
X164244797Y-95912349D01*
X164264821Y-95925019D01*
X164269208Y-95913052D01*
X164281488Y-95856765D01*
X164298244Y-95763436D01*
X164317853Y-95642345D01*
X164338690Y-95502769D01*
X164362706Y-95345542D01*
X164387947Y-95210385D01*
X164412630Y-95117448D01*
X164438580Y-95061544D01*
X164467623Y-95037489D01*
X164501586Y-95040097D01*
G37*
G36*
X150354910Y-83392202D02*
G01*
X150425135Y-83420027D01*
X150527046Y-83465842D01*
X150668205Y-83532095D01*
X150745865Y-83569038D01*
X150865808Y-83626897D01*
X150964194Y-83675366D01*
X151032479Y-83710211D01*
X151062119Y-83727202D01*
X151068151Y-83757752D01*
X151052798Y-83811792D01*
X151022691Y-83877870D01*
X150748660Y-83749586D01*
X150645078Y-83702054D01*
X150554333Y-83662358D01*
X150491354Y-83637046D01*
X150465756Y-83630176D01*
X150468157Y-83644359D01*
X150485583Y-83700154D01*
X150516809Y-83790438D01*
X150558963Y-83906973D01*
X150609175Y-84041525D01*
X150650544Y-84152574D01*
X150699176Y-84291293D01*
X150728967Y-84390427D01*
X150741327Y-84454888D01*
X150737664Y-84489590D01*
X150720266Y-84514941D01*
X150689381Y-84535179D01*
X150672311Y-84529830D01*
X150613752Y-84505485D01*
X150522504Y-84464865D01*
X150406937Y-84411715D01*
X150275419Y-84349784D01*
X150149190Y-84289468D01*
X150041590Y-84236656D01*
X149969611Y-84198140D01*
X149927069Y-84169683D01*
X149907780Y-84147048D01*
X149905561Y-84125999D01*
X149914226Y-84102297D01*
X149940440Y-84061357D01*
X149972791Y-84040205D01*
X149992340Y-84045393D01*
X150052590Y-84069348D01*
X150140250Y-84108337D01*
X150243927Y-84157436D01*
X150316691Y-84192399D01*
X150408088Y-84234856D01*
X150474509Y-84263902D01*
X150505103Y-84274666D01*
X150504738Y-84259185D01*
X150489231Y-84202357D01*
X150459563Y-84111201D01*
X150418309Y-83993563D01*
X150368045Y-83857285D01*
X150333503Y-83765328D01*
X150286272Y-83636746D01*
X150255049Y-83545028D01*
X150237966Y-83482720D01*
X150233155Y-83442367D01*
X150238748Y-83416513D01*
X150252876Y-83397703D01*
X150258751Y-83392210D01*
X150279279Y-83380740D01*
X150308812Y-83379922D01*
X150354910Y-83392202D01*
G37*
G36*
X168734706Y-86707180D02*
G01*
X168740402Y-86732759D01*
X168747716Y-86788810D01*
X168750503Y-86828144D01*
X168740158Y-86855688D01*
X168702818Y-86867924D01*
X168625949Y-86873577D01*
X168569647Y-86876467D01*
X168478142Y-86884014D01*
X168425352Y-86901078D01*
X168402191Y-86937402D01*
X168399569Y-87002728D01*
X168408400Y-87106799D01*
X168409318Y-87116962D01*
X168418472Y-87227506D01*
X168425417Y-87327141D01*
X168428711Y-87395394D01*
X168430564Y-87481147D01*
X168625949Y-87463442D01*
X168821334Y-87445736D01*
X168821334Y-87527483D01*
X168820038Y-87559768D01*
X168804475Y-87599941D01*
X168762718Y-87611359D01*
X168757118Y-87611624D01*
X168701159Y-87615699D01*
X168607296Y-87623610D01*
X168487168Y-87634349D01*
X168352410Y-87646907D01*
X168322723Y-87649725D01*
X168191971Y-87662069D01*
X168079703Y-87672562D01*
X167997046Y-87680169D01*
X167955128Y-87683855D01*
X167949740Y-87684090D01*
X167918535Y-87667882D01*
X167909539Y-87612018D01*
X167909929Y-87596681D01*
X167921644Y-87549827D01*
X167956720Y-87521935D01*
X168024642Y-87508502D01*
X168134896Y-87505025D01*
X168277837Y-87505025D01*
X168261856Y-87290102D01*
X168260232Y-87268690D01*
X168250754Y-87156224D01*
X168240991Y-87057020D01*
X168232821Y-86990442D01*
X168219766Y-86905704D01*
X168042060Y-86922220D01*
X167864353Y-86938736D01*
X167852381Y-86857163D01*
X167848337Y-86818228D01*
X167857837Y-86783446D01*
X167894512Y-86774509D01*
X167908210Y-86773886D01*
X167971908Y-86769432D01*
X168072121Y-86761465D01*
X168198172Y-86750852D01*
X168339385Y-86738457D01*
X168409906Y-86732212D01*
X168537121Y-86721322D01*
X168639715Y-86713038D01*
X168708601Y-86708080D01*
X168734690Y-86707167D01*
X168734706Y-86707180D01*
G37*
G36*
X167753411Y-90319329D02*
G01*
X167804638Y-90331170D01*
X167892131Y-90355118D01*
X168005718Y-90388312D01*
X168135226Y-90427893D01*
X168192747Y-90445862D01*
X168313939Y-90484505D01*
X168395363Y-90513099D01*
X168444305Y-90535479D01*
X168468047Y-90555480D01*
X168473871Y-90576937D01*
X168469062Y-90603685D01*
X168455608Y-90650007D01*
X168442637Y-90679893D01*
X168440178Y-90680339D01*
X168402315Y-90672821D01*
X168326668Y-90652388D01*
X168222625Y-90621682D01*
X168099575Y-90583346D01*
X167985569Y-90547760D01*
X167876428Y-90516665D01*
X167803081Y-90500833D01*
X167758140Y-90498759D01*
X167734212Y-90508938D01*
X167709358Y-90548484D01*
X167677240Y-90628396D01*
X167646281Y-90728369D01*
X167621101Y-90831404D01*
X167606322Y-90920498D01*
X167606562Y-90978652D01*
X167633648Y-91023342D01*
X167698331Y-91067681D01*
X167778954Y-91092013D01*
X167855648Y-91087644D01*
X167864980Y-91083001D01*
X167904949Y-91037041D01*
X167949127Y-90954333D01*
X167992194Y-90846064D01*
X168028831Y-90723420D01*
X168049104Y-90681454D01*
X168099284Y-90658108D01*
X168166687Y-90680651D01*
X168179264Y-90707729D01*
X168175153Y-90772319D01*
X168153712Y-90859828D01*
X168119399Y-90957833D01*
X168076671Y-91053907D01*
X168029983Y-91135626D01*
X167983793Y-91190565D01*
X167893400Y-91239441D01*
X167781769Y-91253027D01*
X167667244Y-91230736D01*
X167562344Y-91177037D01*
X167479589Y-91096402D01*
X167431496Y-90993303D01*
X167428970Y-90950381D01*
X167441900Y-90858774D01*
X167470219Y-90745910D01*
X167509055Y-90626306D01*
X167553536Y-90514478D01*
X167598791Y-90424943D01*
X167639947Y-90372216D01*
X167642138Y-90370508D01*
X167700482Y-90333764D01*
X167746432Y-90318564D01*
X167753411Y-90319329D01*
G37*
G36*
X166287366Y-93160109D02*
G01*
X166329639Y-93185147D01*
X166401365Y-93234093D01*
X166494132Y-93300675D01*
X166599532Y-93378625D01*
X166709153Y-93461671D01*
X166814585Y-93543543D01*
X166907419Y-93617971D01*
X166979245Y-93678686D01*
X166979554Y-93678971D01*
X166979088Y-93709904D01*
X166950315Y-93758030D01*
X166900807Y-93819171D01*
X166660613Y-93629700D01*
X166567863Y-93558050D01*
X166488449Y-93499643D01*
X166432827Y-93462071D01*
X166409370Y-93451279D01*
X166408559Y-93466884D01*
X166413462Y-93526724D01*
X166424447Y-93623009D01*
X166440492Y-93746980D01*
X166460574Y-93889882D01*
X166471838Y-93968920D01*
X166492460Y-94129559D01*
X166503116Y-94244337D01*
X166504087Y-94316956D01*
X166495655Y-94351117D01*
X166478670Y-94366000D01*
X166432180Y-94377168D01*
X166415816Y-94368985D01*
X166361705Y-94333143D01*
X166279559Y-94274124D01*
X166177142Y-94197556D01*
X166062220Y-94109065D01*
X165953617Y-94024040D01*
X165861222Y-93950098D01*
X165800432Y-93897660D01*
X165766105Y-93861117D01*
X165753100Y-93834859D01*
X165756274Y-93813275D01*
X165770487Y-93790756D01*
X165802366Y-93751395D01*
X165825616Y-93732101D01*
X165846509Y-93744437D01*
X165900601Y-93783215D01*
X165978883Y-93842177D01*
X166072682Y-93914905D01*
X166160205Y-93981272D01*
X166238337Y-94035639D01*
X166292773Y-94067890D01*
X166315183Y-94072605D01*
X166315764Y-94058883D01*
X166311446Y-93999831D01*
X166301277Y-93904136D01*
X166286300Y-93781253D01*
X166267558Y-93640634D01*
X166256942Y-93562927D01*
X166237984Y-93412023D01*
X166227973Y-93303207D01*
X166227093Y-93229946D01*
X166235527Y-93185705D01*
X166253457Y-93163953D01*
X166281068Y-93158154D01*
X166287366Y-93160109D01*
G37*
G36*
X153394245Y-95008957D02*
G01*
X153388487Y-95018416D01*
X153354231Y-95062898D01*
X153294815Y-95135240D01*
X153216437Y-95227964D01*
X153125293Y-95333589D01*
X153078347Y-95386667D01*
X152988306Y-95483876D01*
X152910569Y-95561904D01*
X152852191Y-95613834D01*
X152820226Y-95632749D01*
X152807268Y-95629922D01*
X152753947Y-95599753D01*
X152679181Y-95543757D01*
X152592892Y-95470904D01*
X152505003Y-95390168D01*
X152425437Y-95310520D01*
X152364116Y-95240931D01*
X152330963Y-95190372D01*
X152319078Y-95156475D01*
X152307038Y-95026855D01*
X152307046Y-95026823D01*
X152461922Y-95026823D01*
X152479145Y-95111298D01*
X152541832Y-95202103D01*
X152557044Y-95218935D01*
X152637421Y-95299130D01*
X152719086Y-95370489D01*
X152815636Y-95446958D01*
X153006269Y-95226203D01*
X153073803Y-95146830D01*
X153135246Y-95071954D01*
X153175204Y-95020010D01*
X153187220Y-94999101D01*
X153185092Y-94997466D01*
X153154978Y-94971587D01*
X153098468Y-94921808D01*
X153025644Y-94856993D01*
X152957275Y-94798137D01*
X152890282Y-94750381D01*
X152834155Y-94727261D01*
X152774962Y-94721231D01*
X152747486Y-94722072D01*
X152690353Y-94734714D01*
X152636413Y-94770109D01*
X152568651Y-94837879D01*
X152566569Y-94840145D01*
X152490838Y-94939498D01*
X152461922Y-95026823D01*
X152307046Y-95026823D01*
X152341415Y-94892791D01*
X152420094Y-94764397D01*
X152498091Y-94676743D01*
X152586075Y-94604246D01*
X152675168Y-94566091D01*
X152777869Y-94554962D01*
X152820898Y-94556298D01*
X152887819Y-94569153D01*
X152953933Y-94602243D01*
X153038382Y-94663549D01*
X153150489Y-94754283D01*
X153252147Y-94843202D01*
X153330852Y-94919356D01*
X153380314Y-94976643D01*
X153389996Y-94999101D01*
X153394245Y-95008957D01*
G37*
G36*
X158497471Y-78143165D02*
G01*
X158612910Y-78170812D01*
X158689736Y-78224693D01*
X158732081Y-78307369D01*
X158744077Y-78421400D01*
X158743639Y-78437254D01*
X158729413Y-78522505D01*
X158690504Y-78584932D01*
X158620107Y-78629106D01*
X158511417Y-78659599D01*
X158357628Y-78680981D01*
X158221476Y-78697077D01*
X158128532Y-78714461D01*
X158071919Y-78736047D01*
X158043741Y-78764853D01*
X158036103Y-78803897D01*
X158039250Y-78835984D01*
X158057507Y-78868133D01*
X158098474Y-78887613D01*
X158169390Y-78895912D01*
X158277495Y-78894520D01*
X158430029Y-78884926D01*
X158432381Y-78884751D01*
X158576959Y-78875176D01*
X158677279Y-78872856D01*
X158740802Y-78879646D01*
X158774993Y-78897402D01*
X158787314Y-78927978D01*
X158785226Y-78973231D01*
X158779396Y-78994390D01*
X158755348Y-79015949D01*
X158702509Y-79029796D01*
X158609231Y-79040375D01*
X158381332Y-79056322D01*
X158199360Y-79059288D01*
X158066940Y-79048904D01*
X157983664Y-79025159D01*
X157940640Y-78993264D01*
X157888277Y-78911470D01*
X157866836Y-78809752D01*
X157881768Y-78705229D01*
X157892390Y-78678514D01*
X157938961Y-78611004D01*
X158012039Y-78565033D01*
X158119835Y-78536738D01*
X158270564Y-78522253D01*
X158404458Y-78512784D01*
X158496556Y-78498059D01*
X158551276Y-78475088D01*
X158576030Y-78440727D01*
X158578228Y-78391837D01*
X158570154Y-78321949D01*
X158238000Y-78328707D01*
X157905846Y-78335466D01*
X157905846Y-78258247D01*
X157906120Y-78242326D01*
X157911674Y-78210970D01*
X157930400Y-78188567D01*
X157970070Y-78172775D01*
X158038456Y-78161247D01*
X158143327Y-78151640D01*
X158292457Y-78141610D01*
X158339289Y-78139195D01*
X158497471Y-78143165D01*
G37*
G36*
X155509128Y-96430331D02*
G01*
X155506233Y-96474464D01*
X155477304Y-96593266D01*
X155423819Y-96716025D01*
X155353828Y-96828865D01*
X155275377Y-96917912D01*
X155196513Y-96969294D01*
X155100283Y-96984701D01*
X154980430Y-96972995D01*
X154862270Y-96935356D01*
X154821378Y-96918177D01*
X154736959Y-96897839D01*
X154653815Y-96905654D01*
X154558380Y-96912716D01*
X154455317Y-96884018D01*
X154399308Y-96857248D01*
X154378856Y-96833760D01*
X154407237Y-96813975D01*
X154485955Y-96793446D01*
X154495481Y-96791396D01*
X154545501Y-96777003D01*
X154553256Y-96754984D01*
X154526535Y-96709156D01*
X154498207Y-96650665D01*
X154481839Y-96528599D01*
X154487915Y-96494754D01*
X154653883Y-96494754D01*
X154657636Y-96589256D01*
X154695026Y-96655044D01*
X154724165Y-96676481D01*
X154793369Y-96718692D01*
X154876519Y-96763286D01*
X154965985Y-96802877D01*
X155073497Y-96827175D01*
X155158367Y-96808884D01*
X155227791Y-96745777D01*
X155288963Y-96635627D01*
X155299359Y-96611638D01*
X155341727Y-96488950D01*
X155347532Y-96395089D01*
X155313031Y-96320937D01*
X155234478Y-96257378D01*
X155108130Y-96195294D01*
X155023922Y-96162661D01*
X154923212Y-96140283D01*
X154846502Y-96153622D01*
X154782943Y-96205592D01*
X154721686Y-96299107D01*
X154682987Y-96381941D01*
X154653883Y-96494754D01*
X154487915Y-96494754D01*
X154507221Y-96387220D01*
X154573696Y-96233163D01*
X154600911Y-96186101D01*
X154689210Y-96069331D01*
X154785622Y-96000025D01*
X154896336Y-95976425D01*
X155027540Y-95996772D01*
X155185420Y-96059307D01*
X155201124Y-96066925D01*
X155343203Y-96148367D01*
X155438640Y-96232349D01*
X155492321Y-96324471D01*
X155503533Y-96395089D01*
X155509128Y-96430331D01*
G37*
G36*
X168040333Y-84630727D02*
G01*
X168165510Y-84692958D01*
X168263192Y-84792903D01*
X168290123Y-84838496D01*
X168332055Y-84929308D01*
X168371610Y-85034656D01*
X168405052Y-85142101D01*
X168428644Y-85239204D01*
X168438650Y-85313528D01*
X168431333Y-85352633D01*
X168423878Y-85357850D01*
X168373800Y-85381473D01*
X168287536Y-85416154D01*
X168174777Y-85458105D01*
X168045217Y-85503538D01*
X167996033Y-85520181D01*
X167869837Y-85561778D01*
X167762603Y-85595573D01*
X167684411Y-85618447D01*
X167645337Y-85627282D01*
X167618331Y-85611934D01*
X167588823Y-85568474D01*
X167571034Y-85519114D01*
X167576117Y-85486535D01*
X167578956Y-85485185D01*
X167617625Y-85471132D01*
X167693945Y-85444960D01*
X167798673Y-85409809D01*
X167922564Y-85368820D01*
X167959438Y-85356679D01*
X168078725Y-85317092D01*
X168176164Y-85284287D01*
X168242526Y-85261391D01*
X168268584Y-85251533D01*
X168269872Y-85242794D01*
X168258497Y-85196861D01*
X168233143Y-85124521D01*
X168199415Y-85039560D01*
X168162919Y-84955764D01*
X168129259Y-84886922D01*
X168104041Y-84846820D01*
X168078818Y-84822838D01*
X168010464Y-84787899D01*
X167920448Y-84779970D01*
X167801121Y-84799023D01*
X167644834Y-84845026D01*
X167579366Y-84866041D01*
X167485148Y-84892533D01*
X167416901Y-84906876D01*
X167386156Y-84906335D01*
X167372162Y-84883528D01*
X167351123Y-84829877D01*
X167350739Y-84828590D01*
X167347207Y-84801749D01*
X167360346Y-84779686D01*
X167398474Y-84757497D01*
X167469909Y-84730273D01*
X167582968Y-84693108D01*
X167646412Y-84673688D01*
X167761588Y-84642675D01*
X167860006Y-84621298D01*
X167925452Y-84613333D01*
X168040333Y-84630727D01*
G37*
G36*
X162401720Y-96262771D02*
G01*
X162428945Y-96292593D01*
X162466701Y-96360548D01*
X162510659Y-96455625D01*
X162556485Y-96566810D01*
X162599849Y-96683092D01*
X162636418Y-96793458D01*
X162661860Y-96886896D01*
X162671843Y-96952394D01*
X162671877Y-96955587D01*
X162661086Y-97020102D01*
X162624038Y-97076823D01*
X162554592Y-97130559D01*
X162446603Y-97186122D01*
X162293928Y-97248322D01*
X162211419Y-97279145D01*
X162112885Y-97314628D01*
X162039637Y-97339414D01*
X162003327Y-97349448D01*
X162000120Y-97349466D01*
X161964969Y-97327070D01*
X161932203Y-97279563D01*
X161917744Y-97229295D01*
X161937196Y-97214129D01*
X161996795Y-97185302D01*
X162086924Y-97147846D01*
X162197795Y-97106069D01*
X162299090Y-97068791D01*
X162397497Y-97030816D01*
X162468459Y-97001403D01*
X162501114Y-96984891D01*
X162503027Y-96979305D01*
X162497580Y-96935420D01*
X162479241Y-96860095D01*
X162452049Y-96766130D01*
X162420041Y-96666327D01*
X162387256Y-96573486D01*
X162357731Y-96500409D01*
X162335505Y-96459896D01*
X162335427Y-96459810D01*
X162305336Y-96460814D01*
X162236888Y-96477793D01*
X162140180Y-96507873D01*
X162025310Y-96548182D01*
X161915684Y-96586590D01*
X161814135Y-96617599D01*
X161742782Y-96633918D01*
X161710670Y-96633106D01*
X161696263Y-96611774D01*
X161673470Y-96557763D01*
X161671095Y-96539812D01*
X161681481Y-96518780D01*
X161713268Y-96495973D01*
X161773445Y-96467658D01*
X161868999Y-96430100D01*
X162006916Y-96379565D01*
X162051061Y-96363827D01*
X162176015Y-96321460D01*
X162282659Y-96288423D01*
X162360847Y-96267735D01*
X162400433Y-96262417D01*
X162401720Y-96262771D01*
G37*
G36*
X157466338Y-96785064D02*
G01*
X157488875Y-96798820D01*
X157486150Y-96823730D01*
X157476875Y-96887841D01*
X157463322Y-96973486D01*
X157460402Y-96992211D01*
X157453040Y-97107983D01*
X157474168Y-97185975D01*
X157527880Y-97233725D01*
X157618270Y-97258770D01*
X157624995Y-97259759D01*
X157726886Y-97274736D01*
X157825734Y-97289241D01*
X157840649Y-97291166D01*
X157925454Y-97286647D01*
X157984782Y-97247514D01*
X158023538Y-97168314D01*
X158046628Y-97043589D01*
X158049467Y-97018717D01*
X158060402Y-96941508D01*
X158075038Y-96901254D01*
X158100763Y-96885924D01*
X158144966Y-96883487D01*
X158225192Y-96883487D01*
X158206897Y-97045188D01*
X158188127Y-97163800D01*
X158144737Y-97297635D01*
X158079549Y-97388503D01*
X157989448Y-97440224D01*
X157871320Y-97456615D01*
X157818602Y-97460079D01*
X157783575Y-97482245D01*
X157765821Y-97538025D01*
X157754802Y-97609544D01*
X157749539Y-97681308D01*
X157741877Y-97720980D01*
X157716975Y-97742824D01*
X157713628Y-97742766D01*
X157644902Y-97732395D01*
X157594721Y-97709663D01*
X157579836Y-97681997D01*
X157582216Y-97672652D01*
X157592585Y-97617821D01*
X157604226Y-97542324D01*
X157609895Y-97498790D01*
X157608330Y-97450173D01*
X157582077Y-97425190D01*
X157520034Y-97405847D01*
X157511025Y-97403226D01*
X157426352Y-97364240D01*
X157357073Y-97311354D01*
X157332276Y-97282176D01*
X157308203Y-97235584D01*
X157298173Y-97172326D01*
X157297777Y-97074817D01*
X157303032Y-96948119D01*
X157313806Y-96861509D01*
X157333276Y-96810163D01*
X157364709Y-96785586D01*
X157411368Y-96779282D01*
X157411882Y-96779282D01*
X157466338Y-96785064D01*
G37*
G36*
X151539101Y-93091713D02*
G01*
X151489443Y-93211644D01*
X151388776Y-93324561D01*
X151236718Y-93431049D01*
X151155464Y-93471907D01*
X151076964Y-93490124D01*
X150977450Y-93488937D01*
X150922291Y-93483849D01*
X150854111Y-93467902D01*
X150799914Y-93433029D01*
X150737093Y-93367841D01*
X150699574Y-93321779D01*
X150628016Y-93218281D01*
X150569706Y-93115882D01*
X150525965Y-93000784D01*
X150521109Y-92942085D01*
X150672480Y-92942085D01*
X150690236Y-92994551D01*
X150731292Y-93074945D01*
X150766837Y-93137310D01*
X150820076Y-93220319D01*
X150864243Y-93278103D01*
X150905193Y-93312966D01*
X150982974Y-93337011D01*
X151079577Y-93319910D01*
X151201171Y-93261356D01*
X151224472Y-93247391D01*
X151321837Y-93173786D01*
X151371523Y-93098488D01*
X151376758Y-93013379D01*
X151340768Y-92910346D01*
X151320382Y-92871292D01*
X151256778Y-92773566D01*
X151186060Y-92690458D01*
X151118197Y-92632713D01*
X151063156Y-92611077D01*
X151055213Y-92611504D01*
X150986226Y-92632946D01*
X150899269Y-92679019D01*
X150810536Y-92738957D01*
X150736225Y-92801999D01*
X150692529Y-92857381D01*
X150674989Y-92900517D01*
X150672480Y-92942085D01*
X150521109Y-92942085D01*
X150515727Y-92877027D01*
X150553133Y-92765489D01*
X150639667Y-92662205D01*
X150776818Y-92563207D01*
X150848920Y-92523191D01*
X150983940Y-92472291D01*
X151102413Y-92465267D01*
X151210667Y-92501216D01*
X151230495Y-92513822D01*
X151301981Y-92579502D01*
X151379336Y-92673042D01*
X151451777Y-92779118D01*
X151508523Y-92882406D01*
X151538794Y-92967584D01*
X151538907Y-93013379D01*
X151539101Y-93091713D01*
G37*
G36*
X150723981Y-91451741D02*
G01*
X150752710Y-91496695D01*
X150792279Y-91574775D01*
X150848255Y-91693040D01*
X150896784Y-91798978D01*
X150943042Y-91905414D01*
X150976792Y-91989260D01*
X150992943Y-92038360D01*
X150995685Y-92060849D01*
X150977649Y-92133629D01*
X150916158Y-92206980D01*
X150808549Y-92283463D01*
X150652157Y-92365635D01*
X150587002Y-92395680D01*
X150488713Y-92438054D01*
X150411910Y-92467518D01*
X150369219Y-92479014D01*
X150357971Y-92479217D01*
X150293756Y-92468482D01*
X150235329Y-92432688D01*
X150177174Y-92365727D01*
X150113778Y-92261489D01*
X150039624Y-92113863D01*
X149993512Y-92016101D01*
X149952078Y-91924185D01*
X149929251Y-91863856D01*
X149922633Y-91826507D01*
X149929830Y-91803529D01*
X149948444Y-91786315D01*
X149982452Y-91765593D01*
X150025091Y-91751384D01*
X150044889Y-91771109D01*
X150081239Y-91829644D01*
X150128104Y-91917649D01*
X150180156Y-92025695D01*
X150228028Y-92127585D01*
X150273613Y-92220119D01*
X150307999Y-92284979D01*
X150326127Y-92312231D01*
X150334161Y-92312805D01*
X150380806Y-92299648D01*
X150455992Y-92270551D01*
X150547221Y-92231220D01*
X150641997Y-92187357D01*
X150727823Y-92144667D01*
X150792202Y-92108853D01*
X150822637Y-92085619D01*
X150820126Y-92057395D01*
X150798743Y-91991079D01*
X150761575Y-91898052D01*
X150712511Y-91788796D01*
X150666770Y-91690269D01*
X150624588Y-91595937D01*
X150595975Y-91527821D01*
X150585436Y-91496291D01*
X150603070Y-91472550D01*
X150651195Y-91443222D01*
X150676772Y-91432983D01*
X150700524Y-91432856D01*
X150723981Y-91451741D01*
G37*
G36*
X168586872Y-88363145D02*
G01*
X168586872Y-88648137D01*
X168684564Y-88656222D01*
X168749480Y-88666288D01*
X168779199Y-88691342D01*
X168790159Y-88745471D01*
X168798061Y-88826635D01*
X168425441Y-88814655D01*
X168383806Y-88813215D01*
X168245316Y-88806990D01*
X168122976Y-88799415D01*
X168028767Y-88791319D01*
X167974667Y-88783528D01*
X167896513Y-88764380D01*
X167905666Y-88493208D01*
X167908081Y-88451347D01*
X168065846Y-88451347D01*
X168065903Y-88490156D01*
X168068427Y-88564725D01*
X168078976Y-88605034D01*
X168103327Y-88624116D01*
X168147257Y-88635000D01*
X168222983Y-88645824D01*
X168313552Y-88651282D01*
X168352573Y-88648658D01*
X168387242Y-88633885D01*
X168409745Y-88598908D01*
X168422678Y-88535758D01*
X168428634Y-88436470D01*
X168430209Y-88293077D01*
X168429973Y-88228972D01*
X168425064Y-88128023D01*
X168409218Y-88069867D01*
X168376437Y-88048200D01*
X168320722Y-88056721D01*
X168236073Y-88089127D01*
X168184786Y-88117030D01*
X168117018Y-88191159D01*
X168078217Y-88300800D01*
X168065846Y-88451347D01*
X167908081Y-88451347D01*
X167913313Y-88360654D01*
X167933903Y-88220121D01*
X167969292Y-88115591D01*
X168022764Y-88038275D01*
X168097601Y-87979384D01*
X168120554Y-87966029D01*
X168208153Y-87927351D01*
X168306594Y-87906224D01*
X168429177Y-87900743D01*
X168589201Y-87909005D01*
X168821334Y-87927377D01*
X168821334Y-88002765D01*
X168820700Y-88029809D01*
X168810379Y-88062720D01*
X168776219Y-88075809D01*
X168704103Y-88078154D01*
X168586872Y-88078154D01*
X168586872Y-88293077D01*
X168586872Y-88363145D01*
G37*
G36*
X158997575Y-84012856D02*
G01*
X159031814Y-84037160D01*
X159088128Y-84089799D01*
X159147966Y-84154893D01*
X159201016Y-84220342D01*
X159236971Y-84274044D01*
X159245521Y-84303899D01*
X159230610Y-84320128D01*
X159192838Y-84321323D01*
X159137629Y-84283156D01*
X159060205Y-84203025D01*
X159054937Y-84197070D01*
X158996421Y-84133476D01*
X158959557Y-84103714D01*
X158933373Y-84102033D01*
X158906899Y-84122684D01*
X158904129Y-84125446D01*
X158884560Y-84151533D01*
X158886101Y-84180193D01*
X158913262Y-84223542D01*
X158970554Y-84293694D01*
X159021290Y-84357430D01*
X159062388Y-84417010D01*
X159078154Y-84451283D01*
X159074412Y-84464543D01*
X159045478Y-84512537D01*
X158997301Y-84573350D01*
X158971181Y-84602076D01*
X158924849Y-84647516D01*
X158898520Y-84665436D01*
X158887202Y-84659499D01*
X158844496Y-84622138D01*
X158779239Y-84556815D01*
X158698733Y-84470962D01*
X158610281Y-84372014D01*
X158581970Y-84337027D01*
X158564829Y-84297597D01*
X158580671Y-84267809D01*
X158599756Y-84258596D01*
X158632014Y-84270472D01*
X158681408Y-84312609D01*
X158755520Y-84390317D01*
X158800868Y-84439431D01*
X158855953Y-84494902D01*
X158891445Y-84520012D01*
X158916617Y-84520324D01*
X158940742Y-84501397D01*
X158945930Y-84496146D01*
X158967569Y-84465667D01*
X158959279Y-84434894D01*
X158917414Y-84385746D01*
X158860999Y-84321038D01*
X158796005Y-84222516D01*
X158776438Y-84142833D01*
X158801858Y-84078519D01*
X158871825Y-84026103D01*
X158940090Y-84001810D01*
X158997575Y-84012856D01*
G37*
G36*
X157863705Y-82789818D02*
G01*
X157915270Y-82809588D01*
X157980956Y-82856488D01*
X158049404Y-82919115D01*
X158109251Y-82986065D01*
X158149140Y-83045937D01*
X158157708Y-83087327D01*
X158156137Y-83091295D01*
X158135467Y-83121140D01*
X158104931Y-83119621D01*
X158057220Y-83083433D01*
X157985024Y-83009272D01*
X157936277Y-82960516D01*
X157876693Y-82914754D01*
X157838424Y-82904250D01*
X157828420Y-82908765D01*
X157803734Y-82943818D01*
X157825069Y-82999249D01*
X157892821Y-83076308D01*
X157948353Y-83140110D01*
X157982651Y-83223364D01*
X157966276Y-83304105D01*
X157899334Y-83387473D01*
X157874640Y-83409770D01*
X157825919Y-83448166D01*
X157799723Y-83460435D01*
X157791594Y-83453825D01*
X157754046Y-83416176D01*
X157694827Y-83353252D01*
X157622472Y-83274028D01*
X157576902Y-83222958D01*
X157518761Y-83153542D01*
X157489430Y-83108325D01*
X157484031Y-83078804D01*
X157497690Y-83056479D01*
X157517149Y-83042258D01*
X157544870Y-83044880D01*
X157585373Y-83076092D01*
X157648890Y-83141656D01*
X157703627Y-83202393D01*
X157750114Y-83257572D01*
X157771248Y-83287564D01*
X157797098Y-83309071D01*
X157839304Y-83303587D01*
X157870447Y-83271502D01*
X157871300Y-83254616D01*
X157846734Y-83199588D01*
X157791476Y-83128145D01*
X157765029Y-83096641D01*
X157715963Y-83020108D01*
X157697436Y-82959002D01*
X157698287Y-82944712D01*
X157728085Y-82870305D01*
X157788056Y-82812805D01*
X157861236Y-82789743D01*
X157863705Y-82789818D01*
G37*
G36*
X157575465Y-82880489D02*
G01*
X157526509Y-82915640D01*
X157453224Y-82953838D01*
X157400089Y-82956680D01*
X157394295Y-82954764D01*
X157331106Y-82918394D01*
X157259760Y-82857877D01*
X157193010Y-82786659D01*
X157143609Y-82718187D01*
X157124722Y-82667026D01*
X157245007Y-82667026D01*
X157261046Y-82700036D01*
X157310658Y-82754785D01*
X157336856Y-82780335D01*
X157391159Y-82824410D01*
X157427471Y-82841846D01*
X157452633Y-82838450D01*
X157475881Y-82810770D01*
X157458930Y-82759848D01*
X157402697Y-82691257D01*
X157382324Y-82671181D01*
X157331889Y-82628110D01*
X157298178Y-82617295D01*
X157268050Y-82633054D01*
X157257795Y-82642196D01*
X157245007Y-82667026D01*
X157124722Y-82667026D01*
X157124308Y-82665904D01*
X157137969Y-82615274D01*
X157181223Y-82550565D01*
X157238488Y-82498497D01*
X157293573Y-82477128D01*
X157328971Y-82491642D01*
X157389761Y-82533965D01*
X157460279Y-82594359D01*
X157507917Y-82638591D01*
X157563832Y-82687034D01*
X157596607Y-82705964D01*
X157615290Y-82699542D01*
X157628927Y-82671930D01*
X157630098Y-82656029D01*
X157606360Y-82600991D01*
X157550700Y-82528838D01*
X157521852Y-82494604D01*
X157480276Y-82429520D01*
X157472323Y-82386138D01*
X157472498Y-82385682D01*
X157492791Y-82354485D01*
X157522996Y-82354864D01*
X157570332Y-82390112D01*
X157642016Y-82463520D01*
X157711872Y-82551016D01*
X157746396Y-82633787D01*
X157736022Y-82710947D01*
X157679471Y-82790510D01*
X157656053Y-82810770D01*
X157575465Y-82880489D01*
G37*
G36*
X167539277Y-92797572D02*
G01*
X167485108Y-92944925D01*
X167424095Y-93050596D01*
X167340209Y-93159415D01*
X167252644Y-93241672D01*
X167171801Y-93286045D01*
X167116290Y-93297967D01*
X167019314Y-93295456D01*
X166911453Y-93260794D01*
X166780394Y-93190990D01*
X166657191Y-93102704D01*
X166570444Y-93000248D01*
X166533032Y-92887493D01*
X166539273Y-92811500D01*
X166694312Y-92811500D01*
X166701164Y-92893659D01*
X166752484Y-92969120D01*
X166851340Y-93047436D01*
X166946563Y-93099800D01*
X167066885Y-93130604D01*
X167172878Y-93115086D01*
X167199340Y-93093799D01*
X167245236Y-93033808D01*
X167295429Y-92951643D01*
X167341591Y-92862429D01*
X167375395Y-92781294D01*
X167388513Y-92723366D01*
X167385222Y-92679420D01*
X167361469Y-92618143D01*
X167307111Y-92561091D01*
X167213185Y-92496674D01*
X167183129Y-92478956D01*
X167076042Y-92433778D01*
X166983784Y-92430377D01*
X166900570Y-92471168D01*
X166820617Y-92558565D01*
X166738141Y-92694984D01*
X166728862Y-92713092D01*
X166694312Y-92811500D01*
X166539273Y-92811500D01*
X166543517Y-92759818D01*
X166600462Y-92612603D01*
X166645199Y-92531478D01*
X166743220Y-92397596D01*
X166848380Y-92305842D01*
X166955678Y-92261165D01*
X166988089Y-92256453D01*
X167051486Y-92258086D01*
X167122931Y-92278928D01*
X167220475Y-92323206D01*
X167275213Y-92351703D01*
X167415589Y-92446922D01*
X167505642Y-92551212D01*
X167546496Y-92667215D01*
X167543386Y-92723366D01*
X167539277Y-92797572D01*
G37*
G36*
X158600220Y-83566730D02*
G01*
X158662106Y-83616896D01*
X158744911Y-83700910D01*
X158812488Y-83775300D01*
X158856822Y-83829425D01*
X158874740Y-83864441D01*
X158871080Y-83890217D01*
X158850679Y-83916621D01*
X158819445Y-83945322D01*
X158757028Y-83989642D01*
X158693176Y-84025466D01*
X158648486Y-84040205D01*
X158623453Y-84024021D01*
X158571919Y-83981033D01*
X158505215Y-83920630D01*
X158449521Y-83872097D01*
X158380244Y-83827429D01*
X158337361Y-83824237D01*
X158322667Y-83863088D01*
X158322696Y-83863745D01*
X158339813Y-83897706D01*
X158382422Y-83957481D01*
X158441635Y-84030560D01*
X158445712Y-84035358D01*
X158501340Y-84107179D01*
X158536702Y-84164819D01*
X158544303Y-84196189D01*
X158541642Y-84200277D01*
X158516417Y-84219365D01*
X158480471Y-84209308D01*
X158426710Y-84166114D01*
X158348040Y-84085795D01*
X158265533Y-83983085D01*
X158220238Y-83885288D01*
X158223834Y-83804892D01*
X158276361Y-83742092D01*
X158333935Y-83711391D01*
X158398964Y-83708026D01*
X158470322Y-83743294D01*
X158558464Y-83820085D01*
X158614592Y-83873679D01*
X158660321Y-83909334D01*
X158689349Y-83915967D01*
X158711870Y-83898809D01*
X158721688Y-83883697D01*
X158722436Y-83852543D01*
X158696265Y-83807584D01*
X158637999Y-83737518D01*
X158624287Y-83721877D01*
X158565159Y-83650640D01*
X158537744Y-83605485D01*
X158538064Y-83576847D01*
X158562139Y-83555159D01*
X158564062Y-83554246D01*
X158600220Y-83566730D01*
G37*
G36*
X150933436Y-82416682D02*
G01*
X150976626Y-82442350D01*
X150990106Y-82469659D01*
X150968972Y-82511480D01*
X150951550Y-82538404D01*
X150888468Y-82637460D01*
X150823452Y-82741500D01*
X150762478Y-82840732D01*
X150711525Y-82925366D01*
X150676570Y-82985611D01*
X150663590Y-83011678D01*
X150677947Y-83025693D01*
X150728325Y-83062868D01*
X150806410Y-83116299D01*
X150903248Y-83179710D01*
X151142907Y-83333649D01*
X151262771Y-83146363D01*
X151276624Y-83124675D01*
X151339117Y-83025894D01*
X151394631Y-82936790D01*
X151432524Y-82874410D01*
X151442891Y-82857297D01*
X151485877Y-82804358D01*
X151528092Y-82795578D01*
X151582880Y-82826727D01*
X151593350Y-82835513D01*
X151605170Y-82855390D01*
X151601892Y-82885233D01*
X151580211Y-82933483D01*
X151536820Y-83008584D01*
X151468412Y-83118975D01*
X151410399Y-83211025D01*
X151344933Y-83313718D01*
X151291261Y-83396633D01*
X151257245Y-83447538D01*
X151253972Y-83452125D01*
X151210797Y-83499635D01*
X151175415Y-83519179D01*
X151166769Y-83517764D01*
X151114767Y-83495256D01*
X151034413Y-83450592D01*
X150936044Y-83390576D01*
X150830000Y-83322011D01*
X150726619Y-83251700D01*
X150636239Y-83186446D01*
X150569200Y-83133052D01*
X150535841Y-83098322D01*
X150518932Y-83061129D01*
X150512454Y-83013934D01*
X150524068Y-82956710D01*
X150556663Y-82881256D01*
X150613131Y-82779368D01*
X150696363Y-82642843D01*
X150860966Y-82378711D01*
X150933436Y-82416682D01*
G37*
G36*
X150142001Y-89475107D02*
G01*
X150156393Y-89505779D01*
X150177288Y-89577339D01*
X150201049Y-89677189D01*
X150225558Y-89794041D01*
X150248698Y-89916611D01*
X150268351Y-90033612D01*
X150282400Y-90133758D01*
X150288726Y-90205764D01*
X150285213Y-90238344D01*
X150262495Y-90249863D01*
X150196685Y-90271988D01*
X150100696Y-90298968D01*
X149986257Y-90327314D01*
X149845054Y-90359249D01*
X149698244Y-90386423D01*
X149588574Y-90393089D01*
X149508547Y-90375229D01*
X149450664Y-90328822D01*
X149407429Y-90249850D01*
X149371344Y-90134293D01*
X149334912Y-89978132D01*
X149308931Y-89858580D01*
X149289635Y-89762208D01*
X149280795Y-89700108D01*
X149281802Y-89663474D01*
X149292044Y-89643500D01*
X149310914Y-89631379D01*
X149329834Y-89623258D01*
X149369055Y-89618387D01*
X149400794Y-89640056D01*
X149428813Y-89694517D01*
X149456877Y-89788023D01*
X149488749Y-89926827D01*
X149513584Y-90033768D01*
X149540769Y-90132799D01*
X149564648Y-90202035D01*
X149581947Y-90230792D01*
X149587858Y-90231679D01*
X149635615Y-90227617D01*
X149715751Y-90214919D01*
X149814302Y-90196443D01*
X149917305Y-90175049D01*
X150010796Y-90153598D01*
X150080814Y-90134947D01*
X150113393Y-90121957D01*
X150113652Y-90121590D01*
X150112398Y-90090448D01*
X150101679Y-90019235D01*
X150083212Y-89918142D01*
X150058713Y-89797361D01*
X149992433Y-89484365D01*
X150056380Y-89468316D01*
X150102749Y-89463384D01*
X150142001Y-89475107D01*
G37*
G36*
X167796474Y-85757072D02*
G01*
X167813228Y-85799937D01*
X167831070Y-85883302D01*
X167844328Y-85949028D01*
X167860062Y-86022302D01*
X167869958Y-86062500D01*
X167870391Y-86063527D01*
X167897638Y-86071600D01*
X167966286Y-86067129D01*
X168079301Y-86049765D01*
X168239650Y-86019160D01*
X168288126Y-86009419D01*
X168411178Y-85985124D01*
X168510759Y-85966085D01*
X168577679Y-85954037D01*
X168602746Y-85950711D01*
X168609384Y-85973163D01*
X168622634Y-86026031D01*
X168626996Y-86042687D01*
X168632041Y-86066188D01*
X168627664Y-86084053D01*
X168606943Y-86099030D01*
X168562955Y-86113867D01*
X168488775Y-86131313D01*
X168377483Y-86154117D01*
X168222154Y-86185027D01*
X168150745Y-86199069D01*
X168043680Y-86221193D01*
X167975876Y-86242506D01*
X167939881Y-86271040D01*
X167928241Y-86314829D01*
X167933505Y-86381904D01*
X167948220Y-86480299D01*
X167956673Y-86544141D01*
X167957078Y-86593223D01*
X167941571Y-86615497D01*
X167906088Y-86624911D01*
X167863859Y-86628022D01*
X167828684Y-86620612D01*
X167821726Y-86601155D01*
X167806256Y-86539645D01*
X167785132Y-86446364D01*
X167760458Y-86331644D01*
X167734340Y-86205817D01*
X167708882Y-86079217D01*
X167686189Y-85962176D01*
X167668367Y-85865025D01*
X167657519Y-85798098D01*
X167655751Y-85771726D01*
X167678708Y-85763986D01*
X167731839Y-85750198D01*
X167734047Y-85749671D01*
X167772763Y-85743915D01*
X167796474Y-85757072D01*
G37*
G36*
X163392915Y-95767636D02*
G01*
X163409799Y-95793644D01*
X163420323Y-95849668D01*
X163425986Y-95941229D01*
X163428285Y-96073847D01*
X163428718Y-96253046D01*
X163427876Y-96418067D01*
X163424543Y-96569685D01*
X163418435Y-96676889D01*
X163409301Y-96743825D01*
X163396887Y-96774641D01*
X163376347Y-96788355D01*
X163326910Y-96791834D01*
X163296879Y-96773426D01*
X163231966Y-96728201D01*
X163139968Y-96661622D01*
X163028180Y-96578967D01*
X162903892Y-96485518D01*
X162896758Y-96480110D01*
X162763854Y-96378906D01*
X162667813Y-96304003D01*
X162603951Y-96250767D01*
X162567583Y-96214567D01*
X162554023Y-96190768D01*
X162558586Y-96174738D01*
X162576587Y-96161843D01*
X162620210Y-96141654D01*
X162668923Y-96128923D01*
X162671705Y-96129291D01*
X162710175Y-96148895D01*
X162779081Y-96193976D01*
X162869578Y-96258494D01*
X162972821Y-96336410D01*
X162991751Y-96351033D01*
X163091478Y-96426821D01*
X163175137Y-96488379D01*
X163234436Y-96529711D01*
X163261082Y-96544820D01*
X163262990Y-96542921D01*
X163268168Y-96505951D01*
X163270386Y-96429007D01*
X163269524Y-96321559D01*
X163265467Y-96193078D01*
X163264749Y-96175903D01*
X163259529Y-96039123D01*
X163257901Y-95944307D01*
X163260822Y-95882337D01*
X163269248Y-95844093D01*
X163284135Y-95820457D01*
X163306438Y-95802309D01*
X163334078Y-95783578D01*
X163368175Y-95766121D01*
X163392915Y-95767636D01*
G37*
G36*
X167964725Y-84137298D02*
G01*
X167919153Y-84242205D01*
X167877537Y-84284621D01*
X167801156Y-84342903D01*
X167712246Y-84397678D01*
X167659287Y-84424603D01*
X167506512Y-84477224D01*
X167372064Y-84481323D01*
X167254001Y-84436303D01*
X167150385Y-84341565D01*
X167059275Y-84196513D01*
X167058167Y-84194299D01*
X166992220Y-84024803D01*
X166975580Y-83888801D01*
X167128000Y-83888801D01*
X167134070Y-83930756D01*
X167161998Y-84017709D01*
X167205182Y-84117329D01*
X167255378Y-84211268D01*
X167304341Y-84281179D01*
X167357664Y-84313000D01*
X167444867Y-84319438D01*
X167548935Y-84296971D01*
X167657887Y-84248355D01*
X167759744Y-84176349D01*
X167785755Y-84142877D01*
X167803292Y-84057676D01*
X167784045Y-83944405D01*
X167728460Y-83808279D01*
X167693037Y-83744351D01*
X167623853Y-83659630D01*
X167545792Y-83622268D01*
X167450309Y-83629490D01*
X167328860Y-83678522D01*
X167253750Y-83718924D01*
X167178372Y-83772638D01*
X167139214Y-83826376D01*
X167128000Y-83888801D01*
X166975580Y-83888801D01*
X166974027Y-83876107D01*
X167003606Y-83748130D01*
X167080975Y-83640794D01*
X167206154Y-83554017D01*
X167328075Y-83498538D01*
X167473219Y-83459322D01*
X167596639Y-83464850D01*
X167703730Y-83516799D01*
X167799888Y-83616846D01*
X167890511Y-83766666D01*
X167932158Y-83860842D01*
X167968925Y-84007945D01*
X167967310Y-84057676D01*
X167964725Y-84137298D01*
G37*
G36*
X159156018Y-78134695D02*
G01*
X159170644Y-78159128D01*
X159169866Y-78162416D01*
X159164635Y-78207994D01*
X159158155Y-78292802D01*
X159151178Y-78406032D01*
X159144453Y-78536872D01*
X159128342Y-78882051D01*
X159337298Y-78882051D01*
X159389294Y-78881834D01*
X159478616Y-78878329D01*
X159538087Y-78867436D01*
X159583199Y-78845213D01*
X159629449Y-78807717D01*
X159650840Y-78788170D01*
X159680762Y-78754921D01*
X159700549Y-78716018D01*
X159713533Y-78659875D01*
X159723046Y-78574902D01*
X159732417Y-78449512D01*
X159739238Y-78352617D01*
X159746343Y-78254229D01*
X159751477Y-78186115D01*
X159753840Y-78159128D01*
X159753998Y-78158833D01*
X159780357Y-78154432D01*
X159837478Y-78152615D01*
X159919469Y-78152615D01*
X159901549Y-78432666D01*
X159889240Y-78572669D01*
X159861389Y-78729900D01*
X159817417Y-78847971D01*
X159753170Y-78933978D01*
X159664497Y-78995017D01*
X159547246Y-79038185D01*
X159531511Y-79041251D01*
X159460879Y-79046609D01*
X159360772Y-79047782D01*
X159247487Y-79044432D01*
X159210182Y-79042410D01*
X159091664Y-79031457D01*
X159015387Y-79011779D01*
X158973496Y-78977923D01*
X158958137Y-78924437D01*
X158961454Y-78845868D01*
X158966331Y-78791344D01*
X158973664Y-78690383D01*
X158981592Y-78565664D01*
X158989081Y-78432666D01*
X159005140Y-78126564D01*
X159092932Y-78126564D01*
X159156018Y-78134695D01*
G37*
G36*
X153890885Y-95338742D02*
G01*
X153948675Y-95385538D01*
X153762594Y-95679598D01*
X153747037Y-95704380D01*
X153681624Y-95813406D01*
X153630416Y-95906615D01*
X153598250Y-95974787D01*
X153589961Y-96008702D01*
X153600928Y-96025342D01*
X153653132Y-96068817D01*
X153731811Y-96116743D01*
X153821342Y-96161011D01*
X153906103Y-96193517D01*
X153970474Y-96206154D01*
X153987970Y-96205891D01*
X154051304Y-96197394D01*
X154106373Y-96171648D01*
X154161492Y-96121535D01*
X154224978Y-96039939D01*
X154305145Y-95919745D01*
X154454143Y-95688174D01*
X154517027Y-95735607D01*
X154579911Y-95783040D01*
X154431567Y-96018142D01*
X154375757Y-96103853D01*
X154294369Y-96213725D01*
X154220785Y-96288392D01*
X154146705Y-96335645D01*
X154063827Y-96363274D01*
X153993150Y-96371887D01*
X153906975Y-96368634D01*
X153902783Y-96367912D01*
X153828311Y-96344520D01*
X153735070Y-96301588D01*
X153634076Y-96246002D01*
X153536347Y-96184648D01*
X153452901Y-96124411D01*
X153394754Y-96072179D01*
X153372923Y-96034836D01*
X153381065Y-96012656D01*
X153412197Y-95952582D01*
X153461171Y-95865874D01*
X153522148Y-95762163D01*
X153589289Y-95651083D01*
X153656757Y-95542265D01*
X153718712Y-95445344D01*
X153769316Y-95369950D01*
X153802732Y-95325716D01*
X153812604Y-95316062D01*
X153844058Y-95308962D01*
X153890885Y-95338742D01*
G37*
G36*
X156755095Y-96645696D02*
G01*
X156757722Y-96647665D01*
X156766993Y-96669003D01*
X156765180Y-96712273D01*
X156750984Y-96784366D01*
X156723106Y-96892171D01*
X156680247Y-97042579D01*
X156662694Y-97102260D01*
X156623455Y-97232383D01*
X156588806Y-97342953D01*
X156561982Y-97423786D01*
X156546215Y-97464700D01*
X156526032Y-97490459D01*
X156489401Y-97503777D01*
X156482118Y-97501825D01*
X156431375Y-97487489D01*
X156344052Y-97462411D01*
X156230092Y-97429456D01*
X156099441Y-97391487D01*
X156037411Y-97373384D01*
X155915455Y-97336987D01*
X155833359Y-97309886D01*
X155783833Y-97288469D01*
X155759588Y-97269124D01*
X155753335Y-97248241D01*
X155757785Y-97222207D01*
X155770940Y-97177145D01*
X155784890Y-97146119D01*
X155785680Y-97145722D01*
X155818293Y-97149979D01*
X155889836Y-97166641D01*
X155990466Y-97193251D01*
X156110343Y-97227353D01*
X156130005Y-97233120D01*
X156254121Y-97269138D01*
X156338055Y-97291554D01*
X156390480Y-97301327D01*
X156420071Y-97299414D01*
X156435500Y-97286774D01*
X156445443Y-97264364D01*
X156458567Y-97225030D01*
X156483645Y-97144478D01*
X156516025Y-97037350D01*
X156551914Y-96916051D01*
X156576790Y-96833021D01*
X156613334Y-96724676D01*
X156644973Y-96657710D01*
X156676172Y-96626183D01*
X156711391Y-96624158D01*
X156755095Y-96645696D01*
G37*
G36*
X150028621Y-88476552D02*
G01*
X150032607Y-88492672D01*
X150041840Y-88553282D01*
X150054459Y-88650510D01*
X150069341Y-88775602D01*
X150085366Y-88919804D01*
X150091249Y-88974817D01*
X150106136Y-89120415D01*
X150114958Y-89223920D01*
X150117817Y-89292684D01*
X150114819Y-89334060D01*
X150106067Y-89355399D01*
X150091666Y-89364054D01*
X150085708Y-89365670D01*
X150028172Y-89373573D01*
X149991872Y-89354395D01*
X149969796Y-89299794D01*
X149954932Y-89201431D01*
X149944754Y-89121041D01*
X149933514Y-89054083D01*
X149924684Y-89023897D01*
X149900994Y-89021697D01*
X149832871Y-89024904D01*
X149729116Y-89033433D01*
X149598262Y-89046488D01*
X149448841Y-89063277D01*
X149289385Y-89083006D01*
X149246773Y-89088182D01*
X149199352Y-89087805D01*
X149181442Y-89067251D01*
X149178667Y-89018092D01*
X149178660Y-89012022D01*
X149179953Y-88979619D01*
X149188855Y-88955774D01*
X149212734Y-88938163D01*
X149258961Y-88924467D01*
X149334904Y-88912361D01*
X149447933Y-88899526D01*
X149605418Y-88883638D01*
X149914938Y-88852736D01*
X149898574Y-88676659D01*
X149894237Y-88628944D01*
X149889869Y-88554898D01*
X149895508Y-88514389D01*
X149914535Y-88494793D01*
X149950332Y-88483485D01*
X149998818Y-88474644D01*
X150028621Y-88476552D01*
G37*
G36*
X157583010Y-78237915D02*
G01*
X157585001Y-78241688D01*
X157596989Y-78284074D01*
X157615427Y-78364004D01*
X157638223Y-78470852D01*
X157663282Y-78593991D01*
X157688513Y-78722796D01*
X157711823Y-78846639D01*
X157731117Y-78954894D01*
X157744304Y-79036936D01*
X157749290Y-79082137D01*
X157736596Y-79103770D01*
X157690923Y-79124179D01*
X157666518Y-79128870D01*
X157615726Y-79138185D01*
X157596246Y-79139967D01*
X157592929Y-79136051D01*
X157590052Y-79112739D01*
X157578931Y-79046330D01*
X157561584Y-78951338D01*
X157540252Y-78839168D01*
X157517174Y-78721221D01*
X157494589Y-78608901D01*
X157474740Y-78513609D01*
X157459865Y-78446750D01*
X157452204Y-78419725D01*
X157423036Y-78418927D01*
X157353143Y-78426548D01*
X157253029Y-78441227D01*
X157133180Y-78461587D01*
X157007936Y-78483114D01*
X156904786Y-78496394D01*
X156838911Y-78496048D01*
X156803017Y-78480760D01*
X156789813Y-78449216D01*
X156792005Y-78400102D01*
X156797721Y-78382094D01*
X156817210Y-78363938D01*
X156857702Y-78347299D01*
X156926831Y-78329895D01*
X157032234Y-78309444D01*
X157181544Y-78283664D01*
X157246326Y-78273089D01*
X157374277Y-78254168D01*
X157479352Y-78241279D01*
X157552084Y-78235502D01*
X157583010Y-78237915D01*
G37*
G36*
X149305153Y-87430739D02*
G01*
X149301838Y-87539812D01*
X149302011Y-87649152D01*
X149314552Y-87720540D01*
X149347095Y-87762136D01*
X149407274Y-87782099D01*
X149502724Y-87788587D01*
X149641077Y-87789759D01*
X149882051Y-87791590D01*
X149882278Y-87602718D01*
X149884249Y-87500005D01*
X149890285Y-87377019D01*
X149898932Y-87277077D01*
X149907839Y-87211552D01*
X149921829Y-87163309D01*
X149946771Y-87143892D01*
X149991453Y-87140308D01*
X150067546Y-87140308D01*
X150049563Y-87524564D01*
X150046482Y-87584640D01*
X150037756Y-87716116D01*
X150027771Y-87825624D01*
X150017531Y-87903128D01*
X150008043Y-87938594D01*
X150002033Y-87942713D01*
X149953190Y-87952389D01*
X149868070Y-87957372D01*
X149758487Y-87958081D01*
X149636252Y-87954931D01*
X149513179Y-87948340D01*
X149401081Y-87938725D01*
X149311769Y-87926502D01*
X149257058Y-87912089D01*
X149226940Y-87896020D01*
X149182946Y-87856446D01*
X149154456Y-87798045D01*
X149139538Y-87712646D01*
X149136261Y-87592074D01*
X149142693Y-87428157D01*
X149160433Y-87114256D01*
X149237421Y-87114256D01*
X149314408Y-87114256D01*
X149305153Y-87430739D01*
G37*
G36*
X167390521Y-91244423D02*
G01*
X167463841Y-91282338D01*
X167398065Y-91426012D01*
X167369723Y-91492920D01*
X167346717Y-91560378D01*
X167341440Y-91597140D01*
X167342478Y-91598956D01*
X167374680Y-91622053D01*
X167444029Y-91660289D01*
X167541228Y-91708784D01*
X167656979Y-91762664D01*
X167675046Y-91770818D01*
X167788924Y-91822818D01*
X167883390Y-91866957D01*
X167949049Y-91898790D01*
X167976505Y-91913873D01*
X167977339Y-91940705D01*
X167959628Y-91992887D01*
X167929612Y-92058764D01*
X167639524Y-91927771D01*
X167586221Y-91903661D01*
X167456491Y-91845586D01*
X167363785Y-91808069D01*
X167299960Y-91791159D01*
X167256872Y-91794905D01*
X167226380Y-91819354D01*
X167200338Y-91864555D01*
X167170604Y-91930556D01*
X167158637Y-91957101D01*
X167123650Y-92029333D01*
X167097581Y-92064591D01*
X167071334Y-92071530D01*
X167035816Y-92058802D01*
X166992679Y-92033638D01*
X166971692Y-92008536D01*
X166976435Y-91992923D01*
X166998956Y-91935596D01*
X167036824Y-91844879D01*
X167086500Y-91729203D01*
X167144446Y-91596997D01*
X167317200Y-91206507D01*
X167390521Y-91244423D01*
G37*
G36*
X165503490Y-94447692D02*
G01*
X165576613Y-94529481D01*
X165674882Y-94657292D01*
X165735670Y-94769270D01*
X165762907Y-94873525D01*
X165760522Y-94978166D01*
X165750480Y-95029093D01*
X165730035Y-95081905D01*
X165693246Y-95137609D01*
X165632781Y-95206999D01*
X165541305Y-95300872D01*
X165485284Y-95355393D01*
X165397836Y-95433105D01*
X165329230Y-95484312D01*
X165287322Y-95502769D01*
X165268649Y-95497481D01*
X165218891Y-95463313D01*
X165144845Y-95395771D01*
X165044576Y-95292923D01*
X164916153Y-95152839D01*
X164757641Y-94973585D01*
X164670893Y-94874247D01*
X164725069Y-94820070D01*
X164779246Y-94765893D01*
X164931110Y-94932151D01*
X164943024Y-94945190D01*
X165030743Y-95040942D01*
X165117879Y-95135714D01*
X165187180Y-95210736D01*
X165291385Y-95323061D01*
X165438091Y-95183090D01*
X165481526Y-95140279D01*
X165560094Y-95047838D01*
X165601348Y-94963861D01*
X165604519Y-94880268D01*
X165568837Y-94788977D01*
X165493530Y-94681909D01*
X165377829Y-94550982D01*
X165217574Y-94379668D01*
X165275876Y-94322501D01*
X165334177Y-94265333D01*
X165503490Y-94447692D01*
G37*
G36*
X160425237Y-85436510D02*
G01*
X160438622Y-85460237D01*
X160448429Y-85512467D01*
X160457621Y-85600975D01*
X160469162Y-85733538D01*
X160474248Y-85787284D01*
X160484991Y-85883216D01*
X160495059Y-85954974D01*
X160500544Y-85990496D01*
X160512145Y-86079133D01*
X160523066Y-86176410D01*
X160529104Y-86232868D01*
X160539119Y-86316837D01*
X160546999Y-86371795D01*
X160550285Y-86404116D01*
X160545140Y-86443436D01*
X160539776Y-86452525D01*
X160527194Y-86460927D01*
X160498286Y-86455321D01*
X160436551Y-86434320D01*
X160411371Y-86425136D01*
X160383219Y-86410128D01*
X160362558Y-86386302D01*
X160347822Y-86346452D01*
X160337450Y-86283369D01*
X160329876Y-86189843D01*
X160323537Y-86058667D01*
X160316870Y-85882631D01*
X160312056Y-85747692D01*
X160308894Y-85631381D01*
X160309169Y-85552341D01*
X160313689Y-85502592D01*
X160323263Y-85474155D01*
X160338700Y-85459054D01*
X160360810Y-85449308D01*
X160375870Y-85443459D01*
X160405307Y-85433509D01*
X160425237Y-85436510D01*
G37*
G36*
X150383915Y-90467227D02*
G01*
X150391618Y-90486808D01*
X150404788Y-90529232D01*
X150405799Y-90569157D01*
X150391807Y-90618826D01*
X150359966Y-90690486D01*
X150307430Y-90796382D01*
X150263099Y-90887755D01*
X150223623Y-90982503D01*
X150206252Y-91050100D01*
X150207756Y-91100393D01*
X150210974Y-91116670D01*
X150209110Y-91164915D01*
X150176712Y-91186045D01*
X150108722Y-91199042D01*
X150071220Y-91188820D01*
X150050764Y-91150249D01*
X150050478Y-91149387D01*
X150013611Y-91106994D01*
X149927712Y-91052043D01*
X149792121Y-90984109D01*
X149773585Y-90975466D01*
X149663349Y-90921172D01*
X149592293Y-90878717D01*
X149552011Y-90842301D01*
X149534096Y-90806127D01*
X149520338Y-90756229D01*
X149500864Y-90696727D01*
X149509817Y-90685780D01*
X149557002Y-90698327D01*
X149644810Y-90735891D01*
X149775337Y-90799254D01*
X150066502Y-90945279D01*
X150205550Y-90656964D01*
X150344597Y-90368649D01*
X150383915Y-90467227D01*
G37*
G36*
X155830639Y-96345477D02*
G01*
X155878229Y-96364705D01*
X155899898Y-96394620D01*
X155895929Y-96411777D01*
X155876543Y-96472356D01*
X155843782Y-96566899D01*
X155800732Y-96686566D01*
X155750480Y-96822519D01*
X155735432Y-96862648D01*
X155682844Y-97000492D01*
X155643427Y-97097365D01*
X155613738Y-97159809D01*
X155590330Y-97194369D01*
X155569760Y-97207587D01*
X155548582Y-97206008D01*
X155515849Y-97194061D01*
X155476163Y-97171933D01*
X155475613Y-97161242D01*
X155487586Y-97109940D01*
X155513035Y-97025762D01*
X155548396Y-96918677D01*
X155590101Y-96798654D01*
X155634585Y-96675662D01*
X155678282Y-96559667D01*
X155717625Y-96460640D01*
X155749050Y-96388548D01*
X155768989Y-96353361D01*
X155783250Y-96345172D01*
X155830639Y-96345477D01*
G37*
G36*
X149892960Y-84430896D02*
G01*
X149966960Y-84454576D01*
X150074497Y-84493449D01*
X150223104Y-84549303D01*
X150319380Y-84585789D01*
X150441857Y-84632410D01*
X150540335Y-84670141D01*
X150606565Y-84695819D01*
X150632294Y-84706277D01*
X150633013Y-84727861D01*
X150622957Y-84779592D01*
X150603549Y-84825380D01*
X150576099Y-84846804D01*
X150560369Y-84843964D01*
X150500511Y-84825619D01*
X150410267Y-84793656D01*
X150299546Y-84752030D01*
X150178257Y-84704698D01*
X150056307Y-84655618D01*
X149943606Y-84608745D01*
X149850061Y-84568037D01*
X149785581Y-84537451D01*
X149760075Y-84520942D01*
X149761937Y-84494541D01*
X149786394Y-84445719D01*
X149796835Y-84433146D01*
X149815432Y-84421968D01*
X149844963Y-84420622D01*
X149892960Y-84430896D01*
G37*
G36*
X163612312Y-95655255D02*
G01*
X163653389Y-95710161D01*
X163713206Y-95800871D01*
X163788073Y-95921543D01*
X163874299Y-96066333D01*
X163968194Y-96229399D01*
X163995004Y-96277028D01*
X164030604Y-96345105D01*
X164043832Y-96385755D01*
X164037327Y-96410696D01*
X164013728Y-96431648D01*
X163978114Y-96451665D01*
X163937772Y-96458593D01*
X163924794Y-96445524D01*
X163887672Y-96393803D01*
X163833012Y-96310054D01*
X163765778Y-96201946D01*
X163690935Y-96077152D01*
X163631685Y-95976353D01*
X163568144Y-95866091D01*
X163526475Y-95788674D01*
X163503778Y-95737149D01*
X163497157Y-95704564D01*
X163503713Y-95683967D01*
X163520548Y-95668405D01*
X163556702Y-95648082D01*
X163596741Y-95641272D01*
X163612312Y-95655255D01*
G37*
G36*
X150597094Y-91140063D02*
G01*
X150612556Y-91152450D01*
X150621749Y-91168184D01*
X150631353Y-91202339D01*
X150618545Y-91233678D01*
X150577847Y-91265830D01*
X150503784Y-91302422D01*
X150390876Y-91347083D01*
X150233648Y-91403441D01*
X150151682Y-91431929D01*
X150025290Y-91475033D01*
X149920727Y-91509666D01*
X149847083Y-91532840D01*
X149813449Y-91541565D01*
X149786705Y-91520598D01*
X149763000Y-91469045D01*
X149752151Y-91408076D01*
X149766151Y-91398867D01*
X149822173Y-91375051D01*
X149913494Y-91340623D01*
X150032035Y-91298604D01*
X150169717Y-91252013D01*
X150322913Y-91201951D01*
X150437312Y-91166616D01*
X150516474Y-91145572D01*
X150567400Y-91137246D01*
X150597094Y-91140063D01*
G37*
G36*
X157424704Y-78626687D02*
G01*
X157434894Y-78651071D01*
X157450371Y-78705125D01*
X157451943Y-78711388D01*
X157457842Y-78742859D01*
X157451784Y-78765546D01*
X157425889Y-78782953D01*
X157372274Y-78798585D01*
X157283058Y-78815947D01*
X157150359Y-78838545D01*
X157085334Y-78849255D01*
X157011345Y-78859062D01*
X156969926Y-78857888D01*
X156949385Y-78844607D01*
X156938033Y-78818093D01*
X156928081Y-78783305D01*
X156918494Y-78736489D01*
X156925704Y-78729686D01*
X156971344Y-78712541D01*
X157047658Y-78691407D01*
X157141371Y-78669164D01*
X157239207Y-78648690D01*
X157327892Y-78632866D01*
X157394149Y-78624572D01*
X157424704Y-78626687D01*
G37*
G36*
X159208410Y-96999202D02*
G01*
X159208410Y-97088866D01*
X159026051Y-97073577D01*
X158843692Y-97058289D01*
X158843692Y-97279682D01*
X158843668Y-97292007D01*
X158841100Y-97422486D01*
X158835137Y-97554487D01*
X158826956Y-97661204D01*
X158824548Y-97684031D01*
X158814246Y-97762168D01*
X158800151Y-97803068D01*
X158775118Y-97818774D01*
X158732005Y-97821333D01*
X158653792Y-97821333D01*
X158672156Y-97443590D01*
X158690521Y-97065846D01*
X158506594Y-97065846D01*
X158322667Y-97065846D01*
X158322667Y-96987692D01*
X158322667Y-96909538D01*
X158765539Y-96909538D01*
X159208410Y-96909538D01*
X159208410Y-96999202D01*
G37*
G36*
X153620350Y-95132301D02*
G01*
X153657716Y-95170853D01*
X153665205Y-95203179D01*
X153656874Y-95215655D01*
X153621336Y-95265632D01*
X153563763Y-95345106D01*
X153489811Y-95446287D01*
X153405136Y-95561384D01*
X153352482Y-95632180D01*
X153273777Y-95735753D01*
X153208842Y-95818424D01*
X153163290Y-95873105D01*
X153142734Y-95892710D01*
X153134238Y-95890801D01*
X153094113Y-95867704D01*
X153053076Y-95833088D01*
X153034257Y-95805540D01*
X153042733Y-95789945D01*
X153077840Y-95738080D01*
X153135425Y-95657320D01*
X153210329Y-95554872D01*
X153297393Y-95437943D01*
X153560529Y-95087474D01*
X153620350Y-95132301D01*
G37*
G36*
X151195201Y-82669480D02*
G01*
X151229645Y-82701518D01*
X151247203Y-82741644D01*
X151244736Y-82751120D01*
X151221072Y-82801116D01*
X151177939Y-82877503D01*
X151122150Y-82967948D01*
X151065283Y-83055396D01*
X151024639Y-83111063D01*
X150995968Y-83135818D01*
X150971217Y-83136459D01*
X150942332Y-83119788D01*
X150905627Y-83086725D01*
X150891030Y-83053877D01*
X150894664Y-83044627D01*
X150920061Y-82996547D01*
X150963684Y-82921055D01*
X151018846Y-82829873D01*
X151073019Y-82743401D01*
X151114138Y-82684542D01*
X151143127Y-82657223D01*
X151167607Y-82654513D01*
X151195201Y-82669480D01*
G37*
G36*
X149794808Y-89618559D02*
G01*
X149812566Y-89660523D01*
X149830801Y-89742737D01*
X149842461Y-89799534D01*
X149864698Y-89900728D01*
X149883813Y-89979897D01*
X149898961Y-90039729D01*
X149905303Y-90085726D01*
X149893901Y-90107041D01*
X149862513Y-90118247D01*
X149794455Y-90130978D01*
X149757337Y-90119279D01*
X149739244Y-90077590D01*
X149721751Y-90001886D01*
X149689748Y-89860939D01*
X149669204Y-89760382D01*
X149660089Y-89692948D01*
X149662374Y-89651368D01*
X149676029Y-89628375D01*
X149701024Y-89616701D01*
X149737329Y-89609079D01*
X149769705Y-89605659D01*
X149794808Y-89618559D01*
G37*
G36*
X162363098Y-96720683D02*
G01*
X162374911Y-96771400D01*
X162368096Y-96808031D01*
X162361611Y-96812594D01*
X162314951Y-96835437D01*
X162236551Y-96868572D01*
X162139180Y-96906506D01*
X162102110Y-96920342D01*
X162011336Y-96953528D01*
X161944529Y-96976941D01*
X161914055Y-96986204D01*
X161896753Y-96967603D01*
X161880808Y-96920245D01*
X161872797Y-96868264D01*
X161878467Y-96835926D01*
X161887165Y-96830564D01*
X161935913Y-96808381D01*
X162016062Y-96775568D01*
X162115711Y-96737082D01*
X162337593Y-96653599D01*
X162363098Y-96720683D01*
G37*
G36*
X161128518Y-83975463D02*
G01*
X161116393Y-83993914D01*
X161055481Y-84025760D01*
X161047636Y-84029082D01*
X160973572Y-84054163D01*
X160914769Y-84064713D01*
X160886604Y-84064058D01*
X160802390Y-84056409D01*
X160706026Y-84042486D01*
X160613510Y-84025140D01*
X160540843Y-84007220D01*
X160504026Y-83991574D01*
X160499747Y-83985969D01*
X160516260Y-83978661D01*
X160579430Y-83989506D01*
X160631115Y-83999434D01*
X160771380Y-84011955D01*
X160912973Y-84008309D01*
X161030447Y-83988548D01*
X161094229Y-83973933D01*
X161128518Y-83975463D01*
G37*
G36*
X159480935Y-97342834D02*
G01*
X159484715Y-97433470D01*
X159489256Y-97575525D01*
X159489789Y-97676094D01*
X159486066Y-97742120D01*
X159477845Y-97780551D01*
X159464879Y-97798333D01*
X159456287Y-97803659D01*
X159409502Y-97824825D01*
X159376940Y-97817737D01*
X159355113Y-97776434D01*
X159340531Y-97694953D01*
X159329705Y-97567333D01*
X159327246Y-97528062D01*
X159319900Y-97381760D01*
X159314737Y-97233983D01*
X159312750Y-97111436D01*
X159312616Y-96909538D01*
X159387287Y-96909538D01*
X159461958Y-96909538D01*
X159480935Y-97342834D01*
G37*
G36*
X161236754Y-85176227D02*
G01*
X161237200Y-85177507D01*
X161213803Y-85190323D01*
X161158601Y-85208678D01*
X161135078Y-85214362D01*
X161056972Y-85225779D01*
X160962460Y-85232977D01*
X160865191Y-85235753D01*
X160778814Y-85233908D01*
X160716979Y-85227238D01*
X160693334Y-85215543D01*
X160706589Y-85209342D01*
X160760385Y-85200100D01*
X160843413Y-85190776D01*
X160942524Y-85182321D01*
X161044565Y-85175687D01*
X161136384Y-85171826D01*
X161204831Y-85171689D01*
X161236754Y-85176227D01*
G37*
G36*
X158109243Y-83350564D02*
G01*
X158159349Y-83385780D01*
X158216641Y-83443186D01*
X158269298Y-83508917D01*
X158305499Y-83569111D01*
X158313422Y-83609901D01*
X158306901Y-83625608D01*
X158291847Y-83643659D01*
X158268196Y-83636600D01*
X158227269Y-83599828D01*
X158160383Y-83528739D01*
X158098014Y-83457053D01*
X158057899Y-83396472D01*
X158055195Y-83360810D01*
X158088205Y-83345761D01*
X158109243Y-83350564D01*
G37*
G36*
X149603763Y-87197404D02*
G01*
X149607475Y-87197794D01*
X149663066Y-87213125D01*
X149684062Y-87238000D01*
X149683591Y-87246133D01*
X149681771Y-87300006D01*
X149679634Y-87386768D01*
X149677549Y-87492000D01*
X149673641Y-87713436D01*
X149588975Y-87713492D01*
X149504308Y-87713549D01*
X149512584Y-87451461D01*
X149520859Y-87189372D01*
X149603763Y-87197404D01*
G37*
G36*
X167067318Y-90198410D02*
G01*
X167064275Y-90238140D01*
X167057207Y-90247485D01*
X167023795Y-90266461D01*
X166999219Y-90258220D01*
X166980218Y-90221907D01*
X166994803Y-90180827D01*
X167001950Y-90174973D01*
X167039755Y-90171755D01*
X167067318Y-90198410D01*
G37*
G36*
X166676549Y-87463025D02*
G01*
X166673506Y-87502756D01*
X166666438Y-87512100D01*
X166633026Y-87531077D01*
X166608450Y-87522836D01*
X166589449Y-87486523D01*
X166604034Y-87445443D01*
X166611180Y-87439589D01*
X166648986Y-87436370D01*
X166676549Y-87463025D01*
G37*
G36*
X166155523Y-83841897D02*
G01*
X166152480Y-83881627D01*
X166145412Y-83890972D01*
X166112000Y-83909949D01*
X166087424Y-83901708D01*
X166068423Y-83865395D01*
X166083009Y-83824315D01*
X166090155Y-83818460D01*
X166127960Y-83815242D01*
X166155523Y-83841897D01*
G37*
G36*
X165686600Y-85535231D02*
G01*
X165683557Y-85574961D01*
X165676489Y-85584305D01*
X165643077Y-85603282D01*
X165618501Y-85595041D01*
X165599500Y-85558728D01*
X165614085Y-85517648D01*
X165621232Y-85511794D01*
X165659037Y-85508575D01*
X165686600Y-85535231D01*
G37*
G36*
X164514292Y-88791641D02*
G01*
X164511249Y-88831371D01*
X164504181Y-88840715D01*
X164470769Y-88859692D01*
X164446193Y-88851451D01*
X164427192Y-88815138D01*
X164441778Y-88774058D01*
X164448924Y-88768204D01*
X164486730Y-88764985D01*
X164514292Y-88791641D01*
G37*
G36*
X163446190Y-86368872D02*
G01*
X163443147Y-86408602D01*
X163436079Y-86417946D01*
X163402667Y-86436923D01*
X163378091Y-86428682D01*
X163359090Y-86392369D01*
X163373675Y-86351289D01*
X163380821Y-86345435D01*
X163418627Y-86342216D01*
X163446190Y-86368872D01*
G37*
G36*
X162508344Y-80351025D02*
G01*
X162505301Y-80390756D01*
X162498233Y-80400100D01*
X162464821Y-80419077D01*
X162440244Y-80410836D01*
X162421243Y-80374523D01*
X162435829Y-80333443D01*
X162442975Y-80327589D01*
X162480781Y-80324370D01*
X162508344Y-80351025D01*
G37*
G36*
X159486395Y-81132564D02*
G01*
X159483352Y-81172294D01*
X159476284Y-81181639D01*
X159442872Y-81200615D01*
X159418296Y-81192374D01*
X159399295Y-81156061D01*
X159413880Y-81114981D01*
X159421026Y-81109127D01*
X159458832Y-81105908D01*
X159486395Y-81132564D01*
G37*
G36*
X158991421Y-82904051D02*
G01*
X158988377Y-82943781D01*
X158981309Y-82953126D01*
X158947898Y-82972102D01*
X158923321Y-82963861D01*
X158904320Y-82927548D01*
X158918906Y-82886468D01*
X158926052Y-82880614D01*
X158963858Y-82877396D01*
X158991421Y-82904051D01*
G37*
G36*
X157714908Y-80116564D02*
G01*
X157711865Y-80156294D01*
X157704797Y-80165639D01*
X157671385Y-80184615D01*
X157646809Y-80176374D01*
X157627808Y-80140061D01*
X157642393Y-80098981D01*
X157649539Y-80093127D01*
X157687345Y-80089908D01*
X157714908Y-80116564D01*
G37*
G36*
X160528342Y-85169094D02*
G01*
X160532418Y-85176930D01*
X160510975Y-85186461D01*
X160497183Y-85184581D01*
X160493607Y-85169094D01*
X160497425Y-85165976D01*
X160528342Y-85169094D01*
G37*
G36*
X159605692Y-82485926D02*
G01*
X159610112Y-82494972D01*
X159573128Y-82499066D01*
X159537292Y-82495435D01*
X159540564Y-82485926D01*
X159552356Y-82482485D01*
X159605692Y-82485926D01*
G37*
G36*
X152982154Y-89224410D02*
G01*
X152980274Y-89238202D01*
X152964787Y-89241778D01*
X152961669Y-89237959D01*
X152964787Y-89207043D01*
X152972622Y-89202967D01*
X152982154Y-89224410D01*
G37*
G36*
X161292513Y-85147384D02*
G01*
X161279487Y-85160410D01*
X161266462Y-85147384D01*
X161279487Y-85134359D01*
X161292513Y-85147384D01*
G37*
G36*
X155978051Y-93301436D02*
G01*
X155965026Y-93314461D01*
X155952000Y-93301436D01*
X155965026Y-93288410D01*
X155978051Y-93301436D01*
G37*
G36*
X153711590Y-83792718D02*
G01*
X153698564Y-83805743D01*
X153685539Y-83792718D01*
X153698564Y-83779692D01*
X153711590Y-83792718D01*
G37*
G36*
X152591385Y-89029025D02*
G01*
X152578359Y-89042051D01*
X152565334Y-89029025D01*
X152578359Y-89016000D01*
X152591385Y-89029025D01*
G37*
G36*
X152070359Y-90540000D02*
G01*
X152057334Y-90553025D01*
X152044308Y-90540000D01*
X152057334Y-90526974D01*
X152070359Y-90540000D01*
G37*
G36*
X151940103Y-90175282D02*
G01*
X151927077Y-90188308D01*
X151914051Y-90175282D01*
X151927077Y-90162256D01*
X151940103Y-90175282D01*
G37*
G36*
X151497231Y-88872718D02*
G01*
X151484205Y-88885743D01*
X151471180Y-88872718D01*
X151484205Y-88859692D01*
X151497231Y-88872718D01*
G37*
G36*
X151366975Y-88664308D02*
G01*
X151353949Y-88677333D01*
X151340923Y-88664308D01*
X151353949Y-88651282D01*
X151366975Y-88664308D01*
G37*
%TD*%
M02*
