M48
; DRILL file {KiCad 9.0.6} date 2026-01-04T20:51:33+0000
; FORMAT={-:-/ absolute / metric / decimal}
; #@! TF.CreationDate,2026-01-04T20:51:33+00:00
; #@! TF.GenerationSoftware,Kicad,Pcbnew,9.0.6
; #@! TF.FileFunction,Plated,1,2,PTH
FMAT,2
METRIC
; #@! TA.AperFunction,Plated,PTH,ViaDrill
T1C0.200
; #@! TA.AperFunction,Plated,PTH,ViaDrill
T2C0.300
; #@! TA.AperFunction,Plated,PTH,ComponentDrill
T3C0.500
; #@! TA.AperFunction,Plated,PTH,ComponentDrill
T4C0.900
; #@! TA.AperFunction,Plated,PTH,ComponentDrill
T5C1.000
; #@! TA.AperFunction,Plated,PTH,ComponentDrill
T6C1.850
; #@! TA.AperFunction,Plated,PTH,ComponentDrill
T7C1.900
; #@! TA.AperFunction,Plated,PTH,ComponentDrill
T8C3.200
%
G90
G05
T1
X129.5Y-126.2
X147.5Y-126.2
X165.5Y-126.2
T2
X108.6Y-106.6
X111.1Y-104.0
X111.137Y-84.752
X111.137Y-88.752
X111.137Y-92.752
X111.137Y-96.752
X111.137Y-100.752
X111.137Y-124.752
X113.1Y-110.5
X115.137Y-80.752
X115.137Y-84.752
X115.137Y-88.752
X115.137Y-92.752
X115.137Y-96.752
X115.137Y-100.752
X115.137Y-120.752
X115.137Y-124.752
X116.5Y-114.2
X119.137Y-76.752
X119.137Y-80.752
X119.137Y-84.752
X119.137Y-88.752
X119.137Y-92.752
X119.137Y-96.752
X119.137Y-100.752
X119.137Y-124.752
X119.137Y-128.752
X119.137Y-132.752
X120.5Y-107.8
X123.137Y-76.752
X123.137Y-80.752
X123.137Y-84.752
X123.137Y-88.752
X123.137Y-92.752
X123.137Y-96.752
X123.137Y-100.752
X123.137Y-116.752
X123.137Y-120.752
X123.137Y-124.752
X123.137Y-128.752
X123.137Y-132.752
X123.175Y-104.45
X124.2Y-107.8
X127.137Y-76.752
X127.137Y-80.752
X127.137Y-84.752
X127.137Y-88.752
X127.137Y-92.752
X127.137Y-116.752
X127.137Y-120.752
X127.137Y-132.752
X130.3Y-115.55
X131.137Y-76.752
X131.137Y-80.752
X131.137Y-84.752
X131.137Y-88.752
X131.137Y-92.752
X131.137Y-100.752
X131.137Y-104.752
X131.137Y-108.752
X131.137Y-132.752
X132.8Y-115.55
X132.8Y-117.5
X132.9Y-128.8
X135.137Y-76.752
X135.137Y-80.752
X135.137Y-84.752
X135.137Y-88.752
X135.137Y-92.752
X135.137Y-100.752
X135.137Y-104.752
X135.137Y-108.752
X135.137Y-128.752
X137.0Y-117.5
X137.0Y-121.2
X137.3Y-114.1
X138.7Y-115.5
X138.7Y-117.5
X138.7Y-119.5
X139.137Y-76.752
X139.137Y-80.752
X139.137Y-84.752
X139.137Y-88.752
X139.137Y-92.752
X139.137Y-100.752
X139.137Y-104.752
X139.137Y-108.752
X139.137Y-128.752
X139.137Y-132.752
X139.9Y-116.5
X139.9Y-118.6
X141.0Y-113.9
X141.0Y-115.5
X141.0Y-119.5
X141.0Y-121.2
X142.2Y-116.5
X142.2Y-118.6
X143.137Y-76.752
X143.137Y-80.752
X143.137Y-84.752
X143.137Y-88.752
X143.137Y-92.752
X143.137Y-100.752
X143.137Y-104.752
X143.137Y-108.752
X143.137Y-128.752
X143.4Y-115.5
X143.4Y-117.5
X143.4Y-119.5
X144.9Y-113.9
X144.9Y-117.5
X144.9Y-121.2
X146.2Y-115.5
X147.0Y-76.7
X147.137Y-80.752
X147.137Y-84.752
X147.137Y-88.752
X147.137Y-92.752
X147.137Y-100.752
X147.137Y-104.752
X147.137Y-108.752
X147.137Y-132.752
X148.8Y-116.4
X150.2Y-100.7
X151.137Y-76.752
X151.137Y-80.752
X151.137Y-84.752
X151.137Y-88.752
X151.137Y-104.752
X151.137Y-108.752
X151.137Y-128.752
X152.9Y-117.5
X152.9Y-121.3
X153.3Y-114.1
X154.7Y-115.5
X154.7Y-117.5
X154.7Y-119.5
X155.137Y-76.752
X155.137Y-80.752
X155.137Y-84.752
X155.137Y-88.752
X155.137Y-92.752
X155.137Y-108.752
X155.137Y-128.752
X155.137Y-132.752
X155.9Y-116.5
X155.9Y-118.6
X156.9Y-101.0
X157.0Y-97.8
X157.0Y-113.7
X157.0Y-115.5
X157.0Y-119.5
X157.0Y-121.3
X158.2Y-116.5
X158.2Y-118.6
X158.7Y-109.5
X159.137Y-76.752
X159.137Y-80.752
X159.137Y-84.752
X159.137Y-88.752
X159.137Y-92.752
X159.137Y-128.752
X159.137Y-132.752
X159.4Y-115.5
X159.4Y-117.5
X159.4Y-119.5
X160.6Y-97.8
X161.1Y-117.5
X162.3Y-122.6
X163.137Y-76.752
X163.137Y-80.752
X163.137Y-84.752
X163.137Y-88.752
X163.137Y-92.752
X163.137Y-104.752
X163.137Y-132.752
X164.3Y-120.7
X164.3Y-124.8
X165.1Y-97.8
X165.1Y-100.1
X167.137Y-76.752
X167.137Y-80.752
X167.137Y-84.752
X167.137Y-88.752
X167.137Y-92.752
X167.137Y-124.752
X167.137Y-132.752
X169.1Y-128.8
X171.137Y-76.752
X171.137Y-80.752
X171.137Y-84.752
X171.137Y-88.752
X171.137Y-92.752
X171.137Y-104.752
X171.137Y-108.752
X171.137Y-128.752
X175.137Y-76.752
X175.137Y-80.752
X175.137Y-84.752
X175.137Y-96.752
X175.137Y-100.752
X175.137Y-104.752
X175.137Y-108.752
X175.137Y-128.752
X175.137Y-132.752
X179.137Y-80.752
X179.137Y-84.752
X179.137Y-124.752
X179.137Y-128.752
X183.137Y-88.752
X183.137Y-92.752
X183.137Y-100.752
X183.137Y-104.752
X183.137Y-108.752
X183.137Y-116.752
X183.137Y-120.752
T3
X109.1Y-77.0
X109.1Y-133.0
X109.803Y-75.303
X109.803Y-78.697
X109.803Y-131.303
X109.803Y-134.697
X111.5Y-74.6
X111.5Y-79.4
X111.5Y-130.6
X111.5Y-135.4
X113.197Y-75.303
X113.197Y-78.697
X113.197Y-131.303
X113.197Y-134.697
X113.9Y-77.0
X113.9Y-133.0
X181.1Y-77.0
X181.1Y-133.0
X181.803Y-75.303
X181.803Y-78.697
X181.803Y-131.303
X181.803Y-134.697
X183.5Y-74.6
X183.5Y-79.4
X183.5Y-130.6
X183.5Y-135.4
X185.197Y-75.303
X185.197Y-78.697
X185.197Y-131.303
X185.197Y-134.697
X185.9Y-77.0
X185.9Y-133.0
T4
X126.5Y-100.85
X126.5Y-102.85
X126.5Y-104.85
X126.5Y-106.85
X126.5Y-108.85
X128.5Y-100.85
X128.5Y-102.85
X128.5Y-104.85
X128.5Y-106.85
X128.5Y-108.85
X166.5Y-100.85
X166.5Y-102.85
X166.5Y-104.85
X166.5Y-106.85
X166.5Y-108.85
X168.5Y-100.85
X168.5Y-102.85
X168.5Y-104.85
X168.5Y-106.85
X168.5Y-108.85
T5
X184.5Y-85.0
X184.5Y-96.0
T6
X174.969Y-113.5
X174.969Y-118.2
X174.969Y-122.9
X184.499Y-111.596
X184.499Y-124.805
T7
X174.5Y-88.0
X174.5Y-93.0
T8
X111.5Y-77.0
X111.5Y-133.0
X183.5Y-77.0
X183.5Y-133.0
M30
