%TF.GenerationSoftware,KiCad,Pcbnew,9.0.6*%
%TF.CreationDate,2026-01-04T20:51:54+00:00*%
%TF.ProjectId,COMET1_PWR_Board,434f4d45-5431-45f5-9057-525f426f6172,rev?*%
%TF.SameCoordinates,Original*%
%TF.FileFunction,Paste,Top*%
%TF.FilePolarity,Positive*%
%FSLAX46Y46*%
G04 Gerber Fmt 4.6, Leading zero omitted, Abs format (unit mm)*
G04 Created by KiCad (PCBNEW 9.0.6) date 2026-01-04 20:51:54*
%MOMM*%
%LPD*%
G01*
G04 APERTURE LIST*
G04 Aperture macros list*
%AMRoundRect*
0 Rectangle with rounded corners*
0 $1 Rounding radius*
0 $2 $3 $4 $5 $6 $7 $8 $9 X,Y pos of 4 corners*
0 Add a 4 corners polygon primitive as box body*
4,1,4,$2,$3,$4,$5,$6,$7,$8,$9,$2,$3,0*
0 Add four circle primitives for the rounded corners*
1,1,$1+$1,$2,$3*
1,1,$1+$1,$4,$5*
1,1,$1+$1,$6,$7*
1,1,$1+$1,$8,$9*
0 Add four rect primitives between the rounded corners*
20,1,$1+$1,$2,$3,$4,$5,0*
20,1,$1+$1,$4,$5,$6,$7,0*
20,1,$1+$1,$6,$7,$8,$9,0*
20,1,$1+$1,$8,$9,$2,$3,0*%
G04 Aperture macros list end*
%ADD10RoundRect,0.162500X-0.162500X-0.287500X0.162500X-0.287500X0.162500X0.287500X-0.162500X0.287500X0*%
%ADD11RoundRect,0.162500X0.287500X-0.162500X0.287500X0.162500X-0.287500X0.162500X-0.287500X-0.162500X0*%
%ADD12RoundRect,0.218750X-0.218750X-0.256250X0.218750X-0.256250X0.218750X0.256250X-0.218750X0.256250X0*%
%ADD13RoundRect,0.162500X0.162500X0.287500X-0.162500X0.287500X-0.162500X-0.287500X0.162500X-0.287500X0*%
%ADD14RoundRect,0.187500X0.187500X0.262500X-0.187500X0.262500X-0.187500X-0.262500X0.187500X-0.262500X0*%
%ADD15RoundRect,0.250001X0.462499X1.074999X-0.462499X1.074999X-0.462499X-1.074999X0.462499X-1.074999X0*%
%ADD16RoundRect,0.150000X0.650000X0.150000X-0.650000X0.150000X-0.650000X-0.150000X0.650000X-0.150000X0*%
%ADD17RoundRect,0.242500X0.242500X0.402500X-0.242500X0.402500X-0.242500X-0.402500X0.242500X-0.402500X0*%
%ADD18RoundRect,0.162500X-0.287500X0.162500X-0.287500X-0.162500X0.287500X-0.162500X0.287500X0.162500X0*%
%ADD19RoundRect,0.375000X0.375000X-0.625000X0.375000X0.625000X-0.375000X0.625000X-0.375000X-0.625000X0*%
%ADD20RoundRect,0.500000X1.400000X-0.500000X1.400000X0.500000X-1.400000X0.500000X-1.400000X-0.500000X0*%
%ADD21RoundRect,0.200000X-0.900000X-0.200000X0.900000X-0.200000X0.900000X0.200000X-0.900000X0.200000X0*%
%ADD22RoundRect,0.250000X-1.275000X-1.125000X1.275000X-1.125000X1.275000X1.125000X-1.275000X1.125000X0*%
%ADD23RoundRect,0.187500X0.262500X-0.187500X0.262500X0.187500X-0.262500X0.187500X-0.262500X-0.187500X0*%
%ADD24R,3.500000X2.000000*%
%ADD25R,6.000000X2.000000*%
%ADD26RoundRect,0.187500X-0.262500X0.187500X-0.262500X-0.187500X0.262500X-0.187500X0.262500X0.187500X0*%
%ADD27R,1.700000X5.300000*%
%ADD28R,1.200000X3.200000*%
%ADD29RoundRect,0.187500X-0.187500X-0.262500X0.187500X-0.262500X0.187500X0.262500X-0.187500X0.262500X0*%
%ADD30RoundRect,0.250001X-0.462499X-1.074999X0.462499X-1.074999X0.462499X1.074999X-0.462499X1.074999X0*%
G04 APERTURE END LIST*
D10*
%TO.C,R9*%
X154390000Y-122540000D03*
X153090000Y-122540000D03*
%TD*%
D11*
%TO.C,R11*%
X120450000Y-101975000D03*
X120450000Y-103275000D03*
%TD*%
%TO.C,R10*%
X122250000Y-101975000D03*
X122250000Y-103275000D03*
%TD*%
D12*
%TO.C,LED1*%
X152290000Y-75000000D03*
X150715000Y-75000000D03*
%TD*%
D13*
%TO.C,R3*%
X147035000Y-75000000D03*
X148335000Y-75000000D03*
%TD*%
D14*
%TO.C,C3*%
X113100000Y-112000000D03*
X114300000Y-112000000D03*
%TD*%
D15*
%TO.C,F2*%
X167212500Y-121800000D03*
X170187500Y-121800000D03*
%TD*%
D16*
%TO.C,U2*%
X113050000Y-109105000D03*
X113050000Y-107835000D03*
X113050000Y-106565000D03*
X113050000Y-105295000D03*
X118350000Y-105295000D03*
X118350000Y-106565000D03*
X118350000Y-107835000D03*
X118350000Y-109105000D03*
D17*
X115100000Y-106400000D03*
X115100000Y-108000000D03*
X116300000Y-106400000D03*
X116300000Y-108000000D03*
%TD*%
D18*
%TO.C,R2*%
X160600000Y-100550000D03*
X160600000Y-99250000D03*
%TD*%
D19*
%TO.C,U1*%
X154800000Y-99150000D03*
D20*
X152500000Y-92850000D03*
D19*
X152500000Y-99150000D03*
X150200000Y-99150000D03*
%TD*%
D21*
%TO.C,U3*%
X134700000Y-119820000D03*
X134700000Y-118680000D03*
X134700000Y-117540000D03*
X134700000Y-116400000D03*
X134700000Y-115260000D03*
D22*
X142675000Y-119065000D03*
X142675000Y-116015000D03*
X139325000Y-119065000D03*
X139325000Y-116015000D03*
%TD*%
D23*
%TO.C,C7*%
X147600000Y-116350000D03*
X147600000Y-117550000D03*
%TD*%
D24*
%TO.C,J2*%
X120725000Y-120600000D03*
D25*
X111475000Y-120600000D03*
D24*
X120725000Y-116600000D03*
D25*
X111475000Y-116600000D03*
%TD*%
D26*
%TO.C,C4*%
X131550000Y-114700000D03*
X131550000Y-113500000D03*
%TD*%
D23*
%TO.C,C6*%
X131550000Y-116400000D03*
X131550000Y-117600000D03*
%TD*%
D27*
%TO.C,J5*%
X170050000Y-134250000D03*
X160950000Y-134250000D03*
D28*
X167500000Y-128770000D03*
X165500000Y-128770000D03*
X163500000Y-128770000D03*
%TD*%
D29*
%TO.C,C1*%
X152500000Y-103600000D03*
X151300000Y-103600000D03*
%TD*%
D13*
%TO.C,R5*%
X120750000Y-109100000D03*
X122050000Y-109100000D03*
%TD*%
D10*
%TO.C,R6*%
X135390000Y-122540000D03*
X134090000Y-122540000D03*
%TD*%
%TO.C,R7*%
X138390000Y-122540000D03*
X137090000Y-122540000D03*
%TD*%
%TO.C,R12*%
X114350000Y-103200000D03*
X113050000Y-103200000D03*
%TD*%
D21*
%TO.C,U4*%
X150700000Y-119820000D03*
X150700000Y-118680000D03*
X150700000Y-117540000D03*
X150700000Y-116400000D03*
X150700000Y-115260000D03*
D22*
X158675000Y-119065000D03*
X158675000Y-116015000D03*
X155325000Y-119065000D03*
X155325000Y-116015000D03*
%TD*%
D27*
%TO.C,J4*%
X152050000Y-134250000D03*
X142950000Y-134250000D03*
D28*
X149500000Y-128770000D03*
X147500000Y-128770000D03*
X145500000Y-128770000D03*
%TD*%
D27*
%TO.C,J3*%
X134050000Y-134250000D03*
X124950000Y-134250000D03*
D28*
X131500000Y-128770000D03*
X129500000Y-128770000D03*
X127500000Y-128770000D03*
%TD*%
D11*
%TO.C,R1*%
X158600000Y-99250000D03*
X158600000Y-100550000D03*
%TD*%
D14*
%TO.C,C2*%
X151300000Y-102000000D03*
X152500000Y-102000000D03*
%TD*%
D10*
%TO.C,R8*%
X151390000Y-122540000D03*
X150090000Y-122540000D03*
%TD*%
D30*
%TO.C,F1*%
X170187500Y-114500000D03*
X167212500Y-114500000D03*
%TD*%
D26*
%TO.C,C5*%
X147600000Y-114700000D03*
X147600000Y-113500000D03*
%TD*%
M02*
