%TF.GenerationSoftware,KiCad,Pcbnew,9.0.6*%
%TF.CreationDate,2026-01-04T20:51:54+00:00*%
%TF.ProjectId,COMET1_PWR_Board,434f4d45-5431-45f5-9057-525f426f6172,rev?*%
%TF.SameCoordinates,Original*%
%TF.FileFunction,Soldermask,Bot*%
%TF.FilePolarity,Negative*%
%FSLAX46Y46*%
G04 Gerber Fmt 4.6, Leading zero omitted, Abs format (unit mm)*
G04 Created by KiCad (PCBNEW 9.0.6) date 2026-01-04 20:51:54*
%MOMM*%
%LPD*%
G01*
G04 APERTURE LIST*
G04 Aperture macros list*
%AMRoundRect*
0 Rectangle with rounded corners*
0 $1 Rounding radius*
0 $2 $3 $4 $5 $6 $7 $8 $9 X,Y pos of 4 corners*
0 Add a 4 corners polygon primitive as box body*
4,1,4,$2,$3,$4,$5,$6,$7,$8,$9,$2,$3,0*
0 Add four circle primitives for the rounded corners*
1,1,$1+$1,$2,$3*
1,1,$1+$1,$4,$5*
1,1,$1+$1,$6,$7*
1,1,$1+$1,$8,$9*
0 Add four rect primitives between the rounded corners*
20,1,$1+$1,$2,$3,$4,$5,0*
20,1,$1+$1,$4,$5,$6,$7,0*
20,1,$1+$1,$6,$7,$8,$9,0*
20,1,$1+$1,$8,$9,$2,$3,0*%
G04 Aperture macros list end*
%ADD10C,1.550000*%
%ADD11RoundRect,0.100000X-0.675000X0.675000X-0.675000X-0.675000X0.675000X-0.675000X0.675000X0.675000X0*%
%ADD12C,1.000000*%
%ADD13C,6.600000*%
%ADD14C,2.975000*%
%ADD15RoundRect,0.100000X1.387500X-1.387500X1.387500X1.387500X-1.387500X1.387500X-1.387500X-1.387500X0*%
%ADD16C,1.700000*%
%ADD17C,3.050000*%
%ADD18RoundRect,0.100000X-1.425000X1.425000X-1.425000X-1.425000X1.425000X-1.425000X1.425000X1.425000X0*%
%ADD19RoundRect,0.100000X0.675000X-0.675000X0.675000X0.675000X-0.675000X0.675000X-0.675000X-0.675000X0*%
G04 APERTURE END LIST*
D10*
%TO.C,J6*%
X168500000Y-100850000D03*
X166500000Y-100850000D03*
X168500000Y-102850000D03*
X166500000Y-102850000D03*
X168500000Y-104850000D03*
X166500000Y-104850000D03*
X168500000Y-106850000D03*
X166500000Y-106850000D03*
X168500000Y-108850000D03*
D11*
X166500000Y-108850000D03*
%TD*%
D12*
%TO.C,MH3*%
X185900000Y-77000000D03*
X185197056Y-78697056D03*
X185197056Y-75302944D03*
X183500000Y-79400000D03*
D13*
X183500000Y-77000000D03*
D12*
X183500000Y-74600000D03*
X181802944Y-78697056D03*
X181802944Y-75302944D03*
X181100000Y-77000000D03*
%TD*%
D14*
%TO.C,S1*%
X184499000Y-124805500D03*
X184499000Y-111595500D03*
X174969000Y-122900500D03*
X174969000Y-118200500D03*
D15*
X174969000Y-113500500D03*
%TD*%
D12*
%TO.C,MH2*%
X113900000Y-133000000D03*
X113197056Y-134697056D03*
X113197056Y-131302944D03*
X111500000Y-135400000D03*
D13*
X111500000Y-133000000D03*
D12*
X111500000Y-130600000D03*
X109802944Y-134697056D03*
X109802944Y-131302944D03*
X109100000Y-133000000D03*
%TD*%
D16*
%TO.C,J1*%
X184500000Y-96000000D03*
X184500000Y-85000000D03*
D17*
X174500000Y-93000000D03*
D18*
X174500000Y-88000000D03*
%TD*%
D12*
%TO.C,MH4*%
X185900000Y-133000000D03*
X185197056Y-134697056D03*
X185197056Y-131302944D03*
X183500000Y-135400000D03*
D13*
X183500000Y-133000000D03*
D12*
X183500000Y-130600000D03*
X181802944Y-134697056D03*
X181802944Y-131302944D03*
X181100000Y-133000000D03*
%TD*%
D10*
%TO.C,J7*%
X126500000Y-108850000D03*
X128500000Y-108850000D03*
X126500000Y-106850000D03*
X128500000Y-106850000D03*
X126500000Y-104850000D03*
X128500000Y-104850000D03*
X126500000Y-102850000D03*
X128500000Y-102850000D03*
X126500000Y-100850000D03*
D19*
X128500000Y-100850000D03*
%TD*%
D12*
%TO.C,MH1*%
X113900000Y-77000000D03*
X113197056Y-78697056D03*
X113197056Y-75302944D03*
X111500000Y-79400000D03*
D13*
X111500000Y-77000000D03*
D12*
X111500000Y-74600000D03*
X109802944Y-78697056D03*
X109802944Y-75302944D03*
X109100000Y-77000000D03*
%TD*%
M02*
