%TF.GenerationSoftware,KiCad,Pcbnew,9.0.6*%
%TF.CreationDate,2026-01-04T20:51:55+00:00*%
%TF.ProjectId,COMET1_PWR_Board,434f4d45-5431-45f5-9057-525f426f6172,rev?*%
%TF.SameCoordinates,Original*%
%TF.FileFunction,AssemblyDrawing,Top*%
%FSLAX46Y46*%
G04 Gerber Fmt 4.6, Leading zero omitted, Abs format (unit mm)*
G04 Created by KiCad (PCBNEW 9.0.6) date 2026-01-04 20:51:55*
%MOMM*%
%LPD*%
G01*
G04 APERTURE LIST*
%ADD10C,0.100000*%
%ADD11C,0.254000*%
%ADD12C,0.060000*%
%ADD13C,0.150000*%
%ADD14C,0.120000*%
%ADD15C,0.080000*%
G04 APERTURE END LIST*
D10*
X188500000Y-133000000D02*
G75*
G02*
X183500000Y-138000000I-5000000J0D01*
G01*
X106500000Y-133000000D02*
X106500000Y-77000000D01*
X183500000Y-72000000D02*
G75*
G02*
X188500000Y-77000000I0J-5000000D01*
G01*
X188500000Y-77000000D02*
X188500000Y-133000000D01*
X111500000Y-138000000D02*
G75*
G02*
X106500000Y-133000000I0J5000000D01*
G01*
X111500000Y-138000000D02*
X183500000Y-138000000D01*
X111500000Y-72000000D02*
X183500000Y-72000000D01*
X106500000Y-77000000D02*
G75*
G02*
X111500000Y-72000000I5000000J0D01*
G01*
D11*
X166076667Y-108154318D02*
X166076667Y-109061461D01*
X166076667Y-109061461D02*
X166016190Y-109242889D01*
X166016190Y-109242889D02*
X165895238Y-109363842D01*
X165895238Y-109363842D02*
X165713809Y-109424318D01*
X165713809Y-109424318D02*
X165592857Y-109424318D01*
X167225714Y-108154318D02*
X166983809Y-108154318D01*
X166983809Y-108154318D02*
X166862857Y-108214794D01*
X166862857Y-108214794D02*
X166802381Y-108275270D01*
X166802381Y-108275270D02*
X166681428Y-108456699D01*
X166681428Y-108456699D02*
X166620952Y-108698603D01*
X166620952Y-108698603D02*
X166620952Y-109182413D01*
X166620952Y-109182413D02*
X166681428Y-109303365D01*
X166681428Y-109303365D02*
X166741905Y-109363842D01*
X166741905Y-109363842D02*
X166862857Y-109424318D01*
X166862857Y-109424318D02*
X167104762Y-109424318D01*
X167104762Y-109424318D02*
X167225714Y-109363842D01*
X167225714Y-109363842D02*
X167286190Y-109303365D01*
X167286190Y-109303365D02*
X167346667Y-109182413D01*
X167346667Y-109182413D02*
X167346667Y-108880032D01*
X167346667Y-108880032D02*
X167286190Y-108759080D01*
X167286190Y-108759080D02*
X167225714Y-108698603D01*
X167225714Y-108698603D02*
X167104762Y-108638127D01*
X167104762Y-108638127D02*
X166862857Y-108638127D01*
X166862857Y-108638127D02*
X166741905Y-108698603D01*
X166741905Y-108698603D02*
X166681428Y-108759080D01*
X166681428Y-108759080D02*
X166620952Y-108880032D01*
X165221524Y-108789318D02*
X167727667Y-108789318D01*
D12*
X153673333Y-122721927D02*
X153540000Y-122531451D01*
X153444762Y-122721927D02*
X153444762Y-122321927D01*
X153444762Y-122321927D02*
X153597143Y-122321927D01*
X153597143Y-122321927D02*
X153635238Y-122340975D01*
X153635238Y-122340975D02*
X153654285Y-122360022D01*
X153654285Y-122360022D02*
X153673333Y-122398118D01*
X153673333Y-122398118D02*
X153673333Y-122455260D01*
X153673333Y-122455260D02*
X153654285Y-122493356D01*
X153654285Y-122493356D02*
X153635238Y-122512403D01*
X153635238Y-122512403D02*
X153597143Y-122531451D01*
X153597143Y-122531451D02*
X153444762Y-122531451D01*
X153863809Y-122721927D02*
X153940000Y-122721927D01*
X153940000Y-122721927D02*
X153978095Y-122702880D01*
X153978095Y-122702880D02*
X153997143Y-122683832D01*
X153997143Y-122683832D02*
X154035238Y-122626689D01*
X154035238Y-122626689D02*
X154054285Y-122550499D01*
X154054285Y-122550499D02*
X154054285Y-122398118D01*
X154054285Y-122398118D02*
X154035238Y-122360022D01*
X154035238Y-122360022D02*
X154016190Y-122340975D01*
X154016190Y-122340975D02*
X153978095Y-122321927D01*
X153978095Y-122321927D02*
X153901904Y-122321927D01*
X153901904Y-122321927D02*
X153863809Y-122340975D01*
X153863809Y-122340975D02*
X153844762Y-122360022D01*
X153844762Y-122360022D02*
X153825714Y-122398118D01*
X153825714Y-122398118D02*
X153825714Y-122493356D01*
X153825714Y-122493356D02*
X153844762Y-122531451D01*
X153844762Y-122531451D02*
X153863809Y-122550499D01*
X153863809Y-122550499D02*
X153901904Y-122569546D01*
X153901904Y-122569546D02*
X153978095Y-122569546D01*
X153978095Y-122569546D02*
X154016190Y-122550499D01*
X154016190Y-122550499D02*
X154035238Y-122531451D01*
X154035238Y-122531451D02*
X154054285Y-122493356D01*
X120631927Y-102882142D02*
X120441451Y-103015475D01*
X120631927Y-103110713D02*
X120231927Y-103110713D01*
X120231927Y-103110713D02*
X120231927Y-102958332D01*
X120231927Y-102958332D02*
X120250975Y-102920237D01*
X120250975Y-102920237D02*
X120270022Y-102901190D01*
X120270022Y-102901190D02*
X120308118Y-102882142D01*
X120308118Y-102882142D02*
X120365260Y-102882142D01*
X120365260Y-102882142D02*
X120403356Y-102901190D01*
X120403356Y-102901190D02*
X120422403Y-102920237D01*
X120422403Y-102920237D02*
X120441451Y-102958332D01*
X120441451Y-102958332D02*
X120441451Y-103110713D01*
X120631927Y-102501190D02*
X120631927Y-102729761D01*
X120631927Y-102615475D02*
X120231927Y-102615475D01*
X120231927Y-102615475D02*
X120289070Y-102653571D01*
X120289070Y-102653571D02*
X120327165Y-102691666D01*
X120327165Y-102691666D02*
X120346213Y-102729761D01*
X120631927Y-102120238D02*
X120631927Y-102348809D01*
X120631927Y-102234523D02*
X120231927Y-102234523D01*
X120231927Y-102234523D02*
X120289070Y-102272619D01*
X120289070Y-102272619D02*
X120327165Y-102310714D01*
X120327165Y-102310714D02*
X120346213Y-102348809D01*
X122431927Y-102882142D02*
X122241451Y-103015475D01*
X122431927Y-103110713D02*
X122031927Y-103110713D01*
X122031927Y-103110713D02*
X122031927Y-102958332D01*
X122031927Y-102958332D02*
X122050975Y-102920237D01*
X122050975Y-102920237D02*
X122070022Y-102901190D01*
X122070022Y-102901190D02*
X122108118Y-102882142D01*
X122108118Y-102882142D02*
X122165260Y-102882142D01*
X122165260Y-102882142D02*
X122203356Y-102901190D01*
X122203356Y-102901190D02*
X122222403Y-102920237D01*
X122222403Y-102920237D02*
X122241451Y-102958332D01*
X122241451Y-102958332D02*
X122241451Y-103110713D01*
X122431927Y-102501190D02*
X122431927Y-102729761D01*
X122431927Y-102615475D02*
X122031927Y-102615475D01*
X122031927Y-102615475D02*
X122089070Y-102653571D01*
X122089070Y-102653571D02*
X122127165Y-102691666D01*
X122127165Y-102691666D02*
X122146213Y-102729761D01*
X122031927Y-102253571D02*
X122031927Y-102215476D01*
X122031927Y-102215476D02*
X122050975Y-102177380D01*
X122050975Y-102177380D02*
X122070022Y-102158333D01*
X122070022Y-102158333D02*
X122108118Y-102139285D01*
X122108118Y-102139285D02*
X122184308Y-102120238D01*
X122184308Y-102120238D02*
X122279546Y-102120238D01*
X122279546Y-102120238D02*
X122355737Y-102139285D01*
X122355737Y-102139285D02*
X122393832Y-102158333D01*
X122393832Y-102158333D02*
X122412880Y-102177380D01*
X122412880Y-102177380D02*
X122431927Y-102215476D01*
X122431927Y-102215476D02*
X122431927Y-102253571D01*
X122431927Y-102253571D02*
X122412880Y-102291666D01*
X122412880Y-102291666D02*
X122393832Y-102310714D01*
X122393832Y-102310714D02*
X122355737Y-102329761D01*
X122355737Y-102329761D02*
X122279546Y-102348809D01*
X122279546Y-102348809D02*
X122184308Y-102348809D01*
X122184308Y-102348809D02*
X122108118Y-102329761D01*
X122108118Y-102329761D02*
X122070022Y-102310714D01*
X122070022Y-102310714D02*
X122050975Y-102291666D01*
X122050975Y-102291666D02*
X122031927Y-102253571D01*
D13*
X150931071Y-76884819D02*
X150597738Y-76408628D01*
X150359643Y-76884819D02*
X150359643Y-75884819D01*
X150359643Y-75884819D02*
X150740595Y-75884819D01*
X150740595Y-75884819D02*
X150835833Y-75932438D01*
X150835833Y-75932438D02*
X150883452Y-75980057D01*
X150883452Y-75980057D02*
X150931071Y-76075295D01*
X150931071Y-76075295D02*
X150931071Y-76218152D01*
X150931071Y-76218152D02*
X150883452Y-76313390D01*
X150883452Y-76313390D02*
X150835833Y-76361009D01*
X150835833Y-76361009D02*
X150740595Y-76408628D01*
X150740595Y-76408628D02*
X150359643Y-76408628D01*
X151740595Y-76837200D02*
X151645357Y-76884819D01*
X151645357Y-76884819D02*
X151454881Y-76884819D01*
X151454881Y-76884819D02*
X151359643Y-76837200D01*
X151359643Y-76837200D02*
X151312024Y-76741961D01*
X151312024Y-76741961D02*
X151312024Y-76361009D01*
X151312024Y-76361009D02*
X151359643Y-76265771D01*
X151359643Y-76265771D02*
X151454881Y-76218152D01*
X151454881Y-76218152D02*
X151645357Y-76218152D01*
X151645357Y-76218152D02*
X151740595Y-76265771D01*
X151740595Y-76265771D02*
X151788214Y-76361009D01*
X151788214Y-76361009D02*
X151788214Y-76456247D01*
X151788214Y-76456247D02*
X151312024Y-76551485D01*
X152645357Y-76884819D02*
X152645357Y-75884819D01*
X152645357Y-76837200D02*
X152550119Y-76884819D01*
X152550119Y-76884819D02*
X152359643Y-76884819D01*
X152359643Y-76884819D02*
X152264405Y-76837200D01*
X152264405Y-76837200D02*
X152216786Y-76789580D01*
X152216786Y-76789580D02*
X152169167Y-76694342D01*
X152169167Y-76694342D02*
X152169167Y-76408628D01*
X152169167Y-76408628D02*
X152216786Y-76313390D01*
X152216786Y-76313390D02*
X152264405Y-76265771D01*
X152264405Y-76265771D02*
X152359643Y-76218152D01*
X152359643Y-76218152D02*
X152550119Y-76218152D01*
X152550119Y-76218152D02*
X152645357Y-76265771D01*
D12*
X151054881Y-75181927D02*
X150864405Y-75181927D01*
X150864405Y-75181927D02*
X150864405Y-74781927D01*
X151188215Y-74972403D02*
X151321548Y-74972403D01*
X151378691Y-75181927D02*
X151188215Y-75181927D01*
X151188215Y-75181927D02*
X151188215Y-74781927D01*
X151188215Y-74781927D02*
X151378691Y-74781927D01*
X151550120Y-75181927D02*
X151550120Y-74781927D01*
X151550120Y-74781927D02*
X151645358Y-74781927D01*
X151645358Y-74781927D02*
X151702501Y-74800975D01*
X151702501Y-74800975D02*
X151740596Y-74839070D01*
X151740596Y-74839070D02*
X151759643Y-74877165D01*
X151759643Y-74877165D02*
X151778691Y-74953356D01*
X151778691Y-74953356D02*
X151778691Y-75010499D01*
X151778691Y-75010499D02*
X151759643Y-75086689D01*
X151759643Y-75086689D02*
X151740596Y-75124784D01*
X151740596Y-75124784D02*
X151702501Y-75162880D01*
X151702501Y-75162880D02*
X151645358Y-75181927D01*
X151645358Y-75181927D02*
X151550120Y-75181927D01*
X152159643Y-75181927D02*
X151931072Y-75181927D01*
X152045358Y-75181927D02*
X152045358Y-74781927D01*
X152045358Y-74781927D02*
X152007262Y-74839070D01*
X152007262Y-74839070D02*
X151969167Y-74877165D01*
X151969167Y-74877165D02*
X151931072Y-74896213D01*
X150774405Y-74981927D02*
X152247359Y-74981927D01*
X147618333Y-75181927D02*
X147485000Y-74991451D01*
X147389762Y-75181927D02*
X147389762Y-74781927D01*
X147389762Y-74781927D02*
X147542143Y-74781927D01*
X147542143Y-74781927D02*
X147580238Y-74800975D01*
X147580238Y-74800975D02*
X147599285Y-74820022D01*
X147599285Y-74820022D02*
X147618333Y-74858118D01*
X147618333Y-74858118D02*
X147618333Y-74915260D01*
X147618333Y-74915260D02*
X147599285Y-74953356D01*
X147599285Y-74953356D02*
X147580238Y-74972403D01*
X147580238Y-74972403D02*
X147542143Y-74991451D01*
X147542143Y-74991451D02*
X147389762Y-74991451D01*
X147751666Y-74781927D02*
X147999285Y-74781927D01*
X147999285Y-74781927D02*
X147865952Y-74934308D01*
X147865952Y-74934308D02*
X147923095Y-74934308D01*
X147923095Y-74934308D02*
X147961190Y-74953356D01*
X147961190Y-74953356D02*
X147980238Y-74972403D01*
X147980238Y-74972403D02*
X147999285Y-75010499D01*
X147999285Y-75010499D02*
X147999285Y-75105737D01*
X147999285Y-75105737D02*
X147980238Y-75143832D01*
X147980238Y-75143832D02*
X147961190Y-75162880D01*
X147961190Y-75162880D02*
X147923095Y-75181927D01*
X147923095Y-75181927D02*
X147808809Y-75181927D01*
X147808809Y-75181927D02*
X147770714Y-75162880D01*
X147770714Y-75162880D02*
X147751666Y-75143832D01*
X113633333Y-112143832D02*
X113614285Y-112162880D01*
X113614285Y-112162880D02*
X113557143Y-112181927D01*
X113557143Y-112181927D02*
X113519047Y-112181927D01*
X113519047Y-112181927D02*
X113461904Y-112162880D01*
X113461904Y-112162880D02*
X113423809Y-112124784D01*
X113423809Y-112124784D02*
X113404762Y-112086689D01*
X113404762Y-112086689D02*
X113385714Y-112010499D01*
X113385714Y-112010499D02*
X113385714Y-111953356D01*
X113385714Y-111953356D02*
X113404762Y-111877165D01*
X113404762Y-111877165D02*
X113423809Y-111839070D01*
X113423809Y-111839070D02*
X113461904Y-111800975D01*
X113461904Y-111800975D02*
X113519047Y-111781927D01*
X113519047Y-111781927D02*
X113557143Y-111781927D01*
X113557143Y-111781927D02*
X113614285Y-111800975D01*
X113614285Y-111800975D02*
X113633333Y-111820022D01*
X113766666Y-111781927D02*
X114014285Y-111781927D01*
X114014285Y-111781927D02*
X113880952Y-111934308D01*
X113880952Y-111934308D02*
X113938095Y-111934308D01*
X113938095Y-111934308D02*
X113976190Y-111953356D01*
X113976190Y-111953356D02*
X113995238Y-111972403D01*
X113995238Y-111972403D02*
X114014285Y-112010499D01*
X114014285Y-112010499D02*
X114014285Y-112105737D01*
X114014285Y-112105737D02*
X113995238Y-112143832D01*
X113995238Y-112143832D02*
X113976190Y-112162880D01*
X113976190Y-112162880D02*
X113938095Y-112181927D01*
X113938095Y-112181927D02*
X113823809Y-112181927D01*
X113823809Y-112181927D02*
X113785714Y-112162880D01*
X113785714Y-112162880D02*
X113766666Y-112143832D01*
D13*
X167557142Y-119451009D02*
X167223809Y-119451009D01*
X167223809Y-119974819D02*
X167223809Y-118974819D01*
X167223809Y-118974819D02*
X167699999Y-118974819D01*
X168509523Y-119308152D02*
X168509523Y-119974819D01*
X168080952Y-119308152D02*
X168080952Y-119831961D01*
X168080952Y-119831961D02*
X168128571Y-119927200D01*
X168128571Y-119927200D02*
X168223809Y-119974819D01*
X168223809Y-119974819D02*
X168366666Y-119974819D01*
X168366666Y-119974819D02*
X168461904Y-119927200D01*
X168461904Y-119927200D02*
X168509523Y-119879580D01*
X168938095Y-119927200D02*
X169033333Y-119974819D01*
X169033333Y-119974819D02*
X169223809Y-119974819D01*
X169223809Y-119974819D02*
X169319047Y-119927200D01*
X169319047Y-119927200D02*
X169366666Y-119831961D01*
X169366666Y-119831961D02*
X169366666Y-119784342D01*
X169366666Y-119784342D02*
X169319047Y-119689104D01*
X169319047Y-119689104D02*
X169223809Y-119641485D01*
X169223809Y-119641485D02*
X169080952Y-119641485D01*
X169080952Y-119641485D02*
X168985714Y-119593866D01*
X168985714Y-119593866D02*
X168938095Y-119498628D01*
X168938095Y-119498628D02*
X168938095Y-119451009D01*
X168938095Y-119451009D02*
X168985714Y-119355771D01*
X168985714Y-119355771D02*
X169080952Y-119308152D01*
X169080952Y-119308152D02*
X169223809Y-119308152D01*
X169223809Y-119308152D02*
X169319047Y-119355771D01*
X170176190Y-119927200D02*
X170080952Y-119974819D01*
X170080952Y-119974819D02*
X169890476Y-119974819D01*
X169890476Y-119974819D02*
X169795238Y-119927200D01*
X169795238Y-119927200D02*
X169747619Y-119831961D01*
X169747619Y-119831961D02*
X169747619Y-119451009D01*
X169747619Y-119451009D02*
X169795238Y-119355771D01*
X169795238Y-119355771D02*
X169890476Y-119308152D01*
X169890476Y-119308152D02*
X170080952Y-119308152D01*
X170080952Y-119308152D02*
X170176190Y-119355771D01*
X170176190Y-119355771D02*
X170223809Y-119451009D01*
X170223809Y-119451009D02*
X170223809Y-119546247D01*
X170223809Y-119546247D02*
X169747619Y-119641485D01*
D14*
X168433333Y-121744807D02*
X168166667Y-121744807D01*
X168166667Y-122163855D02*
X168166667Y-121363855D01*
X168166667Y-121363855D02*
X168547619Y-121363855D01*
X168814285Y-121440045D02*
X168852381Y-121401950D01*
X168852381Y-121401950D02*
X168928571Y-121363855D01*
X168928571Y-121363855D02*
X169119047Y-121363855D01*
X169119047Y-121363855D02*
X169195238Y-121401950D01*
X169195238Y-121401950D02*
X169233333Y-121440045D01*
X169233333Y-121440045D02*
X169271428Y-121516236D01*
X169271428Y-121516236D02*
X169271428Y-121592426D01*
X169271428Y-121592426D02*
X169233333Y-121706712D01*
X169233333Y-121706712D02*
X168776190Y-122163855D01*
X168776190Y-122163855D02*
X169271428Y-122163855D01*
X167986667Y-121763855D02*
X169451428Y-121763855D01*
D13*
X182166667Y-77454819D02*
X182166667Y-76454819D01*
X182166667Y-76454819D02*
X182500000Y-77169104D01*
X182500000Y-77169104D02*
X182833333Y-76454819D01*
X182833333Y-76454819D02*
X182833333Y-77454819D01*
X183309524Y-77454819D02*
X183309524Y-76454819D01*
X183309524Y-76931009D02*
X183880952Y-76931009D01*
X183880952Y-77454819D02*
X183880952Y-76454819D01*
X184261905Y-76454819D02*
X184880952Y-76454819D01*
X184880952Y-76454819D02*
X184547619Y-76835771D01*
X184547619Y-76835771D02*
X184690476Y-76835771D01*
X184690476Y-76835771D02*
X184785714Y-76883390D01*
X184785714Y-76883390D02*
X184833333Y-76931009D01*
X184833333Y-76931009D02*
X184880952Y-77026247D01*
X184880952Y-77026247D02*
X184880952Y-77264342D01*
X184880952Y-77264342D02*
X184833333Y-77359580D01*
X184833333Y-77359580D02*
X184785714Y-77407200D01*
X184785714Y-77407200D02*
X184690476Y-77454819D01*
X184690476Y-77454819D02*
X184404762Y-77454819D01*
X184404762Y-77454819D02*
X184309524Y-77407200D01*
X184309524Y-77407200D02*
X184261905Y-77359580D01*
X114953333Y-106665566D02*
X114953333Y-107458900D01*
X114953333Y-107458900D02*
X115000000Y-107552233D01*
X115000000Y-107552233D02*
X115046666Y-107598900D01*
X115046666Y-107598900D02*
X115140000Y-107645566D01*
X115140000Y-107645566D02*
X115326666Y-107645566D01*
X115326666Y-107645566D02*
X115420000Y-107598900D01*
X115420000Y-107598900D02*
X115466666Y-107552233D01*
X115466666Y-107552233D02*
X115513333Y-107458900D01*
X115513333Y-107458900D02*
X115513333Y-106665566D01*
X115933333Y-106758900D02*
X115980000Y-106712233D01*
X115980000Y-106712233D02*
X116073333Y-106665566D01*
X116073333Y-106665566D02*
X116306667Y-106665566D01*
X116306667Y-106665566D02*
X116400000Y-106712233D01*
X116400000Y-106712233D02*
X116446667Y-106758900D01*
X116446667Y-106758900D02*
X116493333Y-106852233D01*
X116493333Y-106852233D02*
X116493333Y-106945566D01*
X116493333Y-106945566D02*
X116446667Y-107085566D01*
X116446667Y-107085566D02*
X115886667Y-107645566D01*
X115886667Y-107645566D02*
X116493333Y-107645566D01*
X114728333Y-107155566D02*
X116718333Y-107155566D01*
D11*
X180932380Y-118714342D02*
X181113809Y-118774818D01*
X181113809Y-118774818D02*
X181416190Y-118774818D01*
X181416190Y-118774818D02*
X181537142Y-118714342D01*
X181537142Y-118714342D02*
X181597618Y-118653865D01*
X181597618Y-118653865D02*
X181658095Y-118532913D01*
X181658095Y-118532913D02*
X181658095Y-118411961D01*
X181658095Y-118411961D02*
X181597618Y-118291008D01*
X181597618Y-118291008D02*
X181537142Y-118230532D01*
X181537142Y-118230532D02*
X181416190Y-118170056D01*
X181416190Y-118170056D02*
X181174285Y-118109580D01*
X181174285Y-118109580D02*
X181053333Y-118049103D01*
X181053333Y-118049103D02*
X180992856Y-117988627D01*
X180992856Y-117988627D02*
X180932380Y-117867675D01*
X180932380Y-117867675D02*
X180932380Y-117746722D01*
X180932380Y-117746722D02*
X180992856Y-117625770D01*
X180992856Y-117625770D02*
X181053333Y-117565294D01*
X181053333Y-117565294D02*
X181174285Y-117504818D01*
X181174285Y-117504818D02*
X181476666Y-117504818D01*
X181476666Y-117504818D02*
X181658095Y-117565294D01*
X182867619Y-118774818D02*
X182141904Y-118774818D01*
X182504761Y-118774818D02*
X182504761Y-117504818D01*
X182504761Y-117504818D02*
X182383809Y-117686246D01*
X182383809Y-117686246D02*
X182262857Y-117807199D01*
X182262857Y-117807199D02*
X182141904Y-117867675D01*
X180551380Y-118139818D02*
X183238952Y-118139818D01*
D12*
X160781927Y-99966666D02*
X160591451Y-100099999D01*
X160781927Y-100195237D02*
X160381927Y-100195237D01*
X160381927Y-100195237D02*
X160381927Y-100042856D01*
X160381927Y-100042856D02*
X160400975Y-100004761D01*
X160400975Y-100004761D02*
X160420022Y-99985714D01*
X160420022Y-99985714D02*
X160458118Y-99966666D01*
X160458118Y-99966666D02*
X160515260Y-99966666D01*
X160515260Y-99966666D02*
X160553356Y-99985714D01*
X160553356Y-99985714D02*
X160572403Y-100004761D01*
X160572403Y-100004761D02*
X160591451Y-100042856D01*
X160591451Y-100042856D02*
X160591451Y-100195237D01*
X160420022Y-99814285D02*
X160400975Y-99795237D01*
X160400975Y-99795237D02*
X160381927Y-99757142D01*
X160381927Y-99757142D02*
X160381927Y-99661904D01*
X160381927Y-99661904D02*
X160400975Y-99623809D01*
X160400975Y-99623809D02*
X160420022Y-99604761D01*
X160420022Y-99604761D02*
X160458118Y-99585714D01*
X160458118Y-99585714D02*
X160496213Y-99585714D01*
X160496213Y-99585714D02*
X160553356Y-99604761D01*
X160553356Y-99604761D02*
X160781927Y-99833333D01*
X160781927Y-99833333D02*
X160781927Y-99585714D01*
D13*
X111261904Y-84881009D02*
X110928571Y-84881009D01*
X110928571Y-85404819D02*
X110928571Y-84404819D01*
X110928571Y-84404819D02*
X111404761Y-84404819D01*
X111785714Y-85404819D02*
X111785714Y-84738152D01*
X111785714Y-84404819D02*
X111738095Y-84452438D01*
X111738095Y-84452438D02*
X111785714Y-84500057D01*
X111785714Y-84500057D02*
X111833333Y-84452438D01*
X111833333Y-84452438D02*
X111785714Y-84404819D01*
X111785714Y-84404819D02*
X111785714Y-84500057D01*
X112690475Y-85404819D02*
X112690475Y-84404819D01*
X112690475Y-85357200D02*
X112595237Y-85404819D01*
X112595237Y-85404819D02*
X112404761Y-85404819D01*
X112404761Y-85404819D02*
X112309523Y-85357200D01*
X112309523Y-85357200D02*
X112261904Y-85309580D01*
X112261904Y-85309580D02*
X112214285Y-85214342D01*
X112214285Y-85214342D02*
X112214285Y-84928628D01*
X112214285Y-84928628D02*
X112261904Y-84833390D01*
X112261904Y-84833390D02*
X112309523Y-84785771D01*
X112309523Y-84785771D02*
X112404761Y-84738152D01*
X112404761Y-84738152D02*
X112595237Y-84738152D01*
X112595237Y-84738152D02*
X112690475Y-84785771D01*
X113595237Y-84738152D02*
X113595237Y-85404819D01*
X113166666Y-84738152D02*
X113166666Y-85261961D01*
X113166666Y-85261961D02*
X113214285Y-85357200D01*
X113214285Y-85357200D02*
X113309523Y-85404819D01*
X113309523Y-85404819D02*
X113452380Y-85404819D01*
X113452380Y-85404819D02*
X113547618Y-85357200D01*
X113547618Y-85357200D02*
X113595237Y-85309580D01*
X114499999Y-85357200D02*
X114404761Y-85404819D01*
X114404761Y-85404819D02*
X114214285Y-85404819D01*
X114214285Y-85404819D02*
X114119047Y-85357200D01*
X114119047Y-85357200D02*
X114071428Y-85309580D01*
X114071428Y-85309580D02*
X114023809Y-85214342D01*
X114023809Y-85214342D02*
X114023809Y-84928628D01*
X114023809Y-84928628D02*
X114071428Y-84833390D01*
X114071428Y-84833390D02*
X114119047Y-84785771D01*
X114119047Y-84785771D02*
X114214285Y-84738152D01*
X114214285Y-84738152D02*
X114404761Y-84738152D01*
X114404761Y-84738152D02*
X114499999Y-84785771D01*
X114928571Y-85404819D02*
X114928571Y-84738152D01*
X114928571Y-84404819D02*
X114880952Y-84452438D01*
X114880952Y-84452438D02*
X114928571Y-84500057D01*
X114928571Y-84500057D02*
X114976190Y-84452438D01*
X114976190Y-84452438D02*
X114928571Y-84404819D01*
X114928571Y-84404819D02*
X114928571Y-84500057D01*
X115833332Y-85404819D02*
X115833332Y-84881009D01*
X115833332Y-84881009D02*
X115785713Y-84785771D01*
X115785713Y-84785771D02*
X115690475Y-84738152D01*
X115690475Y-84738152D02*
X115499999Y-84738152D01*
X115499999Y-84738152D02*
X115404761Y-84785771D01*
X115833332Y-85357200D02*
X115738094Y-85404819D01*
X115738094Y-85404819D02*
X115499999Y-85404819D01*
X115499999Y-85404819D02*
X115404761Y-85357200D01*
X115404761Y-85357200D02*
X115357142Y-85261961D01*
X115357142Y-85261961D02*
X115357142Y-85166723D01*
X115357142Y-85166723D02*
X115404761Y-85071485D01*
X115404761Y-85071485D02*
X115499999Y-85023866D01*
X115499999Y-85023866D02*
X115738094Y-85023866D01*
X115738094Y-85023866D02*
X115833332Y-84976247D01*
X116452380Y-85404819D02*
X116357142Y-85357200D01*
X116357142Y-85357200D02*
X116309523Y-85261961D01*
X116309523Y-85261961D02*
X116309523Y-84404819D01*
X117595238Y-85404819D02*
X117595238Y-84404819D01*
X117595238Y-84404819D02*
X117928571Y-85119104D01*
X117928571Y-85119104D02*
X118261904Y-84404819D01*
X118261904Y-84404819D02*
X118261904Y-85404819D01*
X119166666Y-85404819D02*
X119166666Y-84881009D01*
X119166666Y-84881009D02*
X119119047Y-84785771D01*
X119119047Y-84785771D02*
X119023809Y-84738152D01*
X119023809Y-84738152D02*
X118833333Y-84738152D01*
X118833333Y-84738152D02*
X118738095Y-84785771D01*
X119166666Y-85357200D02*
X119071428Y-85404819D01*
X119071428Y-85404819D02*
X118833333Y-85404819D01*
X118833333Y-85404819D02*
X118738095Y-85357200D01*
X118738095Y-85357200D02*
X118690476Y-85261961D01*
X118690476Y-85261961D02*
X118690476Y-85166723D01*
X118690476Y-85166723D02*
X118738095Y-85071485D01*
X118738095Y-85071485D02*
X118833333Y-85023866D01*
X118833333Y-85023866D02*
X119071428Y-85023866D01*
X119071428Y-85023866D02*
X119166666Y-84976247D01*
X119642857Y-85404819D02*
X119642857Y-84738152D01*
X119642857Y-84928628D02*
X119690476Y-84833390D01*
X119690476Y-84833390D02*
X119738095Y-84785771D01*
X119738095Y-84785771D02*
X119833333Y-84738152D01*
X119833333Y-84738152D02*
X119928571Y-84738152D01*
X120261905Y-85404819D02*
X120261905Y-84404819D01*
X120357143Y-85023866D02*
X120642857Y-85404819D01*
X120642857Y-84738152D02*
X120261905Y-85119104D01*
X121452381Y-85357200D02*
X121357143Y-85404819D01*
X121357143Y-85404819D02*
X121166667Y-85404819D01*
X121166667Y-85404819D02*
X121071429Y-85357200D01*
X121071429Y-85357200D02*
X121023810Y-85261961D01*
X121023810Y-85261961D02*
X121023810Y-84881009D01*
X121023810Y-84881009D02*
X121071429Y-84785771D01*
X121071429Y-84785771D02*
X121166667Y-84738152D01*
X121166667Y-84738152D02*
X121357143Y-84738152D01*
X121357143Y-84738152D02*
X121452381Y-84785771D01*
X121452381Y-84785771D02*
X121500000Y-84881009D01*
X121500000Y-84881009D02*
X121500000Y-84976247D01*
X121500000Y-84976247D02*
X121023810Y-85071485D01*
X121928572Y-85404819D02*
X121928572Y-84738152D01*
X121928572Y-84928628D02*
X121976191Y-84833390D01*
X121976191Y-84833390D02*
X122023810Y-84785771D01*
X122023810Y-84785771D02*
X122119048Y-84738152D01*
X122119048Y-84738152D02*
X122214286Y-84738152D01*
D15*
X115964286Y-82965244D02*
X115797619Y-82965244D01*
X115797619Y-83227149D02*
X115797619Y-82727149D01*
X115797619Y-82727149D02*
X116035714Y-82727149D01*
X116226190Y-83227149D02*
X116226190Y-82727149D01*
X116464285Y-83227149D02*
X116464285Y-82727149D01*
X116464285Y-82727149D02*
X116583333Y-82727149D01*
X116583333Y-82727149D02*
X116654761Y-82750959D01*
X116654761Y-82750959D02*
X116702380Y-82798578D01*
X116702380Y-82798578D02*
X116726190Y-82846197D01*
X116726190Y-82846197D02*
X116749999Y-82941435D01*
X116749999Y-82941435D02*
X116749999Y-83012863D01*
X116749999Y-83012863D02*
X116726190Y-83108101D01*
X116726190Y-83108101D02*
X116702380Y-83155720D01*
X116702380Y-83155720D02*
X116654761Y-83203340D01*
X116654761Y-83203340D02*
X116583333Y-83227149D01*
X116583333Y-83227149D02*
X116464285Y-83227149D01*
X117226190Y-83227149D02*
X116940476Y-83227149D01*
X117083333Y-83227149D02*
X117083333Y-82727149D01*
X117083333Y-82727149D02*
X117035714Y-82798578D01*
X117035714Y-82798578D02*
X116988095Y-82846197D01*
X116988095Y-82846197D02*
X116940476Y-82870006D01*
D13*
X157454819Y-100761904D02*
X156454819Y-100761904D01*
X156454819Y-100761904D02*
X157454819Y-100190476D01*
X157454819Y-100190476D02*
X156454819Y-100190476D01*
X157359580Y-99142857D02*
X157407200Y-99190476D01*
X157407200Y-99190476D02*
X157454819Y-99333333D01*
X157454819Y-99333333D02*
X157454819Y-99428571D01*
X157454819Y-99428571D02*
X157407200Y-99571428D01*
X157407200Y-99571428D02*
X157311961Y-99666666D01*
X157311961Y-99666666D02*
X157216723Y-99714285D01*
X157216723Y-99714285D02*
X157026247Y-99761904D01*
X157026247Y-99761904D02*
X156883390Y-99761904D01*
X156883390Y-99761904D02*
X156692914Y-99714285D01*
X156692914Y-99714285D02*
X156597676Y-99666666D01*
X156597676Y-99666666D02*
X156502438Y-99571428D01*
X156502438Y-99571428D02*
X156454819Y-99428571D01*
X156454819Y-99428571D02*
X156454819Y-99333333D01*
X156454819Y-99333333D02*
X156502438Y-99190476D01*
X156502438Y-99190476D02*
X156550057Y-99142857D01*
X157454819Y-98714285D02*
X156454819Y-98714285D01*
X156454819Y-98714285D02*
X156454819Y-98333333D01*
X156454819Y-98333333D02*
X156502438Y-98238095D01*
X156502438Y-98238095D02*
X156550057Y-98190476D01*
X156550057Y-98190476D02*
X156645295Y-98142857D01*
X156645295Y-98142857D02*
X156788152Y-98142857D01*
X156788152Y-98142857D02*
X156883390Y-98190476D01*
X156883390Y-98190476D02*
X156931009Y-98238095D01*
X156931009Y-98238095D02*
X156978628Y-98333333D01*
X156978628Y-98333333D02*
X156978628Y-98714285D01*
X157454819Y-97190476D02*
X157454819Y-97761904D01*
X157454819Y-97476190D02*
X156454819Y-97476190D01*
X156454819Y-97476190D02*
X156597676Y-97571428D01*
X156597676Y-97571428D02*
X156692914Y-97666666D01*
X156692914Y-97666666D02*
X156740533Y-97761904D01*
X157454819Y-96238095D02*
X157454819Y-96809523D01*
X157454819Y-96523809D02*
X156454819Y-96523809D01*
X156454819Y-96523809D02*
X156597676Y-96619047D01*
X156597676Y-96619047D02*
X156692914Y-96714285D01*
X156692914Y-96714285D02*
X156740533Y-96809523D01*
X157454819Y-95285714D02*
X157454819Y-95857142D01*
X157454819Y-95571428D02*
X156454819Y-95571428D01*
X156454819Y-95571428D02*
X156597676Y-95666666D01*
X156597676Y-95666666D02*
X156692914Y-95761904D01*
X156692914Y-95761904D02*
X156740533Y-95857142D01*
X156454819Y-94952380D02*
X156454819Y-94285714D01*
X156454819Y-94285714D02*
X157454819Y-94714285D01*
X157550057Y-94142857D02*
X157550057Y-93380952D01*
X156454819Y-93238094D02*
X156454819Y-92619047D01*
X156454819Y-92619047D02*
X156835771Y-92952380D01*
X156835771Y-92952380D02*
X156835771Y-92809523D01*
X156835771Y-92809523D02*
X156883390Y-92714285D01*
X156883390Y-92714285D02*
X156931009Y-92666666D01*
X156931009Y-92666666D02*
X157026247Y-92619047D01*
X157026247Y-92619047D02*
X157264342Y-92619047D01*
X157264342Y-92619047D02*
X157359580Y-92666666D01*
X157359580Y-92666666D02*
X157407200Y-92714285D01*
X157407200Y-92714285D02*
X157454819Y-92809523D01*
X157454819Y-92809523D02*
X157454819Y-93095237D01*
X157454819Y-93095237D02*
X157407200Y-93190475D01*
X157407200Y-93190475D02*
X157359580Y-93238094D01*
X157359580Y-92190475D02*
X157407200Y-92142856D01*
X157407200Y-92142856D02*
X157454819Y-92190475D01*
X157454819Y-92190475D02*
X157407200Y-92238094D01*
X157407200Y-92238094D02*
X157359580Y-92190475D01*
X157359580Y-92190475D02*
X157454819Y-92190475D01*
X156454819Y-91809523D02*
X156454819Y-91190476D01*
X156454819Y-91190476D02*
X156835771Y-91523809D01*
X156835771Y-91523809D02*
X156835771Y-91380952D01*
X156835771Y-91380952D02*
X156883390Y-91285714D01*
X156883390Y-91285714D02*
X156931009Y-91238095D01*
X156931009Y-91238095D02*
X157026247Y-91190476D01*
X157026247Y-91190476D02*
X157264342Y-91190476D01*
X157264342Y-91190476D02*
X157359580Y-91238095D01*
X157359580Y-91238095D02*
X157407200Y-91285714D01*
X157407200Y-91285714D02*
X157454819Y-91380952D01*
X157454819Y-91380952D02*
X157454819Y-91666666D01*
X157454819Y-91666666D02*
X157407200Y-91761904D01*
X157407200Y-91761904D02*
X157359580Y-91809523D01*
D14*
X151890476Y-95563855D02*
X151890476Y-96211474D01*
X151890476Y-96211474D02*
X151928571Y-96287664D01*
X151928571Y-96287664D02*
X151966666Y-96325760D01*
X151966666Y-96325760D02*
X152042857Y-96363855D01*
X152042857Y-96363855D02*
X152195238Y-96363855D01*
X152195238Y-96363855D02*
X152271428Y-96325760D01*
X152271428Y-96325760D02*
X152309523Y-96287664D01*
X152309523Y-96287664D02*
X152347619Y-96211474D01*
X152347619Y-96211474D02*
X152347619Y-95563855D01*
X153147618Y-96363855D02*
X152690475Y-96363855D01*
X152919047Y-96363855D02*
X152919047Y-95563855D01*
X152919047Y-95563855D02*
X152842856Y-95678140D01*
X152842856Y-95678140D02*
X152766666Y-95754331D01*
X152766666Y-95754331D02*
X152690475Y-95792426D01*
X151710476Y-95964425D02*
X153323051Y-95964425D01*
D13*
X134787619Y-122494819D02*
X134787619Y-121494819D01*
X134787619Y-121494819D02*
X135120952Y-122209104D01*
X135120952Y-122209104D02*
X135454285Y-121494819D01*
X135454285Y-121494819D02*
X135454285Y-122494819D01*
X135930476Y-122494819D02*
X135930476Y-121494819D01*
X136978094Y-122399580D02*
X136930475Y-122447200D01*
X136930475Y-122447200D02*
X136787618Y-122494819D01*
X136787618Y-122494819D02*
X136692380Y-122494819D01*
X136692380Y-122494819D02*
X136549523Y-122447200D01*
X136549523Y-122447200D02*
X136454285Y-122351961D01*
X136454285Y-122351961D02*
X136406666Y-122256723D01*
X136406666Y-122256723D02*
X136359047Y-122066247D01*
X136359047Y-122066247D02*
X136359047Y-121923390D01*
X136359047Y-121923390D02*
X136406666Y-121732914D01*
X136406666Y-121732914D02*
X136454285Y-121637676D01*
X136454285Y-121637676D02*
X136549523Y-121542438D01*
X136549523Y-121542438D02*
X136692380Y-121494819D01*
X136692380Y-121494819D02*
X136787618Y-121494819D01*
X136787618Y-121494819D02*
X136930475Y-121542438D01*
X136930475Y-121542438D02*
X136978094Y-121590057D01*
X137359047Y-121590057D02*
X137406666Y-121542438D01*
X137406666Y-121542438D02*
X137501904Y-121494819D01*
X137501904Y-121494819D02*
X137739999Y-121494819D01*
X137739999Y-121494819D02*
X137835237Y-121542438D01*
X137835237Y-121542438D02*
X137882856Y-121590057D01*
X137882856Y-121590057D02*
X137930475Y-121685295D01*
X137930475Y-121685295D02*
X137930475Y-121780533D01*
X137930475Y-121780533D02*
X137882856Y-121923390D01*
X137882856Y-121923390D02*
X137311428Y-122494819D01*
X137311428Y-122494819D02*
X137930475Y-122494819D01*
X138406666Y-122494819D02*
X138597142Y-122494819D01*
X138597142Y-122494819D02*
X138692380Y-122447200D01*
X138692380Y-122447200D02*
X138739999Y-122399580D01*
X138739999Y-122399580D02*
X138835237Y-122256723D01*
X138835237Y-122256723D02*
X138882856Y-122066247D01*
X138882856Y-122066247D02*
X138882856Y-121685295D01*
X138882856Y-121685295D02*
X138835237Y-121590057D01*
X138835237Y-121590057D02*
X138787618Y-121542438D01*
X138787618Y-121542438D02*
X138692380Y-121494819D01*
X138692380Y-121494819D02*
X138501904Y-121494819D01*
X138501904Y-121494819D02*
X138406666Y-121542438D01*
X138406666Y-121542438D02*
X138359047Y-121590057D01*
X138359047Y-121590057D02*
X138311428Y-121685295D01*
X138311428Y-121685295D02*
X138311428Y-121923390D01*
X138311428Y-121923390D02*
X138359047Y-122018628D01*
X138359047Y-122018628D02*
X138406666Y-122066247D01*
X138406666Y-122066247D02*
X138501904Y-122113866D01*
X138501904Y-122113866D02*
X138692380Y-122113866D01*
X138692380Y-122113866D02*
X138787618Y-122066247D01*
X138787618Y-122066247D02*
X138835237Y-122018628D01*
X138835237Y-122018628D02*
X138882856Y-121923390D01*
X139216190Y-121494819D02*
X139835237Y-121494819D01*
X139835237Y-121494819D02*
X139501904Y-121875771D01*
X139501904Y-121875771D02*
X139644761Y-121875771D01*
X139644761Y-121875771D02*
X139739999Y-121923390D01*
X139739999Y-121923390D02*
X139787618Y-121971009D01*
X139787618Y-121971009D02*
X139835237Y-122066247D01*
X139835237Y-122066247D02*
X139835237Y-122304342D01*
X139835237Y-122304342D02*
X139787618Y-122399580D01*
X139787618Y-122399580D02*
X139739999Y-122447200D01*
X139739999Y-122447200D02*
X139644761Y-122494819D01*
X139644761Y-122494819D02*
X139359047Y-122494819D01*
X139359047Y-122494819D02*
X139263809Y-122447200D01*
X139263809Y-122447200D02*
X139216190Y-122399580D01*
X140454285Y-121494819D02*
X140549523Y-121494819D01*
X140549523Y-121494819D02*
X140644761Y-121542438D01*
X140644761Y-121542438D02*
X140692380Y-121590057D01*
X140692380Y-121590057D02*
X140739999Y-121685295D01*
X140739999Y-121685295D02*
X140787618Y-121875771D01*
X140787618Y-121875771D02*
X140787618Y-122113866D01*
X140787618Y-122113866D02*
X140739999Y-122304342D01*
X140739999Y-122304342D02*
X140692380Y-122399580D01*
X140692380Y-122399580D02*
X140644761Y-122447200D01*
X140644761Y-122447200D02*
X140549523Y-122494819D01*
X140549523Y-122494819D02*
X140454285Y-122494819D01*
X140454285Y-122494819D02*
X140359047Y-122447200D01*
X140359047Y-122447200D02*
X140311428Y-122399580D01*
X140311428Y-122399580D02*
X140263809Y-122304342D01*
X140263809Y-122304342D02*
X140216190Y-122113866D01*
X140216190Y-122113866D02*
X140216190Y-121875771D01*
X140216190Y-121875771D02*
X140263809Y-121685295D01*
X140263809Y-121685295D02*
X140311428Y-121590057D01*
X140311428Y-121590057D02*
X140359047Y-121542438D01*
X140359047Y-121542438D02*
X140454285Y-121494819D01*
X141168571Y-121590057D02*
X141216190Y-121542438D01*
X141216190Y-121542438D02*
X141311428Y-121494819D01*
X141311428Y-121494819D02*
X141549523Y-121494819D01*
X141549523Y-121494819D02*
X141644761Y-121542438D01*
X141644761Y-121542438D02*
X141692380Y-121590057D01*
X141692380Y-121590057D02*
X141739999Y-121685295D01*
X141739999Y-121685295D02*
X141739999Y-121780533D01*
X141739999Y-121780533D02*
X141692380Y-121923390D01*
X141692380Y-121923390D02*
X141120952Y-122494819D01*
X141120952Y-122494819D02*
X141739999Y-122494819D01*
X142120952Y-122209104D02*
X142597142Y-122209104D01*
X142025714Y-122494819D02*
X142359047Y-121494819D01*
X142359047Y-121494819D02*
X142692380Y-122494819D01*
X142930476Y-121494819D02*
X143168571Y-122494819D01*
X143168571Y-122494819D02*
X143359047Y-121780533D01*
X143359047Y-121780533D02*
X143549523Y-122494819D01*
X143549523Y-122494819D02*
X143787619Y-121494819D01*
X144168571Y-122494819D02*
X144168571Y-121494819D01*
X144168571Y-121494819D02*
X144406666Y-121494819D01*
X144406666Y-121494819D02*
X144549523Y-121542438D01*
X144549523Y-121542438D02*
X144644761Y-121637676D01*
X144644761Y-121637676D02*
X144692380Y-121732914D01*
X144692380Y-121732914D02*
X144739999Y-121923390D01*
X144739999Y-121923390D02*
X144739999Y-122066247D01*
X144739999Y-122066247D02*
X144692380Y-122256723D01*
X144692380Y-122256723D02*
X144644761Y-122351961D01*
X144644761Y-122351961D02*
X144549523Y-122447200D01*
X144549523Y-122447200D02*
X144406666Y-122494819D01*
X144406666Y-122494819D02*
X144168571Y-122494819D01*
X138978095Y-116994819D02*
X138978095Y-117804342D01*
X138978095Y-117804342D02*
X139025714Y-117899580D01*
X139025714Y-117899580D02*
X139073333Y-117947200D01*
X139073333Y-117947200D02*
X139168571Y-117994819D01*
X139168571Y-117994819D02*
X139359047Y-117994819D01*
X139359047Y-117994819D02*
X139454285Y-117947200D01*
X139454285Y-117947200D02*
X139501904Y-117899580D01*
X139501904Y-117899580D02*
X139549523Y-117804342D01*
X139549523Y-117804342D02*
X139549523Y-116994819D01*
X139930476Y-116994819D02*
X140549523Y-116994819D01*
X140549523Y-116994819D02*
X140216190Y-117375771D01*
X140216190Y-117375771D02*
X140359047Y-117375771D01*
X140359047Y-117375771D02*
X140454285Y-117423390D01*
X140454285Y-117423390D02*
X140501904Y-117471009D01*
X140501904Y-117471009D02*
X140549523Y-117566247D01*
X140549523Y-117566247D02*
X140549523Y-117804342D01*
X140549523Y-117804342D02*
X140501904Y-117899580D01*
X140501904Y-117899580D02*
X140454285Y-117947200D01*
X140454285Y-117947200D02*
X140359047Y-117994819D01*
X140359047Y-117994819D02*
X140073333Y-117994819D01*
X140073333Y-117994819D02*
X139978095Y-117947200D01*
X139978095Y-117947200D02*
X139930476Y-117899580D01*
X138753095Y-117494819D02*
X140774523Y-117494819D01*
D12*
X147743832Y-117016666D02*
X147762880Y-117035714D01*
X147762880Y-117035714D02*
X147781927Y-117092856D01*
X147781927Y-117092856D02*
X147781927Y-117130952D01*
X147781927Y-117130952D02*
X147762880Y-117188095D01*
X147762880Y-117188095D02*
X147724784Y-117226190D01*
X147724784Y-117226190D02*
X147686689Y-117245237D01*
X147686689Y-117245237D02*
X147610499Y-117264285D01*
X147610499Y-117264285D02*
X147553356Y-117264285D01*
X147553356Y-117264285D02*
X147477165Y-117245237D01*
X147477165Y-117245237D02*
X147439070Y-117226190D01*
X147439070Y-117226190D02*
X147400975Y-117188095D01*
X147400975Y-117188095D02*
X147381927Y-117130952D01*
X147381927Y-117130952D02*
X147381927Y-117092856D01*
X147381927Y-117092856D02*
X147400975Y-117035714D01*
X147400975Y-117035714D02*
X147420022Y-117016666D01*
X147381927Y-116883333D02*
X147381927Y-116616666D01*
X147381927Y-116616666D02*
X147781927Y-116788095D01*
D11*
X114776667Y-117904318D02*
X114776667Y-118811461D01*
X114776667Y-118811461D02*
X114716190Y-118992889D01*
X114716190Y-118992889D02*
X114595238Y-119113842D01*
X114595238Y-119113842D02*
X114413809Y-119174318D01*
X114413809Y-119174318D02*
X114292857Y-119174318D01*
X115320952Y-118025270D02*
X115381428Y-117964794D01*
X115381428Y-117964794D02*
X115502381Y-117904318D01*
X115502381Y-117904318D02*
X115804762Y-117904318D01*
X115804762Y-117904318D02*
X115925714Y-117964794D01*
X115925714Y-117964794D02*
X115986190Y-118025270D01*
X115986190Y-118025270D02*
X116046667Y-118146222D01*
X116046667Y-118146222D02*
X116046667Y-118267175D01*
X116046667Y-118267175D02*
X115986190Y-118448603D01*
X115986190Y-118448603D02*
X115260476Y-119174318D01*
X115260476Y-119174318D02*
X116046667Y-119174318D01*
X113921524Y-118539318D02*
X116427667Y-118539318D01*
D12*
X131693832Y-114166666D02*
X131712880Y-114185714D01*
X131712880Y-114185714D02*
X131731927Y-114242856D01*
X131731927Y-114242856D02*
X131731927Y-114280952D01*
X131731927Y-114280952D02*
X131712880Y-114338095D01*
X131712880Y-114338095D02*
X131674784Y-114376190D01*
X131674784Y-114376190D02*
X131636689Y-114395237D01*
X131636689Y-114395237D02*
X131560499Y-114414285D01*
X131560499Y-114414285D02*
X131503356Y-114414285D01*
X131503356Y-114414285D02*
X131427165Y-114395237D01*
X131427165Y-114395237D02*
X131389070Y-114376190D01*
X131389070Y-114376190D02*
X131350975Y-114338095D01*
X131350975Y-114338095D02*
X131331927Y-114280952D01*
X131331927Y-114280952D02*
X131331927Y-114242856D01*
X131331927Y-114242856D02*
X131350975Y-114185714D01*
X131350975Y-114185714D02*
X131370022Y-114166666D01*
X131465260Y-113823809D02*
X131731927Y-113823809D01*
X131312880Y-113919047D02*
X131598594Y-114014285D01*
X131598594Y-114014285D02*
X131598594Y-113766666D01*
D13*
X110166667Y-133454819D02*
X110166667Y-132454819D01*
X110166667Y-132454819D02*
X110500000Y-133169104D01*
X110500000Y-133169104D02*
X110833333Y-132454819D01*
X110833333Y-132454819D02*
X110833333Y-133454819D01*
X111309524Y-133454819D02*
X111309524Y-132454819D01*
X111309524Y-132931009D02*
X111880952Y-132931009D01*
X111880952Y-133454819D02*
X111880952Y-132454819D01*
X112309524Y-132550057D02*
X112357143Y-132502438D01*
X112357143Y-132502438D02*
X112452381Y-132454819D01*
X112452381Y-132454819D02*
X112690476Y-132454819D01*
X112690476Y-132454819D02*
X112785714Y-132502438D01*
X112785714Y-132502438D02*
X112833333Y-132550057D01*
X112833333Y-132550057D02*
X112880952Y-132645295D01*
X112880952Y-132645295D02*
X112880952Y-132740533D01*
X112880952Y-132740533D02*
X112833333Y-132883390D01*
X112833333Y-132883390D02*
X112261905Y-133454819D01*
X112261905Y-133454819D02*
X112880952Y-133454819D01*
D12*
X131693832Y-117066666D02*
X131712880Y-117085714D01*
X131712880Y-117085714D02*
X131731927Y-117142856D01*
X131731927Y-117142856D02*
X131731927Y-117180952D01*
X131731927Y-117180952D02*
X131712880Y-117238095D01*
X131712880Y-117238095D02*
X131674784Y-117276190D01*
X131674784Y-117276190D02*
X131636689Y-117295237D01*
X131636689Y-117295237D02*
X131560499Y-117314285D01*
X131560499Y-117314285D02*
X131503356Y-117314285D01*
X131503356Y-117314285D02*
X131427165Y-117295237D01*
X131427165Y-117295237D02*
X131389070Y-117276190D01*
X131389070Y-117276190D02*
X131350975Y-117238095D01*
X131350975Y-117238095D02*
X131331927Y-117180952D01*
X131331927Y-117180952D02*
X131331927Y-117142856D01*
X131331927Y-117142856D02*
X131350975Y-117085714D01*
X131350975Y-117085714D02*
X131370022Y-117066666D01*
X131331927Y-116723809D02*
X131331927Y-116799999D01*
X131331927Y-116799999D02*
X131350975Y-116838095D01*
X131350975Y-116838095D02*
X131370022Y-116857142D01*
X131370022Y-116857142D02*
X131427165Y-116895237D01*
X131427165Y-116895237D02*
X131503356Y-116914285D01*
X131503356Y-116914285D02*
X131655737Y-116914285D01*
X131655737Y-116914285D02*
X131693832Y-116895237D01*
X131693832Y-116895237D02*
X131712880Y-116876190D01*
X131712880Y-116876190D02*
X131731927Y-116838095D01*
X131731927Y-116838095D02*
X131731927Y-116761904D01*
X131731927Y-116761904D02*
X131712880Y-116723809D01*
X131712880Y-116723809D02*
X131693832Y-116704761D01*
X131693832Y-116704761D02*
X131655737Y-116685714D01*
X131655737Y-116685714D02*
X131560499Y-116685714D01*
X131560499Y-116685714D02*
X131522403Y-116704761D01*
X131522403Y-116704761D02*
X131503356Y-116723809D01*
X131503356Y-116723809D02*
X131484308Y-116761904D01*
X131484308Y-116761904D02*
X131484308Y-116838095D01*
X131484308Y-116838095D02*
X131503356Y-116876190D01*
X131503356Y-116876190D02*
X131522403Y-116895237D01*
X131522403Y-116895237D02*
X131560499Y-116914285D01*
D11*
X181076667Y-89904318D02*
X181076667Y-90811461D01*
X181076667Y-90811461D02*
X181016190Y-90992889D01*
X181016190Y-90992889D02*
X180895238Y-91113842D01*
X180895238Y-91113842D02*
X180713809Y-91174318D01*
X180713809Y-91174318D02*
X180592857Y-91174318D01*
X182346667Y-91174318D02*
X181620952Y-91174318D01*
X181983809Y-91174318D02*
X181983809Y-89904318D01*
X181983809Y-89904318D02*
X181862857Y-90085746D01*
X181862857Y-90085746D02*
X181741905Y-90206699D01*
X181741905Y-90206699D02*
X181620952Y-90267175D01*
X180221524Y-90540525D02*
X182718000Y-90540525D01*
X165076667Y-131104318D02*
X165076667Y-132011461D01*
X165076667Y-132011461D02*
X165016190Y-132192889D01*
X165016190Y-132192889D02*
X164895238Y-132313842D01*
X164895238Y-132313842D02*
X164713809Y-132374318D01*
X164713809Y-132374318D02*
X164592857Y-132374318D01*
X166286190Y-131104318D02*
X165681428Y-131104318D01*
X165681428Y-131104318D02*
X165620952Y-131709080D01*
X165620952Y-131709080D02*
X165681428Y-131648603D01*
X165681428Y-131648603D02*
X165802381Y-131588127D01*
X165802381Y-131588127D02*
X166104762Y-131588127D01*
X166104762Y-131588127D02*
X166225714Y-131648603D01*
X166225714Y-131648603D02*
X166286190Y-131709080D01*
X166286190Y-131709080D02*
X166346667Y-131830032D01*
X166346667Y-131830032D02*
X166346667Y-132132413D01*
X166346667Y-132132413D02*
X166286190Y-132253365D01*
X166286190Y-132253365D02*
X166225714Y-132313842D01*
X166225714Y-132313842D02*
X166104762Y-132374318D01*
X166104762Y-132374318D02*
X165802381Y-132374318D01*
X165802381Y-132374318D02*
X165681428Y-132313842D01*
X165681428Y-132313842D02*
X165620952Y-132253365D01*
X164221524Y-131739318D02*
X166727667Y-131739318D01*
D12*
X151833333Y-103743832D02*
X151814285Y-103762880D01*
X151814285Y-103762880D02*
X151757143Y-103781927D01*
X151757143Y-103781927D02*
X151719047Y-103781927D01*
X151719047Y-103781927D02*
X151661904Y-103762880D01*
X151661904Y-103762880D02*
X151623809Y-103724784D01*
X151623809Y-103724784D02*
X151604762Y-103686689D01*
X151604762Y-103686689D02*
X151585714Y-103610499D01*
X151585714Y-103610499D02*
X151585714Y-103553356D01*
X151585714Y-103553356D02*
X151604762Y-103477165D01*
X151604762Y-103477165D02*
X151623809Y-103439070D01*
X151623809Y-103439070D02*
X151661904Y-103400975D01*
X151661904Y-103400975D02*
X151719047Y-103381927D01*
X151719047Y-103381927D02*
X151757143Y-103381927D01*
X151757143Y-103381927D02*
X151814285Y-103400975D01*
X151814285Y-103400975D02*
X151833333Y-103420022D01*
X152214285Y-103781927D02*
X151985714Y-103781927D01*
X152100000Y-103781927D02*
X152100000Y-103381927D01*
X152100000Y-103381927D02*
X152061904Y-103439070D01*
X152061904Y-103439070D02*
X152023809Y-103477165D01*
X152023809Y-103477165D02*
X151985714Y-103496213D01*
X121333333Y-109281927D02*
X121200000Y-109091451D01*
X121104762Y-109281927D02*
X121104762Y-108881927D01*
X121104762Y-108881927D02*
X121257143Y-108881927D01*
X121257143Y-108881927D02*
X121295238Y-108900975D01*
X121295238Y-108900975D02*
X121314285Y-108920022D01*
X121314285Y-108920022D02*
X121333333Y-108958118D01*
X121333333Y-108958118D02*
X121333333Y-109015260D01*
X121333333Y-109015260D02*
X121314285Y-109053356D01*
X121314285Y-109053356D02*
X121295238Y-109072403D01*
X121295238Y-109072403D02*
X121257143Y-109091451D01*
X121257143Y-109091451D02*
X121104762Y-109091451D01*
X121695238Y-108881927D02*
X121504762Y-108881927D01*
X121504762Y-108881927D02*
X121485714Y-109072403D01*
X121485714Y-109072403D02*
X121504762Y-109053356D01*
X121504762Y-109053356D02*
X121542857Y-109034308D01*
X121542857Y-109034308D02*
X121638095Y-109034308D01*
X121638095Y-109034308D02*
X121676190Y-109053356D01*
X121676190Y-109053356D02*
X121695238Y-109072403D01*
X121695238Y-109072403D02*
X121714285Y-109110499D01*
X121714285Y-109110499D02*
X121714285Y-109205737D01*
X121714285Y-109205737D02*
X121695238Y-109243832D01*
X121695238Y-109243832D02*
X121676190Y-109262880D01*
X121676190Y-109262880D02*
X121638095Y-109281927D01*
X121638095Y-109281927D02*
X121542857Y-109281927D01*
X121542857Y-109281927D02*
X121504762Y-109262880D01*
X121504762Y-109262880D02*
X121485714Y-109243832D01*
X134673333Y-122721927D02*
X134540000Y-122531451D01*
X134444762Y-122721927D02*
X134444762Y-122321927D01*
X134444762Y-122321927D02*
X134597143Y-122321927D01*
X134597143Y-122321927D02*
X134635238Y-122340975D01*
X134635238Y-122340975D02*
X134654285Y-122360022D01*
X134654285Y-122360022D02*
X134673333Y-122398118D01*
X134673333Y-122398118D02*
X134673333Y-122455260D01*
X134673333Y-122455260D02*
X134654285Y-122493356D01*
X134654285Y-122493356D02*
X134635238Y-122512403D01*
X134635238Y-122512403D02*
X134597143Y-122531451D01*
X134597143Y-122531451D02*
X134444762Y-122531451D01*
X135016190Y-122321927D02*
X134940000Y-122321927D01*
X134940000Y-122321927D02*
X134901904Y-122340975D01*
X134901904Y-122340975D02*
X134882857Y-122360022D01*
X134882857Y-122360022D02*
X134844762Y-122417165D01*
X134844762Y-122417165D02*
X134825714Y-122493356D01*
X134825714Y-122493356D02*
X134825714Y-122645737D01*
X134825714Y-122645737D02*
X134844762Y-122683832D01*
X134844762Y-122683832D02*
X134863809Y-122702880D01*
X134863809Y-122702880D02*
X134901904Y-122721927D01*
X134901904Y-122721927D02*
X134978095Y-122721927D01*
X134978095Y-122721927D02*
X135016190Y-122702880D01*
X135016190Y-122702880D02*
X135035238Y-122683832D01*
X135035238Y-122683832D02*
X135054285Y-122645737D01*
X135054285Y-122645737D02*
X135054285Y-122550499D01*
X135054285Y-122550499D02*
X135035238Y-122512403D01*
X135035238Y-122512403D02*
X135016190Y-122493356D01*
X135016190Y-122493356D02*
X134978095Y-122474308D01*
X134978095Y-122474308D02*
X134901904Y-122474308D01*
X134901904Y-122474308D02*
X134863809Y-122493356D01*
X134863809Y-122493356D02*
X134844762Y-122512403D01*
X134844762Y-122512403D02*
X134825714Y-122550499D01*
D13*
X182166667Y-133454819D02*
X182166667Y-132454819D01*
X182166667Y-132454819D02*
X182500000Y-133169104D01*
X182500000Y-133169104D02*
X182833333Y-132454819D01*
X182833333Y-132454819D02*
X182833333Y-133454819D01*
X183309524Y-133454819D02*
X183309524Y-132454819D01*
X183309524Y-132931009D02*
X183880952Y-132931009D01*
X183880952Y-133454819D02*
X183880952Y-132454819D01*
X184785714Y-132788152D02*
X184785714Y-133454819D01*
X184547619Y-132407200D02*
X184309524Y-133121485D01*
X184309524Y-133121485D02*
X184928571Y-133121485D01*
D12*
X137673333Y-122721927D02*
X137540000Y-122531451D01*
X137444762Y-122721927D02*
X137444762Y-122321927D01*
X137444762Y-122321927D02*
X137597143Y-122321927D01*
X137597143Y-122321927D02*
X137635238Y-122340975D01*
X137635238Y-122340975D02*
X137654285Y-122360022D01*
X137654285Y-122360022D02*
X137673333Y-122398118D01*
X137673333Y-122398118D02*
X137673333Y-122455260D01*
X137673333Y-122455260D02*
X137654285Y-122493356D01*
X137654285Y-122493356D02*
X137635238Y-122512403D01*
X137635238Y-122512403D02*
X137597143Y-122531451D01*
X137597143Y-122531451D02*
X137444762Y-122531451D01*
X137806666Y-122321927D02*
X138073333Y-122321927D01*
X138073333Y-122321927D02*
X137901904Y-122721927D01*
D13*
X161261904Y-84881009D02*
X160928571Y-84881009D01*
X160928571Y-85404819D02*
X160928571Y-84404819D01*
X160928571Y-84404819D02*
X161404761Y-84404819D01*
X161785714Y-85404819D02*
X161785714Y-84738152D01*
X161785714Y-84404819D02*
X161738095Y-84452438D01*
X161738095Y-84452438D02*
X161785714Y-84500057D01*
X161785714Y-84500057D02*
X161833333Y-84452438D01*
X161833333Y-84452438D02*
X161785714Y-84404819D01*
X161785714Y-84404819D02*
X161785714Y-84500057D01*
X162690475Y-85404819D02*
X162690475Y-84404819D01*
X162690475Y-85357200D02*
X162595237Y-85404819D01*
X162595237Y-85404819D02*
X162404761Y-85404819D01*
X162404761Y-85404819D02*
X162309523Y-85357200D01*
X162309523Y-85357200D02*
X162261904Y-85309580D01*
X162261904Y-85309580D02*
X162214285Y-85214342D01*
X162214285Y-85214342D02*
X162214285Y-84928628D01*
X162214285Y-84928628D02*
X162261904Y-84833390D01*
X162261904Y-84833390D02*
X162309523Y-84785771D01*
X162309523Y-84785771D02*
X162404761Y-84738152D01*
X162404761Y-84738152D02*
X162595237Y-84738152D01*
X162595237Y-84738152D02*
X162690475Y-84785771D01*
X163595237Y-84738152D02*
X163595237Y-85404819D01*
X163166666Y-84738152D02*
X163166666Y-85261961D01*
X163166666Y-85261961D02*
X163214285Y-85357200D01*
X163214285Y-85357200D02*
X163309523Y-85404819D01*
X163309523Y-85404819D02*
X163452380Y-85404819D01*
X163452380Y-85404819D02*
X163547618Y-85357200D01*
X163547618Y-85357200D02*
X163595237Y-85309580D01*
X164499999Y-85357200D02*
X164404761Y-85404819D01*
X164404761Y-85404819D02*
X164214285Y-85404819D01*
X164214285Y-85404819D02*
X164119047Y-85357200D01*
X164119047Y-85357200D02*
X164071428Y-85309580D01*
X164071428Y-85309580D02*
X164023809Y-85214342D01*
X164023809Y-85214342D02*
X164023809Y-84928628D01*
X164023809Y-84928628D02*
X164071428Y-84833390D01*
X164071428Y-84833390D02*
X164119047Y-84785771D01*
X164119047Y-84785771D02*
X164214285Y-84738152D01*
X164214285Y-84738152D02*
X164404761Y-84738152D01*
X164404761Y-84738152D02*
X164499999Y-84785771D01*
X164928571Y-85404819D02*
X164928571Y-84738152D01*
X164928571Y-84404819D02*
X164880952Y-84452438D01*
X164880952Y-84452438D02*
X164928571Y-84500057D01*
X164928571Y-84500057D02*
X164976190Y-84452438D01*
X164976190Y-84452438D02*
X164928571Y-84404819D01*
X164928571Y-84404819D02*
X164928571Y-84500057D01*
X165833332Y-85404819D02*
X165833332Y-84881009D01*
X165833332Y-84881009D02*
X165785713Y-84785771D01*
X165785713Y-84785771D02*
X165690475Y-84738152D01*
X165690475Y-84738152D02*
X165499999Y-84738152D01*
X165499999Y-84738152D02*
X165404761Y-84785771D01*
X165833332Y-85357200D02*
X165738094Y-85404819D01*
X165738094Y-85404819D02*
X165499999Y-85404819D01*
X165499999Y-85404819D02*
X165404761Y-85357200D01*
X165404761Y-85357200D02*
X165357142Y-85261961D01*
X165357142Y-85261961D02*
X165357142Y-85166723D01*
X165357142Y-85166723D02*
X165404761Y-85071485D01*
X165404761Y-85071485D02*
X165499999Y-85023866D01*
X165499999Y-85023866D02*
X165738094Y-85023866D01*
X165738094Y-85023866D02*
X165833332Y-84976247D01*
X166452380Y-85404819D02*
X166357142Y-85357200D01*
X166357142Y-85357200D02*
X166309523Y-85261961D01*
X166309523Y-85261961D02*
X166309523Y-84404819D01*
X167595238Y-85404819D02*
X167595238Y-84404819D01*
X167595238Y-84404819D02*
X167928571Y-85119104D01*
X167928571Y-85119104D02*
X168261904Y-84404819D01*
X168261904Y-84404819D02*
X168261904Y-85404819D01*
X169166666Y-85404819D02*
X169166666Y-84881009D01*
X169166666Y-84881009D02*
X169119047Y-84785771D01*
X169119047Y-84785771D02*
X169023809Y-84738152D01*
X169023809Y-84738152D02*
X168833333Y-84738152D01*
X168833333Y-84738152D02*
X168738095Y-84785771D01*
X169166666Y-85357200D02*
X169071428Y-85404819D01*
X169071428Y-85404819D02*
X168833333Y-85404819D01*
X168833333Y-85404819D02*
X168738095Y-85357200D01*
X168738095Y-85357200D02*
X168690476Y-85261961D01*
X168690476Y-85261961D02*
X168690476Y-85166723D01*
X168690476Y-85166723D02*
X168738095Y-85071485D01*
X168738095Y-85071485D02*
X168833333Y-85023866D01*
X168833333Y-85023866D02*
X169071428Y-85023866D01*
X169071428Y-85023866D02*
X169166666Y-84976247D01*
X169642857Y-85404819D02*
X169642857Y-84738152D01*
X169642857Y-84928628D02*
X169690476Y-84833390D01*
X169690476Y-84833390D02*
X169738095Y-84785771D01*
X169738095Y-84785771D02*
X169833333Y-84738152D01*
X169833333Y-84738152D02*
X169928571Y-84738152D01*
X170261905Y-85404819D02*
X170261905Y-84404819D01*
X170357143Y-85023866D02*
X170642857Y-85404819D01*
X170642857Y-84738152D02*
X170261905Y-85119104D01*
X171452381Y-85357200D02*
X171357143Y-85404819D01*
X171357143Y-85404819D02*
X171166667Y-85404819D01*
X171166667Y-85404819D02*
X171071429Y-85357200D01*
X171071429Y-85357200D02*
X171023810Y-85261961D01*
X171023810Y-85261961D02*
X171023810Y-84881009D01*
X171023810Y-84881009D02*
X171071429Y-84785771D01*
X171071429Y-84785771D02*
X171166667Y-84738152D01*
X171166667Y-84738152D02*
X171357143Y-84738152D01*
X171357143Y-84738152D02*
X171452381Y-84785771D01*
X171452381Y-84785771D02*
X171500000Y-84881009D01*
X171500000Y-84881009D02*
X171500000Y-84976247D01*
X171500000Y-84976247D02*
X171023810Y-85071485D01*
X171928572Y-85404819D02*
X171928572Y-84738152D01*
X171928572Y-84928628D02*
X171976191Y-84833390D01*
X171976191Y-84833390D02*
X172023810Y-84785771D01*
X172023810Y-84785771D02*
X172119048Y-84738152D01*
X172119048Y-84738152D02*
X172214286Y-84738152D01*
D15*
X165964286Y-82965244D02*
X165797619Y-82965244D01*
X165797619Y-83227149D02*
X165797619Y-82727149D01*
X165797619Y-82727149D02*
X166035714Y-82727149D01*
X166226190Y-83227149D02*
X166226190Y-82727149D01*
X166464285Y-83227149D02*
X166464285Y-82727149D01*
X166464285Y-82727149D02*
X166583333Y-82727149D01*
X166583333Y-82727149D02*
X166654761Y-82750959D01*
X166654761Y-82750959D02*
X166702380Y-82798578D01*
X166702380Y-82798578D02*
X166726190Y-82846197D01*
X166726190Y-82846197D02*
X166749999Y-82941435D01*
X166749999Y-82941435D02*
X166749999Y-83012863D01*
X166749999Y-83012863D02*
X166726190Y-83108101D01*
X166726190Y-83108101D02*
X166702380Y-83155720D01*
X166702380Y-83155720D02*
X166654761Y-83203340D01*
X166654761Y-83203340D02*
X166583333Y-83227149D01*
X166583333Y-83227149D02*
X166464285Y-83227149D01*
X166940476Y-82774768D02*
X166964285Y-82750959D01*
X166964285Y-82750959D02*
X167011904Y-82727149D01*
X167011904Y-82727149D02*
X167130952Y-82727149D01*
X167130952Y-82727149D02*
X167178571Y-82750959D01*
X167178571Y-82750959D02*
X167202380Y-82774768D01*
X167202380Y-82774768D02*
X167226190Y-82822387D01*
X167226190Y-82822387D02*
X167226190Y-82870006D01*
X167226190Y-82870006D02*
X167202380Y-82941435D01*
X167202380Y-82941435D02*
X166916666Y-83227149D01*
X166916666Y-83227149D02*
X167226190Y-83227149D01*
D12*
X113442857Y-103381927D02*
X113309524Y-103191451D01*
X113214286Y-103381927D02*
X113214286Y-102981927D01*
X113214286Y-102981927D02*
X113366667Y-102981927D01*
X113366667Y-102981927D02*
X113404762Y-103000975D01*
X113404762Y-103000975D02*
X113423809Y-103020022D01*
X113423809Y-103020022D02*
X113442857Y-103058118D01*
X113442857Y-103058118D02*
X113442857Y-103115260D01*
X113442857Y-103115260D02*
X113423809Y-103153356D01*
X113423809Y-103153356D02*
X113404762Y-103172403D01*
X113404762Y-103172403D02*
X113366667Y-103191451D01*
X113366667Y-103191451D02*
X113214286Y-103191451D01*
X113823809Y-103381927D02*
X113595238Y-103381927D01*
X113709524Y-103381927D02*
X113709524Y-102981927D01*
X113709524Y-102981927D02*
X113671428Y-103039070D01*
X113671428Y-103039070D02*
X113633333Y-103077165D01*
X113633333Y-103077165D02*
X113595238Y-103096213D01*
X113976190Y-103020022D02*
X113995238Y-103000975D01*
X113995238Y-103000975D02*
X114033333Y-102981927D01*
X114033333Y-102981927D02*
X114128571Y-102981927D01*
X114128571Y-102981927D02*
X114166666Y-103000975D01*
X114166666Y-103000975D02*
X114185714Y-103020022D01*
X114185714Y-103020022D02*
X114204761Y-103058118D01*
X114204761Y-103058118D02*
X114204761Y-103096213D01*
X114204761Y-103096213D02*
X114185714Y-103153356D01*
X114185714Y-103153356D02*
X113957142Y-103381927D01*
X113957142Y-103381927D02*
X114204761Y-103381927D01*
D13*
X150787619Y-122494819D02*
X150787619Y-121494819D01*
X150787619Y-121494819D02*
X151120952Y-122209104D01*
X151120952Y-122209104D02*
X151454285Y-121494819D01*
X151454285Y-121494819D02*
X151454285Y-122494819D01*
X151930476Y-122494819D02*
X151930476Y-121494819D01*
X152978094Y-122399580D02*
X152930475Y-122447200D01*
X152930475Y-122447200D02*
X152787618Y-122494819D01*
X152787618Y-122494819D02*
X152692380Y-122494819D01*
X152692380Y-122494819D02*
X152549523Y-122447200D01*
X152549523Y-122447200D02*
X152454285Y-122351961D01*
X152454285Y-122351961D02*
X152406666Y-122256723D01*
X152406666Y-122256723D02*
X152359047Y-122066247D01*
X152359047Y-122066247D02*
X152359047Y-121923390D01*
X152359047Y-121923390D02*
X152406666Y-121732914D01*
X152406666Y-121732914D02*
X152454285Y-121637676D01*
X152454285Y-121637676D02*
X152549523Y-121542438D01*
X152549523Y-121542438D02*
X152692380Y-121494819D01*
X152692380Y-121494819D02*
X152787618Y-121494819D01*
X152787618Y-121494819D02*
X152930475Y-121542438D01*
X152930475Y-121542438D02*
X152978094Y-121590057D01*
X153359047Y-121590057D02*
X153406666Y-121542438D01*
X153406666Y-121542438D02*
X153501904Y-121494819D01*
X153501904Y-121494819D02*
X153739999Y-121494819D01*
X153739999Y-121494819D02*
X153835237Y-121542438D01*
X153835237Y-121542438D02*
X153882856Y-121590057D01*
X153882856Y-121590057D02*
X153930475Y-121685295D01*
X153930475Y-121685295D02*
X153930475Y-121780533D01*
X153930475Y-121780533D02*
X153882856Y-121923390D01*
X153882856Y-121923390D02*
X153311428Y-122494819D01*
X153311428Y-122494819D02*
X153930475Y-122494819D01*
X154406666Y-122494819D02*
X154597142Y-122494819D01*
X154597142Y-122494819D02*
X154692380Y-122447200D01*
X154692380Y-122447200D02*
X154739999Y-122399580D01*
X154739999Y-122399580D02*
X154835237Y-122256723D01*
X154835237Y-122256723D02*
X154882856Y-122066247D01*
X154882856Y-122066247D02*
X154882856Y-121685295D01*
X154882856Y-121685295D02*
X154835237Y-121590057D01*
X154835237Y-121590057D02*
X154787618Y-121542438D01*
X154787618Y-121542438D02*
X154692380Y-121494819D01*
X154692380Y-121494819D02*
X154501904Y-121494819D01*
X154501904Y-121494819D02*
X154406666Y-121542438D01*
X154406666Y-121542438D02*
X154359047Y-121590057D01*
X154359047Y-121590057D02*
X154311428Y-121685295D01*
X154311428Y-121685295D02*
X154311428Y-121923390D01*
X154311428Y-121923390D02*
X154359047Y-122018628D01*
X154359047Y-122018628D02*
X154406666Y-122066247D01*
X154406666Y-122066247D02*
X154501904Y-122113866D01*
X154501904Y-122113866D02*
X154692380Y-122113866D01*
X154692380Y-122113866D02*
X154787618Y-122066247D01*
X154787618Y-122066247D02*
X154835237Y-122018628D01*
X154835237Y-122018628D02*
X154882856Y-121923390D01*
X155216190Y-121494819D02*
X155835237Y-121494819D01*
X155835237Y-121494819D02*
X155501904Y-121875771D01*
X155501904Y-121875771D02*
X155644761Y-121875771D01*
X155644761Y-121875771D02*
X155739999Y-121923390D01*
X155739999Y-121923390D02*
X155787618Y-121971009D01*
X155787618Y-121971009D02*
X155835237Y-122066247D01*
X155835237Y-122066247D02*
X155835237Y-122304342D01*
X155835237Y-122304342D02*
X155787618Y-122399580D01*
X155787618Y-122399580D02*
X155739999Y-122447200D01*
X155739999Y-122447200D02*
X155644761Y-122494819D01*
X155644761Y-122494819D02*
X155359047Y-122494819D01*
X155359047Y-122494819D02*
X155263809Y-122447200D01*
X155263809Y-122447200D02*
X155216190Y-122399580D01*
X156454285Y-121494819D02*
X156549523Y-121494819D01*
X156549523Y-121494819D02*
X156644761Y-121542438D01*
X156644761Y-121542438D02*
X156692380Y-121590057D01*
X156692380Y-121590057D02*
X156739999Y-121685295D01*
X156739999Y-121685295D02*
X156787618Y-121875771D01*
X156787618Y-121875771D02*
X156787618Y-122113866D01*
X156787618Y-122113866D02*
X156739999Y-122304342D01*
X156739999Y-122304342D02*
X156692380Y-122399580D01*
X156692380Y-122399580D02*
X156644761Y-122447200D01*
X156644761Y-122447200D02*
X156549523Y-122494819D01*
X156549523Y-122494819D02*
X156454285Y-122494819D01*
X156454285Y-122494819D02*
X156359047Y-122447200D01*
X156359047Y-122447200D02*
X156311428Y-122399580D01*
X156311428Y-122399580D02*
X156263809Y-122304342D01*
X156263809Y-122304342D02*
X156216190Y-122113866D01*
X156216190Y-122113866D02*
X156216190Y-121875771D01*
X156216190Y-121875771D02*
X156263809Y-121685295D01*
X156263809Y-121685295D02*
X156311428Y-121590057D01*
X156311428Y-121590057D02*
X156359047Y-121542438D01*
X156359047Y-121542438D02*
X156454285Y-121494819D01*
X157168571Y-121590057D02*
X157216190Y-121542438D01*
X157216190Y-121542438D02*
X157311428Y-121494819D01*
X157311428Y-121494819D02*
X157549523Y-121494819D01*
X157549523Y-121494819D02*
X157644761Y-121542438D01*
X157644761Y-121542438D02*
X157692380Y-121590057D01*
X157692380Y-121590057D02*
X157739999Y-121685295D01*
X157739999Y-121685295D02*
X157739999Y-121780533D01*
X157739999Y-121780533D02*
X157692380Y-121923390D01*
X157692380Y-121923390D02*
X157120952Y-122494819D01*
X157120952Y-122494819D02*
X157739999Y-122494819D01*
X158120952Y-122209104D02*
X158597142Y-122209104D01*
X158025714Y-122494819D02*
X158359047Y-121494819D01*
X158359047Y-121494819D02*
X158692380Y-122494819D01*
X158930476Y-121494819D02*
X159168571Y-122494819D01*
X159168571Y-122494819D02*
X159359047Y-121780533D01*
X159359047Y-121780533D02*
X159549523Y-122494819D01*
X159549523Y-122494819D02*
X159787619Y-121494819D01*
X160168571Y-122494819D02*
X160168571Y-121494819D01*
X160168571Y-121494819D02*
X160406666Y-121494819D01*
X160406666Y-121494819D02*
X160549523Y-121542438D01*
X160549523Y-121542438D02*
X160644761Y-121637676D01*
X160644761Y-121637676D02*
X160692380Y-121732914D01*
X160692380Y-121732914D02*
X160739999Y-121923390D01*
X160739999Y-121923390D02*
X160739999Y-122066247D01*
X160739999Y-122066247D02*
X160692380Y-122256723D01*
X160692380Y-122256723D02*
X160644761Y-122351961D01*
X160644761Y-122351961D02*
X160549523Y-122447200D01*
X160549523Y-122447200D02*
X160406666Y-122494819D01*
X160406666Y-122494819D02*
X160168571Y-122494819D01*
X154978095Y-116994819D02*
X154978095Y-117804342D01*
X154978095Y-117804342D02*
X155025714Y-117899580D01*
X155025714Y-117899580D02*
X155073333Y-117947200D01*
X155073333Y-117947200D02*
X155168571Y-117994819D01*
X155168571Y-117994819D02*
X155359047Y-117994819D01*
X155359047Y-117994819D02*
X155454285Y-117947200D01*
X155454285Y-117947200D02*
X155501904Y-117899580D01*
X155501904Y-117899580D02*
X155549523Y-117804342D01*
X155549523Y-117804342D02*
X155549523Y-116994819D01*
X156454285Y-117328152D02*
X156454285Y-117994819D01*
X156216190Y-116947200D02*
X155978095Y-117661485D01*
X155978095Y-117661485D02*
X156597142Y-117661485D01*
X154753095Y-117471104D02*
X156816433Y-117471104D01*
X111261904Y-129881009D02*
X110928571Y-129881009D01*
X110928571Y-130404819D02*
X110928571Y-129404819D01*
X110928571Y-129404819D02*
X111404761Y-129404819D01*
X111785714Y-130404819D02*
X111785714Y-129738152D01*
X111785714Y-129404819D02*
X111738095Y-129452438D01*
X111738095Y-129452438D02*
X111785714Y-129500057D01*
X111785714Y-129500057D02*
X111833333Y-129452438D01*
X111833333Y-129452438D02*
X111785714Y-129404819D01*
X111785714Y-129404819D02*
X111785714Y-129500057D01*
X112690475Y-130404819D02*
X112690475Y-129404819D01*
X112690475Y-130357200D02*
X112595237Y-130404819D01*
X112595237Y-130404819D02*
X112404761Y-130404819D01*
X112404761Y-130404819D02*
X112309523Y-130357200D01*
X112309523Y-130357200D02*
X112261904Y-130309580D01*
X112261904Y-130309580D02*
X112214285Y-130214342D01*
X112214285Y-130214342D02*
X112214285Y-129928628D01*
X112214285Y-129928628D02*
X112261904Y-129833390D01*
X112261904Y-129833390D02*
X112309523Y-129785771D01*
X112309523Y-129785771D02*
X112404761Y-129738152D01*
X112404761Y-129738152D02*
X112595237Y-129738152D01*
X112595237Y-129738152D02*
X112690475Y-129785771D01*
X113595237Y-129738152D02*
X113595237Y-130404819D01*
X113166666Y-129738152D02*
X113166666Y-130261961D01*
X113166666Y-130261961D02*
X113214285Y-130357200D01*
X113214285Y-130357200D02*
X113309523Y-130404819D01*
X113309523Y-130404819D02*
X113452380Y-130404819D01*
X113452380Y-130404819D02*
X113547618Y-130357200D01*
X113547618Y-130357200D02*
X113595237Y-130309580D01*
X114499999Y-130357200D02*
X114404761Y-130404819D01*
X114404761Y-130404819D02*
X114214285Y-130404819D01*
X114214285Y-130404819D02*
X114119047Y-130357200D01*
X114119047Y-130357200D02*
X114071428Y-130309580D01*
X114071428Y-130309580D02*
X114023809Y-130214342D01*
X114023809Y-130214342D02*
X114023809Y-129928628D01*
X114023809Y-129928628D02*
X114071428Y-129833390D01*
X114071428Y-129833390D02*
X114119047Y-129785771D01*
X114119047Y-129785771D02*
X114214285Y-129738152D01*
X114214285Y-129738152D02*
X114404761Y-129738152D01*
X114404761Y-129738152D02*
X114499999Y-129785771D01*
X114928571Y-130404819D02*
X114928571Y-129738152D01*
X114928571Y-129404819D02*
X114880952Y-129452438D01*
X114880952Y-129452438D02*
X114928571Y-129500057D01*
X114928571Y-129500057D02*
X114976190Y-129452438D01*
X114976190Y-129452438D02*
X114928571Y-129404819D01*
X114928571Y-129404819D02*
X114928571Y-129500057D01*
X115833332Y-130404819D02*
X115833332Y-129881009D01*
X115833332Y-129881009D02*
X115785713Y-129785771D01*
X115785713Y-129785771D02*
X115690475Y-129738152D01*
X115690475Y-129738152D02*
X115499999Y-129738152D01*
X115499999Y-129738152D02*
X115404761Y-129785771D01*
X115833332Y-130357200D02*
X115738094Y-130404819D01*
X115738094Y-130404819D02*
X115499999Y-130404819D01*
X115499999Y-130404819D02*
X115404761Y-130357200D01*
X115404761Y-130357200D02*
X115357142Y-130261961D01*
X115357142Y-130261961D02*
X115357142Y-130166723D01*
X115357142Y-130166723D02*
X115404761Y-130071485D01*
X115404761Y-130071485D02*
X115499999Y-130023866D01*
X115499999Y-130023866D02*
X115738094Y-130023866D01*
X115738094Y-130023866D02*
X115833332Y-129976247D01*
X116452380Y-130404819D02*
X116357142Y-130357200D01*
X116357142Y-130357200D02*
X116309523Y-130261961D01*
X116309523Y-130261961D02*
X116309523Y-129404819D01*
X117595238Y-130404819D02*
X117595238Y-129404819D01*
X117595238Y-129404819D02*
X117928571Y-130119104D01*
X117928571Y-130119104D02*
X118261904Y-129404819D01*
X118261904Y-129404819D02*
X118261904Y-130404819D01*
X119166666Y-130404819D02*
X119166666Y-129881009D01*
X119166666Y-129881009D02*
X119119047Y-129785771D01*
X119119047Y-129785771D02*
X119023809Y-129738152D01*
X119023809Y-129738152D02*
X118833333Y-129738152D01*
X118833333Y-129738152D02*
X118738095Y-129785771D01*
X119166666Y-130357200D02*
X119071428Y-130404819D01*
X119071428Y-130404819D02*
X118833333Y-130404819D01*
X118833333Y-130404819D02*
X118738095Y-130357200D01*
X118738095Y-130357200D02*
X118690476Y-130261961D01*
X118690476Y-130261961D02*
X118690476Y-130166723D01*
X118690476Y-130166723D02*
X118738095Y-130071485D01*
X118738095Y-130071485D02*
X118833333Y-130023866D01*
X118833333Y-130023866D02*
X119071428Y-130023866D01*
X119071428Y-130023866D02*
X119166666Y-129976247D01*
X119642857Y-130404819D02*
X119642857Y-129738152D01*
X119642857Y-129928628D02*
X119690476Y-129833390D01*
X119690476Y-129833390D02*
X119738095Y-129785771D01*
X119738095Y-129785771D02*
X119833333Y-129738152D01*
X119833333Y-129738152D02*
X119928571Y-129738152D01*
X120261905Y-130404819D02*
X120261905Y-129404819D01*
X120357143Y-130023866D02*
X120642857Y-130404819D01*
X120642857Y-129738152D02*
X120261905Y-130119104D01*
X121452381Y-130357200D02*
X121357143Y-130404819D01*
X121357143Y-130404819D02*
X121166667Y-130404819D01*
X121166667Y-130404819D02*
X121071429Y-130357200D01*
X121071429Y-130357200D02*
X121023810Y-130261961D01*
X121023810Y-130261961D02*
X121023810Y-129881009D01*
X121023810Y-129881009D02*
X121071429Y-129785771D01*
X121071429Y-129785771D02*
X121166667Y-129738152D01*
X121166667Y-129738152D02*
X121357143Y-129738152D01*
X121357143Y-129738152D02*
X121452381Y-129785771D01*
X121452381Y-129785771D02*
X121500000Y-129881009D01*
X121500000Y-129881009D02*
X121500000Y-129976247D01*
X121500000Y-129976247D02*
X121023810Y-130071485D01*
X121928572Y-130404819D02*
X121928572Y-129738152D01*
X121928572Y-129928628D02*
X121976191Y-129833390D01*
X121976191Y-129833390D02*
X122023810Y-129785771D01*
X122023810Y-129785771D02*
X122119048Y-129738152D01*
X122119048Y-129738152D02*
X122214286Y-129738152D01*
D15*
X115964286Y-127965244D02*
X115797619Y-127965244D01*
X115797619Y-128227149D02*
X115797619Y-127727149D01*
X115797619Y-127727149D02*
X116035714Y-127727149D01*
X116226190Y-128227149D02*
X116226190Y-127727149D01*
X116464285Y-128227149D02*
X116464285Y-127727149D01*
X116464285Y-127727149D02*
X116583333Y-127727149D01*
X116583333Y-127727149D02*
X116654761Y-127750959D01*
X116654761Y-127750959D02*
X116702380Y-127798578D01*
X116702380Y-127798578D02*
X116726190Y-127846197D01*
X116726190Y-127846197D02*
X116749999Y-127941435D01*
X116749999Y-127941435D02*
X116749999Y-128012863D01*
X116749999Y-128012863D02*
X116726190Y-128108101D01*
X116726190Y-128108101D02*
X116702380Y-128155720D01*
X116702380Y-128155720D02*
X116654761Y-128203340D01*
X116654761Y-128203340D02*
X116583333Y-128227149D01*
X116583333Y-128227149D02*
X116464285Y-128227149D01*
X116916666Y-127727149D02*
X117226190Y-127727149D01*
X117226190Y-127727149D02*
X117059523Y-127917625D01*
X117059523Y-127917625D02*
X117130952Y-127917625D01*
X117130952Y-127917625D02*
X117178571Y-127941435D01*
X117178571Y-127941435D02*
X117202380Y-127965244D01*
X117202380Y-127965244D02*
X117226190Y-128012863D01*
X117226190Y-128012863D02*
X117226190Y-128131911D01*
X117226190Y-128131911D02*
X117202380Y-128179530D01*
X117202380Y-128179530D02*
X117178571Y-128203340D01*
X117178571Y-128203340D02*
X117130952Y-128227149D01*
X117130952Y-128227149D02*
X116988095Y-128227149D01*
X116988095Y-128227149D02*
X116940476Y-128203340D01*
X116940476Y-128203340D02*
X116916666Y-128179530D01*
D11*
X128076667Y-100154318D02*
X128076667Y-101061461D01*
X128076667Y-101061461D02*
X128016190Y-101242889D01*
X128016190Y-101242889D02*
X127895238Y-101363842D01*
X127895238Y-101363842D02*
X127713809Y-101424318D01*
X127713809Y-101424318D02*
X127592857Y-101424318D01*
X128560476Y-100154318D02*
X129407143Y-100154318D01*
X129407143Y-100154318D02*
X128862857Y-101424318D01*
X127221524Y-100789318D02*
X129788134Y-100789318D01*
X147076667Y-131104318D02*
X147076667Y-132011461D01*
X147076667Y-132011461D02*
X147016190Y-132192889D01*
X147016190Y-132192889D02*
X146895238Y-132313842D01*
X146895238Y-132313842D02*
X146713809Y-132374318D01*
X146713809Y-132374318D02*
X146592857Y-132374318D01*
X148225714Y-131527651D02*
X148225714Y-132374318D01*
X147923333Y-131043842D02*
X147620952Y-131950984D01*
X147620952Y-131950984D02*
X148407143Y-131950984D01*
X146221524Y-131709239D02*
X148778476Y-131709239D01*
X129076667Y-131104318D02*
X129076667Y-132011461D01*
X129076667Y-132011461D02*
X129016190Y-132192889D01*
X129016190Y-132192889D02*
X128895238Y-132313842D01*
X128895238Y-132313842D02*
X128713809Y-132374318D01*
X128713809Y-132374318D02*
X128592857Y-132374318D01*
X129560476Y-131104318D02*
X130346667Y-131104318D01*
X130346667Y-131104318D02*
X129923333Y-131588127D01*
X129923333Y-131588127D02*
X130104762Y-131588127D01*
X130104762Y-131588127D02*
X130225714Y-131648603D01*
X130225714Y-131648603D02*
X130286190Y-131709080D01*
X130286190Y-131709080D02*
X130346667Y-131830032D01*
X130346667Y-131830032D02*
X130346667Y-132132413D01*
X130346667Y-132132413D02*
X130286190Y-132253365D01*
X130286190Y-132253365D02*
X130225714Y-132313842D01*
X130225714Y-132313842D02*
X130104762Y-132374318D01*
X130104762Y-132374318D02*
X129741905Y-132374318D01*
X129741905Y-132374318D02*
X129620952Y-132313842D01*
X129620952Y-132313842D02*
X129560476Y-132253365D01*
X128221524Y-131739318D02*
X130727667Y-131739318D01*
D12*
X158781927Y-99966666D02*
X158591451Y-100099999D01*
X158781927Y-100195237D02*
X158381927Y-100195237D01*
X158381927Y-100195237D02*
X158381927Y-100042856D01*
X158381927Y-100042856D02*
X158400975Y-100004761D01*
X158400975Y-100004761D02*
X158420022Y-99985714D01*
X158420022Y-99985714D02*
X158458118Y-99966666D01*
X158458118Y-99966666D02*
X158515260Y-99966666D01*
X158515260Y-99966666D02*
X158553356Y-99985714D01*
X158553356Y-99985714D02*
X158572403Y-100004761D01*
X158572403Y-100004761D02*
X158591451Y-100042856D01*
X158591451Y-100042856D02*
X158591451Y-100195237D01*
X158781927Y-99585714D02*
X158781927Y-99814285D01*
X158781927Y-99699999D02*
X158381927Y-99699999D01*
X158381927Y-99699999D02*
X158439070Y-99738095D01*
X158439070Y-99738095D02*
X158477165Y-99776190D01*
X158477165Y-99776190D02*
X158496213Y-99814285D01*
X151833333Y-102143832D02*
X151814285Y-102162880D01*
X151814285Y-102162880D02*
X151757143Y-102181927D01*
X151757143Y-102181927D02*
X151719047Y-102181927D01*
X151719047Y-102181927D02*
X151661904Y-102162880D01*
X151661904Y-102162880D02*
X151623809Y-102124784D01*
X151623809Y-102124784D02*
X151604762Y-102086689D01*
X151604762Y-102086689D02*
X151585714Y-102010499D01*
X151585714Y-102010499D02*
X151585714Y-101953356D01*
X151585714Y-101953356D02*
X151604762Y-101877165D01*
X151604762Y-101877165D02*
X151623809Y-101839070D01*
X151623809Y-101839070D02*
X151661904Y-101800975D01*
X151661904Y-101800975D02*
X151719047Y-101781927D01*
X151719047Y-101781927D02*
X151757143Y-101781927D01*
X151757143Y-101781927D02*
X151814285Y-101800975D01*
X151814285Y-101800975D02*
X151833333Y-101820022D01*
X151985714Y-101820022D02*
X152004762Y-101800975D01*
X152004762Y-101800975D02*
X152042857Y-101781927D01*
X152042857Y-101781927D02*
X152138095Y-101781927D01*
X152138095Y-101781927D02*
X152176190Y-101800975D01*
X152176190Y-101800975D02*
X152195238Y-101820022D01*
X152195238Y-101820022D02*
X152214285Y-101858118D01*
X152214285Y-101858118D02*
X152214285Y-101896213D01*
X152214285Y-101896213D02*
X152195238Y-101953356D01*
X152195238Y-101953356D02*
X151966666Y-102181927D01*
X151966666Y-102181927D02*
X152214285Y-102181927D01*
D13*
X116099999Y-77454819D02*
X116099999Y-76454819D01*
X116099999Y-76454819D02*
X116433332Y-77169104D01*
X116433332Y-77169104D02*
X116766665Y-76454819D01*
X116766665Y-76454819D02*
X116766665Y-77454819D01*
X117147618Y-76454819D02*
X117766665Y-76454819D01*
X117766665Y-76454819D02*
X117433332Y-76835771D01*
X117433332Y-76835771D02*
X117576189Y-76835771D01*
X117576189Y-76835771D02*
X117671427Y-76883390D01*
X117671427Y-76883390D02*
X117719046Y-76931009D01*
X117719046Y-76931009D02*
X117766665Y-77026247D01*
X117766665Y-77026247D02*
X117766665Y-77264342D01*
X117766665Y-77264342D02*
X117719046Y-77359580D01*
X117719046Y-77359580D02*
X117671427Y-77407200D01*
X117671427Y-77407200D02*
X117576189Y-77454819D01*
X117576189Y-77454819D02*
X117290475Y-77454819D01*
X117290475Y-77454819D02*
X117195237Y-77407200D01*
X117195237Y-77407200D02*
X117147618Y-77359580D01*
X117957142Y-77550057D02*
X118719046Y-77550057D01*
X118957142Y-77454819D02*
X118957142Y-76454819D01*
X118957142Y-76454819D02*
X119290475Y-77169104D01*
X119290475Y-77169104D02*
X119623808Y-76454819D01*
X119623808Y-76454819D02*
X119623808Y-77454819D01*
X120242856Y-77454819D02*
X120147618Y-77407200D01*
X120147618Y-77407200D02*
X120099999Y-77359580D01*
X120099999Y-77359580D02*
X120052380Y-77264342D01*
X120052380Y-77264342D02*
X120052380Y-76978628D01*
X120052380Y-76978628D02*
X120099999Y-76883390D01*
X120099999Y-76883390D02*
X120147618Y-76835771D01*
X120147618Y-76835771D02*
X120242856Y-76788152D01*
X120242856Y-76788152D02*
X120385713Y-76788152D01*
X120385713Y-76788152D02*
X120480951Y-76835771D01*
X120480951Y-76835771D02*
X120528570Y-76883390D01*
X120528570Y-76883390D02*
X120576189Y-76978628D01*
X120576189Y-76978628D02*
X120576189Y-77264342D01*
X120576189Y-77264342D02*
X120528570Y-77359580D01*
X120528570Y-77359580D02*
X120480951Y-77407200D01*
X120480951Y-77407200D02*
X120385713Y-77454819D01*
X120385713Y-77454819D02*
X120242856Y-77454819D01*
X121433332Y-76788152D02*
X121433332Y-77454819D01*
X121004761Y-76788152D02*
X121004761Y-77311961D01*
X121004761Y-77311961D02*
X121052380Y-77407200D01*
X121052380Y-77407200D02*
X121147618Y-77454819D01*
X121147618Y-77454819D02*
X121290475Y-77454819D01*
X121290475Y-77454819D02*
X121385713Y-77407200D01*
X121385713Y-77407200D02*
X121433332Y-77359580D01*
X121909523Y-76788152D02*
X121909523Y-77454819D01*
X121909523Y-76883390D02*
X121957142Y-76835771D01*
X121957142Y-76835771D02*
X122052380Y-76788152D01*
X122052380Y-76788152D02*
X122195237Y-76788152D01*
X122195237Y-76788152D02*
X122290475Y-76835771D01*
X122290475Y-76835771D02*
X122338094Y-76931009D01*
X122338094Y-76931009D02*
X122338094Y-77454819D01*
X122671428Y-76788152D02*
X123052380Y-76788152D01*
X122814285Y-76454819D02*
X122814285Y-77311961D01*
X122814285Y-77311961D02*
X122861904Y-77407200D01*
X122861904Y-77407200D02*
X122957142Y-77454819D01*
X122957142Y-77454819D02*
X123052380Y-77454819D01*
X123385714Y-77454819D02*
X123385714Y-76788152D01*
X123385714Y-76454819D02*
X123338095Y-76502438D01*
X123338095Y-76502438D02*
X123385714Y-76550057D01*
X123385714Y-76550057D02*
X123433333Y-76502438D01*
X123433333Y-76502438D02*
X123385714Y-76454819D01*
X123385714Y-76454819D02*
X123385714Y-76550057D01*
X123861904Y-76788152D02*
X123861904Y-77454819D01*
X123861904Y-76883390D02*
X123909523Y-76835771D01*
X123909523Y-76835771D02*
X124004761Y-76788152D01*
X124004761Y-76788152D02*
X124147618Y-76788152D01*
X124147618Y-76788152D02*
X124242856Y-76835771D01*
X124242856Y-76835771D02*
X124290475Y-76931009D01*
X124290475Y-76931009D02*
X124290475Y-77454819D01*
X125195237Y-76788152D02*
X125195237Y-77597676D01*
X125195237Y-77597676D02*
X125147618Y-77692914D01*
X125147618Y-77692914D02*
X125099999Y-77740533D01*
X125099999Y-77740533D02*
X125004761Y-77788152D01*
X125004761Y-77788152D02*
X124861904Y-77788152D01*
X124861904Y-77788152D02*
X124766666Y-77740533D01*
X125195237Y-77407200D02*
X125099999Y-77454819D01*
X125099999Y-77454819D02*
X124909523Y-77454819D01*
X124909523Y-77454819D02*
X124814285Y-77407200D01*
X124814285Y-77407200D02*
X124766666Y-77359580D01*
X124766666Y-77359580D02*
X124719047Y-77264342D01*
X124719047Y-77264342D02*
X124719047Y-76978628D01*
X124719047Y-76978628D02*
X124766666Y-76883390D01*
X124766666Y-76883390D02*
X124814285Y-76835771D01*
X124814285Y-76835771D02*
X124909523Y-76788152D01*
X124909523Y-76788152D02*
X125099999Y-76788152D01*
X125099999Y-76788152D02*
X125195237Y-76835771D01*
X125671428Y-77454819D02*
X125671428Y-76454819D01*
X125671428Y-76931009D02*
X126242856Y-76931009D01*
X126242856Y-77454819D02*
X126242856Y-76454819D01*
X126861904Y-77454819D02*
X126766666Y-77407200D01*
X126766666Y-77407200D02*
X126719047Y-77359580D01*
X126719047Y-77359580D02*
X126671428Y-77264342D01*
X126671428Y-77264342D02*
X126671428Y-76978628D01*
X126671428Y-76978628D02*
X126719047Y-76883390D01*
X126719047Y-76883390D02*
X126766666Y-76835771D01*
X126766666Y-76835771D02*
X126861904Y-76788152D01*
X126861904Y-76788152D02*
X127004761Y-76788152D01*
X127004761Y-76788152D02*
X127099999Y-76835771D01*
X127099999Y-76835771D02*
X127147618Y-76883390D01*
X127147618Y-76883390D02*
X127195237Y-76978628D01*
X127195237Y-76978628D02*
X127195237Y-77264342D01*
X127195237Y-77264342D02*
X127147618Y-77359580D01*
X127147618Y-77359580D02*
X127099999Y-77407200D01*
X127099999Y-77407200D02*
X127004761Y-77454819D01*
X127004761Y-77454819D02*
X126861904Y-77454819D01*
X127766666Y-77454819D02*
X127671428Y-77407200D01*
X127671428Y-77407200D02*
X127623809Y-77311961D01*
X127623809Y-77311961D02*
X127623809Y-76454819D01*
X128528571Y-77407200D02*
X128433333Y-77454819D01*
X128433333Y-77454819D02*
X128242857Y-77454819D01*
X128242857Y-77454819D02*
X128147619Y-77407200D01*
X128147619Y-77407200D02*
X128100000Y-77311961D01*
X128100000Y-77311961D02*
X128100000Y-76931009D01*
X128100000Y-76931009D02*
X128147619Y-76835771D01*
X128147619Y-76835771D02*
X128242857Y-76788152D01*
X128242857Y-76788152D02*
X128433333Y-76788152D01*
X128433333Y-76788152D02*
X128528571Y-76835771D01*
X128528571Y-76835771D02*
X128576190Y-76931009D01*
X128576190Y-76931009D02*
X128576190Y-77026247D01*
X128576190Y-77026247D02*
X128100000Y-77121485D01*
X128766667Y-77550057D02*
X129528571Y-77550057D01*
X129766667Y-77454819D02*
X129766667Y-76454819D01*
X129766667Y-76454819D02*
X130147619Y-76454819D01*
X130147619Y-76454819D02*
X130242857Y-76502438D01*
X130242857Y-76502438D02*
X130290476Y-76550057D01*
X130290476Y-76550057D02*
X130338095Y-76645295D01*
X130338095Y-76645295D02*
X130338095Y-76788152D01*
X130338095Y-76788152D02*
X130290476Y-76883390D01*
X130290476Y-76883390D02*
X130242857Y-76931009D01*
X130242857Y-76931009D02*
X130147619Y-76978628D01*
X130147619Y-76978628D02*
X129766667Y-76978628D01*
X131195238Y-77454819D02*
X131195238Y-76931009D01*
X131195238Y-76931009D02*
X131147619Y-76835771D01*
X131147619Y-76835771D02*
X131052381Y-76788152D01*
X131052381Y-76788152D02*
X130861905Y-76788152D01*
X130861905Y-76788152D02*
X130766667Y-76835771D01*
X131195238Y-77407200D02*
X131100000Y-77454819D01*
X131100000Y-77454819D02*
X130861905Y-77454819D01*
X130861905Y-77454819D02*
X130766667Y-77407200D01*
X130766667Y-77407200D02*
X130719048Y-77311961D01*
X130719048Y-77311961D02*
X130719048Y-77216723D01*
X130719048Y-77216723D02*
X130766667Y-77121485D01*
X130766667Y-77121485D02*
X130861905Y-77073866D01*
X130861905Y-77073866D02*
X131100000Y-77073866D01*
X131100000Y-77073866D02*
X131195238Y-77026247D01*
X132100000Y-77454819D02*
X132100000Y-76454819D01*
X132100000Y-77407200D02*
X132004762Y-77454819D01*
X132004762Y-77454819D02*
X131814286Y-77454819D01*
X131814286Y-77454819D02*
X131719048Y-77407200D01*
X131719048Y-77407200D02*
X131671429Y-77359580D01*
X131671429Y-77359580D02*
X131623810Y-77264342D01*
X131623810Y-77264342D02*
X131623810Y-76978628D01*
X131623810Y-76978628D02*
X131671429Y-76883390D01*
X131671429Y-76883390D02*
X131719048Y-76835771D01*
X131719048Y-76835771D02*
X131814286Y-76788152D01*
X131814286Y-76788152D02*
X132004762Y-76788152D01*
X132004762Y-76788152D02*
X132100000Y-76835771D01*
X110166667Y-77454819D02*
X110166667Y-76454819D01*
X110166667Y-76454819D02*
X110500000Y-77169104D01*
X110500000Y-77169104D02*
X110833333Y-76454819D01*
X110833333Y-76454819D02*
X110833333Y-77454819D01*
X111309524Y-77454819D02*
X111309524Y-76454819D01*
X111309524Y-76931009D02*
X111880952Y-76931009D01*
X111880952Y-77454819D02*
X111880952Y-76454819D01*
X112880952Y-77454819D02*
X112309524Y-77454819D01*
X112595238Y-77454819D02*
X112595238Y-76454819D01*
X112595238Y-76454819D02*
X112500000Y-76597676D01*
X112500000Y-76597676D02*
X112404762Y-76692914D01*
X112404762Y-76692914D02*
X112309524Y-76740533D01*
D12*
X150673333Y-122721927D02*
X150540000Y-122531451D01*
X150444762Y-122721927D02*
X150444762Y-122321927D01*
X150444762Y-122321927D02*
X150597143Y-122321927D01*
X150597143Y-122321927D02*
X150635238Y-122340975D01*
X150635238Y-122340975D02*
X150654285Y-122360022D01*
X150654285Y-122360022D02*
X150673333Y-122398118D01*
X150673333Y-122398118D02*
X150673333Y-122455260D01*
X150673333Y-122455260D02*
X150654285Y-122493356D01*
X150654285Y-122493356D02*
X150635238Y-122512403D01*
X150635238Y-122512403D02*
X150597143Y-122531451D01*
X150597143Y-122531451D02*
X150444762Y-122531451D01*
X150901904Y-122493356D02*
X150863809Y-122474308D01*
X150863809Y-122474308D02*
X150844762Y-122455260D01*
X150844762Y-122455260D02*
X150825714Y-122417165D01*
X150825714Y-122417165D02*
X150825714Y-122398118D01*
X150825714Y-122398118D02*
X150844762Y-122360022D01*
X150844762Y-122360022D02*
X150863809Y-122340975D01*
X150863809Y-122340975D02*
X150901904Y-122321927D01*
X150901904Y-122321927D02*
X150978095Y-122321927D01*
X150978095Y-122321927D02*
X151016190Y-122340975D01*
X151016190Y-122340975D02*
X151035238Y-122360022D01*
X151035238Y-122360022D02*
X151054285Y-122398118D01*
X151054285Y-122398118D02*
X151054285Y-122417165D01*
X151054285Y-122417165D02*
X151035238Y-122455260D01*
X151035238Y-122455260D02*
X151016190Y-122474308D01*
X151016190Y-122474308D02*
X150978095Y-122493356D01*
X150978095Y-122493356D02*
X150901904Y-122493356D01*
X150901904Y-122493356D02*
X150863809Y-122512403D01*
X150863809Y-122512403D02*
X150844762Y-122531451D01*
X150844762Y-122531451D02*
X150825714Y-122569546D01*
X150825714Y-122569546D02*
X150825714Y-122645737D01*
X150825714Y-122645737D02*
X150844762Y-122683832D01*
X150844762Y-122683832D02*
X150863809Y-122702880D01*
X150863809Y-122702880D02*
X150901904Y-122721927D01*
X150901904Y-122721927D02*
X150978095Y-122721927D01*
X150978095Y-122721927D02*
X151016190Y-122702880D01*
X151016190Y-122702880D02*
X151035238Y-122683832D01*
X151035238Y-122683832D02*
X151054285Y-122645737D01*
X151054285Y-122645737D02*
X151054285Y-122569546D01*
X151054285Y-122569546D02*
X151035238Y-122531451D01*
X151035238Y-122531451D02*
X151016190Y-122512403D01*
X151016190Y-122512403D02*
X150978095Y-122493356D01*
D13*
X167557142Y-116711009D02*
X167223809Y-116711009D01*
X167223809Y-117234819D02*
X167223809Y-116234819D01*
X167223809Y-116234819D02*
X167699999Y-116234819D01*
X168509523Y-116568152D02*
X168509523Y-117234819D01*
X168080952Y-116568152D02*
X168080952Y-117091961D01*
X168080952Y-117091961D02*
X168128571Y-117187200D01*
X168128571Y-117187200D02*
X168223809Y-117234819D01*
X168223809Y-117234819D02*
X168366666Y-117234819D01*
X168366666Y-117234819D02*
X168461904Y-117187200D01*
X168461904Y-117187200D02*
X168509523Y-117139580D01*
X168938095Y-117187200D02*
X169033333Y-117234819D01*
X169033333Y-117234819D02*
X169223809Y-117234819D01*
X169223809Y-117234819D02*
X169319047Y-117187200D01*
X169319047Y-117187200D02*
X169366666Y-117091961D01*
X169366666Y-117091961D02*
X169366666Y-117044342D01*
X169366666Y-117044342D02*
X169319047Y-116949104D01*
X169319047Y-116949104D02*
X169223809Y-116901485D01*
X169223809Y-116901485D02*
X169080952Y-116901485D01*
X169080952Y-116901485D02*
X168985714Y-116853866D01*
X168985714Y-116853866D02*
X168938095Y-116758628D01*
X168938095Y-116758628D02*
X168938095Y-116711009D01*
X168938095Y-116711009D02*
X168985714Y-116615771D01*
X168985714Y-116615771D02*
X169080952Y-116568152D01*
X169080952Y-116568152D02*
X169223809Y-116568152D01*
X169223809Y-116568152D02*
X169319047Y-116615771D01*
X170176190Y-117187200D02*
X170080952Y-117234819D01*
X170080952Y-117234819D02*
X169890476Y-117234819D01*
X169890476Y-117234819D02*
X169795238Y-117187200D01*
X169795238Y-117187200D02*
X169747619Y-117091961D01*
X169747619Y-117091961D02*
X169747619Y-116711009D01*
X169747619Y-116711009D02*
X169795238Y-116615771D01*
X169795238Y-116615771D02*
X169890476Y-116568152D01*
X169890476Y-116568152D02*
X170080952Y-116568152D01*
X170080952Y-116568152D02*
X170176190Y-116615771D01*
X170176190Y-116615771D02*
X170223809Y-116711009D01*
X170223809Y-116711009D02*
X170223809Y-116806247D01*
X170223809Y-116806247D02*
X169747619Y-116901485D01*
D14*
X168433333Y-114444807D02*
X168166667Y-114444807D01*
X168166667Y-114863855D02*
X168166667Y-114063855D01*
X168166667Y-114063855D02*
X168547619Y-114063855D01*
X169271428Y-114863855D02*
X168814285Y-114863855D01*
X169042857Y-114863855D02*
X169042857Y-114063855D01*
X169042857Y-114063855D02*
X168966666Y-114178140D01*
X168966666Y-114178140D02*
X168890476Y-114254331D01*
X168890476Y-114254331D02*
X168814285Y-114292426D01*
X167986667Y-114463855D02*
X169446861Y-114463855D01*
D12*
X147743832Y-114166666D02*
X147762880Y-114185714D01*
X147762880Y-114185714D02*
X147781927Y-114242856D01*
X147781927Y-114242856D02*
X147781927Y-114280952D01*
X147781927Y-114280952D02*
X147762880Y-114338095D01*
X147762880Y-114338095D02*
X147724784Y-114376190D01*
X147724784Y-114376190D02*
X147686689Y-114395237D01*
X147686689Y-114395237D02*
X147610499Y-114414285D01*
X147610499Y-114414285D02*
X147553356Y-114414285D01*
X147553356Y-114414285D02*
X147477165Y-114395237D01*
X147477165Y-114395237D02*
X147439070Y-114376190D01*
X147439070Y-114376190D02*
X147400975Y-114338095D01*
X147400975Y-114338095D02*
X147381927Y-114280952D01*
X147381927Y-114280952D02*
X147381927Y-114242856D01*
X147381927Y-114242856D02*
X147400975Y-114185714D01*
X147400975Y-114185714D02*
X147420022Y-114166666D01*
X147381927Y-113804761D02*
X147381927Y-113995237D01*
X147381927Y-113995237D02*
X147572403Y-114014285D01*
X147572403Y-114014285D02*
X147553356Y-113995237D01*
X147553356Y-113995237D02*
X147534308Y-113957142D01*
X147534308Y-113957142D02*
X147534308Y-113861904D01*
X147534308Y-113861904D02*
X147553356Y-113823809D01*
X147553356Y-113823809D02*
X147572403Y-113804761D01*
X147572403Y-113804761D02*
X147610499Y-113785714D01*
X147610499Y-113785714D02*
X147705737Y-113785714D01*
X147705737Y-113785714D02*
X147743832Y-113804761D01*
X147743832Y-113804761D02*
X147762880Y-113823809D01*
X147762880Y-113823809D02*
X147781927Y-113861904D01*
X147781927Y-113861904D02*
X147781927Y-113957142D01*
X147781927Y-113957142D02*
X147762880Y-113995237D01*
X147762880Y-113995237D02*
X147743832Y-114014285D01*
D10*
X170000000Y-110800000D02*
X165000000Y-110800000D01*
X165000000Y-110900000D02*
G75*
G02*
X165000000Y-110800000I0J50000D01*
G01*
X165000000Y-110900000D02*
X170000000Y-110900000D01*
X170000000Y-110900000D02*
G75*
G03*
X170000000Y-110800000I0J50000D01*
G01*
X169950000Y-98850000D02*
X169950000Y-110850000D01*
X170050000Y-110850000D02*
G75*
G02*
X169950000Y-110850000I-50000J0D01*
G01*
X170050000Y-110850000D02*
X170050000Y-98850000D01*
X170050000Y-98850000D02*
G75*
G03*
X169950000Y-98850000I-50000J0D01*
G01*
X165050000Y-110850000D02*
X165050000Y-98850000D01*
X164950000Y-98850000D02*
G75*
G02*
X165050000Y-98850000I50000J0D01*
G01*
X164950000Y-98850000D02*
X164950000Y-110850000D01*
X164950000Y-110850000D02*
G75*
G03*
X165050000Y-110850000I50000J0D01*
G01*
X165000000Y-98900000D02*
X170000000Y-98900000D01*
X170000000Y-98800000D02*
G75*
G02*
X170000000Y-98900000I0J-50000D01*
G01*
X170000000Y-98800000D02*
X165000000Y-98800000D01*
X165000000Y-98800000D02*
G75*
G03*
X165000000Y-98900000I0J-50000D01*
G01*
%TO.C,R9*%
X154540000Y-122940000D02*
X152940000Y-122940000D01*
X154540000Y-122140000D02*
X154540000Y-122940000D01*
X152940000Y-122940000D02*
X152940000Y-122140000D01*
X152940000Y-122140000D02*
X154540000Y-122140000D01*
%TO.C,R11*%
X120850000Y-103425000D02*
X120050000Y-103425000D01*
X120850000Y-101825000D02*
X120850000Y-103425000D01*
X120050000Y-103425000D02*
X120050000Y-101825000D01*
X120050000Y-101825000D02*
X120850000Y-101825000D01*
%TO.C,R10*%
X122650000Y-103425000D02*
X121850000Y-103425000D01*
X122650000Y-101825000D02*
X122650000Y-103425000D01*
X121850000Y-103425000D02*
X121850000Y-101825000D01*
X121850000Y-101825000D02*
X122650000Y-101825000D01*
X152352500Y-75400000D02*
X152352500Y-74600000D01*
X152252500Y-74600000D02*
G75*
G02*
X152352500Y-74600000I50000J0D01*
G01*
X152252500Y-74600000D02*
X152252500Y-75400000D01*
X152252500Y-75400000D02*
G75*
G03*
X152352500Y-75400000I50000J0D01*
G01*
X152302500Y-74550000D02*
X151002500Y-74550000D01*
X151002500Y-74650000D02*
G75*
G02*
X151002500Y-74550000I0J50000D01*
G01*
X151002500Y-74650000D02*
X152302500Y-74650000D01*
X152302500Y-74650000D02*
G75*
G03*
X152302500Y-74550000I0J50000D01*
G01*
X150967145Y-74564645D02*
X150667145Y-74864645D01*
X150737855Y-74935355D02*
G75*
G02*
X150667145Y-74864645I-35355J35355D01*
G01*
X150737855Y-74935355D02*
X151037855Y-74635355D01*
X151037855Y-74635355D02*
G75*
G03*
X150967145Y-74564645I-35355J35355D01*
G01*
X150702500Y-75450000D02*
X152302500Y-75450000D01*
X152302500Y-75350000D02*
G75*
G02*
X152302500Y-75450000I0J-50000D01*
G01*
X152302500Y-75350000D02*
X150702500Y-75350000D01*
X150702500Y-75350000D02*
G75*
G03*
X150702500Y-75450000I0J-50000D01*
G01*
X150652500Y-74900000D02*
X150652500Y-75400000D01*
X150752500Y-75400000D02*
G75*
G02*
X150652500Y-75400000I-50000J0D01*
G01*
X150752500Y-75400000D02*
X150752500Y-74900000D01*
X150752500Y-74900000D02*
G75*
G03*
X150652500Y-74900000I-50000J0D01*
G01*
%TO.C,R3*%
X148485000Y-75400000D02*
X146885000Y-75400000D01*
X148485000Y-74600000D02*
X148485000Y-75400000D01*
X146885000Y-75400000D02*
X146885000Y-74600000D01*
X146885000Y-74600000D02*
X148485000Y-74600000D01*
%TO.C,C3*%
X114500000Y-112400000D02*
X112900000Y-112400000D01*
X114500000Y-111600000D02*
X114500000Y-112400000D01*
X112900000Y-112400000D02*
X112900000Y-111600000D01*
X112900000Y-111600000D02*
X114500000Y-111600000D01*
X170300000Y-123000000D02*
X167100000Y-123000000D01*
X167100000Y-123100000D02*
G75*
G02*
X167100000Y-123000000I0J50000D01*
G01*
X167100000Y-123100000D02*
X170300000Y-123100000D01*
X170300000Y-123100000D02*
G75*
G03*
X170300000Y-123000000I0J50000D01*
G01*
X170250000Y-120550000D02*
X170250000Y-123050000D01*
X170350000Y-123050000D02*
G75*
G02*
X170250000Y-123050000I-50000J0D01*
G01*
X170350000Y-123050000D02*
X170350000Y-120550000D01*
X170350000Y-120550000D02*
G75*
G03*
X170250000Y-120550000I-50000J0D01*
G01*
X167150000Y-123050000D02*
X167150000Y-120550000D01*
X167050000Y-120550000D02*
G75*
G02*
X167150000Y-120550000I50000J0D01*
G01*
X167050000Y-120550000D02*
X167050000Y-123050000D01*
X167050000Y-123050000D02*
G75*
G03*
X167150000Y-123050000I50000J0D01*
G01*
X167100000Y-120600000D02*
X170300000Y-120600000D01*
X170300000Y-120500000D02*
G75*
G02*
X170300000Y-120600000I0J-50000D01*
G01*
X170300000Y-120500000D02*
X167100000Y-120500000D01*
X167100000Y-120500000D02*
G75*
G03*
X167100000Y-120600000I0J-50000D01*
G01*
%TO.C,MH3*%
X185100000Y-77000000D02*
G75*
G02*
X181900000Y-77000000I-1600000J0D01*
G01*
X181900000Y-77000000D02*
G75*
G02*
X185100000Y-77000000I1600000J0D01*
G01*
X186700000Y-77000000D02*
G75*
G02*
X180300000Y-77000000I-3200000J0D01*
G01*
X180300000Y-77000000D02*
G75*
G02*
X186700000Y-77000000I3200000J0D01*
G01*
X117900000Y-109105000D02*
X117900000Y-104505000D01*
X117800000Y-104505000D02*
G75*
G02*
X117900000Y-104505000I50000J0D01*
G01*
X117800000Y-104505000D02*
X117800000Y-109105000D01*
X117800000Y-109105000D02*
G75*
G03*
X117900000Y-109105000I50000J0D01*
G01*
X117850000Y-104455000D02*
X113550000Y-104455000D01*
X113550000Y-104555000D02*
G75*
G02*
X113550000Y-104455000I0J50000D01*
G01*
X113550000Y-104555000D02*
X117850000Y-104555000D01*
X117850000Y-104555000D02*
G75*
G03*
X117850000Y-104455000I0J50000D01*
G01*
X113500000Y-104505000D02*
X113500000Y-109905000D01*
X113600000Y-109905000D02*
G75*
G02*
X113500000Y-109905000I-50000J0D01*
G01*
X113600000Y-109905000D02*
X113600000Y-104505000D01*
X113600000Y-104505000D02*
G75*
G03*
X113500000Y-104505000I-50000J0D01*
G01*
X113550000Y-109955000D02*
X117050000Y-109955000D01*
X117050000Y-109855000D02*
G75*
G02*
X117050000Y-109955000I0J-50000D01*
G01*
X117050000Y-109855000D02*
X113550000Y-109855000D01*
X113550000Y-109855000D02*
G75*
G03*
X113550000Y-109955000I0J-50000D01*
G01*
X117085356Y-109940355D02*
X117885355Y-109140356D01*
X117814645Y-109069645D02*
G75*
G02*
X117885355Y-109140355I35355J-35355D01*
G01*
X117814644Y-109069645D02*
X117014645Y-109869644D01*
X117014645Y-109869645D02*
G75*
G03*
X117085355Y-109940355I35355J-35355D01*
G01*
X188269000Y-120130500D02*
X188269000Y-116270500D01*
X188169000Y-116270500D02*
G75*
G02*
X188269000Y-116270500I50000J0D01*
G01*
X188169000Y-116270500D02*
X188169000Y-120130500D01*
X188169000Y-120130500D02*
G75*
G03*
X188269000Y-120130500I50000J0D01*
G01*
X188219000Y-116220500D02*
X185499000Y-116220500D01*
X185499000Y-116320500D02*
G75*
G02*
X185499000Y-116220500I0J50000D01*
G01*
X185499000Y-116320500D02*
X188219000Y-116320500D01*
X188219000Y-116320500D02*
G75*
G03*
X188219000Y-116220500I0J50000D01*
G01*
X185499000Y-124500500D02*
X176999000Y-124500500D01*
X176999000Y-124600500D02*
G75*
G02*
X176999000Y-124500500I0J50000D01*
G01*
X176999000Y-124600500D02*
X185499000Y-124600500D01*
X185499000Y-124600500D02*
G75*
G03*
X185499000Y-124500500I0J50000D01*
G01*
X185499000Y-120180500D02*
X188219000Y-120180500D01*
X188219000Y-120080500D02*
G75*
G02*
X188219000Y-120180500I0J-50000D01*
G01*
X188219000Y-120080500D02*
X185499000Y-120080500D01*
X185499000Y-120080500D02*
G75*
G03*
X185499000Y-120180500I0J-50000D01*
G01*
X185449000Y-111850500D02*
X185449000Y-124550500D01*
X185549000Y-124550500D02*
G75*
G02*
X185449000Y-124550500I-50000J0D01*
G01*
X185549000Y-124550500D02*
X185549000Y-111850500D01*
X185549000Y-111850500D02*
G75*
G03*
X185449000Y-111850500I-50000J0D01*
G01*
X177049000Y-124550500D02*
X177049000Y-111850500D01*
X176949000Y-111850500D02*
G75*
G02*
X177049000Y-111850500I50000J0D01*
G01*
X176949000Y-111850500D02*
X176949000Y-124550500D01*
X176949000Y-124550500D02*
G75*
G03*
X177049000Y-124550500I50000J0D01*
G01*
X176999000Y-111900500D02*
X185499000Y-111900500D01*
X185499000Y-111800500D02*
G75*
G02*
X185499000Y-111900500I0J-50000D01*
G01*
X185499000Y-111800500D02*
X176999000Y-111800500D01*
X176999000Y-111800500D02*
G75*
G03*
X176999000Y-111900500I0J-50000D01*
G01*
%TO.C,R2*%
X161000000Y-100700000D02*
X160200000Y-100700000D01*
X161000000Y-99100000D02*
X161000000Y-100700000D01*
X160200000Y-100700000D02*
X160200000Y-99100000D01*
X160200000Y-99100000D02*
X161000000Y-99100000D01*
%TO.C,FID1*%
X117500000Y-83000000D02*
G75*
G02*
X115500000Y-83000000I-1000000J0D01*
G01*
X115500000Y-83000000D02*
G75*
G02*
X117500000Y-83000000I1000000J0D01*
G01*
X155950000Y-97950000D02*
X155950000Y-94050000D01*
X155850000Y-94050000D02*
G75*
G02*
X155950000Y-94050000I50000J0D01*
G01*
X155850000Y-94050000D02*
X155850000Y-97950000D01*
X155850000Y-97950000D02*
G75*
G03*
X155950000Y-97950000I50000J0D01*
G01*
X150200000Y-98000000D02*
X155900000Y-98000000D01*
X155900000Y-97900000D02*
G75*
G02*
X155900000Y-98000000I0J-50000D01*
G01*
X155900000Y-97900000D02*
X150200000Y-97900000D01*
X150200000Y-97900000D02*
G75*
G03*
X150200000Y-98000000I0J-50000D01*
G01*
X150235355Y-97914644D02*
X149135356Y-96814645D01*
X149064645Y-96885355D02*
G75*
G02*
X149135355Y-96814645I35355J35355D01*
G01*
X149064645Y-96885356D02*
X150164644Y-97985355D01*
X150164645Y-97985355D02*
G75*
G03*
X150235355Y-97914645I35355J35355D01*
G01*
X149150000Y-96850000D02*
X149150000Y-94050000D01*
X149050000Y-94050000D02*
G75*
G02*
X149150000Y-94050000I50000J0D01*
G01*
X149050000Y-94050000D02*
X149050000Y-96850000D01*
X149050000Y-96850000D02*
G75*
G03*
X149150000Y-96850000I50000J0D01*
G01*
X149100000Y-94100000D02*
X155900000Y-94100000D01*
X155900000Y-94000000D02*
G75*
G02*
X155900000Y-94100000I0J-50000D01*
G01*
X155900000Y-94000000D02*
X149100000Y-94000000D01*
X149100000Y-94000000D02*
G75*
G03*
X149100000Y-94100000I0J-50000D01*
G01*
X142800000Y-114290000D02*
X142800000Y-120790000D01*
X142900000Y-120790000D02*
G75*
G02*
X142800000Y-120790000I-50000J0D01*
G01*
X142900000Y-120790000D02*
X142900000Y-114290000D01*
X142900000Y-114290000D02*
G75*
G03*
X142800000Y-114290000I-50000J0D01*
G01*
X142850000Y-120740000D02*
X136630000Y-120740000D01*
X136630000Y-120840000D02*
G75*
G02*
X136630000Y-120740000I0J50000D01*
G01*
X136630000Y-120840000D02*
X142850000Y-120840000D01*
X142850000Y-120840000D02*
G75*
G03*
X142850000Y-120740000I0J50000D01*
G01*
X136680000Y-120790000D02*
X136680000Y-115290000D01*
X136580000Y-115290000D02*
G75*
G02*
X136680000Y-115290000I50000J0D01*
G01*
X136580000Y-115290000D02*
X136580000Y-120790000D01*
X136580000Y-120790000D02*
G75*
G03*
X136680000Y-120790000I50000J0D01*
G01*
X136665355Y-115325355D02*
X137665355Y-114325355D01*
X137594645Y-114254645D02*
G75*
G02*
X137665355Y-114325355I35355J-35355D01*
G01*
X137594645Y-114254645D02*
X136594645Y-115254645D01*
X136594645Y-115254645D02*
G75*
G03*
X136665355Y-115325355I35355J-35355D01*
G01*
X137630000Y-114340000D02*
X142850000Y-114340000D01*
X142850000Y-114240000D02*
G75*
G02*
X142850000Y-114340000I0J-50000D01*
G01*
X142850000Y-114240000D02*
X137630000Y-114240000D01*
X137630000Y-114240000D02*
G75*
G03*
X137630000Y-114340000I0J-50000D01*
G01*
X143850000Y-120190000D02*
X142850000Y-120190000D01*
X142850000Y-120290000D02*
G75*
G02*
X142850000Y-120190000I0J50000D01*
G01*
X142850000Y-120290000D02*
X143850000Y-120290000D01*
X143850000Y-120290000D02*
G75*
G03*
X143850000Y-120190000I0J50000D01*
G01*
X143800000Y-114840000D02*
X143800000Y-120240000D01*
X143900000Y-120240000D02*
G75*
G02*
X143800000Y-120240000I-50000J0D01*
G01*
X143900000Y-120240000D02*
X143900000Y-114840000D01*
X143900000Y-114840000D02*
G75*
G03*
X143800000Y-114840000I-50000J0D01*
G01*
X142850000Y-114890000D02*
X143850000Y-114890000D01*
X143850000Y-114790000D02*
G75*
G02*
X143850000Y-114890000I0J-50000D01*
G01*
X143850000Y-114790000D02*
X142850000Y-114790000D01*
X142850000Y-114790000D02*
G75*
G03*
X142850000Y-114890000I0J-50000D01*
G01*
X136960000Y-114910000D02*
X133930000Y-114910000D01*
X133930000Y-115010000D02*
G75*
G02*
X133930000Y-114910000I0J50000D01*
G01*
X133930000Y-115010000D02*
X136960000Y-115010000D01*
X136960000Y-115010000D02*
G75*
G03*
X136960000Y-114910000I0J50000D01*
G01*
X136630000Y-119470000D02*
X133930000Y-119470000D01*
X133930000Y-119570000D02*
G75*
G02*
X133930000Y-119470000I0J50000D01*
G01*
X133930000Y-119570000D02*
X136630000Y-119570000D01*
X136630000Y-119570000D02*
G75*
G03*
X136630000Y-119470000I0J50000D01*
G01*
X136630000Y-118330000D02*
X133930000Y-118330000D01*
X133930000Y-118430000D02*
G75*
G02*
X133930000Y-118330000I0J50000D01*
G01*
X133930000Y-118430000D02*
X136630000Y-118430000D01*
X136630000Y-118430000D02*
G75*
G03*
X136630000Y-118330000I0J50000D01*
G01*
X136630000Y-117190000D02*
X133930000Y-117190000D01*
X133930000Y-117290000D02*
G75*
G02*
X133930000Y-117190000I0J50000D01*
G01*
X133930000Y-117290000D02*
X136630000Y-117290000D01*
X136630000Y-117290000D02*
G75*
G03*
X136630000Y-117190000I0J50000D01*
G01*
X136630000Y-116050000D02*
X133930000Y-116050000D01*
X133930000Y-116150000D02*
G75*
G02*
X133930000Y-116050000I0J50000D01*
G01*
X133930000Y-116150000D02*
X136630000Y-116150000D01*
X136630000Y-116150000D02*
G75*
G03*
X136630000Y-116050000I0J50000D01*
G01*
X133930000Y-120170000D02*
X136630000Y-120170000D01*
X136630000Y-120070000D02*
G75*
G02*
X136630000Y-120170000I0J-50000D01*
G01*
X136630000Y-120070000D02*
X133930000Y-120070000D01*
X133930000Y-120070000D02*
G75*
G03*
X133930000Y-120170000I0J-50000D01*
G01*
X133880000Y-119520000D02*
X133880000Y-120120000D01*
X133980000Y-120120000D02*
G75*
G02*
X133880000Y-120120000I-50000J0D01*
G01*
X133980000Y-120120000D02*
X133980000Y-119520000D01*
X133980000Y-119520000D02*
G75*
G03*
X133880000Y-119520000I-50000J0D01*
G01*
X133930000Y-119030000D02*
X136630000Y-119030000D01*
X136630000Y-118930000D02*
G75*
G02*
X136630000Y-119030000I0J-50000D01*
G01*
X136630000Y-118930000D02*
X133930000Y-118930000D01*
X133930000Y-118930000D02*
G75*
G03*
X133930000Y-119030000I0J-50000D01*
G01*
X133880000Y-118380000D02*
X133880000Y-118980000D01*
X133980000Y-118980000D02*
G75*
G02*
X133880000Y-118980000I-50000J0D01*
G01*
X133980000Y-118980000D02*
X133980000Y-118380000D01*
X133980000Y-118380000D02*
G75*
G03*
X133880000Y-118380000I-50000J0D01*
G01*
X133930000Y-117890000D02*
X136630000Y-117890000D01*
X136630000Y-117790000D02*
G75*
G02*
X136630000Y-117890000I0J-50000D01*
G01*
X136630000Y-117790000D02*
X133930000Y-117790000D01*
X133930000Y-117790000D02*
G75*
G03*
X133930000Y-117890000I0J-50000D01*
G01*
X133880000Y-117240000D02*
X133880000Y-117840000D01*
X133980000Y-117840000D02*
G75*
G02*
X133880000Y-117840000I-50000J0D01*
G01*
X133980000Y-117840000D02*
X133980000Y-117240000D01*
X133980000Y-117240000D02*
G75*
G03*
X133880000Y-117240000I-50000J0D01*
G01*
X133930000Y-116750000D02*
X136630000Y-116750000D01*
X136630000Y-116650000D02*
G75*
G02*
X136630000Y-116750000I0J-50000D01*
G01*
X136630000Y-116650000D02*
X133930000Y-116650000D01*
X133930000Y-116650000D02*
G75*
G03*
X133930000Y-116750000I0J-50000D01*
G01*
X133880000Y-116100000D02*
X133880000Y-116700000D01*
X133980000Y-116700000D02*
G75*
G02*
X133880000Y-116700000I-50000J0D01*
G01*
X133980000Y-116700000D02*
X133980000Y-116100000D01*
X133980000Y-116100000D02*
G75*
G03*
X133880000Y-116100000I-50000J0D01*
G01*
X133930000Y-115610000D02*
X136630000Y-115610000D01*
X136630000Y-115510000D02*
G75*
G02*
X136630000Y-115610000I0J-50000D01*
G01*
X136630000Y-115510000D02*
X133930000Y-115510000D01*
X133930000Y-115510000D02*
G75*
G03*
X133930000Y-115610000I0J-50000D01*
G01*
X133880000Y-114960000D02*
X133880000Y-115560000D01*
X133980000Y-115560000D02*
G75*
G02*
X133880000Y-115560000I-50000J0D01*
G01*
X133980000Y-115560000D02*
X133980000Y-114960000D01*
X133980000Y-114960000D02*
G75*
G03*
X133880000Y-114960000I-50000J0D01*
G01*
%TO.C,C7*%
X148000000Y-117750000D02*
X147200000Y-117750000D01*
X148000000Y-116150000D02*
X148000000Y-117750000D01*
X147200000Y-117750000D02*
X147200000Y-116150000D01*
X147200000Y-116150000D02*
X148000000Y-116150000D01*
X121675000Y-122500000D02*
X108975000Y-122500000D01*
X108975000Y-122600000D02*
G75*
G02*
X108975000Y-122500000I0J50000D01*
G01*
X108975000Y-122600000D02*
X121675000Y-122600000D01*
X121675000Y-122600000D02*
G75*
G03*
X121675000Y-122500000I0J50000D01*
G01*
X121625000Y-114650000D02*
X121625000Y-122550000D01*
X121725000Y-122550000D02*
G75*
G02*
X121625000Y-122550000I-50000J0D01*
G01*
X121725000Y-122550000D02*
X121725000Y-114650000D01*
X121725000Y-114650000D02*
G75*
G03*
X121625000Y-114650000I-50000J0D01*
G01*
X109025000Y-122550000D02*
X109025000Y-114650000D01*
X108925000Y-114650000D02*
G75*
G02*
X109025000Y-114650000I50000J0D01*
G01*
X108925000Y-114650000D02*
X108925000Y-122550000D01*
X108925000Y-122550000D02*
G75*
G03*
X109025000Y-122550000I50000J0D01*
G01*
X108975000Y-114700000D02*
X121675000Y-114700000D01*
X121675000Y-114600000D02*
G75*
G02*
X121675000Y-114700000I0J-50000D01*
G01*
X121675000Y-114600000D02*
X108975000Y-114600000D01*
X108975000Y-114600000D02*
G75*
G03*
X108975000Y-114700000I0J-50000D01*
G01*
%TO.C,C4*%
X131950000Y-114900000D02*
X131150000Y-114900000D01*
X131950000Y-113300000D02*
X131950000Y-114900000D01*
X131150000Y-114900000D02*
X131150000Y-113300000D01*
X131150000Y-113300000D02*
X131950000Y-113300000D01*
%TO.C,MH2*%
X113100000Y-133000000D02*
G75*
G02*
X109900000Y-133000000I-1600000J0D01*
G01*
X109900000Y-133000000D02*
G75*
G02*
X113100000Y-133000000I1600000J0D01*
G01*
X114700000Y-133000000D02*
G75*
G02*
X108300000Y-133000000I-3200000J0D01*
G01*
X108300000Y-133000000D02*
G75*
G02*
X114700000Y-133000000I3200000J0D01*
G01*
%TO.C,C6*%
X131950000Y-117800000D02*
X131150000Y-117800000D01*
X131950000Y-116200000D02*
X131950000Y-117800000D01*
X131150000Y-117800000D02*
X131150000Y-116200000D01*
X131150000Y-116200000D02*
X131950000Y-116200000D01*
X187550000Y-95950000D02*
X176050000Y-95950000D01*
X176050000Y-96050000D02*
G75*
G02*
X176050000Y-95950000I0J50000D01*
G01*
X176050000Y-96050000D02*
X187550000Y-96050000D01*
X187550000Y-96050000D02*
G75*
G03*
X187550000Y-95950000I0J50000D01*
G01*
X187500000Y-85000000D02*
X187500000Y-96000000D01*
X187600000Y-96000000D02*
G75*
G02*
X187500000Y-96000000I-50000J0D01*
G01*
X187600000Y-96000000D02*
X187600000Y-85000000D01*
X187600000Y-85000000D02*
G75*
G03*
X187500000Y-85000000I-50000J0D01*
G01*
X185975000Y-96000000D02*
X185975000Y-96000000D01*
X186075000Y-96000000D02*
G75*
G02*
X185975000Y-96000000I-50000J0D01*
G01*
X186075000Y-96000000D02*
X186075000Y-96000000D01*
X186075000Y-96000000D02*
G75*
G03*
X185975000Y-96000000I-50000J0D01*
G01*
X176100000Y-96000000D02*
X176100000Y-85000000D01*
X176000000Y-85000000D02*
G75*
G02*
X176100000Y-85000000I50000J0D01*
G01*
X176000000Y-85000000D02*
X176000000Y-96000000D01*
X176000000Y-96000000D02*
G75*
G03*
X176100000Y-96000000I50000J0D01*
G01*
X176050000Y-85050000D02*
X187550000Y-85050000D01*
X187550000Y-84950000D02*
G75*
G02*
X187550000Y-85050000I0J-50000D01*
G01*
X187550000Y-84950000D02*
X176050000Y-84950000D01*
X176050000Y-84950000D02*
G75*
G03*
X176050000Y-85050000I0J-50000D01*
G01*
X170500000Y-136900000D02*
X160500000Y-136900000D01*
X160500000Y-137100000D02*
G75*
G02*
X160500000Y-136900000I0J100000D01*
G01*
X160500000Y-137100000D02*
X170500000Y-137100000D01*
X170500000Y-137100000D02*
G75*
G03*
X170500000Y-136900000I0J100000D01*
G01*
X170400000Y-127600000D02*
X170400000Y-137000000D01*
X170600000Y-137000000D02*
G75*
G02*
X170400000Y-137000000I-100000J0D01*
G01*
X170600000Y-137000000D02*
X170600000Y-127600000D01*
X170600000Y-127600000D02*
G75*
G03*
X170400000Y-127600000I-100000J0D01*
G01*
X160600000Y-137000000D02*
X160600000Y-127600000D01*
X160400000Y-127600000D02*
G75*
G02*
X160600000Y-127600000I100000J0D01*
G01*
X160400000Y-127600000D02*
X160400000Y-137000000D01*
X160400000Y-137000000D02*
G75*
G03*
X160600000Y-137000000I100000J0D01*
G01*
X160500000Y-127700000D02*
X170500000Y-127700000D01*
X170500000Y-127500000D02*
G75*
G02*
X170500000Y-127700000I0J-100000D01*
G01*
X170500000Y-127500000D02*
X160500000Y-127500000D01*
X160500000Y-127500000D02*
G75*
G03*
X160500000Y-127700000I0J-100000D01*
G01*
%TO.C,C1*%
X152700000Y-104000000D02*
X151100000Y-104000000D01*
X152700000Y-103200000D02*
X152700000Y-104000000D01*
X151100000Y-104000000D02*
X151100000Y-103200000D01*
X151100000Y-103200000D02*
X152700000Y-103200000D01*
%TO.C,R5*%
X122200000Y-109500000D02*
X120600000Y-109500000D01*
X122200000Y-108700000D02*
X122200000Y-109500000D01*
X120600000Y-109500000D02*
X120600000Y-108700000D01*
X120600000Y-108700000D02*
X122200000Y-108700000D01*
%TO.C,R6*%
X135540000Y-122940000D02*
X133940000Y-122940000D01*
X135540000Y-122140000D02*
X135540000Y-122940000D01*
X133940000Y-122940000D02*
X133940000Y-122140000D01*
X133940000Y-122140000D02*
X135540000Y-122140000D01*
%TO.C,MH4*%
X185100000Y-133000000D02*
G75*
G02*
X181900000Y-133000000I-1600000J0D01*
G01*
X181900000Y-133000000D02*
G75*
G02*
X185100000Y-133000000I1600000J0D01*
G01*
X186700000Y-133000000D02*
G75*
G02*
X180300000Y-133000000I-3200000J0D01*
G01*
X180300000Y-133000000D02*
G75*
G02*
X186700000Y-133000000I3200000J0D01*
G01*
%TO.C,R7*%
X138540000Y-122940000D02*
X136940000Y-122940000D01*
X138540000Y-122140000D02*
X138540000Y-122940000D01*
X136940000Y-122940000D02*
X136940000Y-122140000D01*
X136940000Y-122140000D02*
X138540000Y-122140000D01*
%TO.C,FID2*%
X167500000Y-83000000D02*
G75*
G02*
X165500000Y-83000000I-1000000J0D01*
G01*
X165500000Y-83000000D02*
G75*
G02*
X167500000Y-83000000I1000000J0D01*
G01*
%TO.C,R12*%
X114500000Y-103600000D02*
X112900000Y-103600000D01*
X114500000Y-102800000D02*
X114500000Y-103600000D01*
X112900000Y-103600000D02*
X112900000Y-102800000D01*
X112900000Y-102800000D02*
X114500000Y-102800000D01*
X158800000Y-114290000D02*
X158800000Y-120790000D01*
X158900000Y-120790000D02*
G75*
G02*
X158800000Y-120790000I-50000J0D01*
G01*
X158900000Y-120790000D02*
X158900000Y-114290000D01*
X158900000Y-114290000D02*
G75*
G03*
X158800000Y-114290000I-50000J0D01*
G01*
X158850000Y-120740000D02*
X152630000Y-120740000D01*
X152630000Y-120840000D02*
G75*
G02*
X152630000Y-120740000I0J50000D01*
G01*
X152630000Y-120840000D02*
X158850000Y-120840000D01*
X158850000Y-120840000D02*
G75*
G03*
X158850000Y-120740000I0J50000D01*
G01*
X152680000Y-120790000D02*
X152680000Y-115290000D01*
X152580000Y-115290000D02*
G75*
G02*
X152680000Y-115290000I50000J0D01*
G01*
X152580000Y-115290000D02*
X152580000Y-120790000D01*
X152580000Y-120790000D02*
G75*
G03*
X152680000Y-120790000I50000J0D01*
G01*
X152665355Y-115325355D02*
X153665355Y-114325355D01*
X153594645Y-114254645D02*
G75*
G02*
X153665355Y-114325355I35355J-35355D01*
G01*
X153594645Y-114254645D02*
X152594645Y-115254645D01*
X152594645Y-115254645D02*
G75*
G03*
X152665355Y-115325355I35355J-35355D01*
G01*
X153630000Y-114340000D02*
X158850000Y-114340000D01*
X158850000Y-114240000D02*
G75*
G02*
X158850000Y-114340000I0J-50000D01*
G01*
X158850000Y-114240000D02*
X153630000Y-114240000D01*
X153630000Y-114240000D02*
G75*
G03*
X153630000Y-114340000I0J-50000D01*
G01*
X159850000Y-120190000D02*
X158850000Y-120190000D01*
X158850000Y-120290000D02*
G75*
G02*
X158850000Y-120190000I0J50000D01*
G01*
X158850000Y-120290000D02*
X159850000Y-120290000D01*
X159850000Y-120290000D02*
G75*
G03*
X159850000Y-120190000I0J50000D01*
G01*
X159800000Y-114840000D02*
X159800000Y-120240000D01*
X159900000Y-120240000D02*
G75*
G02*
X159800000Y-120240000I-50000J0D01*
G01*
X159900000Y-120240000D02*
X159900000Y-114840000D01*
X159900000Y-114840000D02*
G75*
G03*
X159800000Y-114840000I-50000J0D01*
G01*
X158850000Y-114890000D02*
X159850000Y-114890000D01*
X159850000Y-114790000D02*
G75*
G02*
X159850000Y-114890000I0J-50000D01*
G01*
X159850000Y-114790000D02*
X158850000Y-114790000D01*
X158850000Y-114790000D02*
G75*
G03*
X158850000Y-114890000I0J-50000D01*
G01*
X152960000Y-114910000D02*
X149930000Y-114910000D01*
X149930000Y-115010000D02*
G75*
G02*
X149930000Y-114910000I0J50000D01*
G01*
X149930000Y-115010000D02*
X152960000Y-115010000D01*
X152960000Y-115010000D02*
G75*
G03*
X152960000Y-114910000I0J50000D01*
G01*
X152630000Y-119470000D02*
X149930000Y-119470000D01*
X149930000Y-119570000D02*
G75*
G02*
X149930000Y-119470000I0J50000D01*
G01*
X149930000Y-119570000D02*
X152630000Y-119570000D01*
X152630000Y-119570000D02*
G75*
G03*
X152630000Y-119470000I0J50000D01*
G01*
X152630000Y-118330000D02*
X149930000Y-118330000D01*
X149930000Y-118430000D02*
G75*
G02*
X149930000Y-118330000I0J50000D01*
G01*
X149930000Y-118430000D02*
X152630000Y-118430000D01*
X152630000Y-118430000D02*
G75*
G03*
X152630000Y-118330000I0J50000D01*
G01*
X152630000Y-117190000D02*
X149930000Y-117190000D01*
X149930000Y-117290000D02*
G75*
G02*
X149930000Y-117190000I0J50000D01*
G01*
X149930000Y-117290000D02*
X152630000Y-117290000D01*
X152630000Y-117290000D02*
G75*
G03*
X152630000Y-117190000I0J50000D01*
G01*
X152630000Y-116050000D02*
X149930000Y-116050000D01*
X149930000Y-116150000D02*
G75*
G02*
X149930000Y-116050000I0J50000D01*
G01*
X149930000Y-116150000D02*
X152630000Y-116150000D01*
X152630000Y-116150000D02*
G75*
G03*
X152630000Y-116050000I0J50000D01*
G01*
X149930000Y-120170000D02*
X152630000Y-120170000D01*
X152630000Y-120070000D02*
G75*
G02*
X152630000Y-120170000I0J-50000D01*
G01*
X152630000Y-120070000D02*
X149930000Y-120070000D01*
X149930000Y-120070000D02*
G75*
G03*
X149930000Y-120170000I0J-50000D01*
G01*
X149880000Y-119520000D02*
X149880000Y-120120000D01*
X149980000Y-120120000D02*
G75*
G02*
X149880000Y-120120000I-50000J0D01*
G01*
X149980000Y-120120000D02*
X149980000Y-119520000D01*
X149980000Y-119520000D02*
G75*
G03*
X149880000Y-119520000I-50000J0D01*
G01*
X149930000Y-119030000D02*
X152630000Y-119030000D01*
X152630000Y-118930000D02*
G75*
G02*
X152630000Y-119030000I0J-50000D01*
G01*
X152630000Y-118930000D02*
X149930000Y-118930000D01*
X149930000Y-118930000D02*
G75*
G03*
X149930000Y-119030000I0J-50000D01*
G01*
X149880000Y-118380000D02*
X149880000Y-118980000D01*
X149980000Y-118980000D02*
G75*
G02*
X149880000Y-118980000I-50000J0D01*
G01*
X149980000Y-118980000D02*
X149980000Y-118380000D01*
X149980000Y-118380000D02*
G75*
G03*
X149880000Y-118380000I-50000J0D01*
G01*
X149930000Y-117890000D02*
X152630000Y-117890000D01*
X152630000Y-117790000D02*
G75*
G02*
X152630000Y-117890000I0J-50000D01*
G01*
X152630000Y-117790000D02*
X149930000Y-117790000D01*
X149930000Y-117790000D02*
G75*
G03*
X149930000Y-117890000I0J-50000D01*
G01*
X149880000Y-117240000D02*
X149880000Y-117840000D01*
X149980000Y-117840000D02*
G75*
G02*
X149880000Y-117840000I-50000J0D01*
G01*
X149980000Y-117840000D02*
X149980000Y-117240000D01*
X149980000Y-117240000D02*
G75*
G03*
X149880000Y-117240000I-50000J0D01*
G01*
X149930000Y-116750000D02*
X152630000Y-116750000D01*
X152630000Y-116650000D02*
G75*
G02*
X152630000Y-116750000I0J-50000D01*
G01*
X152630000Y-116650000D02*
X149930000Y-116650000D01*
X149930000Y-116650000D02*
G75*
G03*
X149930000Y-116750000I0J-50000D01*
G01*
X149880000Y-116100000D02*
X149880000Y-116700000D01*
X149980000Y-116700000D02*
G75*
G02*
X149880000Y-116700000I-50000J0D01*
G01*
X149980000Y-116700000D02*
X149980000Y-116100000D01*
X149980000Y-116100000D02*
G75*
G03*
X149880000Y-116100000I-50000J0D01*
G01*
X149930000Y-115610000D02*
X152630000Y-115610000D01*
X152630000Y-115510000D02*
G75*
G02*
X152630000Y-115610000I0J-50000D01*
G01*
X152630000Y-115510000D02*
X149930000Y-115510000D01*
X149930000Y-115510000D02*
G75*
G03*
X149930000Y-115610000I0J-50000D01*
G01*
X149880000Y-114960000D02*
X149880000Y-115560000D01*
X149980000Y-115560000D02*
G75*
G02*
X149880000Y-115560000I-50000J0D01*
G01*
X149980000Y-115560000D02*
X149980000Y-114960000D01*
X149980000Y-114960000D02*
G75*
G03*
X149880000Y-114960000I-50000J0D01*
G01*
%TO.C,FID3*%
X117500000Y-128000000D02*
G75*
G02*
X115500000Y-128000000I-1000000J0D01*
G01*
X115500000Y-128000000D02*
G75*
G02*
X117500000Y-128000000I1000000J0D01*
G01*
X130000000Y-110800000D02*
X125000000Y-110800000D01*
X125000000Y-110900000D02*
G75*
G02*
X125000000Y-110800000I0J50000D01*
G01*
X125000000Y-110900000D02*
X130000000Y-110900000D01*
X130000000Y-110900000D02*
G75*
G03*
X130000000Y-110800000I0J50000D01*
G01*
X129950000Y-98850000D02*
X129950000Y-110850000D01*
X130050000Y-110850000D02*
G75*
G02*
X129950000Y-110850000I-50000J0D01*
G01*
X130050000Y-110850000D02*
X130050000Y-98850000D01*
X130050000Y-98850000D02*
G75*
G03*
X129950000Y-98850000I-50000J0D01*
G01*
X125050000Y-110850000D02*
X125050000Y-98850000D01*
X124950000Y-98850000D02*
G75*
G02*
X125050000Y-98850000I50000J0D01*
G01*
X124950000Y-98850000D02*
X124950000Y-110850000D01*
X124950000Y-110850000D02*
G75*
G03*
X125050000Y-110850000I50000J0D01*
G01*
X125000000Y-98900000D02*
X130000000Y-98900000D01*
X130000000Y-98800000D02*
G75*
G02*
X130000000Y-98900000I0J-50000D01*
G01*
X130000000Y-98800000D02*
X125000000Y-98800000D01*
X125000000Y-98800000D02*
G75*
G03*
X125000000Y-98900000I0J-50000D01*
G01*
X152500000Y-136900000D02*
X142500000Y-136900000D01*
X142500000Y-137100000D02*
G75*
G02*
X142500000Y-136900000I0J100000D01*
G01*
X142500000Y-137100000D02*
X152500000Y-137100000D01*
X152500000Y-137100000D02*
G75*
G03*
X152500000Y-136900000I0J100000D01*
G01*
X152400000Y-127600000D02*
X152400000Y-137000000D01*
X152600000Y-137000000D02*
G75*
G02*
X152400000Y-137000000I-100000J0D01*
G01*
X152600000Y-137000000D02*
X152600000Y-127600000D01*
X152600000Y-127600000D02*
G75*
G03*
X152400000Y-127600000I-100000J0D01*
G01*
X142600000Y-137000000D02*
X142600000Y-127600000D01*
X142400000Y-127600000D02*
G75*
G02*
X142600000Y-127600000I100000J0D01*
G01*
X142400000Y-127600000D02*
X142400000Y-137000000D01*
X142400000Y-137000000D02*
G75*
G03*
X142600000Y-137000000I100000J0D01*
G01*
X142500000Y-127700000D02*
X152500000Y-127700000D01*
X152500000Y-127500000D02*
G75*
G02*
X152500000Y-127700000I0J-100000D01*
G01*
X152500000Y-127500000D02*
X142500000Y-127500000D01*
X142500000Y-127500000D02*
G75*
G03*
X142500000Y-127700000I0J-100000D01*
G01*
X134500000Y-136900000D02*
X124500000Y-136900000D01*
X124500000Y-137100000D02*
G75*
G02*
X124500000Y-136900000I0J100000D01*
G01*
X124500000Y-137100000D02*
X134500000Y-137100000D01*
X134500000Y-137100000D02*
G75*
G03*
X134500000Y-136900000I0J100000D01*
G01*
X134400000Y-127600000D02*
X134400000Y-137000000D01*
X134600000Y-137000000D02*
G75*
G02*
X134400000Y-137000000I-100000J0D01*
G01*
X134600000Y-137000000D02*
X134600000Y-127600000D01*
X134600000Y-127600000D02*
G75*
G03*
X134400000Y-127600000I-100000J0D01*
G01*
X124600000Y-137000000D02*
X124600000Y-127600000D01*
X124400000Y-127600000D02*
G75*
G02*
X124600000Y-127600000I100000J0D01*
G01*
X124400000Y-127600000D02*
X124400000Y-137000000D01*
X124400000Y-137000000D02*
G75*
G03*
X124600000Y-137000000I100000J0D01*
G01*
X124500000Y-127700000D02*
X134500000Y-127700000D01*
X134500000Y-127500000D02*
G75*
G02*
X134500000Y-127700000I0J-100000D01*
G01*
X134500000Y-127500000D02*
X124500000Y-127500000D01*
X124500000Y-127500000D02*
G75*
G03*
X124500000Y-127700000I0J-100000D01*
G01*
%TO.C,R1*%
X159000000Y-100700000D02*
X158200000Y-100700000D01*
X159000000Y-99100000D02*
X159000000Y-100700000D01*
X158200000Y-100700000D02*
X158200000Y-99100000D01*
X158200000Y-99100000D02*
X159000000Y-99100000D01*
%TO.C,C2*%
X152700000Y-102400000D02*
X151100000Y-102400000D01*
X152700000Y-101600000D02*
X152700000Y-102400000D01*
X151100000Y-102400000D02*
X151100000Y-101600000D01*
X151100000Y-101600000D02*
X152700000Y-101600000D01*
%TO.C,MH1*%
X113100000Y-77000000D02*
G75*
G02*
X109900000Y-77000000I-1600000J0D01*
G01*
X109900000Y-77000000D02*
G75*
G02*
X113100000Y-77000000I1600000J0D01*
G01*
X114700000Y-77000000D02*
G75*
G02*
X108300000Y-77000000I-3200000J0D01*
G01*
X108300000Y-77000000D02*
G75*
G02*
X114700000Y-77000000I3200000J0D01*
G01*
%TO.C,R8*%
X151540000Y-122940000D02*
X149940000Y-122940000D01*
X151540000Y-122140000D02*
X151540000Y-122940000D01*
X149940000Y-122940000D02*
X149940000Y-122140000D01*
X149940000Y-122140000D02*
X151540000Y-122140000D01*
X170300000Y-115700000D02*
X167100000Y-115700000D01*
X167100000Y-115800000D02*
G75*
G02*
X167100000Y-115700000I0J50000D01*
G01*
X167100000Y-115800000D02*
X170300000Y-115800000D01*
X170300000Y-115800000D02*
G75*
G03*
X170300000Y-115700000I0J50000D01*
G01*
X170250000Y-113250000D02*
X170250000Y-115750000D01*
X170350000Y-115750000D02*
G75*
G02*
X170250000Y-115750000I-50000J0D01*
G01*
X170350000Y-115750000D02*
X170350000Y-113250000D01*
X170350000Y-113250000D02*
G75*
G03*
X170250000Y-113250000I-50000J0D01*
G01*
X167150000Y-115750000D02*
X167150000Y-113250000D01*
X167050000Y-113250000D02*
G75*
G02*
X167150000Y-113250000I50000J0D01*
G01*
X167050000Y-113250000D02*
X167050000Y-115750000D01*
X167050000Y-115750000D02*
G75*
G03*
X167150000Y-115750000I50000J0D01*
G01*
X167100000Y-113300000D02*
X170300000Y-113300000D01*
X170300000Y-113200000D02*
G75*
G02*
X170300000Y-113300000I0J-50000D01*
G01*
X170300000Y-113200000D02*
X167100000Y-113200000D01*
X167100000Y-113200000D02*
G75*
G03*
X167100000Y-113300000I0J-50000D01*
G01*
%TO.C,C5*%
X148000000Y-114900000D02*
X147200000Y-114900000D01*
X148000000Y-113300000D02*
X148000000Y-114900000D01*
X147200000Y-114900000D02*
X147200000Y-113300000D01*
X147200000Y-113300000D02*
X148000000Y-113300000D01*
%TD*%
X164705000Y-98555000D02*
X170295000Y-111145000D01*
X164705000Y-111145000D02*
X170295000Y-98555000D01*
X149977500Y-74225000D02*
X153027500Y-75775000D01*
X149977500Y-75775000D02*
X153027500Y-74225000D01*
X166205000Y-120175000D02*
X171195000Y-123425000D01*
X166205000Y-123425000D02*
X171195000Y-120175000D01*
X111955000Y-104455000D02*
X119445000Y-109945000D01*
X111955000Y-109945000D02*
X119445000Y-104455000D01*
X172486000Y-109112500D02*
X191314000Y-127287500D01*
X172486000Y-127287500D02*
X191314000Y-109112500D01*
X148855000Y-91555000D02*
X156145000Y-100445000D01*
X148855000Y-100445000D02*
X156145000Y-91555000D01*
X133305000Y-113995000D02*
X144495000Y-121085000D01*
X133305000Y-121085000D02*
X144495000Y-113995000D01*
X106830000Y-113555000D02*
X123570000Y-123645000D01*
X106830000Y-123645000D02*
X123570000Y-113555000D01*
X171980000Y-82755000D02*
X188645000Y-98245000D01*
X171980000Y-98245000D02*
X188645000Y-82755000D01*
X159505000Y-126005000D02*
X171495000Y-137595000D01*
X159505000Y-137595000D02*
X171495000Y-126005000D01*
X149305000Y-113995000D02*
X160495000Y-121085000D01*
X149305000Y-121085000D02*
X160495000Y-113995000D01*
X124705000Y-98555000D02*
X130295000Y-111145000D01*
X124705000Y-111145000D02*
X130295000Y-98555000D01*
X141505000Y-126005000D02*
X153495000Y-137595000D01*
X141505000Y-137595000D02*
X153495000Y-126005000D01*
X123505000Y-126005000D02*
X135495000Y-137595000D01*
X123505000Y-137595000D02*
X135495000Y-126005000D01*
X166205000Y-112875000D02*
X171195000Y-116125000D01*
X166205000Y-116125000D02*
X171195000Y-112875000D01*
M02*
